<svg width="50" height="50" viewBox="0 0 50 50" fill="none" xmlns="http://www.w3.org/2000/svg">
<circle cx="25" cy="25" r="25" fill="#FFE2D1"/>
<g clip-path="url(#clip0)">
<path d="M30.1849 27.4289C30.1849 27.4289 17.1219 41.9747 14.3808 38.9135C13.8319 38.3008 13.6142 37.3294 13.648 36.1297C13.6878 35.2164 13.8184 34.3102 14.0378 33.4251L14.2312 32.653C14.7288 30.8731 15.359 29.1356 16.1162 27.4556C16.2303 27.1957 16.3471 26.9354 16.467 26.6775C16.9476 25.6313 17.4586 24.6182 17.9721 23.68C18.1684 23.3269 18.3632 22.9826 18.5541 22.6506C19.0755 21.7357 19.6473 20.8521 20.2668 20.004C23.5555 15.5991 28.4359 18.791 28.4359 18.791C29.1604 19.3944 29.8234 20.0713 30.4148 20.8112C33.6783 25.03 30.1849 27.4289 30.1849 27.4289Z" fill="#EB5D0E"/>
<path d="M28.978 19.341C29.583 19.8557 29.7659 20.65 29.3883 21.114C29.0106 21.5779 28.2155 21.534 27.6129 21.016C27.0103 20.4981 26.8249 19.707 27.2003 19.2463C27.5756 18.7856 28.373 18.8262 28.978 19.341Z" fill="#E26B30"/>
<path d="M28.7703 10.613C28.7703 10.613 24.3728 10.9767 28.2107 20.6814C28.2107 20.6814 33.1696 10.2605 28.7703 10.613Z" fill="#5C7026"/>
<path d="M36.3285 13.361C36.3285 13.361 33.3486 10.9572 28.1936 20.6666C28.1936 20.6666 39.3079 15.762 36.3285 13.361Z" fill="#5C7026"/>
<path d="M32.4365 9.05315C32.4365 9.05315 28.0702 8.20026 28.1902 20.6757C28.1898 20.6728 36.8027 9.90604 32.4365 9.05315Z" fill="#677F2E"/>
</g>
<defs>
<clipPath id="clip0">
<rect width="26.266" height="27.5394" fill="white" transform="translate(10 12.3271) rotate(-8.44655)"/>
</clipPath>
</defs>
</svg>
