<svg width="209" height="169" viewBox="0 0 209 169" fill="none" xmlns="http://www.w3.org/2000/svg">
<path d="M19 152L192 152" stroke="#CACACA" stroke-width="2" stroke-linecap="round"/>
<g clip-path="url(#clip0)">
<path d="M101 75.4486C101 76.921 100.421 78.333 99.3891 79.3741C98.3576 80.4152 96.9587 81.0001 95.5 81.0001C94.0413 81.0001 92.6424 80.4152 91.6109 79.3741C90.5795 78.333 90 76.921 90 75.4486C90 72.3834 95.5 66.0032 95.5 66.0032C95.5 66.0032 101 72.3865 101 75.4486Z" fill="#E8E8E8"/>
</g>
<g clip-path="url(#clip1)">
<path d="M127 52.4486C127 53.921 126.421 55.333 125.389 56.3741C124.358 57.4152 122.959 58.0001 121.5 58.0001C120.041 58.0001 118.642 57.4152 117.611 56.3741C116.579 55.333 116 53.921 116 52.4486C116 49.3834 121.5 43.0032 121.5 43.0032C121.5 43.0032 127 49.3865 127 52.4486Z" fill="#E8E8E8"/>
</g>
<g clip-path="url(#clip2)">
<path d="M95 26.4486C95 27.921 94.4205 29.333 93.3891 30.3741C92.3576 31.4152 90.9587 32.0001 89.5 32.0001C88.0413 32.0001 86.6424 31.4152 85.6109 30.3741C84.5795 29.333 84 27.921 84 26.4486C84 23.3834 89.5 17.0032 89.5 17.0032C89.5 17.0032 95 23.3865 95 26.4486Z" fill="#E8E8E8"/>
</g>
<g clip-path="url(#clip3)">
<path d="M131.998 124.895C130.735 126.235 129.216 127.31 127.532 128.059C125.848 128.808 124.031 129.215 122.188 129.257C118.586 129.361 115.085 128.072 112.414 125.659C111.231 124.337 110.156 122.922 109.2 121.428C108.317 119.625 107.832 117.654 107.78 115.649C107.728 113.809 108.041 111.978 108.702 110.259C109.362 108.541 110.358 106.971 111.63 105.638C124.71 91.9175 150.087 99.4675 161 103.625C150.285 109.17 140.5 116.346 131.998 124.895V124.895Z" fill="#DDDDDD"/>
<path d="M50 101.854C60.9131 97.6781 86.3089 90.1282 99.371 103.867C100.643 105.195 101.638 106.763 102.295 108.478C102.953 110.194 103.261 112.023 103.202 113.859C103.154 115.865 102.67 117.837 101.782 119.638C100.831 121.142 99.7551 122.563 98.5672 123.888C95.9067 126.305 92.409 127.595 88.8127 127.486C86.9695 127.443 85.1534 127.034 83.4694 126.286C81.7854 125.537 80.2669 124.462 79.0021 123.124C70.5046 114.57 60.7191 107.393 50 101.854V101.854Z" fill="#DDDDDD"/>
<path d="M87.4111 111C87.4111 111 105.612 118.867 104.865 151.509" stroke="#CACACA" stroke-width="2" stroke-linecap="round" stroke-linejoin="round"/>
<path d="M103.688 136.427C103.688 136.427 106.603 115.492 125.439 112.193" stroke="#CACACA" stroke-width="2" stroke-linecap="round" stroke-linejoin="round"/>
</g>
<defs>
<clipPath id="clip0">
<rect width="11" height="15" fill="white" transform="translate(90 66)"/>
</clipPath>
<clipPath id="clip1">
<rect width="11" height="15" fill="white" transform="translate(116 43)"/>
</clipPath>
<clipPath id="clip2">
<rect width="11" height="15" fill="white" transform="translate(84 17)"/>
</clipPath>
<clipPath id="clip3">
<rect width="111" height="56" fill="white" transform="translate(50 96)"/>
</clipPath>
</defs>
</svg>
