<svg width="107" height="98" viewBox="0 0 107 98" fill="none" xmlns="http://www.w3.org/2000/svg">
<path d="M106 36.684H1V96.684H106V36.684Z" fill="#E3EFFF" stroke="#0E74FF" stroke-linecap="round" stroke-linejoin="round"/>
<path d="M53.5065 0.68396L79.7597 18.6774L106 36.684H53.5065H1L27.2532 18.6774L53.5065 0.68396Z" fill="#E3EFFF" stroke="#0E74FF" stroke-linecap="round" stroke-linejoin="round"/>
<g clip-path="url(#clip0_2314_7441)">
<path d="M81.4843 30.4927H25.5156V45.3014H81.4843V30.4927Z" fill="#4694FF" stroke="#EB5D0E" stroke-linecap="round" stroke-linejoin="round"/>
<path d="M77.9882 45.3015H29.0117V76.1618H77.9882V45.3015Z" fill="#4694FF" stroke="#EB5D0E" stroke-linecap="round" stroke-linejoin="round"/>
<path d="M60.0332 76.1722V30.5032H46.9666V76.1722H60.0332Z" fill="#FF8845" stroke="#EB5D0E" stroke-linecap="round" stroke-linejoin="round"/>
<path d="M50.7206 17.4489C53.3195 19.4854 58.3625 26.7958 56.4134 29.4484C54.4642 32.101 46.1004 29.1142 43.5015 27.0778C42.8198 26.6203 42.2381 26.0261 41.7921 25.332C41.3462 24.6378 41.0455 23.8584 40.9087 23.042C40.7719 22.2255 40.8019 21.3894 40.9968 20.5851C41.1918 19.7809 41.5474 19.0257 42.0419 18.3662C42.5364 17.7066 43.1592 17.1567 43.8718 16.7505C44.5845 16.3443 45.3718 16.0904 46.1851 16.0044C46.9985 15.9184 47.8206 16.0022 48.6007 16.2507C49.3808 16.4992 50.1023 16.907 50.7206 17.4489V17.4489Z" stroke="#EB5D0E" stroke-linecap="round" stroke-linejoin="round"/>
<path d="M56.2793 17.4489C53.6494 19.5376 48.627 26.7853 50.6381 29.4484C52.6491 32.1115 60.9511 29.1142 63.5499 27.0778C64.8109 26.1014 65.6371 24.6578 65.847 23.0645C66.0568 21.4713 65.6331 19.8589 64.6689 18.582C63.7048 17.3052 62.2792 16.4685 60.7058 16.256C59.1325 16.0435 57.5402 16.4726 56.2793 17.4489V17.4489Z" stroke="#EB5D0E" stroke-linecap="round" stroke-linejoin="round"/>
</g>
<path d="M45 66.684L23 81.684L1 96.684V66.684V36.684L23 51.684L45 66.684Z" fill="white" stroke="#0E74FF" stroke-linecap="round" stroke-linejoin="round"/>
<path d="M62 66.684L84 51.684L106 36.684V66.684V96.684L84 81.684L62 66.684Z" fill="white" stroke="#0E74FF" stroke-linecap="round" stroke-linejoin="round"/>
<path d="M45.2529 66.684L1 96.684H106L61.7471 66.684H45.2529Z" fill="white" stroke="#0E74FF" stroke-linecap="round" stroke-linejoin="round"/>
<g clip-path="url(#clip1_2314_7441)">
<path d="M47.5753 88.9128L52.6509 85.3768C52.8362 85.2497 53.0587 85.1814 53.287 85.1814C53.5153 85.1814 53.7378 85.2497 53.9232 85.3768L59.4183 89.0032C59.5828 89.1132 59.7757 89.1779 59.9761 89.1904C60.1765 89.2029 60.3767 89.1627 60.5547 89.0741C60.7328 88.9856 60.8818 88.8522 60.9858 88.6883C61.0897 88.5245 61.1445 88.3365 61.1441 88.145V76.5625C61.1441 76.2835 61.0278 76.016 60.821 75.8187C60.6141 75.6215 60.3335 75.5107 60.041 75.5107H46.9257C46.6343 75.5124 46.3555 75.6239 46.1501 75.8209C45.9446 76.018 45.8294 76.2846 45.8294 76.5625V88.0483C45.8249 88.2435 45.8779 88.4361 45.9823 88.604C46.0867 88.772 46.2384 88.9087 46.4201 88.9987C46.6019 89.0887 46.8064 89.1284 47.0106 89.1132C47.2148 89.098 47.4104 89.0286 47.5753 88.9128Z" fill="#4694FF"/>
<path d="M67.9932 64.4831C67.9932 72.082 61.5256 78.2822 53.4966 78.2822C45.4676 78.2822 39 72.082 39 64.4831C39 56.8842 45.4676 50.684 53.4966 50.684C61.5256 50.684 67.9932 56.8842 67.9932 64.4831Z" fill="#FFDD7E" stroke="#4694FF"/>
</g>
<defs>
<clipPath id="clip0_2314_7441">
<rect width="57" height="61" fill="white" transform="translate(25 15.684)"/>
</clipPath>
<clipPath id="clip1_2314_7441">
<rect width="30" height="39" fill="white" transform="translate(38.5 50.184)"/>
</clipPath>
</defs>
</svg>
