<svg width="120" height="36" viewBox="0 0 120 36" fill="none" xmlns="http://www.w3.org/2000/svg">
<rect x="0.5" y="0.5" width="119" height="35" rx="17.5" fill="white" stroke="#EB5D0E"/>
<path d="M54.3013 11.8619H52.7736V18.0691H54.3013V15.6036H56.0271V14.3467H54.3013V11.8619ZM47.9732 17.808C49.8489 17.8128 51.2412 16.6575 51.246 15.038C51.2412 13.3992 49.8489 12.268 47.9732 12.2631C46.0879 12.268 44.6763 13.3992 44.6859 15.038C44.6763 16.6575 46.0879 17.8128 47.9732 17.808ZM46.17 15.038C46.1604 14.105 46.9242 13.5007 47.9732 13.5055C49.0077 13.5007 49.7667 14.105 49.7716 15.038C49.7667 15.9807 49.0077 16.5994 47.9732 16.5994C46.9242 16.5994 46.1604 15.9807 46.17 15.038ZM54.3013 21.8398V18.596H46.2135V19.7756H52.7833V20.7327H46.2329V24.0635H54.688V22.8598H47.7315V21.8398H54.3013ZM65.4147 19.1954H66.9375V11.8715H65.4147V19.1954ZM64.1868 17.1119C62.4223 17.4019 60.9043 17.4648 58.7917 17.4599V16.1789H62.9782V12.5919H57.2786V13.7956H61.4748V15.009H57.3028V18.7072H58.3567C60.7496 18.712 62.4271 18.6492 64.3801 18.3349L64.1868 17.1119ZM66.9375 24.0635V19.7756H58.7434V24.0635H66.9375ZM65.4485 20.989V22.8356H60.242V20.989H65.4485ZM81.8227 11.8619H80.2951V19.0698H81.8227V15.9807H83.5486V14.7334H81.8227V11.8619ZM76.8773 12.5773V14.2597H73.9961V12.5773H72.4926V18.4123H78.3952V12.5773H76.8773ZM73.9961 17.2086V15.4441H76.8773V17.2086H73.9961ZM81.8952 20.8778V19.6692H73.8511V24.0442H82.1273V22.8356H75.369V20.8778H81.8952ZM92.9555 24.2086H94.488V11.8619H92.9555V24.2086ZM84.8823 13.172V14.3757H89.2573C88.9866 17.1892 87.488 19.2728 84.2538 20.8101L85.0515 22.0283C89.3733 19.9738 90.7994 16.8508 90.8043 13.172H84.8823Z" fill="#EB5D0E"/>
<path fill-rule="evenodd" clip-rule="evenodd" d="M36.0876 21.6251H35.5001V17.2501C35.5001 14.4886 33.2615 12.2501 30.5001 12.2501C27.7387 12.2501 25.5001 14.4886 25.5001 17.2501V21.6251H24.9438C24.5987 21.6251 24.3188 21.9049 24.3188 22.2501C24.3188 22.5952 24.5987 22.8751 24.9438 22.8751H28.6251C28.6251 23.9106 29.4646 24.7501 30.5001 24.7501C31.5356 24.7501 32.3751 23.9106 32.3751 22.8751H36.0876C36.4328 22.8751 36.7126 22.5952 36.7126 22.2501C36.7126 21.9049 36.4328 21.6251 36.0876 21.6251ZM30.5 23.5001C30.1548 23.5001 29.875 23.2203 29.875 22.8751H31.125C31.125 23.2203 30.8452 23.5001 30.5 23.5001ZM26.7501 21.6251H31.7501H34.2501V17.2501C34.2501 15.1791 32.5712 13.5001 30.5001 13.5001C28.4291 13.5001 26.7501 15.1791 26.7501 17.2501V21.6251Z" fill="#EB5D0E"/>
</svg>
