<svg width="120" height="36" viewBox="0 0 120 36" fill="none" xmlns="http://www.w3.org/2000/svg">
<rect width="120" height="36" rx="18" fill="#FFE9DC"/>
<path d="M45.5903 11.8619H44.0627V18.0691H45.5903V15.6036H47.3161V14.3467H45.5903V11.8619ZM39.2623 17.808C41.138 17.8128 42.5302 16.6575 42.5351 15.038C42.5302 13.3992 41.138 12.268 39.2623 12.2631C37.3769 12.268 35.9653 13.3992 35.975 15.038C35.9653 16.6575 37.3769 17.8128 39.2623 17.808ZM37.4591 15.038C37.4494 14.105 38.2132 13.5007 39.2623 13.5055C40.2968 13.5007 41.0558 14.105 41.0606 15.038C41.0558 15.9807 40.2968 16.5994 39.2623 16.5994C38.2132 16.5994 37.4494 15.9807 37.4591 15.038ZM45.5903 21.8398V18.596H37.5026V19.7756H44.0724V20.7327H37.5219V24.0635H45.9771V22.8598H39.0206V21.8398H45.5903ZM56.7037 19.1954H58.2265V11.8715H56.7037V19.1954ZM55.4758 17.1119C53.7113 17.4019 52.1934 17.4648 50.0808 17.4599V16.1789H54.2673V12.5919H48.5677V13.7956H52.7638V15.009H48.5919V18.7072H49.6457C52.0387 18.712 53.7162 18.6492 55.6692 18.3349L55.4758 17.1119ZM58.2265 24.0635V19.7756H50.0325V24.0635H58.2265ZM56.7376 20.989V22.8356H51.5311V20.989H56.7376ZM73.1118 11.8619H71.5842V19.0698H73.1118V15.9807H74.8376V14.7334H73.1118V11.8619ZM68.1664 12.5773V14.2597H65.2851V12.5773H63.7817V18.4123H69.6843V12.5773H68.1664ZM65.2851 17.2086V15.4441H68.1664V17.2086H65.2851ZM73.1843 20.8778V19.6692H65.1401V24.0442H73.4164V22.8356H66.6581V20.8778H73.1843ZM78.4193 15.3522V12.3066H76.9062V16.5559H85.4725V15.3522H78.4193ZM75.4462 19.1954H86.7439V17.9965H75.4462V19.1954ZM76.8046 20.288V23.9282H85.5498V22.6954H78.3226V20.288H76.8046ZM91.9413 16.9669C94.1892 16.7396 95.8329 15.8453 96.5 14.5932C97.172 15.8501 98.8349 16.7396 101.078 16.9669L101.615 15.768C99.2894 15.5552 97.8197 14.6367 97.5732 13.6167H101.131V12.4033H91.9123V13.6167H95.4413C95.1851 14.6319 93.6961 15.5552 91.424 15.768L91.9413 16.9669ZM102.142 17.5276H90.8826V18.7555H95.7507V19.7997C93.5076 19.9351 92.1927 20.7037 92.1927 21.9945C92.1927 23.4109 93.8025 24.2037 96.4952 24.1989C99.1588 24.2037 100.773 23.4109 100.778 21.9945C100.773 20.7086 99.4634 19.9448 97.259 19.8046V18.7555H102.142V17.5276ZM99.2604 21.9945C99.2507 22.6713 98.2693 23.0483 96.4952 23.0387C94.7017 23.0483 93.73 22.6713 93.7396 21.9945C93.73 21.3032 94.7017 20.9454 96.4952 20.9358C98.2693 20.9454 99.2507 21.3032 99.2604 21.9945Z" fill="#EB5D0E"/>
<path fill-rule="evenodd" clip-rule="evenodd" d="M23.5 24.7501C20.0482 24.7501 17.25 21.9518 17.25 18.5001C17.25 15.0483 20.0482 12.2501 23.5 12.2501C25.1576 12.2501 26.7473 12.9085 27.9194 14.0806C29.0915 15.2527 29.75 16.8425 29.75 18.5001C29.75 21.9518 26.9518 24.7501 23.5 24.7501ZM26.4438 16.1812C26.5621 16.2986 26.6287 16.4584 26.6287 16.625C26.6287 16.7916 26.5621 16.9514 26.4438 17.0687L22.6938 20.8187C22.5765 20.9371 22.4167 21.0036 22.2501 21.0036C22.0834 21.0036 21.9237 20.9371 21.8063 20.8187L20.5563 19.5687C20.3978 19.4102 20.3359 19.1791 20.3939 18.9626C20.4519 18.746 20.6211 18.5769 20.8376 18.5188C21.0542 18.4608 21.2853 18.5227 21.4438 18.6812L22.2501 19.4937L25.5563 16.1812C25.6737 16.0629 25.8334 15.9964 26.0001 15.9964C26.1667 15.9964 26.3265 16.0629 26.4438 16.1812ZM23.5001 13.5001C26.2615 13.5001 28.5001 15.7387 28.5001 18.5001C28.5001 19.8262 27.9733 21.098 27.0356 22.0357C26.0979 22.9733 24.8261 23.5001 23.5001 23.5001C20.7386 23.5001 18.5001 21.2615 18.5001 18.5001C18.5001 15.7387 20.7386 13.5001 23.5001 13.5001Z" fill="#EB5D0E"/>
</svg>
