<svg width="157" height="75" viewBox="0 0 157 75" fill="none" xmlns="http://www.w3.org/2000/svg">
<g clip-path="url(#clip0_1424:3588)">
<path d="M156.22 10.0901C155.829 8.78008 155.145 7.5763 154.22 6.57008C153.227 5.54059 152.013 4.75063 150.67 4.26008C149.702 3.91374 148.694 3.69196 147.67 3.60008C145.418 3.36013 143.149 3.84348 141.19 4.98008L141.08 5.04008C140.835 4.77511 140.574 4.52468 140.3 4.29008C139.206 3.38636 137.925 2.73733 136.55 2.39008C135.527 2.13167 134.483 1.96435 133.43 1.89008C130.72 1.69008 128.01 1.49008 125.3 1.32008C124.252 1.22225 123.198 1.22225 122.15 1.32008C120.757 1.46283 119.411 1.91004 118.21 2.63008C117.741 2.91956 117.303 3.25451 116.9 3.63008L116.66 3.40008C114.949 1.85715 112.752 0.962021 110.45 0.870085C108.795 0.801601 107.149 1.14522 105.66 1.87009C104.236 1.051 102.632 0.597488 100.99 0.550085C99.2516 0.492075 97.5283 0.888448 95.99 1.70008C95.65 1.56008 95.31 1.43008 94.99 1.32008C93.7539 0.949431 92.4704 0.760787 91.1799 0.760085C88.9399 0.706751 86.7 0.673412 84.46 0.660078C83.1067 0.618784 81.7558 0.797792 80.46 1.19008C79.8475 1.38322 79.2575 1.64136 78.6999 1.96008C77.0312 0.797355 75.0438 0.179117 73.0099 0.190085C71.3647 0.193322 69.7461 0.605696 68.2999 1.39008C66.8439 0.682879 65.2379 0.33972 63.6199 0.390082C61.3029 0.420489 59.0699 1.26272 57.3099 2.77008C56.4721 3.49439 55.7914 4.38264 55.3099 5.38008C54.8445 4.63064 54.2641 3.9591 53.5899 3.39008C52.4948 2.48148 51.2046 1.8381 49.82 1.51008C48.8036 1.27969 47.7611 1.18553 46.7199 1.23008C44.3691 1.30219 42.1139 2.17744 40.3299 3.71008L40.1699 3.87009C39.2431 3.18535 38.1945 2.68309 37.0799 2.39008C35.7929 2.04902 34.4575 1.92731 33.13 2.03008C25.6633 2.49008 18.2 3.06342 10.74 3.75008C9.33824 3.84139 7.96373 4.17994 6.67995 4.75008C5.13918 5.4395 3.83759 6.57056 2.93995 8.00008C2.24907 9.12459 1.84713 10.4026 1.76995 11.7201C1.73383 12.387 1.75055 13.0558 1.81995 13.7201C2.04995 15.8501 2.26995 17.9701 2.49995 20.1001C2.49995 20.3501 2.55995 20.6001 2.59995 20.8501C2.34369 21.1157 2.10327 21.3962 1.87995 21.6901C1.04744 22.8008 0.523088 24.1116 0.359947 25.4901C0.27992 26.2212 0.27992 26.9589 0.359947 27.6901C0.435952 28.4597 0.600375 29.2181 0.849952 29.9501C1.29962 31.2526 2.0781 32.4169 3.10995 33.3301L3.42995 33.6001C3.24583 34.8654 3.22231 36.1489 3.35995 37.4201C3.51094 38.8593 3.88544 40.2662 4.46995 41.5901C5.14681 43.1377 6.17378 44.507 7.46995 45.5901C8.8073 46.6751 10.3625 47.4595 12.0299 47.8901C13.7667 48.3303 15.5651 48.4756 17.35 48.3201C22.7833 47.8401 28.2166 47.4234 33.65 47.0701H33.85C37.6033 46.6968 40.5066 45.4567 42.5599 43.3501C43.3171 43.8556 44.1465 44.2434 45.02 44.5001C46.2407 44.8312 47.5076 44.9596 48.77 44.8801C50.8699 44.7867 52.9766 44.7067 55.0899 44.6401C56.3025 44.6199 57.5054 44.4211 58.66 44.0501L59.1999 43.8601C59.9429 44.3556 60.7597 44.7303 61.6199 44.9701C62.5558 45.2378 63.5268 45.3626 64.4999 45.3401C65.468 45.3171 66.4278 45.1555 67.35 44.8601C67.8688 44.6856 68.3708 44.4647 68.85 44.2001C69.3466 44.4538 69.8654 44.6613 70.4 44.8201C71.3348 45.0964 72.3051 45.2345 73.2799 45.2301C74.2465 45.2159 75.2061 45.0644 76.13 44.7801C77.1927 44.4433 78.1783 43.8995 79.0299 43.1801C79.425 43.3923 79.8363 43.5729 80.2599 43.7201C81.4623 44.1199 82.723 44.3159 83.99 44.3001C86.35 44.3001 88.7099 44.3334 91.0699 44.4001C92.2693 44.4439 93.4686 44.3125 94.63 44.0101C95.2742 44.4371 95.9741 44.7736 96.7099 45.0101C97.6297 45.3191 98.5901 45.491 99.56 45.5201C100.528 45.5498 101.495 45.4352 102.43 45.1801C102.984 45.0364 103.521 44.8318 104.03 44.5701C104.525 44.8726 105.051 45.1207 105.6 45.3101C106.517 45.6339 107.478 45.8192 108.45 45.8601C109.419 45.9025 110.39 45.8014 111.33 45.5601C112.206 45.3269 113.04 44.9556 113.8 44.4601C114.339 44.7869 114.908 45.0615 115.5 45.2801C116.645 45.6772 117.84 45.9095 119.05 45.9701C124.19 46.2834 129.33 46.6501 134.47 47.0701C135.675 47.1896 136.891 47.1323 138.08 46.9001L138.74 46.7401C139.319 47.1389 139.939 47.4742 140.59 47.7401C141.485 48.0719 142.42 48.2837 143.37 48.3701C144.327 48.467 145.292 48.4333 146.24 48.2701C147.583 48.0427 148.856 47.5089 149.96 46.7101C151.037 45.908 151.93 44.8852 152.58 43.7101C153.226 42.5004 153.627 41.1751 153.76 39.8101L156.58 14.1901C156.743 12.8132 156.621 11.4174 156.22 10.0901Z" fill="white" stroke="#D89573" stroke-width="0.5" stroke-linecap="round" stroke-linejoin="round"/>
<path d="M26.66 20.6299L26.81 22.8499C30.52 22.5799 34.22 22.3499 37.92 22.1399C38.4508 22.0896 38.9863 22.137 39.5 22.2799C39.844 22.3787 40.1617 22.553 40.43 22.7899C40.6447 22.9989 40.8 23.2612 40.88 23.5499C40.9557 23.8243 41.0026 24.1058 41.02 24.3899C41.043 24.7241 41.0263 25.0597 40.97 25.3899C40.9219 25.6854 40.794 25.962 40.6 26.1899C40.371 26.4552 40.0735 26.6524 39.74 26.7599C39.2401 26.9296 38.7177 27.024 38.19 27.0399C28.7766 27.5732 19.3733 28.2899 9.97996 29.1899C9.4596 29.2689 8.93032 29.2689 8.40996 29.1899C8.06337 29.1285 7.73912 28.9767 7.46996 28.7499C7.24653 28.5568 7.07758 28.3086 6.97996 28.0299C6.88277 27.7039 6.81912 27.3688 6.78997 27.0299C6.76011 26.744 6.76011 26.4558 6.78997 26.1699C6.8313 25.8768 6.94467 25.5985 7.11996 25.3599C7.3506 25.086 7.63697 24.8644 7.95997 24.7099C8.44749 24.4952 8.96853 24.3667 9.49996 24.3299C13.16 23.9833 16.8266 23.6499 20.5 23.3299L20.32 21.1099C17.6533 21.3299 14.9866 21.5599 12.32 21.7999C11.7435 21.8906 11.1564 21.8906 10.58 21.7999C10.2028 21.7477 9.85231 21.576 9.57996 21.3099C9.35546 21.087 9.19635 20.8069 9.11996 20.4999C9.03608 20.1713 8.97594 19.8371 8.93996 19.4999L8.32996 13.1199C8.30065 12.7672 8.30065 12.4126 8.32996 12.0599C8.35315 11.7333 8.45617 11.4174 8.62997 11.1399C8.84318 10.8222 9.146 10.5751 9.49996 10.4299C10.0509 10.206 10.6359 10.0775 11.23 10.0499C18.6166 9.38325 26.0166 8.81325 33.43 8.33991C33.9791 8.26827 34.5362 8.28516 35.08 8.38992C35.4315 8.47966 35.757 8.65096 36.03 8.88992C36.2495 9.09675 36.4085 9.3595 36.49 9.64992C36.5714 9.95741 36.6217 10.2723 36.64 10.5899C36.6582 10.8676 36.6414 11.1464 36.59 11.4199C36.538 11.7081 36.4103 11.9774 36.22 12.1999C35.979 12.4724 35.6777 12.6848 35.34 12.8199C34.8402 13.0205 34.3083 13.1289 33.77 13.1399C27.51 13.5199 21.2533 13.9866 15 14.5399L15.18 16.5999C21.42 16.0599 27.6566 15.5966 33.89 15.2099C34.4268 15.1624 34.9678 15.2063 35.49 15.3399C35.8425 15.4461 36.1647 15.6346 36.43 15.8899C36.6444 16.1126 36.8021 16.3835 36.89 16.6799C36.968 16.9401 37.015 17.2087 37.03 17.4799C37.0694 17.8121 37.0694 18.1477 37.03 18.4799C36.9845 18.7821 36.8564 19.0659 36.66 19.2999C36.4253 19.5678 36.1257 19.771 35.79 19.8899C35.2951 20.0821 34.7707 20.187 34.24 20.1999C31.6866 20.3266 29.16 20.4699 26.66 20.6299ZM16.79 42.0499C15.7543 42.1414 14.7107 42.0637 13.7 41.8199C12.9207 41.6244 12.1915 41.2666 11.56 40.7699C11.008 40.3014 10.5703 39.7131 10.28 39.0499C9.96752 38.3224 9.77504 37.549 9.70997 36.7599C9.62442 35.9668 9.65136 35.1655 9.78997 34.3799C9.91385 33.669 10.2167 33.0014 10.67 32.4399C11.1924 31.8211 11.8538 31.3346 12.6 31.0199C13.6255 30.5918 14.7122 30.3285 15.82 30.2399C21.34 29.7532 26.8633 29.3299 32.39 28.9699C33.4962 28.8705 34.6113 28.955 35.69 29.2199C36.4787 29.4191 37.2088 29.803 37.82 30.3399C38.351 30.8375 38.7497 31.4596 38.98 32.1499C39.2371 32.905 39.3853 33.693 39.42 34.4899C39.5661 36.0162 39.1224 37.5405 38.18 38.7499C37.26 39.8899 35.61 40.5599 33.23 40.7499C27.75 41.1299 22.27 41.5633 16.79 42.0499ZM31.21 36.3499C31.7666 36.3479 32.3148 36.2142 32.81 35.9599C32.9769 35.8325 33.1055 35.6614 33.1813 35.4655C33.2572 35.2696 33.2775 35.0566 33.24 34.8499C33.2402 34.648 33.1877 34.4496 33.0877 34.2742C32.9878 34.0989 32.8438 33.9526 32.67 33.8499C32.144 33.6661 31.5824 33.6078 31.03 33.6799C26.6433 33.9732 22.26 34.3066 17.88 34.6799C17.3245 34.6943 16.7801 34.8381 16.29 35.0999C16.1249 35.2305 15.9992 35.4043 15.9268 35.602C15.8544 35.7997 15.8382 36.0136 15.88 36.2199C15.8807 36.4252 15.9368 36.6264 16.0424 36.8024C16.148 36.9785 16.2992 37.1227 16.48 37.2199C16.9925 37.4015 17.5407 37.4598 18.08 37.3899C22.4733 36.9832 26.85 36.6499 31.21 36.3899V36.3499Z" fill="#EB5D0E"/>
<path d="M51.01 33.2699L54.7 33.1399C55.2986 33.0993 55.8999 33.1567 56.48 33.3099C56.8803 33.4083 57.253 33.5964 57.57 33.8599C57.8263 34.0725 58.017 34.3533 58.12 34.6699C58.2112 34.9688 58.2649 35.2778 58.28 35.5899C58.2868 35.9266 58.2498 36.2627 58.17 36.5899C58.0864 36.9094 57.9169 37.1999 57.68 37.4299C57.3737 37.7035 57.0122 37.9081 56.62 38.0299C56.052 38.1995 55.4627 38.2871 54.87 38.2899L48.49 38.5299C47.9228 38.5764 47.3518 38.5291 46.8 38.3899C46.4255 38.3109 46.0797 38.1311 45.8 37.8699C45.578 37.6482 45.4251 37.3668 45.36 37.0599C45.2884 36.7311 45.2482 36.3963 45.24 36.0599C44.8533 27.6866 44.46 19.3199 44.06 10.9599C43.9857 10.4926 44.0152 10.0147 44.1466 9.56013C44.278 9.10556 44.5079 8.68553 44.82 8.32992C45.4141 7.82944 46.1633 7.55027 46.94 7.53992C47.3394 7.52047 47.7395 7.5541 48.13 7.63992C48.4965 7.72432 48.8387 7.89199 49.13 8.12991C49.4416 8.39885 49.6792 8.74312 49.82 9.12991C50.0164 9.63016 50.1181 10.1625 50.12 10.6999L51.01 33.2699ZM61.3 23.8199L57.21 23.9199C56.6192 23.9531 56.0267 23.9026 55.45 23.7699C55.0618 23.6739 54.6997 23.4929 54.39 23.2399C54.1497 23.0172 53.9735 22.734 53.88 22.4199C53.7885 22.0941 53.7381 21.7582 53.73 21.4199C53.7227 21.1079 53.7495 20.7961 53.81 20.4899C53.8773 20.1685 54.0413 19.8754 54.28 19.6499C54.5627 19.3709 54.9044 19.159 55.28 19.0299C55.8473 18.8405 56.4419 18.7459 57.04 18.7499L61.16 18.6399C61.1 15.7699 61.03 12.9099 60.96 10.0399C60.8928 9.57435 60.9296 9.09966 61.068 8.65006C61.2063 8.20045 61.4426 7.78715 61.76 7.43992C62.3135 6.95663 63.0252 6.69331 63.76 6.69991C64.4641 6.68539 65.1508 6.91903 65.7 7.35992C66.0292 7.69614 66.2805 8.10063 66.436 8.54475C66.5916 8.98887 66.6475 9.46176 66.6 9.92992C66.7267 18.5166 66.86 27.1066 67 35.6999C67.0232 36.2512 66.9522 36.8025 66.79 37.3299C66.6744 37.7005 66.4799 38.0416 66.22 38.3299C65.9885 38.5831 65.6958 38.7725 65.37 38.8799C65.0457 38.9809 64.7094 39.0381 64.37 39.0499C64.0324 39.0503 63.6963 39.0066 63.37 38.9199C63.0395 38.8242 62.7374 38.6491 62.49 38.4099C62.2229 38.1199 62.0157 37.7801 61.88 37.4099C61.7013 36.8885 61.6101 36.3411 61.61 35.7899C61.5033 31.7966 61.4 27.8066 61.3 23.8199ZM70.21 9.81992C70.1517 9.35382 70.1958 8.88062 70.3391 8.4333C70.4825 7.98598 70.7217 7.5753 71.04 7.22991C71.5979 6.75746 72.3091 6.50499 73.04 6.51991C73.7478 6.51384 74.435 6.75825 74.98 7.20992C75.3052 7.54961 75.551 7.95721 75.6997 8.40334C75.8484 8.84948 75.8963 9.32304 75.84 9.78992C75.84 18.3766 75.8633 26.9666 75.91 35.5599C75.9228 36.1089 75.8451 36.6562 75.68 37.1799C75.5562 37.5512 75.3551 37.892 75.09 38.1799C74.8557 38.4275 74.5637 38.613 74.24 38.7199C73.9158 38.8186 73.5789 38.8692 73.24 38.8699C72.9017 38.871 72.565 38.8239 72.24 38.7299C71.9138 38.6326 71.6177 38.4536 71.38 38.2099C71.1082 37.9253 70.9033 37.5837 70.78 37.2099C70.605 36.6881 70.5204 36.1402 70.53 35.5899L70.21 9.81992Z" fill="#EB5D0E"/>
<path d="M86.82 32.8199L91.29 32.8899C91.8867 32.8838 92.4806 32.9715 93.05 33.1499C93.445 33.2771 93.8094 33.4848 94.12 33.7599C94.3569 33.99 94.5264 34.2805 94.61 34.5999C94.6929 34.9029 94.7333 35.2159 94.73 35.5299C94.7172 35.8685 94.6635 36.2043 94.57 36.5299C94.4673 36.8442 94.2806 37.1243 94.03 37.3399C93.7198 37.6058 93.3489 37.7913 92.95 37.8799C92.3714 38.0228 91.7755 38.0834 91.18 38.0599C88.8 38.0066 86.42 37.9699 84.04 37.9499C83.4718 37.968 82.9044 37.8937 82.36 37.7299C82.0037 37.6221 81.6803 37.4261 81.42 37.1599C81.2383 36.9393 81.1206 36.6729 81.08 36.3899C81.0282 36.0591 81.0015 35.7248 81 35.3899L81.12 9.68992C81.1194 9.35454 81.1495 9.01981 81.21 8.68992C81.2585 8.37574 81.4056 8.08509 81.63 7.85992C81.9107 7.59186 82.2548 7.39922 82.63 7.29992C83.2041 7.14992 83.7972 7.08588 84.39 7.10992C86.61 7.10992 88.84 7.15992 91.06 7.19992C91.6783 7.19246 92.2945 7.27328 92.89 7.43992C93.2975 7.55599 93.6758 7.75707 94 8.02992C94.2459 8.25617 94.4227 8.5474 94.51 8.86992C94.5981 9.1957 94.6386 9.53254 94.63 9.86992C94.6198 10.1858 94.5659 10.4988 94.47 10.7999C94.3636 11.1149 94.1735 11.3949 93.92 11.6099C93.5873 11.8745 93.2021 12.0654 92.79 12.1699C92.1942 12.3312 91.5762 12.3954 90.96 12.3599H87.16L86.82 32.8199ZM97.82 10.0999C97.7743 9.63086 97.8341 9.15753 97.995 8.71458C98.1559 8.27163 98.4139 7.87028 98.75 7.53992C99.3178 7.09261 100.028 6.86535 100.75 6.89992C101.46 6.91807 102.14 7.18736 102.67 7.65992C102.981 8.01401 103.211 8.43234 103.342 8.88517C103.474 9.33799 103.504 9.81419 103.43 10.2799C103.323 13.3399 103.217 16.4066 103.11 19.4799L106.79 19.6199C106.92 16.5499 107.04 13.4899 107.17 10.4199C107.137 9.94729 107.209 9.47321 107.382 9.03212C107.555 8.59104 107.824 8.19403 108.17 7.86992C108.745 7.43883 109.452 7.22297 110.17 7.25992C110.877 7.29103 111.55 7.57083 112.07 8.04992C112.379 8.40499 112.606 8.82404 112.734 9.27701C112.861 9.72999 112.888 10.2057 112.81 10.6699L111.55 36.3899C111.542 36.9406 111.437 37.4856 111.24 37.9999C111.104 38.3768 110.885 38.7184 110.6 38.9999C110.353 39.2357 110.05 39.4043 109.72 39.4899C109.393 39.572 109.056 39.6057 108.72 39.5899C108.379 39.5768 108.042 39.5128 107.72 39.3999C107.396 39.2853 107.106 39.089 106.88 38.8299C106.629 38.5384 106.442 38.1978 106.33 37.8299C106.182 37.3001 106.128 36.7484 106.17 36.1999C106.32 32.4199 106.48 28.6299 106.63 24.8499L102.97 24.7099C102.83 28.4899 102.7 32.2799 102.56 36.0599C102.558 36.6094 102.459 37.1542 102.27 37.6699C102.142 38.0458 101.93 38.3877 101.65 38.6699C101.404 38.9093 101.101 39.0815 100.77 39.1699C100.444 39.2591 100.107 39.2995 99.77 39.2899C99.4297 39.2785 99.0929 39.2178 98.77 39.1099C98.4431 38.9997 98.1503 38.8068 97.92 38.5499C97.6682 38.2575 97.4778 37.9174 97.36 37.5499C97.2092 37.0205 97.1484 36.4695 97.18 35.9199L97.82 10.0999Z" fill="#EB5D0E"/>
<path d="M119.26 25.6C119.246 24.6865 119.447 23.7825 119.846 22.9609C120.246 22.1393 120.833 21.4231 121.56 20.87C122.97 19.87 125.15 19.47 128.08 19.67C131.01 19.87 133.08 20.59 134.37 21.77C135.009 22.4206 135.489 23.2111 135.77 24.0789C136.051 24.9467 136.126 25.868 135.99 26.77C135.959 28.2783 135.396 29.7271 134.4 30.86C133.301 31.8636 131.887 32.4539 130.4 32.53L130.19 35.35L135.45 35.77C136.046 35.8047 136.634 35.9191 137.2 36.11C137.578 36.2342 137.921 36.4467 138.2 36.73C138.433 36.9609 138.59 37.2574 138.65 37.58C138.697 37.9117 138.697 38.2483 138.65 38.58C138.624 38.8854 138.553 39.1852 138.44 39.47C138.317 39.7753 138.113 40.0414 137.85 40.24C137.52 40.478 137.141 40.6386 136.74 40.71C136.156 40.8147 135.56 40.8349 134.97 40.77C129.79 40.3433 124.603 39.97 119.41 39.65C118.824 39.6483 118.241 39.5607 117.68 39.39C117.305 39.2606 116.963 39.0487 116.68 38.77C116.453 38.5358 116.291 38.2462 116.21 37.93C116.139 37.6322 116.112 37.3256 116.13 37.02C116.145 36.6793 116.209 36.3425 116.32 36.02C116.426 35.7108 116.621 35.4396 116.88 35.24C117.21 35.002 117.589 34.8413 117.99 34.77C118.577 34.6621 119.176 34.6352 119.77 34.69L123.96 34.95C124.02 33.95 124.08 33.04 124.15 32.09C122.645 31.7903 121.292 30.9773 120.32 29.79C119.48 28.5635 119.105 27.0782 119.26 25.6ZM117.87 15.51C117.882 15.168 117.95 14.8303 118.07 14.51C118.185 14.2219 118.384 13.9747 118.64 13.8C118.987 13.584 119.375 13.4443 119.78 13.39C120.388 13.3215 121.002 13.3215 121.61 13.39C126.203 13.67 130.793 14.0033 135.38 14.39C135.992 14.4281 136.598 14.5286 137.19 14.69C137.581 14.7909 137.946 14.9751 138.26 15.23C138.489 15.439 138.652 15.71 138.73 16.01C138.781 16.3414 138.781 16.6786 138.73 17.01C138.714 17.2975 138.642 17.5792 138.52 17.84C138.397 18.111 138.19 18.3353 137.93 18.48C137.58 18.667 137.195 18.7826 136.8 18.82C136.195 18.8806 135.585 18.8806 134.98 18.82C130.407 18.4533 125.843 18.12 121.29 17.82C120.68 17.7924 120.073 17.7053 119.48 17.56C119.093 17.469 118.728 17.2988 118.41 17.06C118.174 16.8809 117.999 16.6328 117.91 16.35C117.852 16.0739 117.838 15.7903 117.87 15.51ZM121.12 9.60999C121.129 9.26769 121.197 8.92947 121.32 8.60999C121.435 8.33188 121.639 8.09976 121.9 7.94999C122.266 7.76068 122.668 7.65159 123.08 7.62999C123.696 7.57874 124.314 7.57874 124.93 7.62999C127.61 7.79999 130.3 7.99999 132.99 8.19999C133.604 8.23804 134.213 8.33176 134.81 8.47999C135.206 8.56284 135.579 8.73372 135.9 8.97999C136.137 9.16699 136.306 9.42716 136.38 9.71999C136.454 10.0479 136.474 10.3856 136.44 10.72C136.414 11.006 136.343 11.286 136.23 11.55C136.106 11.8181 135.899 12.039 135.64 12.18C135.283 12.3745 134.893 12.5001 134.49 12.55C133.882 12.617 133.268 12.617 132.66 12.55C129.993 12.35 127.327 12.1633 124.66 11.99C124.048 11.9592 123.441 11.862 122.85 11.7C122.458 11.5939 122.089 11.4177 121.76 11.18C121.523 11.0033 121.351 10.7539 121.27 10.47C121.155 10.1974 121.09 9.90587 121.08 9.60999H121.12ZM125.33 25.99C125.301 26.2525 125.301 26.5175 125.33 26.78C125.379 27.0632 125.481 27.3346 125.63 27.58C125.796 27.8453 126.022 28.068 126.29 28.23C126.63 28.4325 127.015 28.546 127.41 28.56C127.817 28.6046 128.229 28.5497 128.61 28.4C128.895 28.2701 129.15 28.0829 129.36 27.85C129.538 27.6297 129.668 27.3741 129.74 27.1C129.814 26.8422 129.861 26.5775 129.88 26.31C129.905 26.0405 129.905 25.7694 129.88 25.5C129.851 25.2103 129.759 24.9304 129.61 24.68C129.447 24.4174 129.22 24.2005 128.95 24.05C128.589 23.8571 128.189 23.751 127.78 23.74C127.384 23.692 126.983 23.74 126.61 23.88C126.321 23.9932 126.066 24.1792 125.87 24.42C125.683 24.6467 125.544 24.9085 125.46 25.19C125.391 25.4518 125.347 25.7197 125.33 25.99ZM143.53 12.83C143.526 12.3558 143.635 11.8874 143.847 11.4633C144.059 11.0392 144.368 10.6713 144.75 10.39C145.449 9.9667 146.267 9.78079 147.08 9.85999C147.49 9.89771 147.893 9.98847 148.28 10.13C148.659 10.2574 149.002 10.4734 149.28 10.76C149.564 11.0697 149.776 11.4386 149.9 11.84C150.046 12.3634 150.087 12.9107 150.02 13.45C149.16 21.99 148.297 30.5367 147.43 39.09C147.394 39.6401 147.248 40.1774 147 40.67C146.82 41.0588 146.553 41.401 146.22 41.67C145.924 41.8874 145.582 42.0345 145.22 42.1C144.828 42.1504 144.432 42.1504 144.04 42.1C143.647 42.0618 143.261 41.9745 142.89 41.84C142.538 41.6991 142.218 41.4882 141.95 41.22C141.668 40.9133 141.466 40.5426 141.36 40.14C141.23 39.6035 141.196 39.0483 141.26 38.5C142 29.9467 142.757 21.39 143.53 12.83Z" fill="#EB5D0E"/>
<path d="M103.02 56.4299H52.36C49.2009 56.4299 46.64 58.9909 46.64 62.1499V68.7199C46.64 71.879 49.2009 74.4399 52.36 74.4399H103.02C106.179 74.4399 108.74 71.879 108.74 68.7199V62.1499C108.74 58.9909 106.179 56.4299 103.02 56.4299Z" fill="#EB5D0E"/>
<path d="M76.72 53.6599C76.8159 53.4777 76.9597 53.3252 77.1359 53.2188C77.3122 53.1124 77.5141 53.0562 77.72 53.0562C77.9259 53.0562 78.1279 53.1124 78.3041 53.2188C78.4803 53.3252 78.6241 53.4777 78.72 53.6599L81.13 57.8399L83.54 62.0099C83.6389 62.1832 83.6902 62.3795 83.6886 62.5789C83.687 62.7784 83.6327 62.9739 83.5311 63.1455C83.4296 63.3172 83.2844 63.4589 83.1103 63.5563C82.9362 63.6537 82.7395 63.7032 82.54 63.6999H72.9C72.6994 63.7064 72.5007 63.6589 72.3248 63.5623C72.1489 63.4657 72.0021 63.3236 71.8999 63.1509C71.7977 62.9781 71.7438 62.7811 71.7438 62.5804C71.7438 62.3797 71.7978 62.1826 71.9 62.0099L74.31 57.8399L76.72 53.6599Z" fill="#EB5D0E"/>
<path d="M58.08 70.4501C57.7563 70.4483 57.4364 70.3802 57.14 70.2501C56.9013 70.132 56.6901 69.965 56.52 69.7601C56.3639 69.5612 56.2484 69.3335 56.18 69.0901C56.1118 68.8323 56.0781 68.5667 56.08 68.3001C56.0792 68.0308 56.1094 67.7624 56.17 67.5001C56.2314 67.2547 56.3401 67.0237 56.49 66.8201C56.6557 66.6131 56.8682 66.4486 57.11 66.3401C57.4259 66.2057 57.7669 66.1408 58.11 66.1501H63.11C63.4525 66.1364 63.7938 66.1979 64.11 66.3301C64.3535 66.4358 64.5667 66.6008 64.73 66.8101C64.8841 67.015 64.9932 67.2501 65.05 67.5001C65.1192 67.761 65.1529 68.0301 65.15 68.3001C65.1487 68.5671 65.1117 68.8328 65.04 69.0901C64.976 69.3351 64.86 69.5636 64.7 69.7601C64.53 69.965 64.3188 70.132 64.08 70.2501C63.7872 70.3802 63.4705 70.4483 63.15 70.4501H58.08ZM58.01 63.8201H60.3C60.4819 63.8154 60.6636 63.8356 60.84 63.8801C60.9583 63.9166 61.0674 63.978 61.16 64.0601C61.2379 64.1248 61.2938 64.2122 61.32 64.3101C61.3346 64.4028 61.3346 64.4973 61.32 64.5901C61.3372 64.696 61.3372 64.8041 61.32 64.9101C61.2964 65.0118 61.2402 65.1031 61.16 65.1701C61.0691 65.2524 60.9591 65.3108 60.84 65.3401C60.6651 65.3931 60.4827 65.4168 60.3 65.4101H57.08C56.9072 65.4187 56.7342 65.3949 56.57 65.3401C56.4607 65.3086 56.3609 65.2501 56.28 65.1701C56.2108 65.1001 56.1683 65.0081 56.16 64.9101C56.1487 64.8037 56.1487 64.6964 56.16 64.5901V61.3901C56.149 61.257 56.149 61.1232 56.16 60.9901C56.1665 60.8797 56.2086 60.7744 56.28 60.6901C56.3537 60.5971 56.4554 60.5305 56.57 60.5001C56.7331 60.4364 56.9053 60.3993 57.08 60.3901H60.08C60.2591 60.3888 60.4374 60.4124 60.61 60.4601C60.7312 60.4917 60.8439 60.5498 60.94 60.6301C61.0149 60.7015 61.07 60.791 61.1 60.8901C61.1154 60.9962 61.1154 61.104 61.1 61.2101C61.1153 61.3028 61.1153 61.3974 61.1 61.4901C61.0727 61.5874 61.017 61.6744 60.94 61.7401C60.8471 61.8271 60.7335 61.889 60.61 61.9201C60.4368 61.9636 60.2586 61.9838 60.08 61.9801H58.08L58.01 63.8201ZM62.6 68.8201C62.7733 68.8205 62.9431 68.7719 63.09 68.6801C63.1504 68.6296 63.1968 68.5645 63.2248 68.4909C63.2528 68.4174 63.2615 68.3379 63.25 68.2601C63.25 68.0401 63.2 67.8901 63.09 67.8201C62.9431 67.7282 62.7733 67.6796 62.6 67.6801H58.6C58.4274 67.6836 58.2585 67.7319 58.11 67.8201C58.0526 67.8767 58.0092 67.946 57.9831 68.0224C57.9571 68.0987 57.9492 68.1801 57.96 68.2601C57.9492 68.337 57.9572 68.4154 57.9833 68.4885C58.0094 68.5617 58.0529 68.6274 58.11 68.6801C58.2585 68.7683 58.4274 68.8165 58.6 68.8201H62.6ZM62.8 61.2501C62.7866 61.1036 62.8056 60.956 62.8557 60.8177C62.9058 60.6794 62.9858 60.5539 63.09 60.4501C63.281 60.3095 63.5129 60.2357 63.75 60.2401C63.8696 60.2253 63.9905 60.2253 64.11 60.2401C64.2198 60.2708 64.3197 60.3293 64.4 60.4101C64.4945 60.4945 64.5666 60.601 64.61 60.7201C64.6734 60.8755 64.7041 61.0423 64.7 61.2101V62.0401H65.55C65.7333 62.036 65.9158 62.063 66.09 62.1201C66.2092 62.1596 66.3183 62.2244 66.41 62.3101C66.4853 62.3851 66.5403 62.478 66.57 62.5801C66.5846 62.6728 66.5846 62.7673 66.57 62.8601C66.5859 62.9695 66.5859 63.0806 66.57 63.1901C66.5428 63.2903 66.4873 63.3806 66.41 63.4501C66.3225 63.5391 66.2116 63.6015 66.09 63.6301C65.9151 63.6831 65.7327 63.7068 65.55 63.7001H64.7V64.6401C64.7057 64.8112 64.6751 64.9816 64.61 65.1401C64.5666 65.262 64.4946 65.3717 64.4 65.4601C64.3191 65.5379 64.2191 65.5931 64.11 65.6201C63.9925 65.6514 63.8716 65.6681 63.75 65.6701C63.6283 65.6696 63.5073 65.6528 63.39 65.6201C63.2788 65.5911 63.176 65.5363 63.09 65.4601C62.9955 65.3717 62.9235 65.262 62.88 65.1401C62.8234 64.9796 62.7963 64.8102 62.8 64.6401V61.2501Z" fill="white"/>
<path d="M67.88 66.2601C67.7244 66.2654 67.569 66.2452 67.42 66.2001C67.3154 66.1656 67.2221 66.1034 67.15 66.0201C67.0853 65.9459 67.0405 65.8564 67.02 65.7601C67.0143 65.6602 67.0143 65.56 67.02 65.4601C67.015 65.3702 67.015 65.28 67.02 65.1901C67.0367 65.0954 67.0821 65.0082 67.15 64.9401C67.2212 64.8535 67.3145 64.7878 67.42 64.7501C67.5662 64.6922 67.7228 64.665 67.88 64.6701H76.38C76.5404 64.6653 76.7002 64.6925 76.85 64.7501C76.9555 64.7878 77.0488 64.8535 77.12 64.9401C77.1814 65.0113 77.2229 65.0976 77.24 65.1901C77.2498 65.2798 77.2498 65.3704 77.24 65.4601C77.2508 65.5598 77.2508 65.6604 77.24 65.7601C77.2189 65.8543 77.178 65.9429 77.12 66.0201C77.0479 66.1034 76.9546 66.1656 76.85 66.2001C76.6975 66.245 76.5388 66.2653 76.38 66.2601H67.88ZM75.41 60.3901C75.5761 60.3861 75.7417 60.4098 75.9 60.4601C76.0037 60.4913 76.097 60.5501 76.17 60.6301C76.2355 60.7103 76.2771 60.8073 76.29 60.9101C76.29 61.0201 76.29 61.1401 76.29 61.2801V61.9801C76.2896 62.2744 76.2695 62.5684 76.23 62.8601C76.2021 63.1339 76.1382 63.4029 76.04 63.6601C75.9988 63.7719 75.9258 63.8693 75.83 63.9401C75.7354 64.0041 75.6305 64.0515 75.52 64.0801C75.4102 64.09 75.2998 64.09 75.19 64.0801H74.88C74.6878 64.0424 74.5126 63.9443 74.38 63.8001C74.315 63.718 74.2695 63.6223 74.247 63.5201C74.2244 63.4178 74.2255 63.3118 74.25 63.2101C74.25 63.0001 74.31 62.8301 74.33 62.6901C74.35 62.5501 74.33 62.3901 74.33 62.2101V62.0101H68.81C68.6306 62.0162 68.4515 61.9926 68.28 61.9401C68.1588 61.9084 68.0461 61.8504 67.95 61.7701C67.8751 61.6987 67.82 61.6091 67.79 61.5101C67.7741 61.404 67.7741 61.2962 67.79 61.1901C67.7759 61.0939 67.7759 60.9962 67.79 60.9001C67.8174 60.8027 67.873 60.7157 67.95 60.6501C68.0446 60.5631 68.1573 60.4983 68.28 60.4601C68.4526 60.4124 68.6309 60.3888 68.81 60.3901H75.41ZM68.76 70.3901C68.5879 70.3962 68.4159 70.3759 68.25 70.3301C68.1379 70.2994 68.0372 70.2369 67.96 70.1501C67.8907 70.0843 67.848 69.9953 67.84 69.9001C67.8297 69.7937 67.8297 69.6865 67.84 69.5801V67.8501C67.825 67.702 67.8432 67.5524 67.8934 67.4123C67.9436 67.2722 68.0244 67.145 68.13 67.0401C68.321 66.8995 68.5529 66.8257 68.79 66.8301C68.9119 66.827 69.0335 66.8439 69.15 66.8801C69.2612 66.9091 69.364 66.9639 69.45 67.0401C69.538 67.13 69.6091 67.235 69.66 67.3501C69.7156 67.5108 69.7426 67.68 69.74 67.8501V68.8501H75.57C75.7297 68.8426 75.8894 68.8664 76.04 68.9201C76.1435 68.9616 76.2359 69.0267 76.31 69.1101C76.3678 69.1836 76.4087 69.269 76.43 69.3601C76.4387 69.4465 76.4387 69.5336 76.43 69.6201C76.4403 69.7165 76.4403 69.8137 76.43 69.9101C76.4129 70.0026 76.3715 70.0889 76.31 70.1601C76.2406 70.2463 76.1463 70.3092 76.04 70.3401C75.8894 70.3937 75.7297 70.4175 75.57 70.4101L68.76 70.3901Z" fill="white"/>
<path d="M78.08 69.3901C78.0697 69.2837 78.0697 69.1765 78.08 69.0701C78.1101 68.9711 78.1652 68.8815 78.24 68.8101C78.3362 68.7298 78.4489 68.6718 78.57 68.6401C78.746 68.5923 78.9277 68.5687 79.11 68.5701H82.23V66.1901H79.74C79.5737 66.1992 79.4072 66.1754 79.25 66.1201C79.1438 66.0787 79.0506 66.0096 78.98 65.9201C78.9272 65.834 78.89 65.7392 78.87 65.6401C78.87 65.5301 78.87 65.4301 78.87 65.3201V61.3901C78.8504 61.2433 78.8665 61.0939 78.917 60.9546C78.9675 60.8153 79.0509 60.6903 79.16 60.5901C79.3501 60.4467 79.5819 60.3694 79.82 60.3701H86.56C86.6817 60.3706 86.8028 60.3874 86.92 60.4201C87.0296 60.4532 87.1315 60.5076 87.22 60.5801C87.308 60.6738 87.3791 60.7821 87.43 60.9001C87.4857 61.0574 87.5128 61.2233 87.51 61.3901V65.3001C87.51 65.4101 87.51 65.5101 87.51 65.6201C87.4911 65.7211 87.4501 65.8167 87.39 65.9001C87.3257 65.9917 87.235 66.0615 87.13 66.1001C86.9723 66.153 86.8063 66.1767 86.64 66.1701H84.16V68.5301H87.27C87.4524 68.5287 87.6341 68.5523 87.81 68.6001C87.9312 68.6318 88.0439 68.6898 88.14 68.7701C88.2124 68.8418 88.2642 68.9316 88.29 69.0301C88.322 69.1338 88.3388 69.2416 88.34 69.3501C88.3378 69.4487 88.3209 69.5465 88.29 69.6401C88.2642 69.7386 88.2124 69.8284 88.14 69.9001C88.0424 69.9804 87.9304 70.0415 87.81 70.0801C87.6341 70.128 87.4524 70.1515 87.27 70.1501H79.15C78.9677 70.1515 78.786 70.128 78.61 70.0801C78.4897 70.0415 78.3777 69.9804 78.28 69.9001C78.2052 69.8287 78.1501 69.7391 78.12 69.6401C78.0994 69.5581 78.0861 69.4745 78.08 69.3901ZM80.78 64.5901H85.64V62.0401H80.78V64.5901Z" fill="white"/>
<path d="M92.1799 60.31C92.5531 60.3002 92.9251 60.3543 93.2799 60.47C93.5607 60.5601 93.8149 60.7181 94.02 60.93C94.227 61.1449 94.381 61.4052 94.4699 61.69C94.5726 62.0147 94.6363 62.3504 94.66 62.69V63.19C94.66 63.45 94.66 63.76 94.66 64.11V65.26C94.66 65.67 94.66 66.05 94.66 66.41C94.66 66.77 94.66 67.07 94.66 67.34V67.82C94.69 68.4628 94.4797 69.0938 94.0699 69.59C93.8091 69.8072 93.5077 69.9703 93.1832 70.0698C92.8587 70.1694 92.5177 70.2035 92.1799 70.17C91.7945 70.1789 91.41 70.1283 91.0399 70.02C90.76 69.9332 90.5058 69.7787 90.2999 69.57C90.1049 69.3573 89.9582 69.1048 89.8699 68.83C89.7728 68.5049 89.7157 68.169 89.7 67.83C89.7 67.76 89.7 67.6 89.7 67.33C89.7 67.06 89.7 66.76 89.7 66.4V64.11C89.7 63.75 89.7 63.45 89.7 63.19C89.7 62.93 89.7 62.77 89.7 62.7C89.7173 62.3612 89.7744 62.0256 89.8699 61.7C89.9484 61.4202 90.0924 61.1631 90.2899 60.95C90.495 60.7381 90.7492 60.5801 91.0299 60.49C91.4004 60.3657 91.7892 60.3048 92.1799 60.31ZM92.7599 62.66C92.7614 62.5251 92.7445 62.3905 92.7099 62.26C92.6827 62.176 92.6345 62.1003 92.5699 62.04C92.5172 61.9896 92.4514 61.9549 92.38 61.94H92.1799C92.1136 61.9303 92.0463 61.9303 91.9799 61.94C91.9137 61.9654 91.8527 62.0027 91.7999 62.05C91.741 62.1222 91.6938 62.2032 91.66 62.29C91.617 62.4226 91.5935 62.5607 91.59 62.7C91.59 62.77 91.59 62.93 91.59 63.2C91.59 63.47 91.59 63.78 91.59 64.13V66.39C91.59 66.74 91.59 67.05 91.59 67.32C91.59 67.59 91.59 67.74 91.59 67.8C91.5842 67.9425 91.6045 68.0849 91.6499 68.22C91.6764 68.3021 91.7208 68.3773 91.7799 68.44C91.8288 68.4957 91.8964 68.5313 91.9699 68.54H92.1799H92.3699C92.4408 68.5318 92.5055 68.4958 92.5499 68.44C92.6122 68.3779 92.66 68.3027 92.6899 68.22C92.7346 68.0844 92.7582 67.9428 92.7599 67.8C92.7599 67.73 92.7599 67.56 92.7599 67.3V63.12C92.7599 62.9 92.7599 62.73 92.7599 62.66ZM96.1399 61.29C96.1265 61.1436 96.1455 60.9959 96.1956 60.8577C96.2457 60.7194 96.3257 60.5939 96.4299 60.49C96.6209 60.3495 96.8529 60.2757 97.09 60.28C97.2061 60.2647 97.3238 60.2647 97.4399 60.28C97.5536 60.3082 97.6574 60.367 97.74 60.45C97.8344 60.5345 97.9065 60.641 97.95 60.76C98.0096 60.9162 98.0369 61.083 98.0299 61.25V64.06H98.77C98.9526 64.0533 99.1351 64.077 99.31 64.13C99.4303 64.1686 99.5423 64.2297 99.6399 64.31C99.7123 64.3817 99.7641 64.4715 99.7899 64.57C99.8031 64.6629 99.8031 64.7572 99.7899 64.85C99.8058 64.9595 99.8058 65.0706 99.7899 65.18C99.7638 65.2755 99.7119 65.362 99.6399 65.43C99.547 65.5171 99.4334 65.579 99.31 65.61C99.1335 65.6545 98.9518 65.6747 98.77 65.67H98.0799V69.24C98.0885 69.4105 98.0613 69.5808 97.9999 69.74C97.9565 69.8619 97.8845 69.9717 97.7899 70.06C97.7068 70.1403 97.6029 70.1957 97.49 70.22C97.3738 70.2353 97.2561 70.2353 97.1399 70.22C97.0205 70.236 96.8994 70.236 96.7799 70.22C96.6687 70.1911 96.566 70.1362 96.4799 70.06C96.3854 69.9717 96.3134 69.8619 96.27 69.74C96.2133 69.5796 96.1862 69.4102 96.1899 69.24L96.1399 61.29Z" fill="white"/>
</g>
<defs>
<clipPath id="clip0_1424:3588">
<rect width="156.89" height="74.44" fill="white"/>
</clipPath>
</defs>
</svg>
