<svg width="61" height="134" viewBox="0 0 61 134" fill="none" xmlns="http://www.w3.org/2000/svg">
<g clip-path="url(#clip0_1472:4476)">
<path d="M35.1506 51.1029C50.0546 53.1086 60.7118 64.007 60.1481 76.3107C58.0853 121.301 45.5995 166.139 30.5383 166.139C15.4771 166.139 3.03939 121.301 1.03327 76.3107C0.483862 64.007 11.1662 53.1086 26.0599 51.1029C29.0768 50.6853 32.1341 50.6853 35.1506 51.1029Z" fill="#FF8D40"/>
<path d="M20.6272 89.9632H2.36136C2.22381 89.9632 2.09197 89.9068 1.99477 89.8064C1.89757 89.7061 1.84297 89.57 1.84305 89.428L1.84424 87.3918H20.6287C20.9642 87.3918 21.2857 87.5294 21.5228 87.7741C21.7599 88.0189 21.8931 88.3509 21.8928 88.6971C21.8828 89.0364 21.7449 89.3584 21.5086 89.5948C21.2723 89.8312 20.9562 89.9633 20.6272 89.9632Z" fill="#E0630E"/>
<path d="M37.0784 114.592H54.1929C54.3305 114.592 54.4625 114.649 54.5597 114.749C54.6569 114.849 54.7113 114.985 54.7112 115.127L54.71 117.163H37.0769C36.7414 117.163 36.4197 117.026 36.1826 116.781C35.9455 116.536 35.8125 116.204 35.8127 115.858C35.8228 115.519 35.9605 115.197 36.1968 114.961C36.4331 114.724 36.7494 114.592 37.0784 114.592Z" fill="#E0630E"/>
<path d="M15.7509 94.5704H2.63332C2.54386 94.5704 2.45819 94.5337 2.39497 94.4685C2.33174 94.4032 2.29623 94.3147 2.29629 94.2224L2.29716 92.7213C2.29721 92.629 2.33283 92.5405 2.39613 92.4752C2.45942 92.4099 2.54514 92.3733 2.6346 92.3733H15.7521C15.892 92.3727 16.0306 92.4006 16.1599 92.4555C16.2893 92.5103 16.4068 92.591 16.5059 92.6929C16.6049 92.7947 16.6835 92.9158 16.7371 93.0491C16.7907 93.1824 16.8183 93.3253 16.8182 93.4696C16.818 93.7616 16.7056 94.0416 16.5054 94.248C16.3052 94.4544 16.0338 94.5704 15.7509 94.5704Z" fill="#E0630E"/>
<path d="M40.8494 119.243H53.9877C54.1242 119.243 54.255 119.299 54.3515 119.399C54.4479 119.498 54.502 119.633 54.5019 119.774L54.5007 121.814H40.8479C40.5124 121.814 40.1907 121.677 39.9536 121.432C39.7165 121.187 39.5835 120.855 39.5837 120.509C39.5938 120.17 39.7315 119.848 39.9678 119.611C40.2041 119.375 40.5204 119.243 40.8494 119.243Z" fill="#E0630E"/>
<path d="M36.491 123.716H49.6293C49.7669 123.716 49.8989 123.772 49.9961 123.872C50.0933 123.973 50.1477 124.109 50.1476 124.251L50.1465 126.287H36.4895C36.154 126.287 35.8323 126.149 35.5952 125.905C35.3581 125.66 35.2251 125.328 35.2253 124.982C35.2354 124.642 35.3731 124.32 35.6094 124.084C35.8457 123.848 36.162 123.716 36.491 123.716Z" fill="#E0630E"/>
<path d="M60.1479 76.3107C60.6775 64.7162 51.2428 54.3746 37.6801 51.538C37.7349 51.6424 78.9015 71.116 30.5382 166.139C45.5994 166.139 58.0852 121.301 60.1479 76.3107Z" fill="#E0630E"/>
<path d="M30.5379 166.574C20.7726 166.574 13.7837 148.815 10.4884 138.229C5.2108 121.284 1.61033 98.721 0.611431 76.3281C0.0453439 63.7112 10.9639 52.6953 26.0052 50.6591C29.0589 50.2414 32.1525 50.2414 35.2057 50.6591C50.2404 52.6822 61.1461 63.7112 60.5695 76.3281C59.5403 98.721 55.9051 121.284 50.6205 138.229C47.3086 148.815 40.3032 166.574 30.5379 166.574ZM30.6051 51.2247C29.1034 51.2271 27.6033 51.3303 26.1144 51.5336C11.5117 53.5001 0.909461 64.1505 1.45475 76.2889C3.38181 119.469 15.5278 165.704 30.5384 165.704C45.549 165.704 57.7489 119.469 59.7263 76.2889C60.2815 64.1418 49.6916 53.5001 35.0954 51.5336C33.6067 51.3304 32.1068 51.2272 30.6051 51.2247Z" fill="#63280A"/>
<path d="M11.5326 17.246C11.5326 17.246 -7.59212 29.8629 32.4733 64.8597C32.4733 64.8553 30.6574 4.62905 11.5326 17.246Z" fill="#99B599"/>
<path d="M32.4726 65.2908C32.3726 65.292 32.2756 65.2565 32.1986 65.1907C20.0446 54.5663 5.73873 39.1998 6.58532 26.3087C7.01076 19.7827 11.1317 16.9896 11.3047 16.8765C14.3712 14.8578 17.2091 14.5315 19.7381 15.915C24.6909 18.6124 28.4046 27.6879 30.7781 42.8891C31.8766 50.1616 32.5762 57.4926 32.8735 64.847C32.8757 64.9312 32.8541 65.0143 32.8114 65.0861C32.7687 65.1579 32.7067 65.2154 32.633 65.2516C32.5826 65.2754 32.528 65.2887 32.4726 65.2908ZM11.7597 17.6074C11.7217 17.6335 7.81148 20.2961 7.42423 26.3958C6.64126 38.6647 20.1845 53.4308 32.0098 63.8811C31.7226 57.49 29.6728 22.3018 19.3626 16.6851C17.0991 15.4582 14.5689 15.7714 11.7597 17.6074Z" fill="#63280A"/>
<path d="M52.3266 11.0242C52.3266 11.0242 33.2113 7.43059 32.4779 64.8551C32.4737 64.8551 71.4377 14.6353 52.3266 11.0242Z" fill="#99B599"/>
<path d="M32.4732 65.2907C32.3614 65.2907 32.2542 65.2448 32.1752 65.1632C32.0962 65.0816 32.0518 64.971 32.0519 64.8556C32.4932 30.9944 39.3188 18.1642 44.9717 13.361C48.9329 9.99797 52.2594 10.5766 52.4027 10.6027C55.0082 11.09 56.7276 12.4474 57.519 14.6358C59.4428 19.9436 55.8487 30.0677 46.8465 44.7338C40.1824 55.5887 32.8741 65.0383 32.8023 65.134C32.7622 65.1837 32.7118 65.2236 32.6549 65.2507C32.598 65.2777 32.5359 65.2914 32.4732 65.2907ZM51.6895 11.4207C50.6354 11.4207 48.2066 11.7165 45.4646 14.0658C40.0395 18.708 33.4967 31.0726 32.9128 63.5722C37.4912 57.4812 60.7002 25.904 56.7305 14.936C56.0401 13.0304 54.5733 11.8905 52.2503 11.4554C52.0605 11.4268 51.8687 11.4152 51.6769 11.4207H51.6895Z" fill="#63280A"/>
<path d="M42.0255 126.413H36.637C36.5251 126.413 36.4177 126.367 36.3387 126.286C36.2597 126.204 36.2155 126.094 36.2156 125.978C36.2156 125.863 36.2599 125.752 36.3391 125.67C36.4182 125.589 36.5256 125.543 36.6375 125.543H42.026C42.1378 125.543 42.245 125.589 42.324 125.67C42.4031 125.752 42.4474 125.863 42.4474 125.978C42.4473 126.094 42.4028 126.204 42.3237 126.286C42.2446 126.367 42.1373 126.413 42.0255 126.413Z" fill="#63280A"/>
<path d="M55.2243 117.312H37.3C37.1882 117.312 37.081 117.266 37.002 117.184C36.923 117.103 36.8786 116.992 36.8787 116.876C36.8787 116.761 36.9232 116.65 37.0024 116.569C37.0815 116.487 37.1887 116.441 37.3006 116.441H55.2248C55.3367 116.441 55.4438 116.487 55.5229 116.569C55.6019 116.65 55.6463 116.761 55.6462 116.876C55.6461 116.992 55.6016 117.103 55.5225 117.184C55.4434 117.266 55.3361 117.312 55.2243 117.312Z" fill="#63280A"/>
<path d="M19.8178 97.1287H14.2394C13.8132 97.1287 13.4676 97.4851 13.4673 97.9249L13.4673 97.9292C13.4671 98.3689 13.8123 98.7254 14.2385 98.7254H19.8168C20.243 98.7254 20.5887 98.3689 20.5889 97.9292L20.5889 97.9249C20.5892 97.4851 20.2439 97.1287 19.8178 97.1287Z" fill="#E0630E"/>
<path d="M51.393 121.91H41.3748C41.2629 121.91 41.1555 121.864 41.0765 121.783C40.9975 121.701 40.9533 121.591 40.9534 121.475C40.9534 121.36 40.9977 121.249 41.0769 121.168C41.156 121.086 41.2634 121.04 41.3753 121.04H51.3935C51.5053 121.04 51.6125 121.086 51.6915 121.168C51.7705 121.249 51.8149 121.36 51.8149 121.475C51.8148 121.591 51.7703 121.701 51.6912 121.783C51.612 121.864 51.5048 121.91 51.393 121.91Z" fill="#63280A"/>
<path d="M20.189 90.0676H1.92749C1.81566 90.0676 1.70847 90.0218 1.62944 89.9402C1.55042 89.8586 1.50603 89.748 1.50609 89.6326C1.50616 89.5172 1.55068 89.4065 1.6298 89.3249C1.70892 89.2433 1.81617 89.1975 1.92799 89.1975H20.1895C20.3013 89.1975 20.4085 89.2433 20.4875 89.3249C20.5666 89.4065 20.6109 89.5172 20.6109 89.6326C20.6108 89.748 20.5663 89.8586 20.4872 89.9402C20.408 90.0218 20.3008 90.0676 20.189 90.0676Z" fill="#63280A"/>
<path d="M15.5058 94.688H2.43481C2.32298 94.688 2.21579 94.6422 2.13677 94.5606C2.05774 94.479 2.01335 94.3683 2.01342 94.2529C2.01349 94.1375 2.05801 94.0269 2.13713 93.9453C2.21625 93.8637 2.32349 93.8179 2.43532 93.8179H15.5063C15.6182 93.8179 15.7253 93.8637 15.8044 93.9453C15.8834 94.0269 15.9278 94.1375 15.9277 94.2529C15.9277 94.3683 15.8831 94.479 15.804 94.5606C15.7249 94.6422 15.6177 94.688 15.5058 94.688Z" fill="#63280A"/>
<path d="M19.72 98.8429H14.3313C14.2195 98.8429 14.1123 98.797 14.0333 98.7154C13.9542 98.6338 13.9098 98.5232 13.9099 98.4078C13.91 98.2925 13.9545 98.1818 14.0336 98.1002C14.1127 98.0186 14.22 97.9728 14.3318 97.9728H19.7205C19.8324 97.9728 19.9396 98.0186 20.0186 98.1002C20.0976 98.1818 20.142 98.2925 20.1419 98.4078C20.1419 98.5232 20.0973 98.6338 20.0182 98.7154C19.9391 98.797 19.8319 98.8429 19.72 98.8429Z" fill="#63280A"/>
<path d="M24.6299 0.918621C24.6299 0.918621 2.8521 7.87969 32.4775 64.8735C32.4775 64.8561 46.4119 -6.05115 24.6299 0.918621Z" fill="#B8D8BB"/>
<path d="M32.4772 65.2907C32.4013 65.2909 32.3267 65.27 32.2615 65.2302C32.1962 65.1903 32.1427 65.1331 32.1063 65.0645C14.8677 31.921 14.9868 15.5625 18.12 7.67472C20.4256 1.86658 24.3433 0.557028 24.5078 0.500469C27.5526 -0.469731 30.1033 -0.0216125 32.0966 1.83177C36.7533 6.18245 38.298 18.1381 36.6846 37.3855C35.4914 51.6383 32.9201 64.7947 32.8947 64.9426C32.8772 65.0306 32.8339 65.1109 32.7704 65.1725C32.707 65.234 32.6266 65.2738 32.5404 65.2863L32.4772 65.2907ZM24.7562 1.33579C24.6887 1.36189 21.0196 2.641 18.8787 8.05758C15.8721 15.6887 15.7954 31.5033 32.2884 63.5722C33.7308 55.6931 41.2872 11.5903 31.5272 2.48437C29.7573 0.818067 27.5354 0.443899 24.7562 1.33144L24.7562 1.33579Z" fill="#63280A"/>
<path d="M20.9448 73.5133C21.8204 73.5133 22.5306 72.7809 22.5311 71.8774C22.5317 70.974 21.8223 70.2416 20.9467 70.2416C20.0711 70.2416 19.3609 70.974 19.3604 71.8774C19.3598 72.7809 20.0692 73.5133 20.9448 73.5133Z" fill="#63280A"/>
<path d="M40.2139 73.5134C41.0894 73.5134 41.7997 72.781 41.8002 71.8776C41.8007 70.9741 41.0913 70.2417 40.2158 70.2417C39.3402 70.2417 38.6299 70.9741 38.6294 71.8776C38.6289 72.781 39.3383 73.5134 40.2139 73.5134Z" fill="#63280A"/>
<path d="M30.8236 88.4577C28.7154 88.4577 27.6256 84.603 27.6279 80.7962C27.6301 76.9894 28.7328 73.139 30.8325 73.139C32.9323 73.139 34.0264 76.9937 34.0242 80.7962C34.022 84.5987 32.9234 88.4577 30.8236 88.4577ZM30.8318 74.4442C30.0433 74.4442 28.8951 76.9198 28.8928 80.7962C28.8905 84.6726 30.0359 87.1525 30.8244 87.1525C31.6129 87.1525 32.757 84.677 32.7593 80.7962C32.7615 76.9154 31.6203 74.4442 30.8318 74.4442Z" fill="#63280A"/>
</g>
<defs>
<clipPath id="clip0_1472:4476">
<rect width="60.0002" height="134" fill="white" transform="matrix(1 0 -0.000582607 1 0.634766 0)"/>
</clipPath>
</defs>
</svg>
