<svg width="82" height="94" viewBox="0 0 82 94" fill="none" xmlns="http://www.w3.org/2000/svg">
<g clip-path="url(#clip0)">
<path d="M65.5525 28.0614C64.7864 28.2228 64.0636 28.5455 63.4323 29.0078C62.8011 29.4702 62.2759 30.0616 61.8919 30.7427C61.5078 31.4238 61.2737 32.1788 61.2053 32.9573C61.1368 33.7358 61.2355 34.52 61.4947 35.2574L61.2648 34.5824C61.3741 34.9051 61.3518 35.2578 61.2026 35.5641C61.0534 35.8705 60.7893 36.106 60.4676 36.2195C60.1458 36.3331 59.7923 36.3156 59.4833 36.171C59.1743 36.0263 58.9348 35.766 58.8166 35.4464L57.5655 31.9092C57.13 30.6153 56.2383 29.5234 55.0565 28.8367C53.8746 28.15 52.4831 27.9153 51.1408 28.1762C50.3747 28.3376 49.6519 28.6602 49.0206 29.1226C48.3894 29.5849 47.8642 30.1764 47.4802 30.8575C47.0961 31.5385 46.862 32.2935 46.7935 33.072C46.7251 33.8506 46.8238 34.6347 47.083 35.3722L46.8531 34.6971C46.92 34.8565 46.9543 35.0275 46.9541 35.2003C46.9538 35.3731 46.9189 35.544 46.8515 35.7031C46.7841 35.8623 46.6855 36.0063 46.5615 36.1269C46.4375 36.2474 46.2906 36.342 46.1294 36.405C45.8048 36.5195 45.4479 36.5007 45.1371 36.3526C44.8264 36.2045 44.5874 35.9392 44.4726 35.6152L42.8021 30.8899C42.3666 29.596 41.4749 28.5041 40.2931 27.8174C39.1112 27.1307 37.7197 26.896 36.3774 27.1569C35.6111 27.3214 34.889 27.6476 34.2593 28.1136C33.6297 28.5795 33.1071 29.1745 32.7267 29.8585C32.3463 30.5425 32.1168 31.2998 32.0536 32.0796C31.9903 32.8594 32.0949 33.6437 32.3602 34.3799L32.2858 34.1706C32.406 34.4929 32.393 34.8496 32.2497 35.1623C32.1064 35.475 31.8445 35.718 31.5216 35.838C31.1988 35.9579 30.8414 35.9449 30.5281 35.8019C30.2148 35.6588 29.9713 35.3974 29.8512 35.0752L22.0468 13.0079C21.4406 11.2964 20.178 9.89534 18.5368 9.11298C16.8957 8.33062 15.0103 8.23105 13.2956 8.83616C12.446 9.13513 11.6637 9.59827 10.9934 10.1991C10.3232 10.8 9.77811 11.5268 9.38935 12.3379C9.00059 13.1491 8.77579 14.0288 8.72775 14.9268C8.67972 15.8247 8.80939 16.7233 9.1094 17.5712L22.9057 56.5551C22.9661 56.7241 22.971 56.9079 22.9196 57.0798C22.8683 57.2517 22.7634 57.4028 22.6201 57.5112C22.4769 57.6195 22.3028 57.6795 22.123 57.6824C21.9433 57.6853 21.7674 57.6309 21.6207 57.5272C19.9269 56.2929 17.8468 55.7037 15.7559 55.8658C13.665 56.028 11.7011 56.9308 10.2185 58.4115C9.36653 59.2996 8.71626 60.3606 8.31197 61.5222C7.90768 62.6837 7.75887 63.9186 7.87566 65.1427C7.99246 66.3669 8.37211 67.5515 8.98879 68.616C9.60548 69.6805 10.4447 70.5999 11.4494 71.3116C11.4494 71.3116 27.9779 83.4624 38.3183 90.1588C48.6588 96.8553 60.0204 92.805 60.061 92.7915C88.1811 82.8819 83.1968 63.5081 77.8542 48.4141L71.9704 31.7944C71.535 30.5019 70.6444 29.411 69.464 28.7245C68.2837 28.0379 66.8937 27.8023 65.5525 28.0614Z" fill="white"/>
<path d="M6.15406 20.0488L1.8123 21.5542C1.64444 21.6136 1.4665 21.6394 1.28865 21.6302C1.11081 21.6209 0.936548 21.5768 0.775782 21.5003C0.615016 21.4238 0.470908 21.3165 0.351699 21.1844C0.232489 21.0524 0.140505 20.8982 0.0810014 20.7306C0.0214977 20.5631 -0.00437465 20.3855 0.00488594 20.208C0.0141465 20.0304 0.0583359 19.8565 0.134951 19.696C0.211566 19.5355 0.319119 19.3917 0.451425 19.2727C0.58373 19.1537 0.7382 19.0619 0.906054 19.0025L5.25459 17.5039C5.59358 17.3849 5.9661 17.4051 6.29015 17.5602C6.6142 17.7153 6.86326 17.9925 6.98254 18.3308C7.10182 18.6692 7.08152 19.041 6.92615 19.3645C6.77079 19.6879 6.49306 19.9365 6.15406 20.0556V20.0488Z" fill="#EB5D0E"/>
<path d="M6.68878 12.1643C6.52078 12.2226 6.34293 12.2472 6.16538 12.2368C5.98783 12.2264 5.81408 12.1811 5.65408 12.1036L1.49489 10.1257C1.3339 10.0497 1.18954 9.94279 1.07006 9.811C0.95058 9.67921 0.858353 9.52516 0.798661 9.3577C0.738969 9.19024 0.712988 9.01267 0.722215 8.83517C0.731443 8.65766 0.77571 8.48373 0.852445 8.32333C0.929137 8.16238 1.03698 8.01817 1.16979 7.89903C1.3026 7.77989 1.45773 7.68818 1.62623 7.62919C1.79473 7.5702 1.97326 7.5451 2.15153 7.55533C2.32979 7.56555 2.50428 7.61092 2.66489 7.68879L6.82405 9.66667C7.06741 9.78109 7.27107 9.96535 7.40899 10.1959C7.5469 10.4264 7.61285 10.6928 7.59833 10.9609C7.58381 11.2291 7.48952 11.4868 7.32751 11.7011C7.16549 11.9155 6.94309 12.0768 6.68878 12.1643Z" fill="#EB5D0E"/>
<path d="M12.6464 6.96663C12.4786 7.0265 12.3006 7.05269 12.1226 7.04367C11.9446 7.03465 11.7701 6.99061 11.6093 6.91408C11.4484 6.83755 11.3042 6.73004 11.1851 6.59772C11.066 6.46541 10.9742 6.31089 10.9151 6.14307L9.37995 1.80928C9.32012 1.64134 9.29418 1.46324 9.30367 1.28525C9.31315 1.10726 9.35784 0.932911 9.43518 0.772252C9.51251 0.611594 9.62096 0.46781 9.75425 0.349197C9.88754 0.230584 10.043 0.139488 10.2118 0.0811677C10.5499 -0.0376766 10.9214 -0.0176936 11.2448 0.136726C11.5681 0.291146 11.8168 0.567372 11.9363 0.904723L13.4715 5.24526C13.5905 5.58275 13.5705 5.95361 13.4158 6.27637C13.2611 6.59913 12.9844 6.8474 12.6464 6.96663Z" fill="#EB5D0E"/>
<path d="M20.5725 7.49985C20.405 7.55917 20.2273 7.58493 20.0498 7.57566C19.8722 7.5664 19.6982 7.52228 19.5378 7.44584C19.3774 7.36927 19.2337 7.26188 19.1149 7.12982C18.9962 6.99777 18.9046 6.84363 18.8456 6.67622C18.7865 6.50882 18.7611 6.33144 18.7708 6.15423C18.7805 5.97702 18.8252 5.80346 18.9021 5.64347L20.8904 1.49195C20.9671 1.33184 21.0747 1.18841 21.207 1.06984C21.3393 0.95128 21.4937 0.859917 21.6614 0.800981C21.8291 0.742046 22.0068 0.716694 22.1844 0.726376C22.3619 0.736058 22.5358 0.780584 22.6961 0.857406C23.0088 1.02159 23.2447 1.30138 23.3534 1.63694C23.4621 1.9725 23.4349 2.3372 23.2777 2.65303L21.2894 6.80455C21.1517 7.12165 20.894 7.37158 20.5725 7.49985Z" fill="#EB5D0E"/>
<path d="M30.0949 11.9145L25.7464 13.4536C25.4065 13.5727 25.0331 13.5521 24.7084 13.3963C24.3838 13.2406 24.1344 12.9626 24.0151 12.6233C23.8958 12.284 23.9164 11.9114 24.0724 11.5873C24.2284 11.2632 24.507 11.0142 24.8469 10.8952L29.1887 9.36282C29.3569 9.3031 29.5354 9.27723 29.7137 9.28669C29.892 9.29616 30.0667 9.34077 30.2276 9.41797C30.3886 9.49516 30.5326 9.6034 30.6515 9.73644C30.7703 9.86948 30.8616 10.0247 30.92 10.1931C31.039 10.5306 31.019 10.9015 30.8643 11.2242C30.7096 11.547 30.4329 11.7953 30.0949 11.9145Z" fill="#EB5D0E"/>
</g>
<defs>
<clipPath id="clip0">
<rect width="82" height="94" fill="white"/>
</clipPath>
</defs>
</svg>
