<svg width="54" height="55" viewBox="0 0 54 55" fill="none" xmlns="http://www.w3.org/2000/svg">
<rect y="0.5" width="54" height="54" rx="10" fill="#FFE2D1"/>
<g clip-path="url(#clip0_2314_7881)">
<path d="M31.9773 30.3316C31.9773 30.3316 19.4368 44.2956 16.8053 41.3568C16.2784 40.7686 16.0694 39.8361 16.1019 38.6844C16.14 37.8076 16.2654 36.9376 16.476 36.088L16.6617 35.3467C17.1394 33.638 17.7444 31.97 18.4714 30.3572C18.5808 30.1077 18.6929 29.8578 18.8081 29.6102C19.2695 28.6059 19.76 27.6333 20.253 26.7326C20.4414 26.3936 20.6284 26.0632 20.8117 25.7444C21.3122 24.8661 21.8612 24.0179 22.4559 23.2037C25.6131 18.9749 30.2982 22.0391 30.2982 22.0391C30.9937 22.6185 31.6303 23.2683 32.1979 23.9786C35.3309 28.0286 31.9773 30.3316 31.9773 30.3316Z" fill="#EB5D0E"/>
<path d="M30.8189 22.5671C31.3997 23.0612 31.5753 23.8238 31.2128 24.2692C30.8502 24.7146 30.0869 24.6724 29.5084 24.1752C28.9299 23.6779 28.752 22.9185 29.1123 22.4762C29.4726 22.0339 30.2382 22.073 30.8189 22.5671Z" fill="#F1966A"/>
<path d="M30.6192 14.1884C30.6192 14.1884 26.3976 14.5376 30.0819 23.8541C30.0819 23.8541 34.8425 13.8501 30.6192 14.1884Z" fill="#5C7026"/>
<path d="M37.8758 16.8263C37.8758 16.8263 35.0151 14.5186 30.0663 23.8397C30.0663 23.8397 40.7361 19.1312 37.8758 16.8263Z" fill="#5C7026"/>
<path d="M34.1387 12.6909C34.1387 12.6909 29.9471 11.8721 30.0623 23.8485C30.0619 23.8458 38.3303 13.5097 34.1387 12.6909Z" fill="#677F2E"/>
</g>
<defs>
<clipPath id="clip0_2314_7881">
<rect width="25.2154" height="26.4379" fill="white" transform="translate(12.6001 15.8339) rotate(-8.44655)"/>
</clipPath>
</defs>
</svg>
