<svg width="79" height="115" viewBox="0 0 79 115" fill="none" xmlns="http://www.w3.org/2000/svg">
<rect x="38.502" y="0.5" width="39" height="39" rx="2.5" fill="#4192FF" stroke="#005AD6"/>
<rect x="38.5" y="0.5" width="39" height="34" rx="2.5" fill="#82B6FF" stroke="#005AD6"/>
<path d="M64.362 20.82H61.882V24H59.362V20.82H51.682V19.02L58.582 10H61.362L54.862 18.62H59.442V15.8H61.882V18.62H64.362V20.82Z" fill="white"/>
<rect x="38.5" y="75.5" width="39" height="39" rx="2.5" fill="#4192FF" stroke="#005AD6"/>
<rect x="38.498" y="75.5" width="39" height="34" rx="2.5" fill="#82B6FF" stroke="#005AD6"/>
<path d="M63.36 95.82H60.88V99H58.36V95.82H50.68V94.02L57.58 85H60.36L53.86 93.62H58.44V90.8H60.88V93.62H63.36V95.82Z" fill="white"/>
<path d="M0.5 30.5H30C31.3807 30.5 32.5 31.6193 32.5 33V67C32.5 68.3807 31.3807 69.5 30 69.5H0.5V30.5Z" fill="#006CFF" stroke="#005AD6"/>
<path d="M0.5 30.5H30C31.3807 30.5 32.5 31.6193 32.5 33V62C32.5 63.3807 31.3807 64.5 30 64.5H0.5V30.5Z" fill="#4694FF" stroke="#005AD6"/>
<path d="M13.96 46.64C14.6933 46.9733 15.2533 47.4267 15.64 48C16.04 48.56 16.24 49.22 16.24 49.98C16.24 50.8333 16 51.58 15.52 52.22C15.0533 52.86 14.3867 53.3533 13.52 53.7C12.6533 54.0333 11.6467 54.2 10.5 54.2C9.35333 54.2 8.34667 54.0333 7.48 53.7C6.62667 53.3533 5.96667 52.86 5.5 52.22C5.03333 51.58 4.8 50.8333 4.8 49.98C4.8 49.22 4.99333 48.56 5.38 48C5.76667 47.4267 6.32 46.9733 7.04 46.64C6.48 46.3333 6.04667 45.9333 5.74 45.44C5.44667 44.9333 5.3 44.3533 5.3 43.7C5.3 42.9133 5.51333 42.2267 5.94 41.64C6.38 41.0533 6.99333 40.6 7.78 40.28C8.56667 39.96 9.47333 39.8 10.5 39.8C11.54 39.8 12.4533 39.96 13.24 40.28C14.0267 40.6 14.64 41.0533 15.08 41.64C15.52 42.2267 15.74 42.9133 15.74 43.7C15.74 44.3533 15.5867 44.9267 15.28 45.42C14.9733 45.9133 14.5333 46.32 13.96 46.64ZM10.5 41.84C9.68667 41.84 9.04 42.0133 8.56 42.36C8.09333 42.7067 7.86 43.1933 7.86 43.82C7.86 44.42 8.09333 44.9 8.56 45.26C9.04 45.6067 9.68667 45.78 10.5 45.78C11.3267 45.78 11.98 45.6067 12.46 45.26C12.94 44.9 13.18 44.42 13.18 43.82C13.18 43.1933 12.9333 42.7067 12.44 42.36C11.96 42.0133 11.3133 41.84 10.5 41.84ZM10.5 52.16C11.46 52.16 12.22 51.96 12.78 51.56C13.34 51.16 13.62 50.6067 13.62 49.9C13.62 49.2067 13.34 48.66 12.78 48.26C12.22 47.86 11.46 47.66 10.5 47.66C9.54 47.66 8.78667 47.86 8.24 48.26C7.69333 48.66 7.42 49.2067 7.42 49.9C7.42 50.6067 7.69333 51.16 8.24 51.56C8.78667 51.96 9.54 52.16 10.5 52.16Z" fill="white"/>
<path d="M0.5 75.5H30C31.3807 75.5 32.5 76.6193 32.5 78V112C32.5 113.381 31.3807 114.5 30 114.5H0.5V75.5Z" fill="#006BFF" stroke="#005AD6"/>
<path d="M0.5 75.5H30C31.3807 75.5 32.5 76.6193 32.5 78V107C32.5 108.381 31.3807 109.5 30 109.5H0.5V75.5Z" fill="#4694FF" stroke="#005AD6"/>
<path d="M13.96 91.64C14.6933 91.9733 15.2533 92.4267 15.64 93C16.04 93.56 16.24 94.22 16.24 94.98C16.24 95.8333 16 96.58 15.52 97.22C15.0533 97.86 14.3867 98.3533 13.52 98.7C12.6533 99.0333 11.6467 99.2 10.5 99.2C9.35333 99.2 8.34667 99.0333 7.48 98.7C6.62667 98.3533 5.96667 97.86 5.5 97.22C5.03333 96.58 4.8 95.8333 4.8 94.98C4.8 94.22 4.99333 93.56 5.38 93C5.76667 92.4267 6.32 91.9733 7.04 91.64C6.48 91.3333 6.04667 90.9333 5.74 90.44C5.44667 89.9333 5.3 89.3533 5.3 88.7C5.3 87.9133 5.51333 87.2267 5.94 86.64C6.38 86.0533 6.99333 85.6 7.78 85.28C8.56667 84.96 9.47333 84.8 10.5 84.8C11.54 84.8 12.4533 84.96 13.24 85.28C14.0267 85.6 14.64 86.0533 15.08 86.64C15.52 87.2267 15.74 87.9133 15.74 88.7C15.74 89.3533 15.5867 89.9267 15.28 90.42C14.9733 90.9133 14.5333 91.32 13.96 91.64ZM10.5 86.84C9.68667 86.84 9.04 87.0133 8.56 87.36C8.09333 87.7067 7.86 88.1933 7.86 88.82C7.86 89.42 8.09333 89.9 8.56 90.26C9.04 90.6067 9.68667 90.78 10.5 90.78C11.3267 90.78 11.98 90.6067 12.46 90.26C12.94 89.9 13.18 89.42 13.18 88.82C13.18 88.1933 12.9333 87.7067 12.44 87.36C11.96 87.0133 11.3133 86.84 10.5 86.84ZM10.5 97.16C11.46 97.16 12.22 96.96 12.78 96.56C13.34 96.16 13.62 95.6067 13.62 94.9C13.62 94.2067 13.34 93.66 12.78 93.26C12.22 92.86 11.46 92.66 10.5 92.66C9.54 92.66 8.78667 92.86 8.24 93.26C7.69333 93.66 7.42 94.2067 7.42 94.9C7.42 95.6067 7.69333 96.16 8.24 96.56C8.78667 96.96 9.54 97.16 10.5 97.16Z" fill="white"/>
</svg>
