<svg width="175" height="105" viewBox="0 0 175 105" fill="none" xmlns="http://www.w3.org/2000/svg">
<g clip-path="url(#clip0_1688_5109)">
<path d="M175.001 34.1618C175.062 29.528 173.902 24.9606 171.641 20.9245C169.391 16.9396 166.055 13.687 162.028 11.5511C158.153 9.495 153.833 8.43857 149.453 8.47619C144.975 8.43643 140.56 9.53526 136.616 11.6711C135.482 12.2913 134.397 12.9984 133.37 13.7859C130.34 11.1568 125.494 8.47619 118.361 8.47619C115.085 8.45867 111.839 9.09575 108.81 10.3508C105.883 9.09163 102.731 8.45358 99.5485 8.47619C97.5443 8.46986 95.5469 8.71159 93.6013 9.19621C92.7408 8.98821 91.8587 8.88458 90.9739 8.88755H83.4207C80.7966 8.88369 78.2527 9.79916 76.225 11.4768C72.5307 9.48784 68.1498 8.47619 63.1332 8.47619C60.0347 8.47465 56.9495 8.8839 53.957 9.69353C51.1255 6.5308 47.6223 4.05171 43.7083 2.44055C39.6418 0.785957 35.2915 -0.045452 30.9059 -0.00585109C25.5744 -0.0609225 20.3117 1.20936 15.5839 3.69222C10.8604 6.16268 6.91138 9.9065 4.17758 14.506C1.42168 19.1709 -0.0057007 24.51 0.051974 29.9379C-0.0057007 35.3658 1.42168 40.7049 4.17758 45.3698C6.89294 49.9425 10.8059 53.674 15.4874 56.1551C16.9533 56.9419 18.4813 57.6051 20.0557 58.1382C19.6925 58.6641 19.3464 59.2014 19.0116 59.7558C16.2633 64.3968 14.836 69.71 14.886 75.1135C14.8369 80.5169 16.2641 85.8298 19.0116 90.4712C21.7311 95.0448 25.6426 98.7807 30.3214 101.273C35.0375 103.794 40.3046 105.087 45.6434 105.034C50.9839 105.09 56.2526 103.793 60.9654 101.262C63.2718 100.016 65.4051 98.469 67.3099 96.6611L67.6277 97.4213C68.4937 99.4964 69.9487 101.268 71.8103 102.513C73.6718 103.759 75.8571 104.423 78.092 104.423H86.2581C88.2191 104.422 90.1464 103.909 91.852 102.934C93.5577 101.959 94.9834 100.556 95.9904 98.8614C97.3871 99.9904 98.8973 100.97 100.496 101.782C104.628 103.844 109.187 104.888 113.798 104.829C117.916 104.893 121.999 104.05 125.761 102.359C127.664 103.704 129.933 104.425 132.258 104.423H140.169C143.179 104.423 146.066 103.219 148.194 101.075C150.323 98.931 151.518 96.0235 151.518 92.9918V83.6469C153.535 83.22 155.398 82.25 156.91 80.8404C158.057 79.7705 158.972 78.4736 159.598 77.0307C160.224 75.5879 160.547 74.0304 160.547 72.4558V65.0999C160.55 62.7888 159.853 60.5318 158.55 58.63C163.098 57.423 167.187 54.8801 170.296 51.3254C171.327 50.138 172.103 48.7487 172.575 47.2447C173.046 45.7407 173.204 44.1546 173.037 42.5863C174.077 40.9782 174.697 39.1328 174.842 37.2196C174.99 34.9677 175.001 34.6533 175.001 34.1618Z" fill="white"/>
<path d="M37.5731 29.3608H45.0752V43.8667C43.0582 45.3766 40.7936 46.518 38.3846 47.2388C35.9033 48.0124 33.321 48.4075 30.7236 48.4107C27.2652 48.4657 23.8478 47.6502 20.7813 46.0385C17.9157 44.5249 15.5201 42.2448 13.858 39.4486C12.1654 36.5665 11.2973 33.269 11.3498 29.9209C11.2973 26.5727 12.1654 23.2753 13.858 20.3931C15.5305 17.5871 17.9454 15.3052 20.8324 13.803C23.9349 12.1896 27.3856 11.3748 30.8768 11.4311C33.7752 11.3901 36.653 11.9282 39.3436 13.0143C41.8031 14.0071 43.9932 15.5743 45.7335 17.5867L40.4615 22.4907C39.302 21.2016 37.8839 20.1753 36.301 19.4797C34.7181 18.7841 33.0066 18.4349 31.2797 18.4555C29.1817 18.4136 27.107 18.905 25.2474 19.8844C23.5232 20.8064 22.0974 22.2067 21.1388 23.9196C20.1355 25.7475 19.6285 27.8097 19.669 29.898C19.6326 31.9695 20.1397 34.014 21.1388 35.8251C22.0943 37.5362 23.5081 38.9422 25.219 39.8829C27.0479 40.8762 29.1 41.3783 31.1776 41.3405C33.4026 41.373 35.6007 40.8464 37.5731 39.8086V29.3608Z" fill="#0E74FF"/>
<path d="M72.8704 22.9479C75.1403 24.975 76.2753 28.0233 76.2753 32.0927V47.7761H68.898V44.3468C67.4112 46.8997 64.6382 48.1763 60.5788 48.1763C58.7055 48.2222 56.8448 47.8574 55.1253 47.1074C53.6915 46.4811 52.4678 45.4511 51.6012 44.1411C50.7849 42.8644 50.3623 41.3728 50.3868 39.8545C50.3378 38.6929 50.5706 37.5367 51.065 36.486C51.5593 35.4353 52.3004 34.522 53.2242 33.8247C55.1158 32.3615 58.0648 31.6298 62.0713 31.6298H68.3589C68.4039 30.8876 68.2864 30.1446 68.0147 29.4532C67.7431 28.7619 67.324 28.1391 66.787 27.6289C65.7428 26.6915 64.1709 26.2229 62.0713 26.2229C60.6159 26.2251 59.1699 26.4585 57.7868 26.9144C56.495 27.3177 55.2845 27.9487 54.2116 28.7778L51.3742 23.2108C53.0044 22.0927 54.8123 21.2634 56.7199 20.7588C58.8107 20.1795 60.9696 19.8872 63.1381 19.89C67.3602 19.9015 70.6042 20.9208 72.8704 22.9479ZM66.123 41.9007C67.1731 41.2714 67.9644 40.2838 68.3533 39.1172V36.3052H62.9282C59.6822 36.3052 58.0591 37.3777 58.0591 39.5229C58.0427 39.9955 58.143 40.4648 58.351 40.8887C58.559 41.3127 58.8682 41.6781 59.2508 41.952C60.2183 42.5971 61.3668 42.9099 62.5252 42.8437C63.7876 42.8668 65.032 42.5406 66.123 41.9007Z" fill="#0E74FF"/>
<path d="M126.503 22.9479C128.512 24.975 129.518 28.0233 129.522 32.0928V47.8278H121.577V33.3215C121.577 31.142 121.131 29.515 120.238 28.4405C119.762 27.8977 119.17 27.471 118.507 27.1927C117.843 26.9144 117.125 26.7922 116.408 26.8346C115.585 26.796 114.764 26.9379 114.002 27.2507C113.24 27.5636 112.554 28.04 111.993 28.6464C110.914 29.8581 110.373 31.6545 110.37 34.036V47.8278H102.459V33.3215C102.459 28.9968 100.734 26.8346 97.2834 26.8346C96.4698 26.7986 95.6582 26.942 94.9054 27.2549C94.1525 27.5679 93.4767 28.0429 92.9252 28.6464C91.8394 29.8581 91.2984 31.6545 91.3022 34.036V47.8278H83.3915V20.3475H90.9447V23.5139C91.9665 22.3493 93.2428 21.4393 94.673 20.8559C96.2124 20.2302 97.8594 19.9175 99.5193 19.9358C101.324 19.9073 103.11 20.2985 104.74 21.0789C106.274 21.827 107.574 22.9856 108.497 24.4281C109.617 22.9895 111.071 21.8496 112.73 21.1077C114.491 20.3125 116.402 19.9108 118.331 19.9302C121.766 19.915 124.49 20.9208 126.503 22.9479Z" fill="#0E74FF"/>
<path d="M163.48 36.3052H142.835C143.164 37.943 144.11 39.389 145.474 40.3404C147.001 41.3708 148.813 41.8888 150.649 41.8206C151.935 41.8437 153.214 41.6288 154.423 41.1863C155.57 40.7263 156.613 40.0402 157.493 39.1685L161.704 43.741C159.135 46.7016 155.382 48.1819 150.445 48.1819C147.619 48.2404 144.819 47.6194 142.279 46.3702C140.013 45.2561 138.113 43.5105 136.803 41.3406C135.499 39.1336 134.83 36.6041 134.873 34.036C134.839 31.48 135.496 28.963 136.774 26.7546C138.02 24.6156 139.829 22.865 142.001 21.6963C144.286 20.4712 146.841 19.848 149.429 19.8845C151.95 19.8431 154.442 20.4322 156.682 21.5991C158.823 22.7305 160.596 24.4586 161.789 26.5773C163.058 28.8807 163.697 31.4824 163.639 34.1161C163.65 34.2704 163.605 34.9792 163.48 36.3052ZM144.969 27.469C143.727 28.5326 142.929 30.0285 142.733 31.6585H156.177C155.969 30.0389 155.172 28.5544 153.941 27.4919C152.692 26.4438 151.106 25.8908 149.48 25.9371C147.85 25.8899 146.258 26.4336 144.992 27.469H144.969Z" fill="#0E74FF"/>
<path d="M35.6436 91.1628C32.7693 89.6427 30.3661 87.3549 28.6976 84.55C27.0078 81.6852 26.1377 78.4055 26.1837 75.0736C26.1377 71.7417 27.0078 68.4619 28.6976 65.5972C30.3645 62.791 32.7681 60.5028 35.6436 58.9844C38.7134 57.3568 42.1398 56.5313 45.6086 56.5838C49.0704 56.5298 52.4898 57.3555 55.5509 58.9844C58.4183 60.5143 60.8191 62.7999 62.4969 65.5972C64.2014 68.4567 65.0799 71.7386 65.0335 75.0736C65.0799 78.4086 64.2014 81.6904 62.4969 84.55C60.8175 87.346 58.4171 89.6313 55.5509 91.1628C52.4898 92.7917 49.0704 93.6174 45.6086 93.5634C42.1398 93.6159 38.7134 92.7903 35.6436 91.1628ZM51.2891 85.0585C52.9608 84.1024 54.3361 82.6975 55.2615 81.0004C56.2438 79.1839 56.7405 77.1417 56.7029 75.0736C56.7405 73.0055 56.2438 70.963 55.2615 69.1465C54.3361 67.4494 52.9608 66.0445 51.2891 65.0884C49.5585 64.1064 47.6005 63.6037 45.6143 63.6311C43.6282 63.6045 41.6704 64.1072 39.9395 65.0884C38.266 66.0421 36.8901 67.4476 35.9671 69.1465C34.9831 70.9625 34.4844 73.005 34.52 75.0736C34.4844 77.1422 34.9831 79.1844 35.9671 81.0004C36.8901 82.6993 38.266 84.1048 39.9395 85.0585C41.6704 86.0397 43.6282 86.5427 45.6143 86.5161C47.6005 86.5435 49.5585 86.0405 51.2891 85.0585Z" fill="#0E74FF"/>
<path d="M97.7488 65.4713L86.2346 92.9516H78.0686L66.6055 65.4713H74.7715L82.3303 84.1668L90.1389 65.4713H97.7488Z" fill="#0E74FF"/>
<path d="M126.81 81.4579H106.165C106.494 83.0957 107.439 84.5417 108.803 85.4931C110.331 86.5235 112.142 87.0415 113.979 86.9734C115.265 86.9965 116.544 86.7815 117.753 86.339C118.899 85.8791 119.943 85.193 120.823 84.3213L125.033 88.8937C122.461 91.8543 118.708 93.3347 113.774 93.3347C110.948 93.3932 108.149 92.7721 105.608 91.5229C103.343 90.4088 101.442 88.6632 100.132 86.4933C98.8279 84.2863 98.1598 81.7568 98.2028 79.1887C98.1686 76.6327 98.8257 74.1157 100.104 71.9073C101.35 69.7683 103.159 68.0177 105.33 66.849C107.615 65.6239 110.171 65.0007 112.759 65.0372C115.28 64.9958 117.772 65.585 120.011 66.7519C122.153 67.8832 123.926 69.6113 125.118 71.7301C126.388 74.0334 127.026 76.6352 126.968 79.2688C126.957 79.4231 126.912 80.1319 126.81 81.4579ZM108.298 72.6217C107.056 73.6853 106.258 75.1812 106.062 76.8113H119.506C119.298 75.1916 118.501 73.7071 117.27 72.6446C116.021 71.5965 114.435 71.0435 112.81 71.0899C111.172 71.0371 109.57 71.5811 108.298 72.6217Z" fill="#0E74FF"/>
<path d="M143.618 66.0832C145.384 65.3716 147.273 65.0237 149.174 65.0601V72.416C148.294 72.3474 147.704 72.313 147.398 72.313C145.128 72.313 143.354 72.9513 142.075 74.2278C140.796 75.5043 140.153 77.4209 140.145 79.9777V92.9517H132.235V65.4714H139.788V69.0953C140.759 67.7495 142.086 66.7058 143.618 66.0832Z" fill="#0E74FF"/>
</g>
<defs>
<clipPath id="clip0_1688_5109">
<rect width="175" height="105" fill="white"/>
</clipPath>
</defs>
</svg>
