<svg width="133" height="63" viewBox="0 0 133 63" fill="none" xmlns="http://www.w3.org/2000/svg">
<g clip-path="url(#clip0_1745_7394)">
<path d="M132.424 8.53934C132.092 7.43067 131.513 6.41186 130.728 5.56028C129.887 4.68901 128.858 4.02039 127.719 3.60524C126.9 3.30809 126.045 3.12014 125.177 3.04653C123.268 2.84346 121.344 3.25285 119.684 4.21477L119.591 4.26518C119.383 4.04093 119.162 3.82899 118.93 3.63045C118.006 2.87458 116.926 2.33144 115.768 2.03946C114.898 1.82079 114.01 1.67919 113.115 1.6163C110.818 1.44704 108.521 1.27793 106.224 1.13405C105.338 1.05114 104.448 1.05114 103.562 1.13405C102.378 1.25365 101.235 1.63222 100.214 2.24278C99.8169 2.48777 99.4452 2.77125 99.1038 3.0891L98.9004 2.89446C97.4502 1.58865 95.5877 0.830849 93.6365 0.753042C92.2338 0.695083 90.8389 0.985895 89.5766 1.59936C88.3715 0.902185 87.0103 0.518225 85.618 0.482369C84.1441 0.428104 82.682 0.763788 81.3799 1.45555C81.1039 1.33205 80.8209 1.22476 80.5323 1.13405C79.4869 0.821969 78.4026 0.659285 77.3115 0.651385L71.6069 0.575348C70.4605 0.542204 69.3161 0.69076 68.2164 1.01545C67.7 1.18625 67.2006 1.40442 66.7246 1.66713C65.3103 0.690254 63.6298 0.170533 61.9101 0.17781C60.5264 0.177288 59.164 0.517322 57.9433 1.16794C56.7161 0.554208 55.3573 0.248904 53.985 0.279054C52.0183 0.30353 50.1224 1.01667 48.628 2.29361C47.9158 2.90476 47.3386 3.65683 46.9328 4.50239C46.5362 3.88965 46.0506 3.33902 45.4919 2.86884C44.5636 2.09987 43.47 1.55546 42.2963 1.27786C41.4348 1.08287 40.5511 1.00337 39.6686 1.04107C37.676 1.1021 35.7646 1.84282 34.2524 3.13993L34.1167 3.27506C33.3244 2.66368 32.4204 2.2125 31.4552 1.94648C30.3643 1.65783 29.2324 1.55495 28.1072 1.64193C21.7783 2.03123 15.4521 2.51622 9.12885 3.09736C7.94073 3.17464 6.77582 3.46116 5.68767 3.94368C4.38168 4.52715 3.27823 5.48439 2.51738 6.69422C1.93177 7.64591 1.59115 8.72766 1.52573 9.84271C1.49391 10.4073 1.51097 10.9736 1.57664 11.5353C1.76311 13.3295 1.958 15.1321 2.14447 16.9348C2.14447 17.1463 2.19541 17.3579 2.22932 17.5695C2.00803 17.7906 1.80403 18.0281 1.61906 18.2803C0.912345 19.2197 0.467758 20.3296 0.330659 21.4965C0.262827 22.1153 0.262827 22.7394 0.330659 23.3582C0.395083 24.0096 0.534438 24.6516 0.745985 25.2711C1.12714 26.3734 1.787 27.3587 2.66161 28.1315L2.93291 28.3601C2.77547 29.4309 2.75832 30.5176 2.882 31.5929C3.00325 32.8112 3.31786 34.0024 3.81426 35.1219C4.38582 36.433 5.25664 37.5923 6.35712 38.5072C7.48718 39.426 8.80281 40.0902 10.2138 40.454C11.6866 40.8225 13.2103 40.9456 14.7232 40.8181C19.323 40.4118 23.9284 40.0592 28.5395 39.7602H28.7089C31.8903 39.4555 34.3512 38.4085 36.0917 36.6199C36.7334 37.0478 37.4364 37.3763 38.1768 37.5935C39.2123 37.8697 40.2854 37.9782 41.3554 37.9151C43.1438 37.8389 44.9239 37.771 46.7124 37.7117C47.7428 37.6939 48.7652 37.5258 49.7469 37.2125L50.196 37.0431C50.8243 37.467 51.5171 37.7872 52.2474 37.9911C53.0415 38.2135 53.8638 38.3191 54.6884 38.3043C55.5089 38.2849 56.3225 38.1481 57.1042 37.8981C57.5483 37.7512 57.977 37.5613 58.3841 37.3311C58.7995 37.5537 59.237 37.7323 59.6895 37.8642C60.4819 38.0981 61.3042 38.2151 62.1305 38.2113C62.9498 38.1993 63.7632 38.0709 64.5463 37.8303C65.4479 37.5472 66.2836 37.0867 67.0043 36.4761C67.3431 36.6538 67.6944 36.8066 68.0554 36.9332C69.0725 37.2676 70.1377 37.4335 71.2085 37.4241C73.2089 37.4241 75.2093 37.4524 77.2097 37.5088C78.2261 37.5421 79.2422 37.4309 80.2273 37.1787C80.7734 37.54 81.3665 37.8248 81.9902 38.025C82.7698 38.2865 83.5839 38.4322 84.406 38.4568C85.2267 38.482 86.0467 38.3847 86.8388 38.1688C87.3085 38.0472 87.7632 37.8742 88.1948 37.6526C88.6145 37.9087 89.0608 38.1189 89.5257 38.2791C90.3033 38.5531 91.1173 38.7099 91.9412 38.7444C92.763 38.7803 93.5858 38.6949 94.3825 38.4907C95.1255 38.2934 95.8322 37.979 96.4761 37.5597C96.935 37.8329 97.4172 38.065 97.917 38.2535C98.8872 38.5896 99.9004 38.7861 100.926 38.8374C105.291 39.0998 109.64 39.4045 113.996 39.7684C115.018 39.8696 116.049 39.8212 117.056 39.6246L117.616 39.4891C118.107 39.8125 118.633 40.0794 119.184 40.2846C119.941 40.5721 120.734 40.7545 121.54 40.8263C122.351 40.9044 123.169 40.8759 123.973 40.7416C125.114 40.5517 126.194 40.0967 127.126 39.4131C128.043 38.7392 128.802 37.8725 129.347 36.8741C129.894 35.8503 130.234 34.7287 130.347 33.5735L132.737 11.8907C132.857 10.7639 132.75 9.62456 132.424 8.53934Z" fill="white"/>
<path d="M28.5307 40.0483C23.9253 40.3473 19.3255 40.6969 14.7314 41.0975C13.1904 41.2318 11.6379 41.1091 10.1374 40.7339C8.69768 40.3606 7.35395 39.6852 6.19584 38.7532C5.0594 37.813 4.15713 36.6225 3.55986 35.2749C3.05487 34.1361 2.73157 32.9255 2.60194 31.6868C2.48411 30.6312 2.49838 29.5651 2.64437 28.5131L2.44943 28.3519C1.5497 27.5566 0.87205 26.5418 0.482895 25.4067C0.265642 24.7734 0.120621 24.1179 0.0506003 23.4521C-0.0214241 22.8166 -0.0214241 22.1747 0.0506003 21.5392C0.188926 20.3358 0.645334 19.1909 1.37294 18.2217C1.54269 17.9931 1.72662 17.7754 1.92381 17.57C1.92381 17.3923 1.87309 17.2062 1.85614 17.02C1.66119 15.2258 1.47456 13.423 1.27961 11.6288C1.23361 11.0458 1.23361 10.4602 1.27961 9.8771C1.34169 8.72602 1.69153 7.6085 2.29692 6.62695C3.08376 5.38052 4.22194 4.39446 5.56861 3.79211C6.68222 3.31463 7.86876 3.02849 9.07787 2.94579C15.4011 2.38158 21.7299 1.89617 28.0645 1.48994C29.2182 1.40117 30.3788 1.50712 31.4974 1.80318C32.4131 2.06174 33.2745 2.48296 34.0402 3.04703C35.5898 1.71038 37.5535 0.948326 39.6005 0.889085C40.5031 0.849967 41.407 0.932554 42.2875 1.13455C43.5008 1.415 44.6304 1.9775 45.5847 2.77636C46.061 3.17297 46.4853 3.62801 46.8476 4.13055C47.2548 3.3945 47.7919 2.73791 48.4328 2.19245C49.9702 0.886351 51.9154 0.156177 53.9338 0.127481C55.3022 0.0882447 56.6599 0.378531 57.8922 0.9738C59.1191 0.342754 60.4788 0.0119415 61.859 0.00888013C63.579 0.00097268 65.262 0.508196 66.6906 1.46473C67.1432 1.22202 67.6169 1.02051 68.106 0.863464C69.2046 0.53178 70.3492 0.377877 71.4965 0.406832C73.3952 0.406832 75.3023 0.449016 77.201 0.482868C78.3177 0.490762 79.4276 0.656081 80.4981 0.9738C80.7609 1.05843 81.0322 1.15139 81.2865 1.26142C82.6104 0.581316 84.0879 0.254676 85.5755 0.313439C86.9664 0.347005 88.328 0.719083 89.5423 1.39696C90.8147 0.819426 92.2064 0.5526 93.6025 0.618412C95.6081 0.698468 97.5232 1.47339 99.0187 2.81025L99.0696 2.86108C99.3708 2.58333 99.697 2.3337 100.044 2.116C101.092 1.48545 102.268 1.09554 103.486 0.9738C104.385 0.891038 105.29 0.891038 106.189 0.9738C108.495 1.11767 110.792 1.28679 113.089 1.45605C113.999 1.51756 114.901 1.66225 115.785 1.88789C116.978 2.18823 118.089 2.74893 119.04 3.5297C119.233 3.6908 119.417 3.86307 119.59 4.04584C121.28 3.08958 123.227 2.68412 125.159 2.88628C126.028 2.97058 126.882 3.16409 127.702 3.46193C128.873 3.88471 129.93 4.57428 130.787 5.47607C131.613 6.34243 132.225 7.38821 132.576 8.53117C132.919 9.66844 133.023 10.8645 132.881 12.0437C132.084 19.2713 131.285 26.4985 130.482 33.7261C130.369 34.9102 130.023 36.0605 129.465 37.1114C128.899 38.1417 128.119 39.0395 127.177 39.7437C126.216 40.4387 125.108 40.9047 123.939 41.1062C122.29 41.3742 120.6 41.2137 119.031 40.6405C118.497 40.4385 117.985 40.1806 117.505 39.8706L117.031 39.9805C116.001 40.1842 114.947 40.2357 113.903 40.133C109.552 39.7719 105.198 39.4585 100.841 39.1933C99.7918 39.1473 98.7552 38.948 97.7642 38.6011C97.2907 38.4285 96.8339 38.213 96.3995 37.9577C95.7688 38.3579 95.0797 38.6579 94.3568 38.8466C92.7106 39.266 90.9774 39.1925 89.3729 38.635C88.9343 38.4773 88.5115 38.2788 88.1099 38.0424C87.6962 38.2492 87.2614 38.4108 86.813 38.5247C85.1792 38.9656 83.4514 38.9156 81.8459 38.3809C81.2327 38.1744 80.6486 37.89 80.1082 37.5345C79.1351 37.7716 78.1344 37.8771 77.1331 37.8478C75.1327 37.8083 73.1325 37.78 71.1321 37.7631C70.0358 37.7694 68.9456 37.601 67.9026 37.2639C67.5789 37.146 67.2619 37.0104 66.9532 36.8577C66.2348 37.441 65.4123 37.8833 64.5291 38.161C62.907 38.6518 61.1755 38.6518 59.5535 38.161C59.1237 38.0365 58.7066 37.8721 58.3075 37.6701C57.92 37.8786 57.5144 38.0513 57.0954 38.1862C55.4834 38.708 53.7534 38.7462 52.1198 38.2961C51.4019 38.0921 50.7191 37.7812 50.0941 37.3738L49.7382 37.5093C48.7364 37.825 47.6945 37.9961 46.6442 38.0172C44.8557 38.0765 43.0759 38.1439 41.2874 38.2201C40.194 38.2858 39.0972 38.1715 38.041 37.8817C37.3334 37.683 36.6592 37.3806 36.0405 36.9845C34.017 38.8485 31.3995 39.9395 28.6493 40.0652L28.5307 40.0483ZM9.08615 3.33506C7.91582 3.42142 6.76902 3.70768 5.69567 4.18138C4.42835 4.7463 3.3576 5.67404 2.61891 6.84721C2.04979 7.77064 1.71796 8.81999 1.65272 9.9023C1.62749 10.467 1.64434 11.0328 1.70342 11.5949C1.88989 13.3976 2.08499 15.1917 2.27146 16.9944C2.27146 17.2059 2.3222 17.4177 2.3561 17.6208C2.36123 17.653 2.35856 17.6858 2.34824 17.7167C2.33791 17.7476 2.32037 17.7758 2.29692 17.7985C2.08371 18.0133 1.8853 18.2423 1.70342 18.4841C1.02062 19.3946 0.590811 20.4687 0.457441 21.5983C0.39393 22.2032 0.39393 22.8133 0.457441 23.4182C0.525885 24.0551 0.665181 24.6824 0.872766 25.2885C1.23753 26.3556 1.87452 27.3094 2.72073 28.056L2.99182 28.2845C3.02101 28.307 3.04356 28.337 3.057 28.3713C3.07044 28.4056 3.07432 28.4429 3.06818 28.4792C2.90784 29.5298 2.88783 30.597 3.00878 31.6529C3.12828 32.8506 3.43732 34.0214 3.92428 35.1225C4.5027 36.4103 5.37326 37.5464 6.46714 38.4404C7.57586 39.3385 8.86514 39.988 10.2475 40.3446C11.6979 40.7088 13.199 40.8288 14.689 40.7C19.3396 40.2881 23.9987 39.9324 28.6662 39.6334C31.777 39.3287 34.2097 38.3048 35.9049 36.5444C35.945 36.5135 35.9942 36.4969 36.0448 36.4969C36.0955 36.4969 36.1447 36.5135 36.1847 36.5444C36.8097 36.9581 37.4922 37.2776 38.2104 37.4924C39.2233 37.7656 40.2741 37.8715 41.3211 37.8056C43.1096 37.7295 44.8897 37.6616 46.6782 37.6023C47.6888 37.5872 48.6915 37.4217 49.6533 37.1114L50.0941 36.9506C50.124 36.9343 50.1575 36.9258 50.1916 36.9258C50.2256 36.9258 50.2591 36.9343 50.289 36.9506C50.9014 37.3569 51.5735 37.6653 52.281 37.8647C53.8329 38.295 55.4769 38.2628 57.0106 37.7717C57.4396 37.6314 57.854 37.4499 58.2481 37.23C58.2787 37.2113 58.314 37.2015 58.3499 37.2015C58.3858 37.2015 58.4211 37.2113 58.4517 37.23C58.8573 37.4438 59.2832 37.6167 59.7231 37.7461C61.2653 38.2112 62.9105 38.2112 64.4527 37.7461C65.327 37.4546 66.1339 36.9914 66.8261 36.3837C66.8615 36.3611 66.9026 36.349 66.9447 36.349C66.9867 36.349 67.028 36.3611 67.0635 36.3837C67.3898 36.5581 67.7299 36.7053 68.0806 36.8238C69.0758 37.1513 70.1181 37.3141 71.166 37.306C73.1664 37.306 75.1751 37.3484 77.1755 37.3907C78.169 37.4227 79.162 37.3145 80.1252 37.0692C80.1532 37.0569 80.1835 37.0506 80.2142 37.0506C80.2448 37.0506 80.2751 37.0569 80.3032 37.0692C80.8258 37.4292 81.3964 37.7141 81.9984 37.9156C83.524 38.4245 85.1659 38.4745 86.7197 38.0594C87.1768 37.9397 87.6201 37.7725 88.042 37.5602C88.0727 37.5415 88.1077 37.5317 88.1436 37.5317C88.1795 37.5317 88.2148 37.5415 88.2455 37.5602C88.6554 37.8021 89.0867 38.0059 89.5339 38.1693C91.0593 38.6987 92.7067 38.7695 94.2719 38.3726C94.9915 38.1813 95.6757 37.8753 96.2978 37.4668C96.3323 37.4459 96.3719 37.435 96.4123 37.435C96.4526 37.435 96.4922 37.4459 96.5267 37.4668C96.9694 37.738 97.4378 37.965 97.9252 38.1441C98.8774 38.4805 99.8743 38.6742 100.883 38.7193C105.24 38.9788 109.597 39.2892 113.954 39.6503C114.956 39.7518 115.967 39.7034 116.954 39.5065C117.141 39.5065 117.327 39.422 117.505 39.3797C117.532 39.3675 117.561 39.3611 117.59 39.3611C117.619 39.3611 117.648 39.3675 117.675 39.3797C118.152 39.6956 118.664 39.9567 119.201 40.1582C120.694 40.7129 122.307 40.8678 123.879 40.607C124.985 40.4155 126.032 39.9722 126.939 39.3119C127.835 38.6521 128.573 37.8024 129.101 36.8238C129.632 35.8224 129.964 34.7271 130.076 33.5992C130.861 26.3717 131.652 19.144 132.449 11.9164C132.59 10.7948 132.495 9.65635 132.169 8.57373C131.831 7.49329 131.251 6.5037 130.474 5.67938C129.663 4.829 128.665 4.17957 127.558 3.78343C126.768 3.49412 125.945 3.30628 125.108 3.22473C123.247 3.03782 121.374 3.43743 119.751 4.36734L119.667 4.41817C119.62 4.44626 119.565 4.45728 119.511 4.44958C119.457 4.44187 119.407 4.41606 119.37 4.37602C119.173 4.15817 118.96 3.95437 118.734 3.76649C117.834 3.02794 116.78 2.49881 115.649 2.21766C114.797 1.99706 113.925 1.85842 113.047 1.80318C110.75 1.63391 108.453 1.46438 106.156 1.32051C105.284 1.24232 104.408 1.24232 103.537 1.32051C102.388 1.43929 101.279 1.80938 100.29 2.40403C99.904 2.64968 99.5434 2.9332 99.2136 3.25035C99.1921 3.27048 99.1668 3.28604 99.1391 3.29622C99.1115 3.30639 99.0821 3.31082 99.0526 3.30944C98.9921 3.30903 98.9342 3.28462 98.8916 3.24167L98.8153 3.16563L98.6967 3.05571C97.2946 1.79375 95.4967 1.05779 93.611 0.9738C92.2494 0.905826 90.8921 1.176 89.6609 1.76061C89.6265 1.77712 89.589 1.78582 89.5508 1.78582C89.5127 1.78582 89.4749 1.77712 89.4405 1.76061C88.2688 1.08358 86.9456 0.711285 85.5923 0.677505C84.1492 0.620205 82.7166 0.944142 81.439 1.6168C81.4079 1.63384 81.373 1.64284 81.3374 1.64284C81.3019 1.64284 81.2668 1.63384 81.2356 1.6168C80.9559 1.49832 80.6677 1.39666 80.388 1.30357C79.3611 1.00151 78.2969 0.844989 77.2264 0.838256C75.3277 0.804404 73.4291 0.779146 71.5304 0.76222C70.4211 0.733971 69.3141 0.879416 68.25 1.19364C67.7442 1.35646 67.2559 1.56909 66.7922 1.82838C66.7551 1.85079 66.7126 1.86268 66.6692 1.86268C66.6259 1.86268 66.5834 1.85079 66.5463 1.82838C65.1738 0.874115 63.5399 0.366014 61.8674 0.372946C60.5222 0.375024 59.1982 0.705993 58.0109 1.33745C57.9766 1.35396 57.9388 1.36266 57.9006 1.36266C57.8625 1.36266 57.8249 1.35396 57.7905 1.33745C56.5973 0.742831 55.2753 0.452093 53.9423 0.491133C52.0325 0.518109 50.1918 1.20955 48.7378 2.44618C48.0256 3.03379 47.4476 3.76678 47.0426 4.59586C47.024 4.6315 46.996 4.66135 46.9617 4.68223C46.9273 4.70312 46.8879 4.71436 46.8476 4.71447C46.8082 4.71447 46.7693 4.70523 46.734 4.6876C46.6987 4.66998 46.6679 4.64434 46.6442 4.61281C46.2638 4.01551 45.7919 3.48139 45.2457 3.03009C44.3465 2.28145 43.2838 1.75403 42.1433 1.48994C41.3103 1.29644 40.4549 1.2169 39.6005 1.25315C37.6611 1.3105 35.8001 2.03017 34.3283 3.2925C34.3079 3.31715 34.2853 3.33989 34.2606 3.36027L34.1927 3.42804C34.1513 3.46322 34.0987 3.48259 34.0444 3.48259C33.99 3.48259 33.9374 3.46322 33.896 3.42804C33.1252 2.83716 32.2475 2.40036 31.3109 2.14162C30.2448 1.85958 29.1385 1.75935 28.039 1.84533C21.7214 2.26284 15.4037 2.77351 9.08615 3.37721V3.33506Z" fill="#82B6FF"/>
<path d="M22.6059 17.4596L22.7415 19.3382C25.8776 19.1125 29.0139 18.9123 32.1501 18.7374C32.6 18.6948 33.0538 18.735 33.4892 18.856C33.7808 18.9396 34.0502 19.0869 34.2776 19.2874C34.4596 19.4642 34.5912 19.6864 34.659 19.9308C34.7232 20.163 34.7629 20.4011 34.7776 20.6416C34.7972 20.9244 34.7829 21.2085 34.7352 21.4879C34.6945 21.7379 34.5861 21.9723 34.4217 22.1652C34.2276 22.3897 33.9753 22.5565 33.6926 22.6475C33.2691 22.792 32.8264 22.8717 32.379 22.8843C24.4001 23.3243 16.4294 23.9312 8.46747 24.7042C8.0264 24.771 7.57791 24.771 7.13685 24.7042C6.84307 24.6522 6.56807 24.5234 6.33993 24.3314C6.15055 24.168 6.00736 23.9582 5.92461 23.7223C5.84574 23.46 5.79187 23.1906 5.76361 22.9181C5.7383 22.6762 5.7383 22.4324 5.76361 22.1904C5.79786 21.9406 5.89732 21.7042 6.05187 21.5048C6.24363 21.2692 6.48716 21.081 6.76374 20.9548C7.17359 20.7719 7.6127 20.6631 8.06062 20.6333C11.1629 20.3343 14.2709 20.0522 17.3844 19.787L17.2319 17.908C14.9857 18.0942 12.7311 18.2803 10.451 18.4919C9.96015 18.5546 9.46252 18.5405 8.97612 18.4498C8.65828 18.3997 8.36292 18.2549 8.1285 18.0349C7.94117 17.844 7.80684 17.6077 7.73863 17.3493C7.66754 17.0712 7.61661 16.7884 7.58611 16.503C7.41659 14.7088 7.2385 12.9062 7.06898 11.1036C7.03967 10.8052 7.03967 10.5047 7.06898 10.2064C7.0817 9.92994 7.16645 9.66163 7.31482 9.42786C7.49555 9.15901 7.75211 8.94989 8.05214 8.827C8.51974 8.63822 9.01501 8.52662 9.51851 8.49682C15.7909 7.93261 22.0634 7.45328 28.3358 7.05833C28.7928 7.01757 29.2532 7.04887 29.7004 7.15131C30.0134 7.22094 30.3044 7.36624 30.548 7.57447C30.7341 7.74952 30.8688 7.9721 30.9379 8.21789C31.0069 8.47812 31.0497 8.7446 31.0651 9.01338C31.0806 9.24837 31.0664 9.48445 31.0227 9.71589C30.9787 9.95982 30.8704 10.1875 30.709 10.3758C30.5024 10.6038 30.2477 10.7831 29.9632 10.9007C29.5384 11.0663 29.0882 11.1578 28.6324 11.1713C23.3263 11.4929 18.023 11.8878 12.7225 12.3561L12.8753 14.0996C18.1644 13.6425 23.4507 13.2503 28.7342 12.9231C29.1892 12.8828 29.6477 12.9203 30.0903 13.0334C30.3914 13.1177 30.666 13.2778 30.8872 13.4987C31.0717 13.685 31.2058 13.9151 31.277 14.1673C31.3416 14.3883 31.3841 14.6149 31.4041 14.8442C31.4343 15.1114 31.4343 15.3812 31.4041 15.6484C31.3671 15.9021 31.2584 16.1399 31.0906 16.334C30.8924 16.5635 30.6384 16.7384 30.3531 16.8418C29.9313 16.9964 29.4881 17.0849 29.0392 17.1042C26.8806 17.1889 24.7363 17.3073 22.6059 17.4596ZM14.2398 35.579C13.362 35.6643 12.4762 35.5985 11.6208 35.3844C10.9624 35.2353 10.3437 34.9467 9.80677 34.5381C9.33896 34.1416 8.96787 33.6439 8.72179 33.0826C8.45697 32.4669 8.29375 31.8124 8.23859 31.1445C8.16608 30.4733 8.18898 29.7953 8.30647 29.1304C8.41147 28.5288 8.66828 27.9638 9.05248 27.4886C9.49217 26.9615 10.0535 26.5488 10.6883 26.2865C11.5576 25.9241 12.4787 25.7015 13.4176 25.6265C18.0965 25.2146 22.7782 24.8564 27.4628 24.5517C28.4033 24.468 29.3512 24.5395 30.2684 24.7633C30.9338 24.9337 31.5493 25.2585 32.0653 25.7112C32.5154 26.1324 32.8532 26.6589 33.0484 27.2431C33.271 27.881 33.3969 28.5484 33.4215 29.2234C33.5454 30.5151 33.1693 31.805 32.3705 32.8285C31.5907 33.7933 30.192 34.3603 28.1746 34.5211C23.5297 34.8145 18.8961 35.1672 14.2737 35.579H14.2398ZM26.4624 30.7635C26.9345 30.7641 27.3998 30.6512 27.8187 30.4338C27.9602 30.3259 28.0691 30.1809 28.1334 30.0152C28.1978 29.8494 28.2149 29.669 28.1831 29.4941C28.1833 29.3232 28.1389 29.1553 28.0542 29.0068C27.9694 28.8584 27.8474 28.7346 27.7001 28.6477C27.2554 28.4876 26.7781 28.4383 26.3099 28.5039C22.5973 28.7465 18.882 29.0286 15.1638 29.3502C14.6924 29.3582 14.2298 29.4801 13.816 29.7056C13.6761 29.8162 13.5696 29.9636 13.5083 30.1309C13.4469 30.2982 13.4332 30.479 13.4685 30.6536C13.4692 30.8273 13.5166 30.9976 13.6062 31.1466C13.6957 31.2956 13.8238 31.4176 13.977 31.4999C14.4223 31.6448 14.8952 31.6854 15.3587 31.6185C19.0656 31.2913 22.7668 31.0061 26.4624 30.7635Z" fill="#0E74FF"/>
<path d="M43.2455 28.1571L46.3734 28.039C46.8807 28.013 47.3888 28.0614 47.882 28.1828C48.2223 28.2745 48.5399 28.436 48.8144 28.6568C49.0269 28.8392 49.1852 29.0764 49.2722 29.3423C49.3535 29.5943 49.399 29.8563 49.4077 30.1209C49.4147 30.4059 49.3834 30.6905 49.3146 30.9672C49.246 31.2409 49.1021 31.4902 48.8993 31.6866C48.6541 31.9115 48.3657 32.0839 48.0517 32.1941C47.5673 32.3375 47.065 32.4118 46.5599 32.4144L41.1519 32.6173C40.6712 32.6522 40.1879 32.6125 39.7195 32.4991C39.4035 32.4284 39.1114 32.2767 38.8719 32.059C38.6837 31.8714 38.5542 31.6332 38.499 31.3734C38.4426 31.0944 38.4085 30.8114 38.3972 30.5271L37.4055 9.28439C37.339 8.88953 37.3616 8.48469 37.4715 8.09963C37.5815 7.71457 37.7761 7.3591 38.0412 7.05867C38.5478 6.6345 39.1855 6.39825 39.8466 6.39005C40.1822 6.37394 40.5187 6.40248 40.8469 6.47476C41.1576 6.5462 41.4476 6.68788 41.6945 6.88924C41.9588 7.11854 42.1625 7.40917 42.2878 7.73556C42.447 8.16068 42.5303 8.61069 42.5337 9.06455L43.2455 28.1571ZM51.976 20.1597L48.5007 20.2444C47.9999 20.2725 47.4979 20.2294 47.0091 20.1171C46.6948 20.0326 46.4046 19.8765 46.1615 19.6605C45.9511 19.4795 45.798 19.2412 45.7207 18.9749C45.6432 18.6992 45.6003 18.4149 45.5934 18.1286C45.5872 17.8646 45.61 17.6005 45.6613 17.3414C45.7218 17.0707 45.8603 16.8237 46.0597 16.6306C46.2993 16.3945 46.5889 16.2151 46.9073 16.1058C47.3881 15.9454 47.8922 15.8651 48.3991 15.8686L51.8997 15.7756L51.7302 8.49717C51.6721 8.10378 51.702 7.70238 51.8177 7.32191C51.9335 6.94143 52.1324 6.59167 52.3999 6.29707C52.8691 5.88806 53.4723 5.66501 54.0951 5.67059C54.6948 5.6563 55.2802 5.85428 55.7479 6.2293C56.0259 6.51426 56.2377 6.85672 56.3681 7.23265C56.4985 7.60857 56.5444 8.00857 56.5024 8.40419C56.6211 15.6769 56.734 22.9468 56.8414 30.2139C56.8605 30.6771 56.8032 31.1403 56.6719 31.585C56.5685 31.8981 56.4011 32.1863 56.1802 32.4313C55.984 32.6456 55.736 32.8057 55.4599 32.8966C55.1856 32.9836 54.9 33.0294 54.6122 33.0322C54.3256 33.0404 54.0396 33.0034 53.7646 32.9222C53.4832 32.8502 53.2276 32.7004 53.0271 32.4904C52.792 32.2501 52.6127 31.9612 52.5017 31.6441C52.3517 31.2024 52.2744 30.7393 52.2728 30.2729L51.976 20.1597ZM59.5198 8.31121C59.4704 7.91674 59.5077 7.51618 59.6293 7.1376C59.7508 6.75903 59.9535 6.41169 60.2234 6.11937C60.6962 5.71953 61.2991 5.50548 61.9186 5.51811C62.5196 5.50694 63.104 5.71487 63.5629 6.10243C63.8386 6.38992 64.0469 6.73482 64.173 7.11239C64.299 7.48996 64.3397 7.89046 64.292 8.28559C64.292 15.5583 64.3118 22.8282 64.3514 30.0953C64.3622 30.5599 64.2964 31.0232 64.1564 31.4664C64.0515 31.7806 63.881 32.069 63.6563 32.3127C63.4581 32.5208 63.2101 32.6754 62.9357 32.7615C62.6625 32.8526 62.3761 32.898 62.0881 32.8966C61.8014 32.8973 61.516 32.8577 61.2405 32.7784C60.9639 32.6961 60.7131 32.5446 60.5116 32.3383C60.2841 32.0953 60.1107 31.8068 60.003 31.492C59.8546 31.0504 59.783 30.5866 59.7911 30.1209L59.5198 8.31121Z" fill="#0E74FF"/>
<path d="M73.6075 27.7764L77.3963 27.8354C77.9021 27.8295 78.4056 27.904 78.8881 28.0557C79.2237 28.1617 79.5329 28.3375 79.7951 28.5718C79.9955 28.7683 80.1415 29.0131 80.2189 29.2826C80.2866 29.5394 80.3178 29.8044 80.3121 30.0698C80.3029 30.3566 80.2575 30.6409 80.1765 30.9162C80.0917 31.1856 79.9331 31.4258 79.7188 31.61C79.4536 31.8317 79.14 31.9882 78.8033 32.067C78.3158 32.1883 77.8133 32.2367 77.3117 32.2109C75.2859 32.2109 73.2684 32.1435 71.2511 32.1266C70.7694 32.1419 70.2886 32.0788 69.8271 31.9402C69.5251 31.849 69.2511 31.6832 69.0304 31.4579C68.8522 31.2621 68.7369 31.0173 68.6997 30.7554C68.6558 30.4754 68.6331 30.1925 68.6318 29.9091L68.7336 8.15853C68.7371 7.87487 68.7627 7.59191 68.81 7.31221C68.8511 7.04631 68.9757 6.80026 69.1659 6.6097C69.4054 6.38485 69.6964 6.22207 70.0136 6.13571C70.4993 6.00445 71.0027 5.95024 71.5054 5.97496C73.3871 5.97496 75.2772 6.01755 77.1589 6.05141C77.683 6.0451 78.2054 6.11328 78.7102 6.25431C79.0567 6.34981 79.3778 6.52056 79.6509 6.75392C79.8587 6.94742 80.0109 7.19273 80.0917 7.46469C80.1596 7.74153 80.191 8.02605 80.185 8.31101C80.1763 8.57836 80.1308 8.84296 80.0495 9.09782C79.9621 9.36576 79.8004 9.60351 79.5832 9.78339C79.3025 10.0094 78.9754 10.1712 78.6253 10.2574C78.1196 10.3903 77.5966 10.4445 77.0743 10.4181L73.8533 10.3673L73.6075 27.7764ZM82.9313 8.5478C82.8926 8.15083 82.9433 7.75031 83.0797 7.37543C83.2161 7.00055 83.4346 6.66076 83.7195 6.38117C84.2008 6.00261 84.8028 5.81056 85.4148 5.83983C86.0134 5.85717 86.5869 6.08475 87.0338 6.48283C87.2972 6.78302 87.4919 7.13676 87.6046 7.51965C87.7173 7.90255 87.7454 8.30554 87.6865 8.70029L87.4067 16.4866L90.5259 16.6048C90.6361 14.0066 90.7464 11.4171 90.8481 8.81889C90.8182 8.41872 90.8787 8.0168 91.0255 7.64321C91.1722 7.26963 91.4014 6.93371 91.6957 6.66052C92.1805 6.29102 92.7822 6.10792 93.391 6.14439C93.99 6.17071 94.5603 6.40755 95.0014 6.81301C95.2633 7.11351 95.4554 7.46813 95.5638 7.85149C95.6723 8.23485 95.6944 8.63756 95.6286 9.03047L94.5606 30.8145C94.5538 31.2806 94.4648 31.7417 94.2978 32.177C94.1824 32.4959 93.9971 32.785 93.7554 33.0233C93.5463 33.2228 93.2894 33.3657 93.0094 33.4382C92.7325 33.5077 92.4469 33.5363 92.1618 33.5229C91.8728 33.5118 91.5871 33.4577 91.3142 33.3621C91.0392 33.2652 90.7941 33.0987 90.6023 32.8795C90.3926 32.6307 90.2342 32.3431 90.1361 32.0332C90.0105 31.5848 89.9647 31.118 90.0005 30.6538C90.1276 27.4547 90.2632 24.247 90.3904 21.048L87.288 20.9298C87.1778 24.1289 87.0592 27.3361 86.9405 30.5352C86.9368 30.9993 86.8566 31.4599 86.7031 31.898C86.5882 32.2152 86.4062 32.5039 86.1692 32.7443C85.9611 32.9469 85.7041 33.0926 85.4232 33.1675C85.1473 33.2429 84.8616 33.2769 84.5756 33.2688C84.2872 33.2591 84.0017 33.208 83.728 33.1167C83.454 33.0221 83.209 32.8589 83.0161 32.6427C82.7969 32.3979 82.6321 32.1095 82.5329 31.7964C82.4051 31.3483 82.3536 30.8821 82.3804 30.417L82.9313 8.5478Z" fill="#0E74FF"/>
<path d="M101.096 21.6655C101.084 20.8924 101.254 20.1273 101.593 19.4319C101.931 18.7366 102.429 18.1305 103.045 17.6624C104.249 16.8161 106.091 16.4778 108.572 16.6471C111.064 16.8248 112.81 17.4254 113.903 18.424C114.447 18.9735 114.854 19.6426 115.093 20.3774C115.331 21.1122 115.394 21.8922 115.276 22.6556C115.25 23.9321 114.773 25.1585 113.929 26.1173C112.986 26.9758 111.771 27.476 110.496 27.5306L110.318 29.9171L114.776 30.2725C115.281 30.3037 115.779 30.3976 116.26 30.5518C116.577 30.6634 116.866 30.8425 117.107 31.0767C117.304 31.2762 117.437 31.5294 117.489 31.8044C117.529 32.0851 117.529 32.37 117.489 32.6507C117.471 32.9098 117.411 33.1643 117.311 33.404C117.206 33.6624 117.033 33.8877 116.811 34.0557C116.531 34.2571 116.209 34.3933 115.87 34.4537C115.375 34.5423 114.869 34.559 114.37 34.5041C109.979 34.1373 105.583 33.8217 101.181 33.5565C100.679 33.5422 100.182 33.4538 99.7057 33.2941C99.3884 33.1826 99.0992 33.0034 98.8581 32.7693C98.6693 32.5682 98.5326 32.3243 98.4597 32.0585C98.3994 31.8036 98.3765 31.5414 98.3918 31.28C98.4046 30.9916 98.4588 30.7066 98.5528 30.4337C98.6429 30.172 98.808 29.9422 99.0275 29.7733C99.3055 29.5687 99.6279 29.4326 99.9685 29.3758C100.466 29.2853 100.973 29.2595 101.477 29.2993L105.029 29.5278C105.08 28.7238 105.13 27.9115 105.19 27.1075C103.912 26.8543 102.764 26.1626 101.943 25.1524C101.261 24.1251 100.961 22.891 101.096 21.6655ZM99.9176 13.1263C99.932 12.8374 99.9891 12.5522 100.087 12.2799C100.182 12.0348 100.351 11.825 100.57 11.6791C100.866 11.5052 101.195 11.3958 101.536 11.3576C102.052 11.3033 102.572 11.3033 103.088 11.3576C106.975 11.6058 110.866 11.8879 114.759 12.2039C115.278 12.2357 115.792 12.3206 116.294 12.4576C116.625 12.5431 116.935 12.699 117.2 12.9147C117.397 13.0892 117.536 13.3193 117.599 13.5746C117.646 13.8547 117.646 14.1408 117.599 14.4209C117.585 14.6643 117.524 14.9028 117.421 15.1235C117.317 15.3506 117.146 15.54 116.929 15.6652C116.628 15.8198 116.3 15.9147 115.963 15.9446C115.45 16.0008 114.933 16.0008 114.42 15.9446C110.555 15.6286 106.687 15.3465 102.816 15.0982C102.302 15.0756 101.791 15.0017 101.291 14.878C100.959 14.8026 100.647 14.6584 100.375 14.4548C100.175 14.3032 100.027 14.0933 99.9515 13.854C99.8939 13.6159 99.871 13.3709 99.8836 13.1263H99.9176ZM102.672 8.13306C102.68 7.84336 102.737 7.55712 102.842 7.28674C102.939 7.05137 103.112 6.85479 103.334 6.72804C103.632 6.56353 103.961 6.46258 104.3 6.43174C104.821 6.38408 105.346 6.38408 105.868 6.43174C108.148 6.57562 110.42 6.73668 112.7 6.91441C113.219 6.94854 113.735 7.02498 114.242 7.14293C114.578 7.21926 114.893 7.36624 115.166 7.57436C115.367 7.73262 115.51 7.953 115.573 8.20083C115.636 8.47823 115.654 8.76417 115.624 9.04715C115.606 9.29257 115.546 9.53293 115.446 9.75793C115.341 9.98481 115.166 10.1717 114.946 10.291C114.644 10.4557 114.313 10.562 113.971 10.6042C113.456 10.6611 112.935 10.6611 112.42 10.6042C110.157 10.435 107.885 10.2743 105.639 10.122C105.12 10.1025 104.605 10.0228 104.105 9.88479C103.775 9.79698 103.464 9.64765 103.189 9.44469C102.988 9.2939 102.84 9.08366 102.765 8.84383C102.693 8.61407 102.662 8.37364 102.672 8.13306ZM106.241 21.9957C106.216 22.2178 106.216 22.4421 106.241 22.6643C106.282 22.904 106.368 23.1335 106.495 23.3412C106.636 23.5657 106.827 23.7545 107.054 23.8916C107.347 24.0601 107.675 24.1556 108.012 24.1706C108.358 24.2095 108.708 24.1601 109.029 24.0268C109.272 23.9225 109.487 23.7633 109.657 23.5614C109.808 23.3785 109.918 23.1646 109.979 22.935C110.041 22.7166 110.08 22.4926 110.098 22.2663C110.118 22.0383 110.118 21.8088 110.098 21.5808C110.073 21.3356 109.995 21.0989 109.869 20.8869C109.731 20.6647 109.538 20.4813 109.309 20.3539C109.004 20.1906 108.664 20.1007 108.317 20.0914C107.982 20.0508 107.642 20.0916 107.326 20.21C107.081 20.3058 106.865 20.4633 106.699 20.6671C106.542 20.8571 106.424 21.0753 106.351 21.3101C106.293 21.5346 106.256 21.7642 106.241 21.9957ZM121.676 10.858C121.665 10.4503 121.752 10.0462 121.931 9.67941C122.109 9.31259 122.374 8.99404 122.702 8.75085C123.294 8.41089 123.98 8.2686 124.66 8.34464C125.007 8.37469 125.349 8.45158 125.677 8.57316C125.999 8.67885 126.29 8.86184 126.524 9.10624C126.77 9.36491 126.95 9.6783 127.05 10.0203C127.174 10.4633 127.208 10.9264 127.152 11.3828L124.965 33.0825C124.93 33.5474 124.806 34.0014 124.6 34.4198C124.437 34.7324 124.209 35.0063 123.931 35.2235C123.678 35.4055 123.389 35.5299 123.083 35.5876C122.751 35.6303 122.415 35.6303 122.083 35.5876C121.75 35.5544 121.423 35.4803 121.108 35.3673C120.81 35.2481 120.539 35.0699 120.311 34.8429C120.076 34.5811 119.905 34.2681 119.811 33.9289C119.701 33.4748 119.672 33.0048 119.726 32.5408C120.365 25.3245 121.015 18.0968 121.676 10.858Z" fill="#0E74FF"/>
<path d="M92.8824 47.7578H38.8381C36.1604 47.7578 33.9897 49.9252 33.9897 52.5988V58.1591C33.9897 60.8327 36.1604 63 38.8381 63H92.8824C95.5601 63 97.7308 60.8327 97.7308 58.1591V52.5988C97.7308 49.9252 95.5601 47.7578 92.8824 47.7578Z" fill="#0E74FF"/>
<path d="M65.038 45.4136C65.1192 45.2594 65.2412 45.1305 65.3906 45.0404C65.54 44.9504 65.7111 44.9028 65.8856 44.9028C66.0601 44.9028 66.2314 44.9504 66.3808 45.0404C66.5302 45.1305 66.6519 45.2594 66.7332 45.4136L68.7761 48.9514L70.8188 52.4804C70.9026 52.6271 70.9461 52.7931 70.9448 52.9619C70.9435 53.1307 70.8974 53.2964 70.8113 53.4416C70.7252 53.5869 70.6021 53.7068 70.4546 53.7892C70.307 53.8716 70.1402 53.9135 69.9712 53.9107H61.7408C61.5708 53.9162 61.4024 53.8759 61.2533 53.7941C61.1041 53.7124 60.9796 53.5924 60.893 53.4462C60.8063 53.3 60.7607 53.133 60.7607 52.9631C60.7608 52.7932 60.8065 52.6266 60.8932 52.4804L62.9359 48.9514L65.038 45.4136Z" fill="#0E74FF"/>
<path d="M46.3395 57.6088C46.4374 57.6002 46.5359 57.6132 46.6282 57.6468C46.7205 57.6805 46.8042 57.7339 46.8734 57.8035C46.9761 57.9268 47.0303 58.0832 47.0259 58.2436C47.0341 58.311 47.0341 58.379 47.0259 58.4465C47.0044 58.5188 46.9668 58.5854 46.9159 58.6411C46.8575 58.705 46.7849 58.7547 46.7039 58.7853C46.5962 58.828 46.4809 58.848 46.365 58.8444H42.4065C42.2926 58.8541 42.1781 58.837 42.072 58.7944C41.966 58.7518 41.8715 58.6848 41.7962 58.599C41.6649 58.4456 41.5928 58.2506 41.5928 58.0489C41.6038 57.8638 41.6653 57.6854 41.7707 57.5328C41.9968 57.2291 42.2494 56.9459 42.5252 56.6865C42.8389 56.3903 43.1524 56.094 43.4745 55.8402L44.1526 55.2137C44.3571 55.0313 44.5469 54.8331 44.7204 54.6211C44.8711 54.4472 45.0019 54.257 45.1103 54.0541C45.2066 53.8895 45.2593 53.7034 45.263 53.5128C45.2714 53.4057 45.2714 53.2979 45.263 53.1909C45.2453 53.0821 45.2047 52.9784 45.1443 52.8863C45.0807 52.7894 44.9933 52.7107 44.8901 52.6578C44.7465 52.5934 44.5895 52.5643 44.4324 52.5731C44.3035 52.5727 44.175 52.5898 44.0508 52.6239C43.9326 52.6509 43.8206 52.6996 43.7203 52.7677C43.6253 52.8346 43.5493 52.925 43.4999 53.0301C43.4393 53.1415 43.4099 53.2675 43.4151 53.3942C43.4141 53.4695 43.3963 53.5437 43.3625 53.6111C43.3287 53.6785 43.28 53.7375 43.2201 53.7834C43.054 53.9052 42.8491 53.9624 42.6438 53.9442C42.5425 53.9576 42.4401 53.9576 42.3388 53.9442C42.2478 53.9158 42.1619 53.873 42.0845 53.8173C42.0051 53.7604 41.9411 53.6846 41.898 53.5971C41.8523 53.4901 41.8292 53.3749 41.8301 53.2586C41.8257 52.9816 41.8991 52.7088 42.042 52.4714C42.1877 52.2341 42.381 52.0295 42.6099 51.8706C42.8679 51.6932 43.1547 51.5615 43.4575 51.4813C43.7663 51.3931 44.0858 51.3478 44.4069 51.3461C44.7799 51.3403 45.1515 51.3914 45.5089 51.4982C45.8012 51.5924 46.074 51.7388 46.3141 51.9301C46.5295 52.1121 46.7004 52.3408 46.814 52.5987C46.9291 52.8659 46.987 53.1542 46.9837 53.445C46.99 53.7345 46.938 54.0222 46.831 54.2913C46.7258 54.554 46.5861 54.8013 46.4157 55.0273C46.2311 55.2796 46.024 55.5148 45.7969 55.7298L45.0426 56.441L44.4069 57.0162C44.1768 57.2236 43.9589 57.4442 43.7542 57.6766L46.3395 57.6088Z" fill="white"/>
<path d="M51.0604 58.8956C50.6758 58.8988 50.2921 58.8589 49.9163 58.777C49.6085 58.7021 49.3197 58.5637 49.0687 58.3708C48.8338 58.1753 48.6504 57.9256 48.5345 57.6431C48.3996 57.2954 48.3362 56.924 48.3481 56.5513V53.6313C48.3369 53.2614 48.4002 52.8932 48.5345 52.5482C48.6504 52.2657 48.8338 52.016 49.0687 51.8205C49.3197 51.6275 49.6085 51.4888 49.9163 51.4139C50.291 51.3247 50.6752 51.2821 51.0604 51.287C51.4456 51.2826 51.83 51.3252 52.2048 51.4139C52.5134 51.4955 52.8019 51.6395 53.0524 51.837C53.2993 52.0303 53.4919 52.284 53.6118 52.5734C53.7468 52.9211 53.8101 53.2925 53.7982 53.6652V56.5513C53.7976 56.9226 53.7257 57.2902 53.5863 57.6344C53.4589 57.9171 53.2675 58.1665 53.027 58.3625C52.7759 58.5555 52.4872 58.6938 52.1794 58.7687C51.813 58.8568 51.4372 58.8993 51.0604 58.8956ZM52.103 53.6483C52.0993 53.4747 52.0796 53.302 52.0438 53.1321C52.0186 53.0027 51.9635 52.8811 51.8828 52.7767C51.7965 52.6863 51.6885 52.6194 51.5691 52.5821C51.404 52.5339 51.2324 52.511 51.0604 52.5143C50.8856 52.5101 50.7113 52.533 50.5435 52.5821C50.4242 52.6189 50.3181 52.6892 50.2383 52.785C50.1659 52.89 50.1142 53.0079 50.0858 53.1321C50.0565 53.3026 50.0423 53.4753 50.0433 53.6483V56.5595C50.0422 56.7269 50.0564 56.8944 50.0858 57.0592C50.1097 57.1849 50.1618 57.3032 50.2383 57.4059C50.3181 57.5017 50.4242 57.5724 50.5435 57.6092C50.712 57.6542 50.8861 57.6741 51.0604 57.6683C51.213 57.689 51.3684 57.6755 51.5151 57.6286C51.6617 57.5818 51.7959 57.5029 51.9081 57.3976C52.0697 57.1463 52.1441 56.849 52.12 56.5513L52.103 53.6483Z" fill="white"/>
<path d="M58.4519 57.4227H55.4683C55.3469 57.429 55.227 57.3934 55.1291 57.3215C55.0464 57.2539 54.9871 57.1621 54.9596 57.059C54.9379 56.9501 54.9379 56.8378 54.9596 56.7289C54.9741 56.6192 55.0087 56.5129 55.0614 56.4156L57.7738 51.6848C57.8216 51.5909 57.8897 51.5087 57.9733 51.4443C58.0568 51.3799 58.1536 51.3349 58.2568 51.3125C58.4546 51.2672 58.6623 51.2941 58.8418 51.3885C58.9447 51.4274 59.0363 51.491 59.1087 51.5737C59.1812 51.6563 59.2322 51.7555 59.2571 51.8625C59.2985 52.076 59.2559 52.2973 59.1383 52.4803L56.9431 56.1958H58.4687V54.6808C58.4643 54.4773 58.5337 54.2789 58.6638 54.1221C58.7479 54.0306 58.8522 53.96 58.9684 53.9159C59.0847 53.8718 59.2096 53.8556 59.3333 53.8684C59.455 53.8559 59.5779 53.8713 59.6925 53.9139C59.8072 53.9564 59.9105 54.025 59.9944 54.1139C60.1296 54.2716 60.202 54.4733 60.1979 54.6808V56.1958H60.6726C60.7933 56.1923 60.9136 56.2096 61.0285 56.2466C61.1113 56.2745 61.1867 56.3205 61.2489 56.3817C61.3008 56.4355 61.3362 56.5031 61.3507 56.5764C61.3595 56.6495 61.3595 56.7235 61.3507 56.7966C61.3538 56.958 61.3032 57.1156 61.2067 57.245C61.1327 57.3146 61.044 57.3667 60.9472 57.3975C60.8504 57.4282 60.7478 57.4368 60.6471 57.4227H60.1724V58.1C60.1801 58.1816 60.1801 58.2638 60.1724 58.3455C60.1458 58.4362 60.0996 58.5201 60.0369 58.5909C59.9611 58.6682 59.8721 58.731 59.7741 58.7769C59.6363 58.8295 59.489 58.8526 59.3418 58.8447C59.1945 58.8526 59.0472 58.8295 58.9095 58.7769C58.8114 58.731 58.7226 58.6682 58.6469 58.5909C58.5841 58.5201 58.5377 58.4362 58.5111 58.3455C58.5034 58.2638 58.5034 58.1816 58.5111 58.1L58.4519 57.4227Z" fill="white"/>
<path d="M64.8093 51.287C65.1832 51.2849 65.5558 51.3275 65.9195 51.4138C66.2354 51.4859 66.5366 51.6122 66.8095 51.7866C67.0568 51.9414 67.2632 52.1533 67.4113 52.4044C67.5623 52.679 67.6383 52.9884 67.6317 53.3015C67.6415 53.6339 67.5436 53.9601 67.3521 54.2322C67.1833 54.4739 66.9558 54.669 66.691 54.7991C67.0312 54.9535 67.3239 55.1961 67.5386 55.5016C67.7629 55.8205 67.876 56.2041 67.8606 56.5934V56.7203C67.8668 57.0409 67.7846 57.3571 67.6232 57.6344C67.4569 57.9121 67.2275 58.147 66.9536 58.32C66.652 58.5171 66.3198 58.6631 65.9704 58.7518C65.5795 58.8485 65.1781 58.8968 64.7753 58.8956C64.3726 58.8957 63.9712 58.8475 63.5801 58.7518C63.2314 58.661 62.8996 58.5151 62.5969 58.32C62.3269 58.1422 62.0984 57.9084 61.9272 57.6344C61.7633 57.3578 61.6782 57.0417 61.6814 56.7203V56.5934C61.6672 56.2055 61.7771 55.8231 61.9951 55.5016C62.2217 55.187 62.5334 54.9433 62.8936 54.7991C62.6356 54.6657 62.4143 54.4711 62.2494 54.2322C62.0602 53.9591 61.9622 53.6335 61.9697 53.3015C61.9584 52.9879 62.0347 52.6772 62.1901 52.4044C62.335 52.1537 62.5385 51.9417 62.7833 51.7866C63.0563 51.6122 63.3575 51.4859 63.6734 51.4138C64.0453 51.3248 64.4269 51.2822 64.8093 51.287ZM66.1738 56.5426C66.1797 56.3723 66.1418 56.2036 66.0637 56.0521C65.9962 55.9202 65.8971 55.8067 65.7755 55.7219C65.6405 55.6347 65.4913 55.5715 65.3347 55.5355C65.1627 55.494 64.9862 55.4743 64.8093 55.4764C64.6323 55.4747 64.4558 55.4945 64.2837 55.5355C64.127 55.5715 63.9778 55.6347 63.8429 55.7219C63.7188 55.8065 63.6169 55.9198 63.5461 56.0521C63.4651 56.2028 63.4243 56.3715 63.4275 56.5426V56.6021C63.4262 56.7494 63.4612 56.8947 63.5294 57.0253C63.6038 57.1573 63.7013 57.2745 63.8174 57.372C63.9523 57.4693 64.1008 57.5463 64.2582 57.6005C64.4366 57.656 64.6224 57.6846 64.8093 57.6852C65.1695 57.7043 65.5246 57.593 65.8094 57.372C65.9247 57.2796 66.0174 57.1624 66.0805 57.029C66.1436 56.8956 66.1755 56.7497 66.1738 56.6021V56.5426ZM64.8093 52.5056C64.5138 52.4875 64.2195 52.5551 63.9617 52.7003C63.8572 52.7641 63.7724 52.8561 63.7171 52.9652C63.6617 53.0743 63.6378 53.1962 63.6479 53.3181C63.6345 53.4462 63.6568 53.5756 63.7121 53.6921C63.7674 53.8085 63.8538 53.9077 63.9617 53.9784C64.2168 54.1309 64.5126 54.2015 64.8093 54.1813C65.1055 54.1959 65.3996 54.1256 65.6569 53.9784C65.7619 53.9054 65.8454 53.8056 65.899 53.6896C65.9526 53.5736 65.9744 53.4452 65.9619 53.3181C65.972 53.1971 65.949 53.0761 65.8953 52.9672C65.8415 52.8584 65.7591 52.7659 65.6569 52.7003C65.3973 52.5598 65.1043 52.4925 64.8093 52.5056Z" fill="white"/>
<path d="M71.9121 58.5316C71.9039 58.4585 71.9039 58.3849 71.9121 58.3118C71.9318 58.2362 71.9695 58.1662 72.0222 58.1085C72.0823 58.0444 72.1543 57.993 72.2341 57.9564C72.3492 57.9055 72.473 57.8767 72.5987 57.8717V52.4636C72.492 52.4679 72.3855 52.4496 72.2863 52.4103C72.187 52.3709 72.0969 52.3113 72.0222 52.235C71.9256 52.1024 71.8751 51.9419 71.8782 51.778C71.8705 51.6964 71.8705 51.6142 71.8782 51.5325C71.9035 51.4511 71.9505 51.378 72.0139 51.321C72.0927 51.2473 72.1888 51.1951 72.2935 51.1689C72.4417 51.124 72.5964 51.1037 72.7512 51.1094H76.1417C76.2965 51.1037 76.4512 51.124 76.5995 51.1689C76.7041 51.1951 76.8005 51.2473 76.8793 51.321C76.9403 51.3785 76.9842 51.4517 77.0063 51.5325C77.0183 51.6139 77.0183 51.6966 77.0063 51.778C77.0094 51.9419 76.9589 52.1024 76.8623 52.235C76.7876 52.3113 76.6975 52.3709 76.5982 52.4103C76.4989 52.4496 76.3925 52.4679 76.2858 52.4636V57.846C76.4086 57.8522 76.5295 57.8809 76.6419 57.9308C76.7254 57.9653 76.8005 58.0174 76.8623 58.0832C76.9118 58.1432 76.9491 58.212 76.9724 58.2861C76.9806 58.3593 76.9806 58.4333 76.9724 58.5064C76.986 58.5962 76.986 58.6873 76.9724 58.7771C76.9521 58.8611 76.908 58.9378 76.8453 58.9973C76.7638 59.0653 76.6682 59.1143 76.5655 59.1411C76.4173 59.1861 76.2626 59.2059 76.1078 59.2002H72.7173C72.5625 59.2059 72.4078 59.1861 72.2596 59.1411C72.1568 59.1143 72.0615 59.0653 71.98 58.9973C71.9145 58.9385 71.8673 58.8619 71.8442 58.7771C71.8588 58.6933 71.8816 58.611 71.9121 58.5316ZM74.1667 57.863H74.8873V52.4636H74.1667V57.863ZM78.4048 55.7389H77.6929C77.5415 55.7434 77.3902 55.7263 77.2437 55.6881C77.1439 55.6621 77.053 55.6093 76.9809 55.5356C76.9242 55.4714 76.8811 55.3968 76.8538 55.3158C76.8447 55.2229 76.8447 55.1293 76.8538 55.0364C76.8459 54.9576 76.8459 54.878 76.8538 54.7992C76.8791 54.7148 76.9224 54.6372 76.9809 54.5711C77.0552 54.5004 77.1453 54.448 77.2437 54.4186C77.3888 54.3729 77.5409 54.353 77.6929 54.3595H78.4048V51.871C78.3923 51.7477 78.407 51.6231 78.4481 51.5061C78.4891 51.3891 78.5554 51.2827 78.6422 51.1941C78.8054 51.0778 79.0012 51.0157 79.2017 51.0164C79.303 51.003 79.4055 51.003 79.5067 51.0164C79.6016 51.044 79.6887 51.0932 79.7611 51.1602C79.8429 51.2302 79.9043 51.3208 79.939 51.4226C79.9862 51.5557 80.0092 51.6959 80.0069 51.8371V58.6076C80.0101 58.7516 79.987 58.895 79.939 59.0308C79.9022 59.134 79.8412 59.2271 79.7611 59.3019C79.6861 59.3633 79.5996 59.4094 79.5067 59.4374C79.4055 59.4509 79.303 59.4509 79.2017 59.4374C79.1033 59.4504 79.0034 59.4504 78.905 59.4374C78.8095 59.4094 78.7203 59.3633 78.6422 59.3019C78.562 59.2271 78.501 59.134 78.4642 59.0308C78.4194 58.8944 78.3993 58.7511 78.4048 58.6076V55.7389Z" fill="white"/>
<path d="M82.126 55.4254C81.9484 55.4422 81.7707 55.394 81.6259 55.2899C81.5729 55.237 81.532 55.1736 81.5056 55.1035C81.4793 55.0335 81.4683 54.9583 81.4734 54.8837C81.4722 54.7417 81.527 54.6052 81.6259 54.5031C81.7664 54.3893 81.9458 54.3345 82.126 54.3506H89.5257C89.7086 54.334 89.8907 54.3887 90.0342 54.5031C90.1331 54.6052 90.188 54.7417 90.1869 54.8837C90.192 54.9583 90.1809 55.0335 90.1546 55.1035C90.1283 55.1736 90.0872 55.237 90.0342 55.2899C89.8861 55.3939 89.706 55.442 89.5257 55.4254H82.126ZM82.2531 51.6592C82.2428 51.5833 82.2428 51.5065 82.2531 51.4306C82.2712 51.3641 82.3099 51.3052 82.3634 51.2616C82.436 51.2069 82.52 51.1694 82.6092 51.1517C82.7542 51.1216 82.9018 51.1072 83.0498 51.1091H88.5256C88.6737 51.1068 88.8215 51.1212 88.9664 51.1517C89.0562 51.1675 89.1405 51.2052 89.212 51.2616C89.268 51.3029 89.3073 51.3628 89.3223 51.4306C89.3327 51.5065 89.3327 51.5833 89.3223 51.6592C89.3312 51.7237 89.3312 51.7892 89.3223 51.8538C89.3031 51.9175 89.2645 51.974 89.212 52.015C89.1411 52.0741 89.0569 52.1145 88.9664 52.1331C88.8199 52.1489 88.6721 52.1489 88.5256 52.1331H86.7795C86.8671 52.2587 86.9872 52.3584 87.1269 52.4212C87.2959 52.5017 87.4719 52.5668 87.6525 52.6158C87.8608 52.6765 88.0733 52.7215 88.2883 52.7509C88.5086 52.7933 88.7375 52.8188 88.9664 52.8526C89.1709 52.8597 89.3698 52.921 89.5427 53.0303C89.6699 53.1149 89.7122 53.2841 89.6867 53.5295C89.673 53.6353 89.6354 53.7367 89.5767 53.8258C89.5211 53.8851 89.451 53.9288 89.3732 53.9527C89.2866 53.9707 89.1971 53.9707 89.1104 53.9527H88.8222C88.5509 53.9527 88.2797 53.902 87.9745 53.8597C87.6888 53.8168 87.4058 53.7575 87.1269 53.682C86.8787 53.6099 86.6353 53.5222 86.3981 53.4196C86.1779 53.3237 85.9701 53.2017 85.7793 53.0559C85.3796 53.3577 84.9202 53.571 84.4315 53.682C83.9027 53.8146 83.3643 53.9051 82.8212 53.9527H82.5244C82.4377 53.9702 82.3483 53.9702 82.2616 53.9527C82.1862 53.9289 82.1188 53.8851 82.0667 53.8258C82.0008 53.7404 81.9625 53.6371 81.9566 53.5295C81.9566 53.2841 81.9565 53.1149 82.0921 53.0303C82.2657 52.9225 82.4642 52.8613 82.6684 52.8526C82.9058 52.8526 83.1432 52.7933 83.3635 52.7509C83.5839 52.7086 83.8043 52.6749 84.0077 52.6241C84.1873 52.5763 84.3607 52.5084 84.5247 52.4212C84.6629 52.356 84.7826 52.2568 84.8723 52.1331H82.9821C82.8356 52.1485 82.6879 52.1485 82.5414 52.1331C82.4514 52.113 82.3673 52.0727 82.2955 52.015C82.2457 51.9716 82.2079 51.9159 82.1854 51.8538C82.1986 51.786 82.2213 51.7205 82.2531 51.6592ZM83.7789 58.252V58.65H88.7967C88.9489 58.6342 89.1023 58.6342 89.2545 58.65C89.3506 58.666 89.4428 58.7006 89.5257 58.7516C89.5886 58.7875 89.6366 58.8444 89.6613 58.9124C89.6741 58.9852 89.6741 59.0594 89.6613 59.1322C89.6754 59.2106 89.6754 59.2911 89.6613 59.3694C89.6388 59.4386 89.5902 59.4963 89.5257 59.5302C89.4428 59.5812 89.3506 59.6158 89.2545 59.6318C89.1021 59.6421 88.9491 59.6421 88.7967 59.6318H82.9821C82.8335 59.6363 82.6851 59.6192 82.5414 59.581C82.4518 59.5486 82.3707 59.4964 82.304 59.4285C82.2463 59.3677 82.2078 59.2913 82.1937 59.2087C82.1889 59.1213 82.1889 59.0337 82.1937 58.9463V57.7359C82.1849 57.6713 82.1849 57.6058 82.1937 57.5412C82.2105 57.4762 82.2459 57.4172 82.2955 57.3718C82.3597 57.3124 82.4388 57.2717 82.5244 57.2536C82.6542 57.219 82.7886 57.2045 82.9228 57.2111H87.8644V56.8387H82.8294C82.6366 56.8606 82.4422 56.8159 82.2786 56.7119C82.2315 56.6608 82.1953 56.6009 82.172 56.5354C82.1487 56.47 82.1388 56.4002 82.143 56.3309C82.1404 56.1993 82.1889 56.0719 82.2786 55.9755C82.4351 55.8545 82.6329 55.8 82.8294 55.8234H88.7628C88.8946 55.8196 89.0264 55.8364 89.1528 55.8738C89.2345 55.9 89.3097 55.9436 89.3732 56.0011C89.426 56.0454 89.4642 56.104 89.4833 56.1701C89.4916 56.2347 89.4916 56.3001 89.4833 56.3647V57.6768C89.4858 57.7454 89.4742 57.8136 89.4494 57.8776C89.4246 57.9416 89.3873 58 89.3393 58.0491C89.1581 58.1644 88.9421 58.212 88.729 58.1842L83.7789 58.252Z" fill="white"/>
</g>
<defs>
<clipPath id="clip0_1745_7394">
<rect width="133" height="63" fill="white"/>
</clipPath>
</defs>
</svg>
