<svg width="132" height="63" viewBox="0 0 132 63" fill="none" xmlns="http://www.w3.org/2000/svg">
<g clip-path="url(#clip0_1110:4633)">
<path d="M131.436 8.53939C131.095 7.42683 130.505 6.40772 129.712 5.56035C128.879 4.68628 127.857 4.01727 126.725 3.60536C125.911 3.30828 125.063 3.11771 124.201 3.03832C122.305 2.84252 120.397 3.25426 118.749 4.21471L118.665 4.26548C118.455 4.04106 118.234 3.82912 118 3.63075C117.085 2.8718 116.012 2.32819 114.862 2.03966C113.999 1.8169 113.117 1.67524 112.228 1.6165C109.951 1.4416 107.671 1.27797 105.388 1.12563C104.508 1.06106 103.624 1.07523 102.746 1.16795C101.57 1.29041 100.436 1.67183 99.4228 2.2851C99.0268 2.52742 98.6574 2.8111 98.3206 3.13142L98.1187 2.9283C96.6784 1.62494 94.8298 0.870327 92.8939 0.795571C91.5051 0.724447 90.1204 1.00068 88.8638 1.59957C87.6653 0.909 86.3153 0.52808 84.9347 0.490896C83.4729 0.439198 82.0229 0.771734 80.7279 1.4557C80.4502 1.33721 80.1558 1.23566 79.8865 1.13411C78.8484 0.825112 77.772 0.665537 76.6894 0.660157L71.0271 0.583991C69.8892 0.550847 68.7533 0.69939 67.6617 1.02408C67.1478 1.19127 66.6517 1.40958 66.1809 1.67575C64.7789 0.711168 63.1174 0.200328 61.4188 0.211609C60.0456 0.213508 58.6938 0.553475 57.4813 1.20181C56.2594 0.602702 54.9108 0.312211 53.5522 0.355494C51.6022 0.383984 49.7226 1.09298 48.2348 2.36127C47.5291 2.97689 46.9564 3.73155 46.5521 4.57862C46.1607 3.96417 45.6784 3.41338 45.1218 2.94523C44.2045 2.16992 43.1174 1.62462 41.9499 1.35414C41.0954 1.15494 40.2178 1.0752 39.3417 1.11718C37.3623 1.17064 35.4625 1.91233 33.9654 3.21604L33.8308 3.35146C33.0455 2.73841 32.1478 2.2869 31.189 2.02273C30.1061 1.73376 28.9826 1.63075 27.8656 1.71806C21.5835 2.10172 15.3042 2.58413 9.02773 3.16527C7.85171 3.24647 6.69868 3.53284 5.62023 4.01159C4.32249 4.59225 3.22467 5.54637 2.46516 6.75366C1.88256 7.70785 1.54435 8.79247 1.48079 9.91042C1.4492 10.475 1.46609 11.0414 1.53127 11.6031C1.71636 13.3973 1.90986 15.1999 2.09496 16.9941C2.09496 17.2142 2.14545 17.4257 2.1791 17.6373C1.96156 17.8574 1.75917 18.0921 1.57332 18.3398C0.874287 19.2806 0.433285 20.3896 0.294476 21.5558C0.227199 22.1774 0.227199 22.8045 0.294476 23.4261C0.362473 24.0769 0.5007 24.7182 0.706731 25.3388C1.08635 26.4381 1.74124 27.4204 2.6082 28.1909L2.88583 28.4279C2.72253 29.498 2.70272 30.5854 2.82693 31.6608C2.94827 32.879 3.26064 34.0701 3.75243 35.19C4.33479 36.5036 5.21341 37.6627 6.31857 38.5753C7.42771 39.4785 8.71557 40.1334 10.0962 40.4964C11.5579 40.8661 13.071 40.9863 14.5722 40.8519C19.1436 40.4456 23.715 40.0958 28.2863 39.8024H28.4546C31.6125 39.4977 34.0552 38.4483 35.7828 36.6541C36.4167 37.0874 37.1154 37.4159 37.8525 37.6274C38.8788 37.9118 39.9454 38.0205 41.0076 37.949L46.3249 37.7543C47.3474 37.7324 48.3616 37.5643 49.337 37.255L49.7829 37.0857C50.4106 37.5079 51.1006 37.8278 51.8274 38.0336C52.6136 38.252 53.4265 38.3574 54.2421 38.3467C55.0573 38.3284 55.8654 38.1887 56.6399 37.9321C57.0805 37.7881 57.5061 37.601 57.9104 37.3735C58.3234 37.5944 58.7575 37.773 59.2061 37.9067C59.993 38.1377 60.8094 38.2517 61.6292 38.2452C62.4424 38.2409 63.2504 38.1154 64.027 37.8728C64.9206 37.5863 65.7495 37.1263 66.4669 36.5187C66.8032 36.6964 67.1519 36.8491 67.5102 36.9757C68.5204 37.307 69.5776 37.4699 70.6401 37.4581C72.6257 37.4581 74.6112 37.5089 76.5968 37.5512C77.6062 37.582 78.6147 37.468 79.5921 37.2127C80.1338 37.5854 80.7223 37.8842 81.3421 38.1013C82.117 38.3588 82.9244 38.5041 83.7399 38.5329C84.5546 38.5581 85.3684 38.4611 86.1546 38.2452C86.6197 38.1199 87.0708 37.9469 87.5008 37.729C87.9192 37.9816 88.3617 38.1914 88.8217 38.3552C89.5947 38.6252 90.4022 38.782 91.2196 38.8207C92.0352 38.8524 92.8511 38.7669 93.6427 38.5668C94.3789 38.3659 95.0799 38.0519 95.7208 37.6358C96.1756 37.9081 96.6544 38.1375 97.1511 38.3214C98.1147 38.6663 99.1244 38.8631 100.146 38.9053C104.471 39.1705 108.793 39.4837 113.112 39.8447C114.126 39.9433 115.149 39.892 116.149 39.6924C116.336 39.6572 116.522 39.612 116.704 39.557C117.189 39.8864 117.712 40.1563 118.261 40.361C119.013 40.6446 119.8 40.8267 120.6 40.9026C121.405 40.9807 122.217 40.9522 123.014 40.818C124.146 40.6242 125.217 40.1694 126.144 39.4893C127.058 38.8192 127.811 37.9516 128.349 36.9503C128.893 35.9271 129.231 34.8052 129.341 33.6497L131.714 11.9754C131.86 10.8231 131.765 9.65291 131.436 8.53939Z" fill="white" stroke="#82B6FF" stroke-width="0.5" stroke-linecap="round" stroke-linejoin="round"/>
<path d="M22.4305 17.4511C22.4305 18.0774 22.5146 18.7037 22.5651 19.33C25.6781 19.1099 28.7911 18.9096 31.9041 18.7291C32.3507 18.6908 32.8005 18.731 33.2335 18.8476C33.5237 18.9337 33.791 19.0841 34.0159 19.2877C34.1944 19.4629 34.3248 19.6815 34.3945 19.9224C34.4569 20.1549 34.4964 20.393 34.5123 20.6333C34.5452 20.9144 34.5452 21.1985 34.5123 21.4796C34.4721 21.7272 34.3643 21.9587 34.201 22.1482C34.0069 22.373 33.7574 22.5423 33.4775 22.6391C33.0575 22.784 32.6173 22.8611 32.1734 22.8676C24.2534 23.319 16.3419 23.9283 8.43876 24.6956C8.00096 24.7625 7.55563 24.7625 7.11783 24.6956C6.82623 24.6437 6.55341 24.5152 6.32696 24.3233C6.13865 24.1567 5.99659 23.9438 5.9147 23.7054C5.83558 23.4462 5.78203 23.1797 5.75484 22.9099C5.73406 22.6677 5.73406 22.4242 5.75484 22.182C5.78884 21.9323 5.88749 21.6959 6.0409 21.4965C6.229 21.2586 6.47145 21.0699 6.74763 20.9464C7.1531 20.7596 7.58966 20.6505 8.03491 20.6248C11.1143 20.3286 14.1936 20.0493 17.2898 19.7785L17.1384 17.8997C14.9088 18.0774 12.6708 18.2721 10.4075 18.4836C9.92013 18.542 9.42684 18.5278 8.94358 18.4413C8.62809 18.3912 8.33491 18.2467 8.10223 18.0266C7.92138 17.832 7.78878 17.5971 7.71521 17.3411C7.64465 17.063 7.59402 16.7802 7.56375 16.4948C7.39548 14.6922 7.21881 12.8895 7.05054 11.0953C7.02145 10.797 7.02145 10.4965 7.05054 10.1982C7.06749 9.92252 7.15127 9.6552 7.29454 9.41957C7.47393 9.15072 7.7287 8.94158 8.02651 8.81869C8.49066 8.62991 8.98226 8.51841 9.48204 8.48861C15.7081 7.9244 21.9341 7.44484 28.1601 7.04989C28.6137 7.00912 29.0708 7.04053 29.5147 7.14297C29.8091 7.21789 30.0826 7.35975 30.314 7.55766C30.499 7.73585 30.6327 7.96102 30.701 8.20934C30.7695 8.46958 30.8118 8.73611 30.8272 9.00488C30.8423 9.23988 30.8282 9.47584 30.7851 9.70732C30.7414 9.95125 30.634 10.1791 30.4738 10.3674C30.2688 10.5954 30.0158 10.7746 29.7334 10.8922C29.3118 11.0578 28.865 11.1494 28.4125 11.163C23.1456 11.4846 17.8816 11.8767 12.6203 12.3394C12.6708 12.9233 12.7213 13.5073 12.7802 14.0912C18.0246 13.6229 23.2718 13.2308 28.5219 12.9149C28.9707 12.8706 29.4239 12.9078 29.8596 13.0249C30.1586 13.1092 30.431 13.2695 30.6505 13.4904C30.8337 13.6767 30.9668 13.9068 31.0375 14.159C31.1016 14.3799 31.1439 14.6067 31.1637 14.836C31.1935 15.1032 31.1935 15.3729 31.1637 15.64C31.1268 15.892 31.0221 16.1291 30.8608 16.3255C30.6591 16.5532 30.4049 16.7276 30.1204 16.8333C29.7023 16.9886 29.2619 17.0743 28.8164 17.0872C26.6541 17.1634 24.5423 17.2988 22.4305 17.4511ZM14.1263 35.5793C13.255 35.6603 12.3763 35.5945 11.5265 35.3846C10.8719 35.2388 10.2572 34.9499 9.72603 34.5383C9.26006 34.1467 8.89131 33.6512 8.6491 33.0911C8.3862 32.4724 8.22425 31.8152 8.16953 31.1446C8.09756 30.4762 8.12023 29.8008 8.23685 29.1388C8.33935 28.5341 8.59427 27.9659 8.97724 27.4885C9.41906 26.9693 9.97501 26.5607 10.6011 26.2952C11.4649 25.9347 12.3785 25.7092 13.3102 25.6266C17.9545 25.2203 22.6072 24.8564 27.2598 24.5602C28.1906 24.4726 29.1294 24.5441 30.0363 24.7718C30.6985 24.9376 31.3107 25.2629 31.82 25.7197C32.2647 26.1408 32.6023 26.6632 32.8044 27.243C33.0163 27.8829 33.1381 28.5495 33.1662 29.2234C33.2913 30.518 32.9179 31.8115 32.1229 32.8372C31.3488 33.7907 29.9606 34.355 27.9582 34.5299C23.342 34.8233 18.7313 35.1731 14.1263 35.5793ZM26.2671 30.7553C26.7316 30.7527 27.1893 30.6426 27.6048 30.4337C27.7453 30.3258 27.8534 30.181 27.9173 30.0152C27.9811 29.8495 27.9982 29.6692 27.9666 29.4943C27.9676 29.3232 27.9238 29.155 27.8396 29.0064C27.7554 28.8578 27.6338 28.7342 27.487 28.6479C27.0464 28.4843 26.5726 28.432 26.1072 28.4956C22.4221 28.7495 18.7341 29.0316 15.0434 29.3419C14.5751 29.3471 14.1154 29.4692 13.7056 29.6974C13.5667 29.8079 13.461 29.955 13.4001 30.1223C13.3392 30.2896 13.3256 30.4706 13.3607 30.6452C13.3604 30.8191 13.4072 30.9899 13.4962 31.139C13.5851 31.2881 13.7128 31.41 13.8655 31.4916C14.306 31.6436 14.7762 31.6872 15.2369 31.6185C18.9136 31.2885 22.5819 31.0092 26.2671 30.7553Z" fill="#0E74FF"/>
<path d="M42.9091 28.1486L46.0137 28.0386C46.5172 28.0126 47.0218 28.0611 47.5113 28.1825C47.8484 28.2717 48.1636 28.4301 48.4368 28.6479C48.6461 28.8352 48.8027 29.0745 48.8911 29.3419C48.9718 29.5939 49.0171 29.8559 49.0257 30.1205C49.0321 30.4055 49.001 30.6901 48.9332 30.9668C48.865 31.2406 48.7223 31.4897 48.5209 31.6862C48.2666 31.916 47.9649 32.0865 47.6375 32.1855C47.1572 32.3323 46.6586 32.4093 46.1567 32.4141L40.7889 32.6172C40.3117 32.6521 39.832 32.6121 39.367 32.4987C39.0533 32.428 38.7633 32.2763 38.5256 32.0586C38.3388 31.871 38.2102 31.6328 38.1554 31.3731C38.0956 31.0947 38.0618 30.8114 38.0545 30.5268L37.0701 9.28414C37.0041 8.8906 37.0265 8.48722 37.1357 8.10353C37.2449 7.71985 37.4381 7.3656 37.7011 7.06679C38.2039 6.64261 38.837 6.40639 39.4932 6.39819C39.8264 6.38208 40.1602 6.41055 40.486 6.48282C40.7944 6.55426 41.0822 6.69615 41.3273 6.89751C41.5886 7.12772 41.7907 7.41808 41.9163 7.74383C42.0734 8.17245 42.1586 8.62433 42.1687 9.08103C42.4211 15.4341 42.6679 21.7899 42.9091 28.1486ZM51.575 20.1509L48.1255 20.244C47.6284 20.2716 47.1299 20.2289 46.6447 20.117C46.3192 20.0352 46.0168 19.8787 45.7613 19.66C45.5525 19.479 45.4005 19.2408 45.3238 18.9745C45.2473 18.6987 45.2049 18.4144 45.1976 18.1282C45.1911 17.8641 45.2136 17.6002 45.2649 17.3411C45.327 17.0688 45.464 16.8195 45.6603 16.6217C45.9002 16.3882 46.1871 16.2093 46.5017 16.097C46.9808 15.9443 47.4799 15.8645 47.9824 15.8601L51.4572 15.7754C51.4012 13.3437 51.3451 10.9175 51.289 8.49707C51.2318 8.10238 51.2617 7.69985 51.3765 7.31809C51.4914 6.93633 51.6884 6.58469 51.9536 6.28816C52.4247 5.88834 53.02 5.6668 53.6363 5.66189C54.2326 5.64999 54.8139 5.85088 55.277 6.22894C55.5539 6.51323 55.7647 6.85574 55.8942 7.23185C56.0237 7.60796 56.0686 8.00828 56.0258 8.40396C56.1436 15.671 56.2558 22.9409 56.3623 30.2136C56.3813 30.6768 56.3244 31.14 56.1941 31.5847C56.0895 31.8968 55.9236 32.1847 55.7061 32.431C55.5103 32.6422 55.2642 32.7995 54.9909 32.888C54.7202 32.9818 54.4359 33.0304 54.1496 33.0319C53.8651 33.0401 53.5811 33.003 53.3082 32.9218C53.0289 32.8498 52.7752 32.7002 52.5762 32.4902C52.3428 32.2499 52.1648 31.961 52.0546 31.6439C51.9065 31.2021 51.8298 30.7392 51.8274 30.2729L51.575 20.1509ZM59.0631 8.30241C59.0128 7.90722 59.0501 7.50573 59.1723 7.12676C59.2945 6.74778 59.4985 6.40072 59.7698 6.11044C60.2392 5.7106 60.8376 5.49693 61.4525 5.50956C62.047 5.50205 62.625 5.70584 63.0847 6.08505C63.3576 6.37483 63.5638 6.72136 63.6888 7.10013C63.8138 7.4789 63.8546 7.88065 63.8083 8.27702C63.8083 15.5441 63.8279 22.814 63.8672 30.0867C63.8827 30.5515 63.8172 31.0156 63.6737 31.4577C63.5722 31.7713 63.4059 32.0597 63.1857 32.304C62.9867 32.5134 62.7375 32.6678 62.4622 32.7526C62.19 32.8396 61.9064 32.8852 61.6208 32.888C61.3365 32.8844 61.0538 32.8446 60.7794 32.7695C60.5041 32.6847 60.2549 32.5303 60.0559 32.3209C59.832 32.0764 59.6602 31.7884 59.5511 31.4746C59.4052 31.0327 59.3341 30.5692 59.3407 30.1036L59.0631 8.30241Z" fill="#0E74FF"/>
<path d="M73.0464 27.8015L76.8072 27.8692C77.3093 27.8626 77.8092 27.9369 78.288 28.0893C78.6226 28.1917 78.9301 28.3681 79.1882 28.6055C79.3903 28.7995 79.5358 29.0453 79.6089 29.3164C79.676 29.5732 79.7072 29.8381 79.7015 30.1035C79.6924 30.3902 79.6472 30.6746 79.5669 30.9498C79.4807 31.2183 79.3237 31.4582 79.1125 31.6438C78.8473 31.8625 78.5369 32.0186 78.2039 32.1008C77.72 32.2221 77.221 32.2706 76.7231 32.2447C74.7122 32.2447 72.7098 32.177 70.7074 32.1601C70.2296 32.1705 69.753 32.1077 69.2939 31.9739C68.9941 31.8826 68.7221 31.7167 68.503 31.4915C68.3295 31.2935 68.2157 31.0498 68.1749 30.789C68.1317 30.509 68.1092 30.2261 68.1076 29.9427L68.2086 8.1923C68.2128 7.90868 68.2381 7.62579 68.2843 7.34598C68.3273 7.08327 68.4509 6.84067 68.6377 6.65202C68.873 6.42394 69.1627 6.26071 69.479 6.17808C69.9616 6.04828 70.4606 5.99122 70.9598 6.00881C72.8276 6.00881 74.7038 6.00881 76.5716 6.09344C77.0919 6.08644 77.6104 6.15483 78.1113 6.29655C78.4566 6.38852 78.7762 6.55939 79.0452 6.79588C79.2531 6.98802 79.4044 7.23395 79.4827 7.50678C79.5505 7.78355 79.5816 8.06812 79.5753 8.3531C79.5711 8.61811 79.5256 8.88085 79.4406 9.13173C79.3567 9.40336 79.1959 9.64451 78.9779 9.82571C78.6971 10.0484 78.3734 10.2098 78.0272 10.2996C77.5252 10.4326 77.0059 10.4868 76.4875 10.4605L73.2903 10.4097L73.0464 27.8015ZM82.3013 8.57315C82.2629 8.17746 82.3133 7.77816 82.4487 7.40466C82.5841 7.03116 82.8011 6.69299 83.0837 6.41505C83.5614 6.03648 84.159 5.84413 84.7664 5.87339C85.3607 5.89074 85.9298 6.11853 86.3734 6.5166C86.6342 6.81551 86.8272 7.16789 86.939 7.54932C87.0509 7.93074 87.079 8.33207 87.0212 8.72548L86.7436 16.5116L89.8482 16.6386C89.9492 14.0404 90.0585 11.4422 90.1595 8.85243C90.1298 8.45226 90.19 8.05049 90.3356 7.67691C90.4813 7.30332 90.7086 6.9675 91.0009 6.69432C91.4821 6.32482 92.0793 6.14161 92.6836 6.17808C93.28 6.2001 93.8493 6.43398 94.2906 6.83821C94.5472 7.14223 94.7351 7.49877 94.8412 7.88312C94.9472 8.26746 94.9689 8.67039 94.9047 9.06401L93.8446 30.8483C93.8379 31.3143 93.7496 31.7756 93.5838 32.2108C93.4692 32.5298 93.2853 32.8189 93.0453 33.0572C92.8389 33.2565 92.5833 33.3967 92.305 33.4634C92.0313 33.5397 91.7472 33.5711 91.4636 33.5565C91.1763 33.5427 90.8927 33.4856 90.6222 33.3872C90.3489 33.2955 90.1048 33.1319 89.9155 32.9133C89.7074 32.6646 89.5502 32.377 89.4528 32.067C89.3281 31.6186 89.2826 31.1517 89.3181 30.6875C89.4443 27.4799 89.579 24.2808 89.7052 21.0817L86.6258 20.9633L86.2893 30.569C86.2789 31.0332 86.1966 31.4929 86.0453 31.9316C85.9261 32.2462 85.746 32.5339 85.5152 32.7779C85.3086 32.9805 85.0536 33.1262 84.7748 33.201C84.501 33.277 84.2174 33.3112 83.9335 33.3026C83.6473 33.2861 83.3644 33.232 83.0921 33.1418C82.8193 33.0532 82.5752 32.8924 82.3854 32.6763C82.1688 32.4308 82.0055 32.1426 81.9058 31.83C81.7779 31.3822 81.7266 30.9157 81.7544 30.4505L82.3013 8.57315Z" fill="#0E74FF"/>
<path d="M100.34 21.6657C100.329 20.8916 100.499 20.1258 100.835 19.4293C101.171 18.7328 101.664 18.1249 102.275 17.6542C103.47 16.8079 105.295 16.4693 107.769 16.6471C110.243 16.8248 111.976 17.4257 113.053 18.4243C113.592 18.9739 113.997 19.6427 114.233 20.3775C114.47 21.1122 114.532 21.8925 114.416 22.6559C114.387 23.9292 113.913 25.1516 113.078 26.1089C112.142 26.9673 110.936 27.4676 109.67 27.5223L109.494 29.9089C110.966 30.0189 112.447 30.1374 113.919 30.2643C114.42 30.2914 114.915 30.3853 115.392 30.5436C115.708 30.6518 115.996 30.8313 116.233 31.0683C116.43 31.2666 116.562 31.5205 116.612 31.7962C116.651 32.0769 116.651 32.3618 116.612 32.6425C116.594 32.9016 116.534 33.156 116.435 33.3957C116.331 33.6517 116.159 33.8741 115.939 34.0389C115.665 34.247 115.344 34.3837 115.005 34.4367C114.539 34.5473 114.061 34.5929 113.583 34.5721C109.225 34.211 104.861 33.8979 100.491 33.6327C99.9935 33.6145 99.5007 33.5262 99.0273 33.3703C98.7133 33.253 98.4268 33.0715 98.186 32.8372C97.9944 32.6392 97.8581 32.394 97.7905 32.1262C97.7307 31.8742 97.708 31.6147 97.7232 31.3561C97.7367 31.0678 97.7906 30.7829 97.8831 30.5098C97.9755 30.2496 98.1388 30.0209 98.3542 29.8496C98.6327 29.6512 98.9518 29.5182 99.2882 29.4603C99.782 29.3699 100.285 29.3443 100.786 29.3842L104.311 29.6127C104.362 28.7664 104.412 27.9962 104.471 27.1922C103.203 26.939 102.063 26.2474 101.249 25.2372C100.528 24.1958 100.205 22.9275 100.34 21.6657ZM99.1704 13.1264C99.1847 12.8375 99.2414 12.5523 99.3386 12.2801C99.4332 12.0349 99.6007 11.8251 99.8182 11.6792C100.112 11.505 100.439 11.3927 100.777 11.3491C101.289 11.2996 101.805 11.2996 102.317 11.3491C106.179 11.5861 110.049 11.8654 113.902 12.1954C114.417 12.2272 114.928 12.3122 115.425 12.4493C115.755 12.5347 116.062 12.6906 116.326 12.9063C116.524 13.0779 116.663 13.3094 116.721 13.5665C116.782 13.8442 116.796 14.1303 116.763 14.4128C116.749 14.6561 116.689 14.8945 116.586 15.1152C116.486 15.3415 116.314 15.5287 116.098 15.6484C115.802 15.81 115.475 15.9079 115.139 15.9362C114.63 15.9882 114.117 15.9882 113.608 15.9362C109.771 15.6202 105.932 15.3381 102.09 15.0898C101.579 15.0672 101.072 14.9935 100.575 14.8698C100.247 14.7912 99.9385 14.6473 99.6668 14.4466C99.4677 14.2971 99.3229 14.086 99.2545 13.8457C99.1879 13.6121 99.1595 13.3692 99.1704 13.1264ZM101.905 8.1331C101.912 7.8434 101.969 7.55716 102.073 7.28678C102.17 7.0514 102.341 6.85495 102.561 6.7282C102.855 6.55983 103.183 6.45869 103.52 6.43199C104.038 6.38432 104.559 6.38432 105.077 6.43199C107.34 6.57586 109.595 6.73667 111.858 6.91439C112.377 6.9409 112.893 7.01741 113.398 7.14289C113.727 7.21829 114.036 7.36246 114.306 7.56605C114.504 7.72599 114.646 7.94549 114.71 8.19232C114.772 8.46989 114.789 8.75563 114.761 9.03864C114.742 9.2839 114.682 9.52425 114.584 9.74957C114.478 9.9748 114.304 10.1611 114.088 10.2827C113.788 10.4478 113.459 10.5514 113.12 10.5874C112.609 10.6491 112.092 10.6491 111.58 10.5874C109.337 10.4182 107.093 10.2573 104.849 10.105C104.335 10.0813 103.824 10.0018 103.327 9.86804C103 9.7768 102.692 9.62779 102.418 9.42796C102.216 9.27623 102.068 9.06232 101.997 8.81861C101.927 8.59722 101.896 8.36527 101.905 8.1331ZM105.447 21.9958C105.418 22.2177 105.418 22.4424 105.447 22.6644C105.483 22.9042 105.565 23.1344 105.691 23.3414C105.832 23.565 106.022 23.7532 106.246 23.8916C106.536 24.0596 106.863 24.1527 107.197 24.1624C107.539 24.2036 107.887 24.1571 108.207 24.027C108.447 23.9227 108.66 23.7633 108.829 23.5615C108.981 23.3766 109.091 23.1597 109.149 22.9267C109.211 22.7115 109.25 22.4902 109.267 22.2666C109.287 22.0386 109.287 21.8091 109.267 21.5811C109.244 21.3355 109.166 21.0983 109.039 20.8871C108.902 20.6648 108.711 20.4814 108.484 20.3539C108.182 20.1875 107.844 20.0947 107.5 20.0831C107.166 20.049 106.83 20.0924 106.515 20.2101C106.274 20.306 106.061 20.46 105.893 20.6586C105.737 20.8516 105.62 21.0728 105.548 21.3103C105.492 21.5349 105.458 21.7646 105.447 21.9958ZM120.768 10.8752C120.753 10.4681 120.838 10.0637 121.016 9.69763C121.193 9.33156 121.458 9.01512 121.786 8.77628C122.374 8.43632 123.055 8.29402 123.729 8.37006C124.075 8.40012 124.414 8.47698 124.739 8.59856C125.058 8.70118 125.347 8.88141 125.58 9.12327C125.824 9.38514 126.003 9.70122 126.102 10.0458C126.226 10.4856 126.261 10.9463 126.203 11.3999L124.032 33.0995C123.998 33.5671 123.875 34.0237 123.671 34.4452C123.507 34.7566 123.281 35.0304 123.006 35.2491C122.755 35.4297 122.468 35.5538 122.165 35.6131C121.835 35.6557 121.501 35.6557 121.172 35.6131C120.843 35.5849 120.521 35.5108 120.213 35.393C119.91 35.2823 119.636 35.1028 119.413 34.8683C119.178 34.611 119.008 34.3004 118.917 33.9627C118.808 33.5087 118.779 33.0388 118.833 32.5748C119.467 25.3303 120.112 18.0971 120.768 10.8752Z" fill="#0E74FF"/>
<path d="M76.3024 47.7578H50.3719C46.1899 47.7578 42.7997 51.168 42.7997 55.3747V55.3832C42.7997 59.5898 46.1899 63 50.3719 63H76.3024C80.4844 63 83.8746 59.5898 83.8746 55.3832V55.3747C83.8746 51.168 80.4844 47.7578 76.3024 47.7578Z" fill="#0E74FF"/>
<path d="M62.5126 45.4135C62.5964 45.2695 62.7162 45.1501 62.8601 45.0672C63.0041 44.9842 63.167 44.9406 63.3329 44.9406C63.4988 44.9406 63.6617 44.9842 63.8056 45.0672C63.9496 45.1501 64.0694 45.2695 64.1532 45.4135L66.1809 48.9426L68.2086 52.4802C68.2917 52.6269 68.3349 52.793 68.3335 52.9618C68.3322 53.1306 68.2865 53.296 68.2011 53.4413C68.1156 53.5866 67.9934 53.7065 67.847 53.789C67.7005 53.8714 67.535 53.9133 67.3672 53.9105H59.2565C59.0887 53.9133 58.9232 53.8714 58.7768 53.789C58.6303 53.7065 58.5081 53.5866 58.4227 53.4413C58.3372 53.296 58.2915 53.1306 58.2902 52.9618C58.2889 52.793 58.332 52.6269 58.4152 52.4802L60.4428 48.9426L62.5126 45.4135Z" fill="#0E74FF"/>
<path d="M54.9152 57.609C55.013 57.5986 55.1119 57.6098 55.2049 57.642C55.298 57.6742 55.3828 57.7265 55.4536 57.7952C55.5542 57.9226 55.6077 58.0811 55.6051 58.2437C55.6132 58.3112 55.6132 58.3794 55.6051 58.4468C55.5802 58.5176 55.5432 58.5835 55.4957 58.6415C55.4378 58.7054 55.3657 58.7547 55.2854 58.7854C55.1758 58.8292 55.0582 58.8494 54.9404 58.8446H51.0197C50.9068 58.8524 50.7937 58.8343 50.6888 58.7918C50.5839 58.7493 50.4899 58.6835 50.4139 58.5992C50.2836 58.4459 50.212 58.2508 50.212 58.0491C50.2216 57.8637 50.2828 57.6849 50.3887 57.5328C50.6132 57.2292 50.8637 56.946 51.1375 56.6865L52.0798 55.8402C52.3154 55.6286 52.5425 55.4255 52.7529 55.2224C52.9539 55.0379 53.1422 54.84 53.3166 54.63C53.4634 54.4539 53.593 54.264 53.7036 54.0629C53.7992 53.8983 53.8513 53.7119 53.855 53.5213C53.8637 53.4143 53.8637 53.3067 53.855 53.1997C53.8374 53.0909 53.7973 52.9871 53.7373 52.895C53.6742 52.7981 53.5872 52.7194 53.4849 52.6665C53.3423 52.6021 53.1865 52.5731 53.0305 52.5819C52.9002 52.5787 52.7701 52.5929 52.6435 52.6242C52.5289 52.6558 52.4207 52.7074 52.3238 52.7765C52.2315 52.8421 52.1564 52.9292 52.105 53.0304C52.0456 53.1452 52.0167 53.2735 52.0209 53.4028C52.0188 53.4779 52.0003 53.5517 51.9669 53.619C51.9335 53.6862 51.8859 53.7453 51.8274 53.7921C51.6602 53.9159 51.4535 53.9732 51.2468 53.9529C51.1473 53.9519 51.0482 53.9377 50.9524 53.9106C50.8598 53.8851 50.7718 53.8451 50.6916 53.7921C50.615 53.7315 50.5544 53.6531 50.5149 53.5636C50.4644 53.4613 50.4412 53.3475 50.4476 53.2335C50.4413 52.9563 50.5143 52.6831 50.6579 52.4464C50.8022 52.2065 50.9941 51.9991 51.2216 51.8371C51.4788 51.6634 51.7632 51.5347 52.063 51.4563C52.3716 51.3646 52.6919 51.319 53.0137 51.3209C53.3812 51.3144 53.7474 51.3658 54.099 51.4732C54.406 51.5573 54.6924 51.7043 54.9404 51.9048C55.1518 52.0891 55.3211 52.3172 55.4368 52.5734C55.5477 52.8416 55.6048 53.1292 55.6051 53.4197C55.6108 53.7091 55.5594 53.9968 55.4536 54.266C55.3492 54.5287 55.2105 54.7763 55.0414 55.0023C54.8535 55.2509 54.6483 55.4856 54.4272 55.7048L53.6784 56.4157L53.0473 56.9912C52.8149 57.1941 52.5983 57.4148 52.3995 57.6513L54.9152 57.609Z" fill="white"/>
<path d="M59.6099 58.8954C59.2248 58.9003 58.8405 58.8577 58.4657 58.7685C58.1597 58.6993 57.8725 58.5635 57.6244 58.3707C57.3908 58.1757 57.2087 57.9257 57.0943 57.6429C56.9572 57.2958 56.8914 56.9244 56.9008 56.5511V53.6313C56.8914 53.2607 56.9572 52.8921 57.0943 52.548C57.2041 52.2626 57.3869 52.0115 57.6244 51.8202C57.8699 51.6213 58.1579 51.4823 58.4657 51.4139C58.8405 51.3247 59.2248 51.2821 59.6099 51.287C59.9923 51.2826 60.3737 51.3253 60.7458 51.4139C61.0509 51.4943 61.337 51.6353 61.5871 51.8287C61.826 52.026 62.0136 52.2786 62.134 52.5649C62.2743 52.914 62.3402 53.2888 62.3275 53.6652V56.5765C62.3287 56.9461 62.2543 57.3119 62.1088 57.6513C61.9929 57.9379 61.8043 58.1888 61.5619 58.3792C61.3152 58.5781 61.0279 58.7197 60.7205 58.7938C60.3559 58.8734 59.9829 58.9075 59.6099 58.8954ZM60.6448 53.6398C60.6401 53.4663 60.6204 53.2936 60.5859 53.1235C60.5571 52.9964 60.4996 52.8776 60.4176 52.7765C60.3393 52.6815 60.2334 52.6134 60.1148 52.5819C59.9509 52.5337 59.7807 52.5108 59.6099 52.5142C59.4364 52.51 59.2633 52.5328 59.0967 52.5819C58.9783 52.6186 58.8731 52.6892 58.7938 52.785C58.7123 52.8843 58.6599 53.0044 58.6424 53.132C58.6236 53.3007 58.6236 53.471 58.6424 53.6398V56.5765C58.6235 56.7424 58.6235 56.9099 58.6424 57.0758C58.6599 57.2034 58.7123 57.3235 58.7938 57.4228C58.8739 57.5159 58.9791 57.5835 59.0967 57.6175C59.2626 57.67 59.4363 57.6929 59.6099 57.6852C59.7621 57.7067 59.9171 57.6927 60.063 57.6442C60.2089 57.5958 60.3418 57.5143 60.4513 57.4059C60.6112 57.1543 60.685 56.8572 60.6616 56.5596L60.6448 53.6398Z" fill="white"/>
<path d="M66.9465 57.4227H63.985C63.8645 57.4291 63.7455 57.3932 63.6484 57.3212C63.5697 57.2507 63.5115 57.16 63.4801 57.0588C63.4586 56.9499 63.4586 56.8377 63.4801 56.7288C63.4945 56.619 63.5287 56.5129 63.5811 56.4156L66.2734 51.6847C66.3223 51.5909 66.3902 51.5084 66.4729 51.4428C66.5555 51.3772 66.6509 51.3298 66.753 51.3038C66.9478 51.2686 67.1487 51.2984 67.3251 51.3885C67.4275 51.426 67.5192 51.488 67.5925 51.5691C67.6657 51.6502 67.7184 51.7479 67.7458 51.854C67.7845 52.0686 67.7392 52.2899 67.6196 52.4718L65.4489 56.1956H66.9633V54.6807C66.9633 54.4753 67.0314 54.2757 67.1569 54.1136C67.2433 54.0266 67.3475 53.9595 67.4623 53.9172C67.5771 53.8748 67.6997 53.8581 67.8215 53.8682C67.942 53.8593 68.063 53.8766 68.1762 53.919C68.2895 53.9613 68.3923 54.0277 68.4778 54.1136C68.6119 54.2713 68.6838 54.4731 68.6797 54.6807V56.1956H69.1509C69.2707 56.1921 69.3902 56.2093 69.5042 56.2463C69.585 56.272 69.6576 56.3187 69.7146 56.3818C69.7694 56.4309 69.8076 56.496 69.824 56.5679C69.8322 56.6439 69.8322 56.7205 69.824 56.7965C69.8271 56.9552 69.7767 57.1103 69.6809 57.2365C69.609 57.3087 69.5214 57.3631 69.4251 57.3954C69.3287 57.4277 69.2262 57.437 69.1256 57.4227H68.6545V58.0913C68.6521 58.1775 68.6379 58.2629 68.6124 58.3452C68.5889 58.4329 68.5458 58.514 68.4862 58.5822C68.4156 58.6647 68.3261 58.7286 68.2254 58.7684C68.0893 58.8241 67.9431 58.8501 67.7963 58.8446C67.6495 58.8501 67.5032 58.8241 67.3672 58.7684C67.2665 58.7286 67.177 58.6647 67.1064 58.5822C67.0443 58.5145 66.9983 58.4334 66.9718 58.3452C66.9641 58.2608 66.9641 58.1758 66.9718 58.0913L66.9465 57.4227Z" fill="white"/>
<path d="M73.2567 51.2869C73.6251 51.2844 73.9923 51.327 74.3505 51.4138C74.6667 51.4815 74.9686 51.6047 75.2423 51.7777C75.4863 51.9379 75.6906 52.1522 75.8397 52.404C75.9885 52.6759 76.0639 52.9823 76.0584 53.2927C76.0694 53.6278 75.972 53.9574 75.7808 54.2321C75.6108 54.4717 75.3856 54.6663 75.1245 54.7991C75.46 54.9532 75.7499 55.1924 75.9659 55.4931C76.1875 55.8156 76.2996 56.2015 76.2856 56.5933V56.7203C76.2932 57.0384 76.2116 57.3522 76.05 57.6258C75.8804 57.9024 75.6537 58.139 75.3853 58.3198C75.0849 58.5149 74.7554 58.6606 74.4094 58.7514C74.0212 58.8476 73.6228 58.8959 73.223 58.8953C72.8233 58.8959 72.4249 58.8476 72.0367 58.7514C71.6907 58.6606 71.3612 58.5149 71.0608 58.3198C70.7924 58.139 70.5657 57.9024 70.3961 57.6258C70.2316 57.3531 70.147 57.0392 70.1521 56.7203V56.5764C70.1391 56.1859 70.248 55.8012 70.4634 55.4762C70.6897 55.1684 70.9952 54.9285 71.3468 54.7822C71.0945 54.6428 70.8783 54.4457 70.7158 54.2067C70.5258 53.9347 70.4284 53.6081 70.4382 53.2757C70.4297 52.9661 70.5022 52.6597 70.6485 52.3871C70.8 52.1371 71.0039 51.9234 71.2459 51.7608C71.5173 51.5893 71.8162 51.4662 72.1293 51.3969C72.499 51.313 72.8778 51.276 73.2567 51.2869ZM74.6113 56.5425C74.6178 56.3721 74.5801 56.203 74.5019 56.0517C74.4316 55.9194 74.3306 55.8061 74.2074 55.7216C74.0791 55.6296 73.9329 55.5661 73.7783 55.5354C73.6075 55.4943 73.4323 55.4745 73.2567 55.4762C73.0811 55.474 72.9058 55.4939 72.7351 55.5354C72.5784 55.5676 72.4296 55.6309 72.2975 55.7216C72.1718 55.8056 72.0679 55.9188 71.9947 56.0517C71.9201 56.2043 71.8826 56.3725 71.8853 56.5425V56.5764C71.8839 56.7236 71.9186 56.869 71.9863 56.9995C72.0554 57.1324 72.1531 57.248 72.2723 57.3381C72.4019 57.4422 72.5505 57.5199 72.7098 57.5666C72.8858 57.6267 73.0709 57.6553 73.2567 57.6512C73.6148 57.6742 73.9686 57.5626 74.2495 57.3381C74.3642 57.2478 74.4566 57.1321 74.5193 57C74.5821 56.8678 74.6136 56.7228 74.6113 56.5764V56.5425ZM73.2567 52.5056C72.9633 52.486 72.6707 52.5537 72.4154 52.7003C72.3139 52.7659 72.2321 52.8581 72.1787 52.9669C72.1254 53.0757 72.1025 53.1971 72.1125 53.318C72.1018 53.445 72.1242 53.5726 72.1773 53.6883C72.2303 53.804 72.3124 53.9039 72.4154 53.9782C72.6707 54.1247 72.9633 54.1924 73.2567 54.1728C73.5501 54.1929 73.8429 54.1252 74.0981 53.9782C74.2038 53.9061 74.2885 53.8069 74.3432 53.6908C74.398 53.5748 74.4208 53.446 74.4094 53.318C74.4195 53.1962 74.3957 53.0739 74.3407 52.9648C74.2858 52.8557 74.2018 52.7641 74.0981 52.7003C73.8429 52.5532 73.5501 52.4855 73.2567 52.5056Z" fill="white"/>
</g>
<defs>
<clipPath id="clip0_1110:4633">
<rect width="132" height="63" fill="white"/>
</clipPath>
</defs>
</svg>
