<svg width="184" height="94" viewBox="0 0 184 94" fill="none" xmlns="http://www.w3.org/2000/svg">
<rect width="184" height="94" rx="6" fill="#C8D8EE"/>
<rect x="4.6001" y="4.6001" width="40.25" height="40.25" rx="3" fill="#DDE7F4"/>
<rect x="4.6001" y="49.4502" width="40.25" height="40.25" rx="3" fill="#DDE7F4"/>
<rect x="94.3003" y="4.6001" width="40.25" height="40.25" rx="3" fill="#DDE7F4"/>
<rect x="49.4502" y="4.6001" width="40.25" height="40.25" rx="3" fill="#DDE7F4"/>
<rect x="94.3003" y="50.0249" width="40.25" height="40.25" rx="3" fill="#DDE7F4"/>
<rect x="139.15" y="4.6001" width="40.25" height="40.25" rx="3" fill="#DDE7F4"/>
<rect x="50" y="50" width="40" height="40" rx="3" fill="#AEC5DD"/>
<rect x="140" y="50" width="40" height="40" rx="3" fill="#AEC5DD"/>
<rect x="50" y="50" width="40" height="36" rx="3" fill="#F5F8FB"/>
<rect x="140" y="50" width="40" height="36" rx="3" fill="#F5F8FB"/>
<path d="M75.122 73.58V76H63.77V74.086L69.886 68.278C70.5753 67.618 71.0373 67.046 71.272 66.562C71.5213 66.0633 71.646 65.572 71.646 65.088C71.646 64.3693 71.404 63.8193 70.92 63.438C70.436 63.0567 69.7247 62.866 68.786 62.866C67.2167 62.866 66.014 63.4013 65.178 64.472L63.176 62.932C63.7773 62.1253 64.584 61.502 65.596 61.062C66.6227 60.6073 67.7667 60.38 69.028 60.38C70.7 60.38 72.0347 60.776 73.032 61.568C74.0293 62.36 74.528 63.438 74.528 64.802C74.528 65.638 74.352 66.4227 74 67.156C73.648 67.8893 72.9733 68.7253 71.976 69.664L67.862 73.58H75.122Z" fill="#AEC5DD"/>
<path d="M165.122 73.58V76H153.77V74.086L159.886 68.278C160.575 67.618 161.037 67.046 161.272 66.562C161.521 66.0633 161.646 65.572 161.646 65.088C161.646 64.3693 161.404 63.8193 160.92 63.438C160.436 63.0567 159.725 62.866 158.786 62.866C157.217 62.866 156.014 63.4013 155.178 64.472L153.176 62.932C153.777 62.1253 154.584 61.502 155.596 61.062C156.623 60.6073 157.767 60.38 159.028 60.38C160.7 60.38 162.035 60.776 163.032 61.568C164.029 62.36 164.528 63.438 164.528 64.802C164.528 65.638 164.352 66.4227 164 67.156C163.648 67.8893 162.973 68.7253 161.976 69.664L157.862 73.58H165.122Z" fill="#AEC5DD"/>
<g opacity="0.2" clip-path="url(#clip0_2703_10091)">
<path d="M159.333 83C167.433 83 174 76.732 174 69C174 61.268 167.433 55 159.333 55C151.232 55 144.665 61.268 144.665 69C144.665 76.732 151.232 83 159.333 83Z" fill="#0E74FF"/>
<path d="M145.789 64.0415H115.232V73.9582H145.789V64.0415Z" fill="#0E74FF"/>
<path d="M99.5081 69.9566C99.3479 69.8489 99.2172 69.7061 99.127 69.5401C99.0368 69.3741 98.9897 69.1899 98.9897 69.0029C98.9897 68.8159 99.0368 68.6317 99.127 68.4657C99.2172 68.2997 99.3479 68.1568 99.5081 68.0491L106.671 63.1666L113.289 58.6575C113.472 58.5316 113.688 58.4564 113.913 58.4403C114.138 58.4242 114.363 58.4677 114.563 58.5661C114.764 58.6645 114.932 58.814 115.049 58.9979C115.166 59.1818 115.228 59.3931 115.227 59.6083V78.3975C115.228 78.6127 115.166 78.8239 115.049 79.0079C114.932 79.1918 114.764 79.3412 114.563 79.4396C114.363 79.5381 114.138 79.5816 113.913 79.5655C113.688 79.5494 113.472 79.4742 113.289 79.3483L106.671 74.8333L99.5081 69.9566Z" fill="#0E74FF"/>
</g>
<defs>
<clipPath id="clip0_2703_10091">
<rect width="75" height="28" fill="white" transform="translate(99 55)"/>
</clipPath>
</defs>
</svg>
