<svg width="165" height="38" viewBox="0 0 165 38" fill="none" xmlns="http://www.w3.org/2000/svg">
<rect x="0.5" y="0.5" width="163.324" height="37" rx="4.5" fill="white" stroke="#ECECEC"/>
<path d="M54.9088 16.8135H51.5836V18.3923H54.9088V27.5912H56.8481V11.6796H54.9088V16.8135ZM49.3957 12.9537H47.413V15.4959C47.4006 18.4544 45.9586 21.5186 43.3729 22.7244L44.6036 24.3094C46.4309 23.3895 47.7238 21.5684 48.4137 19.3743C49.0974 21.4503 50.3591 23.1347 52.1554 24.0173L53.3425 22.4572C50.8066 21.3384 49.3957 18.442 49.3957 15.4959V12.9537ZM66.3135 17.2983C69.931 17.2859 72.0318 16.3287 72.0318 14.5635C72.0318 12.8046 69.931 11.8412 66.3135 11.8349C62.6961 11.8412 60.5829 12.8046 60.5891 14.5635C60.5829 16.3287 62.6961 17.2859 66.3135 17.2983ZM66.3135 13.2894C68.7624 13.2956 70.0242 13.7369 70.0242 14.5635C70.0242 15.4337 68.7624 15.8439 66.3135 15.8501C63.8895 15.8439 62.6216 15.4337 62.634 14.5635C62.6216 13.7369 63.8895 13.2956 66.3135 13.2894ZM73.5608 18.1188H59.085V19.654H65.3191V20.8598H60.788V22.3142H69.8315V23.3646H60.8066V27.4233H72.1934V25.9316H62.721V24.7507H71.7583V20.8598H67.2832V19.654H73.5608V18.1188ZM86.1168 14.9302C87.1299 16.6022 89.2059 17.7769 91.8164 18.1872L92.5747 16.6457C89.2556 16.2293 87.1237 14.4765 87.1237 12.5373V11.9344H85.1348V12.5373C85.1348 14.433 82.978 16.2293 79.6962 16.6457L80.411 18.1872C83.0215 17.7769 85.1037 16.596 86.1168 14.9302ZM87.1051 17.2735H85.1658V19.3619H78.9131V20.9282H93.3889V19.3619H87.1051V17.2735ZM86.1292 21.9475C82.6672 21.9475 80.5975 22.9669 80.5975 24.7569C80.5975 26.547 82.6672 27.5477 86.1292 27.5414C89.5788 27.5477 91.6299 26.547 91.6361 24.7569C91.6299 22.9669 89.5788 21.9475 86.1292 21.9475ZM86.1292 26.0684C83.7984 26.0746 82.574 25.6209 82.5864 24.7569C82.574 23.8805 83.7984 23.4517 86.1292 23.4517C88.429 23.4517 89.6721 23.8805 89.6845 24.7569C89.6721 25.6209 88.429 26.0746 86.1292 26.0684ZM106.913 17.8329V11.6796H104.955V27.5539H106.913V19.4302H109.362V17.8329H106.913ZM102.015 14.8122H103.538V13.2272H94.6624V14.8122H96.179V22.1899C95.5077 22.1961 94.8613 22.1961 94.2646 22.1961L94.4822 23.8122C97.2418 23.7997 100.928 23.7376 104.209 23.172L104.116 21.761C103.439 21.8419 102.73 21.9102 102.015 21.9662V14.8122ZM100.132 14.8122V22.0843C99.4421 22.1153 98.7522 22.1402 98.0747 22.1588V14.8122H100.132ZM122.308 19.4178C122.731 17.174 122.731 15.5456 122.731 14.0601V12.643H111.742V14.2155H120.785C120.785 15.6388 120.767 17.2548 120.332 19.4178H110.026V21.009H116.223V27.5787H118.193V21.009H124.502V19.4178H122.308Z" fill="#0E74FF"/>
<g clip-path="url(#clip0_2786_9089)">
<path d="M19.0301 30.3386L22.0301 28.072C22.1379 27.9924 22.2697 27.9492 22.4051 27.9492C22.5405 27.9492 22.6722 27.9924 22.7801 28.072L26.0101 30.397C26.1084 30.4623 26.2236 30.4996 26.3426 30.5047C26.4616 30.5098 26.5797 30.4825 26.6836 30.4259C26.7875 30.3693 26.8731 30.2856 26.9308 30.1843C26.9885 30.0829 27.0159 29.9679 27.0101 29.8522V22.4398C27.0141 22.3546 27.0007 22.2696 26.9706 22.1896C26.9405 22.1095 26.8942 22.0362 26.8347 21.9737C26.7751 21.9112 26.7034 21.8609 26.6236 21.8257C26.5438 21.7905 26.4577 21.771 26.3701 21.7686H18.6601C18.5721 21.7711 18.4855 21.7904 18.4052 21.8255C18.3249 21.8606 18.2524 21.9108 18.1921 21.9731C18.1317 22.0355 18.0846 22.1088 18.0533 22.1888C18.0221 22.2689 18.0074 22.3542 18.0101 22.4398V29.8036C18.0072 29.9202 18.0375 30.0354 18.0978 30.1363C18.158 30.2373 18.2458 30.32 18.3514 30.3754C18.457 30.4308 18.5763 30.4567 18.6961 30.4502C18.8159 30.4437 18.9315 30.4051 19.0301 30.3386Z" fill="#0E74FF" stroke="#0E74FF" stroke-miterlimit="10"/>
<path d="M22.5 23.9961C27.4706 23.9961 31.5 20.0764 31.5 15.2412C31.5 10.406 27.4706 6.48633 22.5 6.48633C17.5294 6.48633 13.5 10.406 13.5 15.2412C13.5 20.0764 17.5294 23.9961 22.5 23.9961Z" fill="#FFDC79"/>
<path d="M22.5 23.9961C27.4706 23.9961 31.5 20.0764 31.5 15.2412C31.5 10.406 27.4706 6.48633 22.5 6.48633C17.5294 6.48633 13.5 10.406 13.5 15.2412C13.5 20.0764 17.5294 23.9961 22.5 23.9961Z" stroke="#0E74FF" stroke-miterlimit="10"/>
<path d="M23.5098 11.7783V18.9379H22.1398V12.897H20.5898V11.7783H23.5098Z" fill="#0E74FF"/>
</g>
<defs>
<clipPath id="clip0_2786_9089">
<rect width="19" height="25" fill="white" transform="translate(13 6)"/>
</clipPath>
</defs>
</svg>
