<svg width="202" height="94" viewBox="0 0 202 94" fill="none" xmlns="http://www.w3.org/2000/svg">
<rect x="0.5" y="0.5" width="201" height="93" rx="9.5" fill="white" stroke="#E3EFFF"/>
<path d="M83.008 31.7682C82.1227 31.7682 81.264 31.6508 80.432 31.4162C79.6107 31.1708 78.9493 30.8562 78.448 30.4722L79.328 28.5202C79.808 28.8722 80.3787 29.1548 81.04 29.3682C81.7013 29.5815 82.3627 29.6882 83.024 29.6882C83.76 29.6882 84.304 29.5815 84.656 29.3682C85.008 29.1442 85.184 28.8508 85.184 28.4882C85.184 28.2215 85.0773 28.0028 84.864 27.8322C84.6613 27.6508 84.3947 27.5068 84.064 27.4002C83.744 27.2935 83.3067 27.1762 82.752 27.0482C81.8987 26.8455 81.2 26.6428 80.656 26.4402C80.112 26.2375 79.6427 25.9122 79.248 25.4642C78.864 25.0162 78.672 24.4188 78.672 23.6722C78.672 23.0215 78.848 22.4348 79.2 21.9122C79.552 21.3788 80.08 20.9575 80.784 20.6482C81.4987 20.3388 82.368 20.1842 83.392 20.1842C84.1067 20.1842 84.8053 20.2695 85.488 20.4402C86.1707 20.6108 86.768 20.8562 87.28 21.1762L86.48 23.1442C85.4453 22.5575 84.4107 22.2642 83.376 22.2642C82.6507 22.2642 82.112 22.3815 81.76 22.6162C81.4187 22.8508 81.248 23.1602 81.248 23.5442C81.248 23.9282 81.4453 24.2162 81.84 24.4082C82.2453 24.5895 82.8587 24.7708 83.68 24.9522C84.5333 25.1548 85.232 25.3575 85.776 25.5602C86.32 25.7628 86.784 26.0828 87.168 26.5202C87.5627 26.9575 87.76 27.5495 87.76 28.2962C87.76 28.9362 87.5787 29.5228 87.216 30.0562C86.864 30.5788 86.3307 30.9948 85.616 31.3042C84.9013 31.6135 84.032 31.7682 83.008 31.7682ZM93.5151 31.7042C92.5978 31.7042 91.7711 31.5175 91.0351 31.1442C90.3098 30.7602 89.7391 30.2322 89.3231 29.5602C88.9178 28.8882 88.7151 28.1255 88.7151 27.2722C88.7151 26.4188 88.9178 25.6562 89.3231 24.9842C89.7391 24.3122 90.3098 23.7895 91.0351 23.4162C91.7711 23.0322 92.5978 22.8402 93.5151 22.8402C94.4218 22.8402 95.2111 23.0322 95.8831 23.4162C96.5658 23.7895 97.0618 24.3282 97.3711 25.0322L95.4351 26.0722C94.9871 25.2828 94.3418 24.8882 93.4991 24.8882C92.8485 24.8882 92.3098 25.1015 91.8831 25.5282C91.4565 25.9548 91.2431 26.5362 91.2431 27.2722C91.2431 28.0082 91.4565 28.5895 91.8831 29.0162C92.3098 29.4428 92.8485 29.6562 93.4991 29.6562C94.3525 29.6562 94.9978 29.2615 95.4351 28.4722L97.3711 29.5282C97.0618 30.2108 96.5658 30.7442 95.8831 31.1282C95.2111 31.5122 94.4218 31.7042 93.5151 31.7042ZM102.795 31.7042C101.888 31.7042 101.072 31.5175 100.347 31.1442C99.6322 30.7602 99.0722 30.2322 98.6669 29.5602C98.2615 28.8882 98.0589 28.1255 98.0589 27.2722C98.0589 26.4188 98.2615 25.6562 98.6669 24.9842C99.0722 24.3122 99.6322 23.7895 100.347 23.4162C101.072 23.0322 101.888 22.8402 102.795 22.8402C103.702 22.8402 104.512 23.0322 105.227 23.4162C105.942 23.7895 106.502 24.3122 106.907 24.9842C107.312 25.6562 107.515 26.4188 107.515 27.2722C107.515 28.1255 107.312 28.8882 106.907 29.5602C106.502 30.2322 105.942 30.7602 105.227 31.1442C104.512 31.5175 103.702 31.7042 102.795 31.7042ZM102.795 29.6562C103.435 29.6562 103.958 29.4428 104.363 29.0162C104.779 28.5788 104.987 27.9975 104.987 27.2722C104.987 26.5468 104.779 25.9708 104.363 25.5442C103.958 25.1068 103.435 24.8882 102.795 24.8882C102.155 24.8882 101.627 25.1068 101.211 25.5442C100.795 25.9708 100.587 26.5468 100.587 27.2722C100.587 27.9975 100.795 28.5788 101.211 29.0162C101.627 29.4428 102.155 29.6562 102.795 29.6562ZM111.567 24.1042C111.866 23.6882 112.266 23.3735 112.767 23.1602C113.279 22.9468 113.866 22.8402 114.527 22.8402V25.1442C114.25 25.1228 114.063 25.1122 113.967 25.1122C113.253 25.1122 112.693 25.3148 112.287 25.7202C111.882 26.1148 111.679 26.7122 111.679 27.5122V31.5762H109.183V22.9682H111.567V24.1042ZM124.365 27.3042C124.365 27.3362 124.349 27.5602 124.317 27.9762H117.805C117.923 28.5095 118.2 28.9308 118.637 29.2402C119.075 29.5495 119.619 29.7042 120.269 29.7042C120.717 29.7042 121.112 29.6402 121.453 29.5122C121.805 29.3735 122.131 29.1602 122.429 28.8722L123.757 30.3122C122.947 31.2402 121.763 31.7042 120.205 31.7042C119.235 31.7042 118.376 31.5175 117.629 31.1442C116.883 30.7602 116.307 30.2322 115.901 29.5602C115.496 28.8882 115.293 28.1255 115.293 27.2722C115.293 26.4295 115.491 25.6722 115.885 25.0002C116.291 24.3175 116.84 23.7895 117.533 23.4162C118.237 23.0322 119.021 22.8402 119.885 22.8402C120.728 22.8402 121.491 23.0215 122.173 23.3842C122.856 23.7468 123.389 24.2695 123.773 24.9522C124.168 25.6242 124.365 26.4082 124.365 27.3042ZM119.901 24.7282C119.336 24.7282 118.861 24.8882 118.477 25.2082C118.093 25.5282 117.859 25.9655 117.773 26.5202H122.013C121.928 25.9762 121.693 25.5442 121.309 25.2242C120.925 24.8935 120.456 24.7282 119.901 24.7282Z" fill="#C8D8EE"/>
<path d="M114.2 68.6962H109.64V74.5762H103.32V68.6962H88.24V64.3362L101.44 46.5762H108.24L96 63.4162H103.52V58.1762H109.64V63.4162H114.2V68.6962Z" fill="#0E74FF"/>
</svg>
