<svg width="184" height="94" viewBox="0 0 184 94" fill="none" xmlns="http://www.w3.org/2000/svg">
<rect width="184" height="94" rx="6" fill="#C8D8EE"/>
<rect x="94.3003" y="50.0249" width="40.25" height="40.25" rx="3" fill="#DDE7F4"/>
<rect x="94.3003" y="5" width="40.25" height="40.25" rx="3" fill="#DDE7F4"/>
<rect x="139.15" y="4.6001" width="40.25" height="40.25" rx="3" fill="#DDE7F4"/>
<rect x="139.15" y="50" width="40.25" height="40.25" rx="3" fill="#DDE7F4"/>
<rect x="49" y="5" width="41" height="40" rx="3" fill="#DDE7F4"/>
<path d="M74.4472 28.58V31H63.0952V29.086L69.2112 23.278C69.9005 22.618 70.3625 22.046 70.5972 21.562C70.8465 21.0633 70.9712 20.572 70.9712 20.088C70.9712 19.3693 70.7292 18.8193 70.2452 18.438C69.7612 18.0567 69.0499 17.866 68.1112 17.866C66.5419 17.866 65.3392 18.4013 64.5032 19.472L62.5012 17.932C63.1025 17.1253 63.9092 16.502 64.9212 16.062C65.9479 15.6073 67.0919 15.38 68.3532 15.38C70.0252 15.38 71.3599 15.776 72.3572 16.568C73.3545 17.36 73.8532 18.438 73.8532 19.802C73.8532 20.638 73.6772 21.4227 73.3252 22.156C72.9732 22.8893 72.2985 23.7253 71.3012 24.664L67.1872 28.58H74.4472Z" fill="#DDE7F4"/>
<rect x="49" y="50" width="41" height="40" rx="3" fill="#DDE7F4"/>
<path d="M74.4472 73.58V76H63.0952V74.086L69.2112 68.278C69.9005 67.618 70.3625 67.046 70.5972 66.562C70.8465 66.0633 70.9712 65.572 70.9712 65.088C70.9712 64.3693 70.7292 63.8193 70.2452 63.438C69.7612 63.0567 69.0499 62.866 68.1112 62.866C66.5419 62.866 65.3392 63.4013 64.5032 64.472L62.5012 62.932C63.1025 62.1253 63.9092 61.502 64.9212 61.062C65.9479 60.6073 67.0919 60.38 68.3532 60.38C70.0252 60.38 71.3599 60.776 72.3572 61.568C73.3545 62.36 73.8532 63.438 73.8532 64.802C73.8532 65.638 73.6772 66.4227 73.3252 67.156C72.9732 67.8893 72.2985 68.7253 71.3012 69.664L67.1872 73.58H74.4472Z" fill="#DDE7F4"/>
<rect x="4" y="49" width="41" height="41" rx="3" fill="#83B8FF"/>
<rect x="4" y="49" width="41" height="36.9" rx="3" fill="#E3EFFF"/>
<path d="M32.0212 71.502H29.2932V75H26.5212V71.502H18.0732V69.522L25.6632 59.6H28.7212L21.5712 69.082H26.6092V65.98H29.2932V69.082H32.0212V71.502Z" fill="#83B8FF"/>
<rect x="94" y="50" width="41" height="41" rx="3" fill="#83B8FF"/>
<rect x="94" y="50" width="41" height="36.9" rx="3" fill="#E3EFFF"/>
<path d="M122.021 72.502H119.293V76H116.521V72.502H108.073V70.522L115.663 60.6H118.721L111.571 70.082H116.609V66.98H119.293V70.082H122.021V72.502Z" fill="#83B8FF"/>
<rect x="49" y="5" width="41" height="41" rx="3" fill="#AEC5DD"/>
<rect x="49" y="5" width="41" height="36.9" rx="3" fill="#F5F8FB"/>
<path d="M74.4472 28.58V31H63.0952V29.086L69.2112 23.278C69.9005 22.618 70.3625 22.046 70.5972 21.562C70.8465 21.0633 70.9712 20.572 70.9712 20.088C70.9712 19.3693 70.7292 18.8193 70.2452 18.438C69.7612 18.0567 69.0499 17.866 68.1112 17.866C66.5419 17.866 65.3392 18.4013 64.5032 19.472L62.5012 17.932C63.1025 17.1253 63.9092 16.502 64.9212 16.062C65.9479 15.6073 67.0919 15.38 68.3532 15.38C70.0252 15.38 71.3599 15.776 72.3572 16.568C73.3545 17.36 73.8532 18.438 73.8532 19.802C73.8532 20.638 73.6772 21.4227 73.3252 22.156C72.9732 22.8893 72.2985 23.7253 71.3012 24.664L67.1872 28.58H74.4472Z" fill="#AEC5DD"/>
<rect x="4" y="6" width="41" height="40" rx="3" fill="#003379"/>
<rect x="4" y="6" width="41" height="36" rx="3" fill="#004DB7"/>
<path d="M18.964 22.496C19.976 22.496 20.8853 22.694 21.692 23.09C22.4987 23.4713 23.1293 24.0213 23.584 24.74C24.0387 25.4587 24.266 26.2873 24.266 27.226C24.266 28.2233 24.0167 29.1033 23.518 29.866C23.0193 30.614 22.3447 31.1933 21.494 31.604C20.6433 32.0147 19.69 32.22 18.634 32.22C16.522 32.22 14.8793 31.56 13.706 30.24C12.5473 28.92 11.968 27.028 11.968 24.564C11.968 22.8333 12.2833 21.3593 12.914 20.142C13.5447 18.91 14.4247 17.9787 15.554 17.348C16.698 16.7027 18.018 16.38 19.514 16.38C20.306 16.38 21.0467 16.468 21.736 16.644C22.44 16.8053 23.0487 17.0473 23.562 17.37L22.506 19.526C21.7433 19.0273 20.768 18.778 19.58 18.778C18.0987 18.778 16.94 19.2327 16.104 20.142C15.268 21.0513 14.85 22.364 14.85 24.08V24.102C15.3047 23.574 15.884 23.178 16.588 22.914C17.292 22.6353 18.084 22.496 18.964 22.496ZM18.48 29.976C19.3747 29.976 20.1007 29.7413 20.658 29.272C21.2153 28.788 21.494 28.15 21.494 27.358C21.494 26.5513 21.2153 25.9133 20.658 25.444C20.1007 24.9747 19.3527 24.74 18.414 24.74C17.49 24.74 16.7347 24.9893 16.148 25.488C15.576 25.9867 15.29 26.6173 15.29 27.38C15.29 28.128 15.5687 28.7513 16.126 29.25C16.698 29.734 17.4827 29.976 18.48 29.976ZM39.489 28.502H36.761V32H33.989V28.502H25.541V26.522L33.131 16.6H36.189L29.039 26.082H34.077V22.98H36.761V26.082H39.489V28.502Z" fill="white"/>
<rect x="139" y="5" width="41" height="40" rx="3" fill="#005AD4"/>
<rect x="139" y="5" width="41" height="36" rx="3" fill="#0E74FF"/>
<path d="M153.524 21.958C154.947 22.134 156.032 22.618 156.78 23.41C157.528 24.202 157.902 25.192 157.902 26.38C157.902 27.2747 157.675 28.0887 157.22 28.822C156.765 29.5553 156.076 30.142 155.152 30.582C154.243 31.0073 153.128 31.22 151.808 31.22C150.708 31.22 149.645 31.066 148.618 30.758C147.606 30.4353 146.741 29.9953 146.022 29.438L147.254 27.216C147.811 27.6853 148.486 28.0593 149.278 28.338C150.085 28.602 150.913 28.734 151.764 28.734C152.776 28.734 153.568 28.5287 154.14 28.118C154.727 27.6927 155.02 27.1207 155.02 26.402C155.02 25.6833 154.741 25.126 154.184 24.73C153.641 24.3193 152.805 24.114 151.676 24.114H150.268V22.156L153.766 17.998H146.77V15.6H157.264V17.514L153.524 21.958ZM170.819 28.58V31H159.467V29.086L165.583 23.278C166.273 22.618 166.735 22.046 166.969 21.562C167.219 21.0633 167.343 20.572 167.343 20.088C167.343 19.3693 167.101 18.8193 166.617 18.438C166.133 18.0567 165.422 17.866 164.483 17.866C162.914 17.866 161.711 18.4013 160.875 19.472L158.873 17.932C159.475 17.1253 160.281 16.502 161.293 16.062C162.32 15.6073 163.464 15.38 164.725 15.38C166.397 15.38 167.732 15.776 168.729 16.568C169.727 17.36 170.225 18.438 170.225 19.802C170.225 20.638 170.049 21.4227 169.697 22.156C169.345 22.8893 168.671 23.7253 167.673 24.664L163.559 28.58H170.819Z" fill="white"/>
<rect x="94" y="5" width="41" height="40" rx="3" fill="#FF8A48"/>
<rect x="94" y="5" width="41" height="36" rx="3" fill="#FFA775"/>
<path d="M105.555 25.68V27H99.3634V25.956L102.699 22.788C103.075 22.428 103.327 22.116 103.455 21.852C103.591 21.58 103.659 21.312 103.659 21.048C103.659 20.656 103.527 20.356 103.263 20.148C102.999 19.94 102.611 19.836 102.099 19.836C101.243 19.836 100.587 20.128 100.131 20.712L99.0394 19.872C99.3674 19.432 99.8074 19.092 100.359 18.852C100.919 18.604 101.543 18.48 102.231 18.48C103.143 18.48 103.871 18.696 104.415 19.128C104.959 19.56 105.231 20.148 105.231 20.892C105.231 21.348 105.135 21.776 104.943 22.176C104.751 22.576 104.383 23.032 103.839 23.544L101.595 25.68H105.555ZM109.925 27.12C109.253 27.12 108.653 26.952 108.125 26.616C107.597 26.272 107.181 25.776 106.877 25.128C106.573 24.472 106.421 23.696 106.421 22.8C106.421 21.904 106.573 21.132 106.877 20.484C107.181 19.828 107.597 19.332 108.125 18.996C108.653 18.652 109.253 18.48 109.925 18.48C110.597 18.48 111.197 18.652 111.725 18.996C112.261 19.332 112.681 19.828 112.985 20.484C113.289 21.132 113.441 21.904 113.441 22.8C113.441 23.696 113.289 24.472 112.985 25.128C112.681 25.776 112.261 26.272 111.725 26.616C111.197 26.952 110.597 27.12 109.925 27.12ZM109.925 25.764C110.525 25.764 110.997 25.516 111.341 25.02C111.693 24.524 111.869 23.784 111.869 22.8C111.869 21.816 111.693 21.076 111.341 20.58C110.997 20.084 110.525 19.836 109.925 19.836C109.333 19.836 108.861 20.084 108.509 20.58C108.165 21.076 107.993 21.816 107.993 22.8C107.993 23.784 108.165 24.524 108.509 25.02C108.861 25.516 109.333 25.764 109.925 25.764ZM121.983 25.092H120.495V27H118.983V25.092H114.375V24.012L118.515 18.6H120.183L116.283 23.772H119.031V22.08H120.495V23.772H121.983V25.092ZM128.205 22.584C128.645 22.784 128.981 23.056 129.213 23.4C129.453 23.736 129.573 24.132 129.573 24.588C129.573 25.1 129.429 25.548 129.141 25.932C128.861 26.316 128.461 26.612 127.941 26.82C127.421 27.02 126.817 27.12 126.129 27.12C125.441 27.12 124.837 27.02 124.317 26.82C123.805 26.612 123.409 26.316 123.129 25.932C122.849 25.548 122.709 25.1 122.709 24.588C122.709 24.132 122.825 23.736 123.057 23.4C123.289 23.056 123.621 22.784 124.053 22.584C123.717 22.4 123.457 22.16 123.273 21.864C123.097 21.56 123.009 21.212 123.009 20.82C123.009 20.348 123.137 19.936 123.393 19.584C123.657 19.232 124.025 18.96 124.497 18.768C124.969 18.576 125.513 18.48 126.129 18.48C126.753 18.48 127.301 18.576 127.773 18.768C128.245 18.96 128.613 19.232 128.877 19.584C129.141 19.936 129.273 20.348 129.273 20.82C129.273 21.212 129.181 21.556 128.997 21.852C128.813 22.148 128.549 22.392 128.205 22.584ZM126.129 19.704C125.641 19.704 125.253 19.808 124.965 20.016C124.685 20.224 124.545 20.516 124.545 20.892C124.545 21.252 124.685 21.54 124.965 21.756C125.253 21.964 125.641 22.068 126.129 22.068C126.625 22.068 127.017 21.964 127.305 21.756C127.593 21.54 127.737 21.252 127.737 20.892C127.737 20.516 127.589 20.224 127.293 20.016C127.005 19.808 126.617 19.704 126.129 19.704ZM126.129 25.896C126.705 25.896 127.161 25.776 127.497 25.536C127.833 25.296 128.001 24.964 128.001 24.54C128.001 24.124 127.833 23.796 127.497 23.556C127.161 23.316 126.705 23.196 126.129 23.196C125.553 23.196 125.101 23.316 124.773 23.556C124.445 23.796 124.281 24.124 124.281 24.54C124.281 24.964 124.445 25.296 124.773 25.536C125.101 25.776 125.553 25.896 126.129 25.896Z" fill="white"/>
<rect x="139" y="50" width="41" height="40" rx="3" fill="#E29500"/>
<rect x="139" y="50" width="41" height="36" rx="3" fill="#FFA800"/>
<path d="M151.333 67.136C152.912 67.136 154.08 67.4453 154.837 68.064C155.594 68.672 155.973 69.504 155.973 70.56C155.973 71.232 155.808 71.84 155.477 72.384C155.146 72.928 154.65 73.36 153.989 73.68C153.328 74 152.512 74.16 151.541 74.16C150.741 74.16 149.968 74.048 149.221 73.824C148.474 73.5893 147.845 73.2693 147.333 72.864L148.213 71.248C148.629 71.5893 149.125 71.8613 149.701 72.064C150.288 72.256 150.89 72.352 151.509 72.352C152.245 72.352 152.821 72.2027 153.237 71.904C153.664 71.5947 153.877 71.1733 153.877 70.64C153.877 70.064 153.648 69.632 153.189 69.344C152.741 69.0453 151.968 68.896 150.869 68.896H148.165L148.741 62.8H155.317V64.544H150.501L150.261 67.136H151.333ZM161.045 62.8V74H158.965V64.544H156.597V62.8H161.045ZM171.378 72.24V74H163.123V72.608L167.571 68.384C168.072 67.904 168.408 67.488 168.579 67.136C168.76 66.7733 168.851 66.416 168.851 66.064C168.851 65.5413 168.675 65.1413 168.323 64.864C167.971 64.5867 167.453 64.448 166.771 64.448C165.629 64.448 164.755 64.8373 164.147 65.616L162.691 64.496C163.128 63.9093 163.715 63.456 164.451 63.136C165.197 62.8053 166.029 62.64 166.947 62.64C168.163 62.64 169.133 62.928 169.859 63.504C170.584 64.08 170.947 64.864 170.947 65.856C170.947 66.464 170.819 67.0347 170.562 67.568C170.307 68.1013 169.816 68.7093 169.091 69.392L166.099 72.24H171.378Z" fill="white"/>
<rect x="49" y="50" width="41" height="40" rx="3" fill="#005AD4"/>
<rect x="49" y="50" width="41" height="36" rx="3" fill="#0E74FF"/>
<path d="M63.524 66.958C64.9467 67.134 66.032 67.618 66.78 68.41C67.528 69.202 67.902 70.192 67.902 71.38C67.902 72.2747 67.6747 73.0887 67.22 73.822C66.7653 74.5553 66.076 75.142 65.152 75.582C64.2427 76.0073 63.128 76.22 61.808 76.22C60.708 76.22 59.6447 76.066 58.618 75.758C57.606 75.4353 56.7407 74.9953 56.022 74.438L57.254 72.216C57.8113 72.6853 58.486 73.0593 59.278 73.338C60.0847 73.602 60.9133 73.734 61.764 73.734C62.776 73.734 63.568 73.5287 64.14 73.118C64.7267 72.6927 65.02 72.1207 65.02 71.402C65.02 70.6833 64.7413 70.126 64.184 69.73C63.6413 69.3193 62.8053 69.114 61.676 69.114H60.268V67.156L63.766 62.998H56.77V60.6H67.264V62.514L63.524 66.958ZM80.8193 73.58V76H69.4673V74.086L75.5833 68.278C76.2726 67.618 76.7346 67.046 76.9693 66.562C77.2186 66.0633 77.3433 65.572 77.3433 65.088C77.3433 64.3693 77.1013 63.8193 76.6173 63.438C76.1333 63.0567 75.4219 62.866 74.4833 62.866C72.9139 62.866 71.7113 63.4013 70.8753 64.472L68.8733 62.932C69.4746 62.1253 70.2813 61.502 71.2933 61.062C72.3199 60.6073 73.4639 60.38 74.7253 60.38C76.3973 60.38 77.7319 60.776 78.7293 61.568C79.7266 62.36 80.2253 63.438 80.2253 64.802C80.2253 65.638 80.0493 66.4227 79.6973 67.156C79.3453 67.8893 78.6706 68.7253 77.6733 69.664L73.5593 73.58H80.8193Z" fill="white"/>
<g clip-path="url(#clip0_2807_10621)">
<g filter="url(#filter0_d_2807_10621)">
<path d="M153.436 36.3991C152.552 36.3954 151.671 36.5 150.812 36.7108C150.439 36.6138 150.056 36.5645 149.671 36.5641H146.633C145.588 36.5629 144.574 36.9231 143.762 37.5841C142.228 36.7926 140.526 36.386 138.801 36.3991C137.471 36.3918 136.151 36.6295 134.906 37.1005C134.244 36.7428 133.505 36.5554 132.754 36.555H129.696C128.553 36.5597 127.454 36.9949 126.615 37.7743C125.772 36.9906 124.665 36.5551 123.516 36.555H120.709C119.894 35.7417 118.966 35.0508 117.955 34.5036C116.049 33.5112 113.934 32.9932 111.787 32.9932C109.641 32.9932 107.526 33.5112 105.62 34.5036C103.737 35.507 102.164 37.0092 101.072 38.847C100.93 39.0762 100.798 39.326 100.675 39.5713C99.9501 38.7923 99.1018 38.1394 98.1645 37.6391C96.5829 36.8208 94.8281 36.3978 93.049 36.4062C91.27 36.4146 89.5192 36.854 87.9454 37.6872C87.4893 37.9359 87.0529 38.2195 86.6401 38.5353C85.4214 37.4809 83.4725 36.406 80.604 36.406C79.2868 36.399 77.9814 36.6545 76.7633 37.1578C75.5864 36.6528 74.3186 36.3969 73.0389 36.406C72.233 36.4034 71.4297 36.5004 70.6473 36.6948C70.3013 36.6115 69.9466 36.57 69.5907 36.571H66.5533C65.498 36.5691 64.4749 36.9362 63.6597 37.6093C62.174 36.8117 60.4123 36.406 58.395 36.406C57.1443 36.4052 55.8989 36.5702 54.6911 36.8965C53.5565 35.6297 52.1526 34.6356 50.5834 33.9879C48.948 33.3247 47.1987 32.9914 45.4351 33.0069C43.2911 32.9848 41.1747 33.4941 39.2735 34.4898C37.3745 35.4812 35.7866 36.9824 34.6866 38.8264C33.5783 40.6971 33.0043 42.8382 33.0275 45.0149C33.0043 47.1916 33.5783 49.3327 34.6866 51.2034C35.7764 53.025 37.3412 54.5126 39.2119 55.5056C41.1062 56.5076 43.219 57.0204 45.3598 56.9977C46.8575 56.9948 48.3464 56.7685 49.7779 56.3261C50.5647 56.084 51.3284 55.7718 52.0599 55.3933C52.4365 55.6481 52.8326 55.8726 53.2443 56.0648C54.536 56.644 55.9376 56.9342 57.352 56.9152C58.156 56.9206 58.9578 56.8322 59.7413 56.6516C60.0556 56.7191 60.3762 56.7529 60.6975 56.7525H63.6642C64.5971 56.4376 65.6068 56.4376 66.5396 56.7525H69.7208C70.4053 56.3644 71.1781 56.1605 71.9641 56.1605C72.7501 56.1605 73.5228 56.3644 74.2073 56.7525H77.3886C78.0759 56.3618 78.8523 56.1564 79.6421 56.1564C80.4319 56.1564 81.2083 56.3618 81.8956 56.7525H85.0814C86.1712 56.7501 87.224 56.3548 88.0481 55.6385L88.1462 55.6935C89.8077 56.5207 91.6411 56.9394 93.4954 56.9152C97.6693 56.9152 100.129 55.0953 101.46 53.5665C101.709 53.2768 101.921 52.9573 102.092 52.6153C103.066 53.7938 104.26 54.7701 105.606 55.4895C107.512 56.4819 109.627 57 111.774 57C113.92 57 116.035 56.4819 117.941 55.4895C118.868 54.9898 119.726 54.3694 120.492 53.6444L120.62 53.9493C120.968 54.7814 121.553 55.4918 122.302 55.9913C123.051 56.4908 123.929 56.7572 124.828 56.757H128.112C128.901 56.7566 129.676 56.5509 130.362 56.16C131.047 55.7692 131.621 55.2065 132.026 54.5269C132.587 54.9797 133.195 55.3722 133.838 55.6981C135.499 56.5253 137.333 56.944 139.187 56.9198C140.843 56.9455 142.485 56.6075 143.997 55.9296C144.763 56.469 145.675 56.758 146.61 56.757H149.792C151.002 56.757 152.163 56.2741 153.019 55.4144C153.875 54.5547 154.356 53.3887 154.356 52.173V48.4209C155.382 48.2055 156.303 47.6418 156.964 46.8245C157.626 46.0072 157.987 44.9862 157.986 43.9331V40.9832C157.986 39.7698 157.507 38.6059 156.654 37.7466C155.802 36.8873 154.644 36.4027 153.436 36.3991Z" fill="white"/>
<path d="M153.435 36.6491L153.435 36.6491C154.577 36.6525 155.671 37.1104 156.477 37.9227C157.283 38.7351 157.736 39.8356 157.736 40.9832V43.9331C157.737 44.929 157.395 45.8945 156.77 46.6673C156.145 47.4399 155.274 47.9727 154.304 48.1762L154.106 48.2179V48.4209V52.173C154.106 53.3228 153.651 54.4253 152.842 55.238C152.033 56.0507 150.935 56.507 149.792 56.507H146.61H146.61C145.727 56.5079 144.865 56.235 144.141 55.7253L144.025 55.6433L143.895 55.7015C142.416 56.3645 140.81 56.6949 139.191 56.6698L139.191 56.6697L139.184 56.6698C137.369 56.6935 135.576 56.2839 133.95 55.4747C133.323 55.1568 132.73 54.7739 132.183 54.3322L131.958 54.1515L131.811 54.3989C131.428 55.0415 130.886 55.5734 130.238 55.9428C129.589 56.3122 128.857 56.5066 128.112 56.507H124.828C123.979 56.5072 123.148 56.2554 122.441 55.7833C121.733 55.3112 121.18 54.6397 120.851 53.8528L120.851 53.8526L120.723 53.5478L120.583 53.2143L120.32 53.4629C119.571 54.1724 118.731 54.7796 117.824 55.2687C115.954 56.242 113.879 56.75 111.774 56.75C109.668 56.75 107.593 56.2419 105.723 55.2685C104.406 54.5645 103.238 53.6092 102.285 52.456L102.04 52.1601L101.868 52.5035C101.707 52.827 101.506 53.1291 101.271 53.4032C99.9792 54.8867 97.5846 56.6652 93.4954 56.6652L93.4921 56.6652C91.6797 56.6889 89.8875 56.2801 88.263 55.4724L88.1703 55.4205L88.0169 55.3344L87.8841 55.4498C87.1052 56.1268 86.1105 56.5003 85.0808 56.5025H81.9608C81.2504 56.1116 80.453 55.9064 79.6421 55.9064C78.8312 55.9064 78.0338 56.1116 77.3234 56.5025H74.2723C73.5648 56.1143 72.7711 55.9105 71.9641 55.9105C71.157 55.9105 70.3633 56.1143 69.6558 56.5025H66.5801C65.6196 56.1876 64.5842 56.1876 63.6237 56.5025H60.6975H60.6972C60.3936 56.5029 60.0908 56.4709 59.7938 56.4072L59.7394 56.3955L59.6852 56.408C58.9206 56.5842 58.1382 56.6705 57.3537 56.6652L57.3537 56.6651L57.3487 56.6652C55.9713 56.6837 54.6064 56.4013 53.3484 55.8376C52.9492 55.6511 52.5652 55.4333 52.2 55.1862L52.077 55.103L51.9451 55.1712C51.2268 55.5429 50.4769 55.8494 49.7043 56.0872L49.7041 56.0873C48.2964 56.5223 46.8321 56.7449 45.3593 56.7477L45.3571 56.7477C43.2581 56.77 41.1865 56.2672 39.3291 55.2848C37.4989 54.3133 35.9678 52.8578 34.9013 51.0754C33.8167 49.2442 33.2548 47.1484 33.2775 45.0176L33.2776 45.0176L33.2775 45.0122C33.2548 42.8813 33.8167 40.7854 34.9015 38.9541C35.9779 37.15 37.5314 35.6813 39.3892 34.7114L39.3895 34.7113C41.2542 33.7347 43.3298 33.2352 45.4325 33.2569L45.4325 33.2569L45.4373 33.2569C47.1676 33.2417 48.884 33.5687 50.4887 34.2192C52.0228 34.8526 53.3955 35.8246 54.5049 37.0633L54.6077 37.178L54.7563 37.1378C55.9428 36.8173 57.1662 36.6553 58.3948 36.656H58.395C60.3786 36.656 62.0983 37.0548 63.5414 37.8296L63.6893 37.909L63.8188 37.8021C64.5892 37.166 65.5559 36.8192 66.5529 36.821H66.5533L69.5907 36.821L69.5915 36.821C69.9274 36.82 70.2622 36.8592 70.5889 36.9378L70.6483 36.9521L70.7076 36.9374C71.47 36.748 72.2528 36.6535 73.0381 36.656L73.0407 36.656C74.2859 36.6472 75.5195 36.8962 76.6647 37.3875L76.7614 37.429L76.8587 37.3888C78.0462 36.8982 79.3187 36.6491 80.6026 36.656H80.604C83.4039 36.656 85.2963 37.7033 86.4765 38.7243L86.6303 38.8575L86.7919 38.7339C87.1942 38.4261 87.6194 38.1498 88.0638 37.9074C89.6016 37.0936 91.3121 36.6644 93.0502 36.6562C94.7883 36.648 96.5028 37.0611 98.0482 37.8604C98.9605 38.3476 99.7862 38.9832 100.492 39.7416L100.737 40.0049L100.898 39.6835C101.02 39.4409 101.149 39.1985 101.285 38.9783L101.287 38.9748C102.356 37.1764 103.895 35.7067 105.736 34.7248C107.606 33.7513 109.681 33.2432 111.787 33.2432C113.893 33.2432 115.968 33.7511 117.837 34.7244C118.827 35.26 119.735 35.9361 120.532 36.7319L120.606 36.805H120.709H123.516C124.602 36.8051 125.648 37.2166 126.445 37.9575L126.615 38.1156L126.785 37.9575C127.578 37.2207 128.617 36.8096 129.696 36.805H132.754C133.463 36.8054 134.162 36.9825 134.787 37.3204L134.887 37.3747L134.994 37.3343C136.21 36.8742 137.5 36.6419 138.8 36.6491L138.803 36.6491C140.487 36.6363 142.149 37.0333 143.648 37.8063L143.793 37.8813L143.92 37.778C144.688 37.1532 145.645 36.813 146.633 36.8141H146.633H149.67C150.034 36.8145 150.396 36.8611 150.749 36.9528L150.81 36.9687L150.871 36.9536C151.71 36.7477 152.571 36.6455 153.435 36.6491Z" stroke="#0E74FF" stroke-width="0.5"/>
</g>
<path d="M48.1116 44.7741H51.1307V50.5913C50.3188 51.1969 49.4074 51.6546 48.4379 51.9437C47.4403 52.2502 46.4026 52.4047 45.3594 52.4021C43.9672 52.4259 42.5913 52.0997 41.3567 51.4532C40.2043 50.8462 39.2409 49.9317 38.5725 48.8104C37.8919 47.6546 37.5428 46.3323 37.5639 44.9896C37.5428 43.6469 37.8919 42.3245 38.5725 41.1688C39.2451 40.0435 40.2162 39.1284 41.3772 38.526C42.6248 37.879 44.0125 37.5522 45.4164 37.5748C46.582 37.5584 47.7393 37.7742 48.8213 38.2097C49.8101 38.6084 50.6907 39.2368 51.3909 40.0434L49.2709 42.0099C48.8046 41.493 48.2343 41.0814 47.5977 40.8025C46.9612 40.5235 46.2729 40.3835 45.5785 40.3917C44.7348 40.375 43.9005 40.572 43.1527 40.9648C42.4593 41.3345 41.8859 41.8961 41.5004 42.5829C41.1124 43.3183 40.9095 44.1379 40.9095 44.9701C40.9095 45.8023 41.1124 46.6219 41.5004 47.3573C41.8853 48.043 42.4537 48.6068 43.1412 48.9846C43.8767 49.383 44.702 49.5843 45.5374 49.5691C46.4315 49.5824 47.3148 49.3713 48.107 48.9548L48.1116 44.7741Z" fill="#0E74FF"/>
<path d="M62.3038 42.2023C63.2166 43.0137 63.673 44.2361 63.673 45.8696V52.159H60.7063V50.7837C60.1054 51.8075 58.9902 52.3194 57.3608 52.3194C56.6075 52.338 55.8592 52.1917 55.1678 51.8908C54.5912 51.6396 54.0991 51.2265 53.7506 50.7012C53.4224 50.1892 53.2524 49.5911 53.2622 48.9822C53.2429 48.5164 53.3367 48.0529 53.5355 47.6316C53.7343 47.2104 54.0321 46.844 54.4033 46.5641C55.1731 45.9773 56.3598 45.6839 57.9633 45.6839H60.4918C60.5099 45.3863 60.4626 45.0884 60.3534 44.8111C60.2442 44.5339 60.0756 44.2841 59.8597 44.0795C59.4368 43.7036 58.8046 43.5157 57.9633 43.5157C57.3781 43.5165 56.7966 43.6101 56.2403 43.793C55.7203 43.9533 55.2333 44.2064 54.8026 44.5402L53.6616 42.3077C54.3175 41.8585 55.0454 41.5258 55.8136 41.3245C56.6503 41.0955 57.5138 40.9807 58.3809 40.9829C60.0833 40.9829 61.391 41.3894 62.3038 42.2023ZM59.5904 49.8027C60.0127 49.5504 60.3309 49.1544 60.4873 48.6865V47.5565H58.3056C57.0003 47.5565 56.3476 47.9867 56.3476 48.8469C56.341 49.0365 56.3813 49.2247 56.465 49.3947C56.5486 49.5647 56.6729 49.7112 56.8268 49.8211C57.2152 50.0794 57.6762 50.2048 58.1413 50.1786C58.6495 50.1889 59.1507 50.0589 59.5904 49.8027V49.8027Z" fill="#0E74FF"/>
<path d="M83.8718 42.2023C84.6796 43.0137 85.0843 44.2361 85.0859 45.8696V52.1796H81.9024V46.3509C81.9024 45.4784 81.7229 44.8259 81.3638 44.3935C81.1725 44.1758 80.9344 44.0047 80.6675 43.8931C80.4007 43.7815 80.112 43.7324 79.8234 43.7494C79.4927 43.7339 79.1626 43.7909 78.856 43.9164C78.5495 44.0418 78.2737 44.2328 78.048 44.476C77.6114 44.9619 77.3938 45.6824 77.3953 46.6374V52.1681H74.2141V46.3509C74.2141 44.6166 73.5204 43.7494 72.1329 43.7494C71.8057 43.7348 71.4792 43.7923 71.1765 43.9178C70.8737 44.0433 70.6019 44.2338 70.3802 44.476C69.9451 44.9619 69.7276 45.6824 69.7276 46.6374V52.1681H66.5464V41.1388H69.5838V42.4086C69.9947 41.9416 70.508 41.5767 71.0831 41.3428C71.7022 41.0918 72.3645 40.9664 73.032 40.9738C73.7576 40.9623 74.4761 41.1192 75.1315 41.4322C75.7483 41.7321 76.2709 42.1968 76.6422 42.7753C77.0929 42.1984 77.6774 41.7412 78.3446 41.4436C79.0527 41.1248 79.8211 40.9637 80.597 40.9715C81.9708 40.9791 83.0624 41.3894 83.8718 42.2023Z" fill="#0E74FF"/>
<path d="M98.7507 47.5567H90.4486C90.581 48.2135 90.9612 48.7933 91.5097 49.1749C92.1232 49.5877 92.8508 49.7955 93.5887 49.7685C94.1066 49.778 94.6217 49.6917 95.1086 49.5141C95.5696 49.3297 95.9894 49.0546 96.3432 48.705L98.0365 50.5386C97.0019 51.7259 95.4927 52.3196 93.5088 52.3196C92.3722 52.3433 91.2464 52.0942 90.225 51.593C89.3138 51.1462 88.5495 50.4462 88.0227 49.576C87.4985 48.6908 87.2298 47.6766 87.2469 46.6467C87.2331 45.6217 87.4974 44.6123 88.0114 43.7267C88.5119 42.8684 89.2394 42.1663 90.1131 41.6982C91.0251 41.2259 92.0354 40.9769 93.0614 40.9718C94.0875 40.9666 95.1002 41.2053 96.0168 41.6684C96.878 42.1221 97.591 42.8151 98.0707 43.6648C98.5811 44.5885 98.8378 45.6318 98.8146 46.688C98.8101 46.7407 98.7895 47.0272 98.7507 47.5567ZM91.3044 44.0132C90.8063 44.4405 90.4863 45.0401 90.4075 45.6933H95.8069C95.7233 45.0438 95.4029 44.4484 94.9078 44.0224C94.4054 43.602 93.7676 43.3803 93.114 43.3989C92.4567 43.3795 91.8143 43.5984 91.3044 44.0155V44.0132Z" fill="#0E74FF"/>
<path d="M107.781 51.4532C106.625 50.8436 105.657 49.9262 104.986 48.8013C104.325 47.6447 103.977 46.3345 103.977 45.0011C103.977 43.6676 104.325 42.3574 104.986 41.2008C105.657 40.0754 106.624 39.1578 107.781 38.549C109.021 37.9162 110.393 37.5864 111.784 37.5864C113.175 37.5864 114.546 37.9162 115.787 38.549C116.95 39.173 117.924 40.1029 118.602 41.2393C119.281 42.3757 119.639 43.6759 119.639 45.0011C119.639 46.3262 119.281 47.6264 118.602 48.7628C117.924 49.8992 116.95 50.8291 115.787 51.4532C114.546 52.0859 113.175 52.4157 111.784 52.4157C110.393 52.4157 109.021 52.0859 107.781 51.4532V51.4532ZM114.064 49.003C114.735 48.619 115.288 48.0557 115.661 47.3756C116.042 46.6417 116.241 45.8263 116.241 44.9988C116.241 44.1712 116.042 43.3558 115.661 42.6219C115.29 41.9408 114.736 41.3773 114.064 40.9946C113.363 40.6118 112.579 40.4113 111.782 40.4113C110.984 40.4113 110.2 40.6118 109.5 40.9946C108.827 41.3773 108.274 41.9408 107.902 42.6219C107.521 43.3558 107.322 44.1712 107.322 44.9988C107.322 45.8263 107.521 46.6417 107.902 47.3756C108.275 48.0557 108.828 48.619 109.5 49.003C110.2 49.3857 110.984 49.5863 111.782 49.5863C112.579 49.5863 113.363 49.3857 114.064 49.003V49.003Z" fill="#0E74FF"/>
<path d="M132.754 41.1392L128.126 52.1593H124.842L120.225 41.1392H123.509L126.546 48.6364L129.696 41.1392H132.754Z" fill="#0E74FF"/>
<path d="M144.442 47.5567H136.14C136.272 48.2135 136.653 48.7933 137.201 49.1749C137.815 49.5877 138.542 49.7955 139.28 49.7685C139.798 49.7777 140.313 49.6915 140.8 49.5141C141.261 49.3297 141.681 49.0546 142.035 48.705L143.728 50.5386C142.695 51.7259 141.186 52.3196 139.2 52.3196C138.064 52.3433 136.938 52.0942 135.916 51.593C135.005 51.1456 134.24 50.4457 133.712 49.576C133.189 48.6902 132.922 47.6762 132.938 46.6467C132.924 45.6217 133.189 44.6123 133.703 43.7267C134.203 42.8684 134.931 42.1663 135.805 41.6982C136.716 41.2259 137.727 40.9769 138.753 40.9718C139.779 40.9666 140.792 41.2053 141.708 41.6684C142.569 42.1221 143.282 42.8151 143.762 43.6648C144.272 44.5885 144.529 45.6318 144.506 46.688C144.501 46.7407 144.481 47.0272 144.442 47.5567ZM136.996 44.0132C136.498 44.4405 136.178 45.0401 136.099 45.6933H141.505C141.421 45.0438 141.101 44.4484 140.606 44.0224C140.104 43.602 139.466 43.3803 138.812 43.3989C138.153 43.3779 137.507 43.5968 136.996 44.0155V44.0132Z" fill="#0E74FF"/>
<path d="M151.201 41.3932C151.911 41.1079 152.671 40.9684 153.436 40.983V43.9328C153.082 43.9053 152.844 43.8916 152.721 43.8916C151.808 43.8916 151.095 44.1475 150.581 44.6594C150.066 45.1713 149.808 45.9399 149.805 46.9652V52.1681H146.624V41.1388H149.663V42.592C150.054 42.056 150.587 41.6408 151.201 41.3932V41.3932Z" fill="#0E74FF"/>
</g>
<defs>
<filter id="filter0_d_2807_10621" x="23.0269" y="24.9932" width="144.959" height="44.0068" filterUnits="userSpaceOnUse" color-interpolation-filters="sRGB">
<feFlood flood-opacity="0" result="BackgroundImageFix"/>
<feColorMatrix in="SourceAlpha" type="matrix" values="0 0 0 0 0 0 0 0 0 0 0 0 0 0 0 0 0 0 127 0" result="hardAlpha"/>
<feOffset dy="2"/>
<feGaussianBlur stdDeviation="5"/>
<feComposite in2="hardAlpha" operator="out"/>
<feColorMatrix type="matrix" values="0 0 0 0 0 0 0 0 0 0.107304 0 0 0 0 0.229167 0 0 0 0.4 0"/>
<feBlend mode="normal" in2="BackgroundImageFix" result="effect1_dropShadow_2807_10621"/>
<feBlend mode="normal" in="SourceGraphic" in2="effect1_dropShadow_2807_10621" result="shape"/>
</filter>
<clipPath id="clip0_2807_10621">
<rect width="144" height="45" fill="white" transform="translate(20 24)"/>
</clipPath>
</defs>
</svg>
