<svg width="189" height="100" viewBox="0 0 189 100" fill="none" xmlns="http://www.w3.org/2000/svg">
<rect y="6" width="184" height="94" rx="6" fill="#C8D8EE"/>
<rect x="94.3003" y="56.0249" width="40.25" height="40.25" rx="3" fill="#DDE7F4"/>
<rect x="94.3003" y="11" width="40.25" height="40.25" rx="3" fill="#DDE7F4"/>
<rect x="139.15" y="10.6001" width="40.25" height="40.25" rx="3" fill="#DDE7F4"/>
<rect x="139.15" y="56" width="40.25" height="40.25" rx="3" fill="#DDE7F4"/>
<rect x="49" y="11" width="41" height="40" rx="3" fill="#DDE7F4"/>
<path d="M74.4472 34.58V37H63.0952V35.086L69.2112 29.278C69.9005 28.618 70.3625 28.046 70.5972 27.562C70.8465 27.0633 70.9712 26.572 70.9712 26.088C70.9712 25.3693 70.7292 24.8193 70.2452 24.438C69.7612 24.0567 69.0499 23.866 68.1112 23.866C66.5419 23.866 65.3392 24.4013 64.5032 25.472L62.5012 23.932C63.1025 23.1253 63.9092 22.502 64.9212 22.062C65.9479 21.6073 67.0919 21.38 68.3532 21.38C70.0252 21.38 71.3599 21.776 72.3572 22.568C73.3545 23.36 73.8532 24.438 73.8532 25.802C73.8532 26.638 73.6772 27.4227 73.3252 28.156C72.9732 28.8893 72.2985 29.7253 71.3012 30.664L67.1872 34.58H74.4472Z" fill="#DDE7F4"/>
<rect x="4" y="11" width="41" height="40" rx="3" fill="#DDE7F4"/>
<path d="M29.4472 34.58V37H18.0952V35.086L24.2112 29.278C24.9005 28.618 25.3625 28.046 25.5972 27.562C25.8465 27.0633 25.9712 26.572 25.9712 26.088C25.9712 25.3693 25.7292 24.8193 25.2452 24.438C24.7612 24.0567 24.0499 23.866 23.1112 23.866C21.5419 23.866 20.3392 24.4013 19.5032 25.472L17.5012 23.932C18.1025 23.1253 18.9092 22.502 19.9212 22.062C20.9479 21.6073 22.0919 21.38 23.3532 21.38C25.0252 21.38 26.3599 21.776 27.3572 22.568C28.3545 23.36 28.8532 24.438 28.8532 25.802C28.8532 26.638 28.6772 27.4227 28.3252 28.156C27.9732 28.8893 27.2985 29.7253 26.3012 30.664L22.1872 34.58H29.4472Z" fill="#DDE7F4"/>
<rect x="49" y="56" width="41" height="40" rx="3" fill="#DDE7F4"/>
<path d="M74.4472 79.58V82H63.0952V80.086L69.2112 74.278C69.9005 73.618 70.3625 73.046 70.5972 72.562C70.8465 72.0633 70.9712 71.572 70.9712 71.088C70.9712 70.3693 70.7292 69.8193 70.2452 69.438C69.7612 69.0567 69.0499 68.866 68.1112 68.866C66.5419 68.866 65.3392 69.4013 64.5032 70.472L62.5012 68.932C63.1025 68.1253 63.9092 67.502 64.9212 67.062C65.9479 66.6073 67.0919 66.38 68.3532 66.38C70.0252 66.38 71.3599 66.776 72.3572 67.568C73.3545 68.36 73.8532 69.438 73.8532 70.802C73.8532 71.638 73.6772 72.4227 73.3252 73.156C72.9732 73.8893 72.2985 74.7253 71.3012 75.664L67.1872 79.58H74.4472Z" fill="#DDE7F4"/>
<rect x="4" y="55" width="41" height="41" rx="3" fill="#83B8FF"/>
<rect x="4" y="55" width="41" height="36.9" rx="3" fill="#E3EFFF"/>
<path d="M32.0212 77.502H29.2932V81H26.5212V77.502H18.0732V75.522L25.6632 65.6H28.7212L21.5712 75.082H26.6092V71.98H29.2932V75.082H32.0212V77.502Z" fill="#83B8FF"/>
<rect x="139" y="10" width="41" height="40" rx="3" fill="#AEC5DD"/>
<rect x="139" y="10" width="41" height="36" rx="3" fill="#F5F8FB"/>
<path d="M165.122 33.58V36H153.77V34.086L159.886 28.278C160.575 27.618 161.037 27.046 161.272 26.562C161.521 26.0633 161.646 25.572 161.646 25.088C161.646 24.3693 161.404 23.8193 160.92 23.438C160.436 23.0567 159.725 22.866 158.786 22.866C157.217 22.866 156.014 23.4013 155.178 24.472L153.176 22.932C153.777 22.1253 154.584 21.502 155.596 21.062C156.623 20.6073 157.767 20.38 159.028 20.38C160.7 20.38 162.035 20.776 163.032 21.568C164.029 22.36 164.528 23.438 164.528 24.802C164.528 25.638 164.352 26.4227 164 27.156C163.648 27.8893 162.973 28.7253 161.976 29.664L157.862 33.58H165.122Z" fill="#AEC5DD"/>
<path d="M182.814 3.3381C182.264 4.23723 180.931 6.59752 180 8.8456L184.799 5.85012L182.814 3.3381Z" fill="#EC9C00" stroke="#EC9C00" stroke-linejoin="round"/>
<path d="M186.801 10.9003C185.934 11.5001 183.76 13.1196 182 14.7992L187.6 14.0005L186.801 10.9003Z" fill="#EC9C00" stroke="#EC9C00" stroke-linejoin="round"/>
<path d="M171.026 1.82413C171.527 2.75123 172.9 5.08876 174.377 7.022L174.195 1.36809L171.026 1.82413Z" fill="#EC9C00" stroke="#EC9C00" stroke-linejoin="round"/>
</svg>
