<svg width="177" height="89" viewBox="0 0 177 89" fill="none" xmlns="http://www.w3.org/2000/svg">
<rect x="37.5" y="0.5" width="139" height="37" rx="4.5" fill="white" stroke="#ECECEC"/>
<path d="M91.9088 16.8135H88.5836V18.3923H91.9088V27.5912H93.8481V11.6796H91.9088V16.8135ZM86.3957 12.9537H84.413V15.4959C84.4006 18.4544 82.9586 21.5186 80.3729 22.7244L81.6036 24.3094C83.4309 23.3895 84.7238 21.5684 85.4137 19.3743C86.0974 21.4503 87.3591 23.1347 89.1554 24.0173L90.3425 22.4572C87.8066 21.3384 86.3957 18.442 86.3957 15.4959V12.9537ZM103.314 17.2983C106.931 17.2859 109.032 16.3287 109.032 14.5635C109.032 12.8046 106.931 11.8412 103.314 11.8349C99.6961 11.8412 97.5829 12.8046 97.5891 14.5635C97.5829 16.3287 99.6961 17.2859 103.314 17.2983ZM103.314 13.2894C105.762 13.2956 107.024 13.7369 107.024 14.5635C107.024 15.4337 105.762 15.8439 103.314 15.8501C100.89 15.8439 99.6216 15.4337 99.634 14.5635C99.6216 13.7369 100.89 13.2956 103.314 13.2894ZM110.561 18.1188H96.085V19.654H102.319V20.8598H97.788V22.3142H106.832V23.3646H97.8066V27.4233H109.193V25.9316H99.721V24.7507H108.758V20.8598H104.283V19.654H110.561V18.1188ZM128.45 11.6796H126.486V20.9965H128.45V17.143H130.669V15.5518H128.45V11.6796ZM124.055 12.7673H116.584V14.346H121.93C121.6 16.7265 119.462 18.6657 115.851 19.6602L116.64 21.239C121.333 19.9088 124.055 16.9378 124.055 12.7673ZM123.316 21.183C120.115 21.1768 117.989 22.4075 118.001 24.3591C117.989 26.3419 120.115 27.5539 123.316 27.5539C126.535 27.5539 128.618 26.3419 128.624 24.3591C128.618 22.4075 126.535 21.1768 123.316 21.183ZM123.316 26.0186C121.215 26.0186 119.928 25.4033 119.934 24.3591C119.928 23.3149 121.215 22.712 123.316 22.7182C125.41 22.712 126.697 23.3149 126.697 24.3591C126.697 25.4033 125.41 26.0186 123.316 26.0186ZM139.68 17.7645H144.298V16.2231H135.193V13.9296H144.211V12.3943H133.254V17.7645H137.766V19.2873H131.47V20.8412H145.97V19.2873H139.68V17.7645ZM138.686 21.7548C135.236 21.7548 133.154 22.8052 133.154 24.6637C133.154 26.5097 135.236 27.5601 138.686 27.5663C142.123 27.5601 144.187 26.5097 144.193 24.6637C144.187 22.8052 142.123 21.7548 138.686 21.7548ZM138.686 26.0497C136.38 26.0622 135.131 25.5836 135.143 24.6637C135.131 23.75 136.38 23.259 138.686 23.259C140.967 23.259 142.229 23.75 142.241 24.6637C142.229 25.5836 140.967 26.0622 138.686 26.0497ZM159.308 19.4178C159.731 17.174 159.731 15.5456 159.731 14.0601V12.643H148.742V14.2155H157.785C157.785 15.6388 157.767 17.2548 157.332 19.4178H147.026V21.009H153.223V27.5787H155.193V21.009H161.502V19.4178H159.308Z" fill="#0E74FF"/>
<g clip-path="url(#clip0_2792_9155)">
<path d="M57.0301 30.3386L60.0301 28.072C60.1379 27.9924 60.2697 27.9492 60.4051 27.9492C60.5405 27.9492 60.6722 27.9924 60.7801 28.072L64.0101 30.397C64.1084 30.4623 64.2236 30.4996 64.3426 30.5047C64.4616 30.5098 64.5797 30.4825 64.6836 30.4259C64.7875 30.3693 64.8731 30.2856 64.9308 30.1843C64.9885 30.0829 65.0159 29.9679 65.0101 29.8522V22.4398C65.0141 22.3546 65.0007 22.2696 64.9706 22.1896C64.9405 22.1096 64.8942 22.0362 64.8347 21.9737C64.7751 21.9112 64.7034 21.8609 64.6236 21.8257C64.5438 21.7905 64.4577 21.771 64.3701 21.7686H56.6601C56.5721 21.7711 56.4855 21.7904 56.4052 21.8255C56.3249 21.8606 56.2524 21.9108 56.1921 21.9731C56.1317 22.0355 56.0846 22.1088 56.0533 22.1888C56.0221 22.2689 56.0074 22.3542 56.0101 22.4398V29.8036C56.0072 29.9202 56.0375 30.0354 56.0978 30.1363C56.158 30.2373 56.2458 30.32 56.3514 30.3754C56.457 30.4308 56.5763 30.4567 56.6961 30.4502C56.8159 30.4437 56.9315 30.4051 57.0301 30.3386V30.3386Z" fill="#0E74FF" stroke="#0E74FF" stroke-miterlimit="10"/>
<path d="M60.5 23.9961C65.4706 23.9961 69.5 20.0764 69.5 15.2412C69.5 10.406 65.4706 6.48633 60.5 6.48633C55.5294 6.48633 51.5 10.406 51.5 15.2412C51.5 20.0764 55.5294 23.9961 60.5 23.9961Z" fill="#FFDC79"/>
<path d="M60.5 23.9961C65.4706 23.9961 69.5 20.0764 69.5 15.2412C69.5 10.406 65.4706 6.48633 60.5 6.48633C55.5294 6.48633 51.5 10.406 51.5 15.2412C51.5 20.0764 55.5294 23.9961 60.5 23.9961Z" stroke="#0E74FF" stroke-miterlimit="10"/>
<path d="M61.5098 11.7783V18.9379H60.1398V12.897H58.5898V11.7783H61.5098Z" fill="#0E74FF"/>
</g>
<rect x="0.5" y="51.5" width="143" height="37" rx="4.5" fill="white" stroke="#ECECEC"/>
<path d="M54.9088 67.8135H51.5836V69.3923H54.9088V78.5912H56.8481V62.6796H54.9088V67.8135ZM49.3957 63.9537H47.413V66.4959C47.4006 69.4544 45.9586 72.5186 43.3729 73.7244L44.6036 75.3094C46.4309 74.3895 47.7238 72.5684 48.4137 70.3743C49.0974 72.4503 50.3591 74.1347 52.1554 75.0173L53.3425 73.4572C50.8066 72.3384 49.3957 69.442 49.3957 66.4959V63.9537ZM66.3135 68.2983C69.931 68.2859 72.0318 67.3287 72.0318 65.5635C72.0318 63.8046 69.931 62.8412 66.3135 62.8349C62.6961 62.8412 60.5829 63.8046 60.5891 65.5635C60.5829 67.3287 62.6961 68.2859 66.3135 68.2983ZM66.3135 64.2894C68.7624 64.2956 70.0242 64.7369 70.0242 65.5635C70.0242 66.4337 68.7624 66.8439 66.3135 66.8501C63.8895 66.8439 62.6216 66.4337 62.634 65.5635C62.6216 64.7369 63.8895 64.2956 66.3135 64.2894ZM73.5608 69.1188H59.085V70.654H65.3191V71.8598H60.788V73.3142H69.8315V74.3646H60.8066V78.4233H72.1934V76.9316H62.721V75.7507H71.7583V71.8598H67.2832V70.654H73.5608V69.1188ZM90.2936 67.8135H86.9683V69.3923H90.2936V78.5912H92.2328V62.6796H90.2936V67.8135ZM84.7805 63.9537H82.7977V66.4959C82.7853 69.4544 81.3433 72.5186 78.7577 73.7244L79.9884 75.3094C81.8157 74.3895 83.1085 72.5684 83.7984 70.3743C84.4821 72.4503 85.7439 74.1347 87.5402 75.0173L88.7273 73.4572C86.1914 72.3384 84.7805 69.442 84.7805 66.4959V63.9537ZM95.7998 72.3446C98.5595 71.953 100.667 70.7286 101.711 68.9945C102.767 70.7286 104.887 71.953 107.64 72.3446L108.361 70.8156C104.918 70.3619 102.854 68.5345 102.724 66.5518H107.684V64.9731H102.68V62.9282H100.747V64.9731H95.7563V66.5518H100.716C100.573 68.5345 98.516 70.3619 95.0664 70.8156L95.7998 72.3446ZM102.68 71.7914H100.747V75.0794H94.4697V76.683H108.995V75.0794H102.68V71.7914ZM122.308 70.4178C122.731 68.174 122.731 66.5456 122.731 65.0601V63.643H111.742V65.2155H120.785C120.785 66.6388 120.767 68.2548 120.332 70.4178H110.026V72.009H116.223V78.5787H118.193V72.009H124.502V70.4178H122.308Z" fill="#0E74FF"/>
<g clip-path="url(#clip1_2792_9155)">
<path d="M20.0298 81.3386L23.0298 79.072C23.1377 78.9924 23.2694 78.9492 23.4048 78.9492C23.5402 78.9492 23.672 78.9924 23.7798 79.072L27.0098 81.397C27.1082 81.4623 27.2233 81.4996 27.3423 81.5047C27.4613 81.5098 27.5794 81.4825 27.6833 81.4259C27.7872 81.3693 27.8728 81.2856 27.9305 81.1843C27.9882 81.0829 28.0156 80.9679 28.0098 80.8522V73.4398C28.0152 73.2685 27.9512 73.1021 27.8314 72.9764C27.7116 72.8508 27.5458 72.7761 27.3698 72.7686H19.6598C19.5718 72.7711 19.4852 72.7904 19.4049 72.8255C19.3246 72.8606 19.2522 72.9108 19.1918 72.9731C19.1314 73.0355 19.0843 73.1088 19.0531 73.1888C19.0218 73.2689 19.0071 73.3542 19.0098 73.4398V80.8036C19.003 80.9216 19.0309 81.0392 19.0903 81.1424C19.1497 81.2456 19.238 81.3302 19.3451 81.3863C19.4521 81.4425 19.5733 81.4678 19.6946 81.4593C19.8159 81.4509 19.9321 81.409 20.0298 81.3386V81.3386Z" fill="#0E74FF" stroke="#0E74FF" stroke-miterlimit="10"/>
<path d="M23.5 74.9961C28.4706 74.9961 32.5 71.0764 32.5 66.2412C32.5 61.406 28.4706 57.4863 23.5 57.4863C18.5294 57.4863 14.5 61.406 14.5 66.2412C14.5 71.0764 18.5294 74.9961 23.5 74.9961Z" fill="#F1F1F1"/>
<path d="M23.5 74.9961C28.4706 74.9961 32.5 71.0764 32.5 66.2412C32.5 61.406 28.4706 57.4863 23.5 57.4863C18.5294 57.4863 14.5 61.406 14.5 66.2412C14.5 71.0764 18.5294 74.9961 23.5 74.9961Z" stroke="#0E74FF" stroke-miterlimit="10"/>
<path d="M26.23 68.673V69.8014H20.81V68.9162L23.73 66.2119C23.996 65.9828 24.2222 65.7135 24.4 65.4143C24.5115 65.2037 24.5698 64.9702 24.5699 64.7333C24.5802 64.5882 24.5547 64.4427 24.4956 64.309C24.4365 64.1754 24.3454 64.0574 24.23 63.9648C23.9361 63.7704 23.5849 63.6748 23.23 63.6925C22.9013 63.6752 22.573 63.7342 22.2723 63.8644C21.9715 63.9946 21.7069 64.1924 21.5 64.4415L20.5 63.7314C20.7961 63.3409 21.1976 63.0379 21.66 62.8559C22.1742 62.6401 22.73 62.5339 23.29 62.5446C23.9746 62.5119 24.6508 62.7037 25.21 63.0894C25.4409 63.2695 25.6253 63.4996 25.7486 63.7614C25.8719 64.0232 25.9306 64.3094 25.92 64.5972C25.9239 64.9742 25.8383 65.347 25.67 65.6866C25.4133 66.1323 25.0743 66.528 24.67 66.8539L22.67 68.673H26.23Z" fill="#0E74FF"/>
</g>
<defs>
<clipPath id="clip0_2792_9155">
<rect width="19" height="25" fill="white" transform="translate(51 6)"/>
</clipPath>
<clipPath id="clip1_2792_9155">
<rect width="19" height="25" fill="white" transform="translate(14 57)"/>
</clipPath>
</defs>
</svg>
