<svg width="185" height="94" viewBox="0 0 185 94" fill="none" xmlns="http://www.w3.org/2000/svg">
<rect width="185" height="94" rx="6" fill="#C8D8EE"/>
<rect x="5" y="5" width="40" height="40" rx="3" fill="#DDE7F4"/>
<rect x="50" y="5" width="40" height="40" rx="3" fill="#DDE7F4"/>
<rect x="95" y="5" width="40" height="40" rx="3" fill="#DDE7F4"/>
<rect x="140" y="5" width="40" height="40" rx="3" fill="#DDE7F4"/>
<rect x="50" y="49" width="40" height="40" rx="3" fill="#DDE7F4"/>
<rect x="95" y="49" width="40" height="40" rx="3" fill="#DDE7F4"/>
<rect x="140" y="49" width="40" height="40" rx="3" fill="#AEC5DD"/>
<rect x="140" y="49" width="40" height="36" rx="3" fill="#F5F8FB"/>
<path d="M166.122 72.58V75H154.77V73.086L160.886 67.278C161.575 66.618 162.037 66.046 162.272 65.562C162.521 65.0633 162.646 64.572 162.646 64.088C162.646 63.3693 162.404 62.8193 161.92 62.438C161.436 62.0567 160.725 61.866 159.786 61.866C158.217 61.866 157.014 62.4013 156.178 63.472L154.176 61.932C154.777 61.1253 155.584 60.502 156.596 60.062C157.623 59.6073 158.767 59.38 160.028 59.38C161.7 59.38 163.035 59.776 164.032 60.568C165.029 61.36 165.528 62.438 165.528 63.802C165.528 64.638 165.352 65.4227 165 66.156C164.648 66.8893 163.973 67.7253 162.976 68.664L158.862 72.58H166.122Z" fill="#AEC5DD"/>
<rect x="5" y="49" width="40" height="40" rx="3" fill="#AEC5DD"/>
<rect x="5" y="49" width="40" height="36" rx="3" fill="#F5F8FB"/>
<path d="M31.122 72.58V75H19.77V73.086L25.886 67.278C26.5753 66.618 27.0373 66.046 27.272 65.562C27.5213 65.0633 27.646 64.572 27.646 64.088C27.646 63.3693 27.404 62.8193 26.92 62.438C26.436 62.0567 25.7247 61.866 24.786 61.866C23.2167 61.866 22.014 62.4013 21.178 63.472L19.176 61.932C19.7773 61.1253 20.584 60.502 21.596 60.062C22.6227 59.6073 23.7667 59.38 25.028 59.38C26.7 59.38 28.0347 59.776 29.032 60.568C30.0293 61.36 30.528 62.438 30.528 63.802C30.528 64.638 30.352 65.4227 30 66.156C29.648 66.8893 28.9733 67.7253 27.976 68.664L23.862 72.58H31.122Z" fill="#AEC5DD"/>
<g opacity="0.3" clip-path="url(#clip0_2807_10617)">
<path d="M129.554 65C143.055 65 154 54.4787 154 41.5C154 28.5213 143.055 18 129.554 18C116.053 18 105.108 28.5213 105.108 41.5C105.108 54.4787 116.053 65 129.554 65Z" fill="#EC9C00"/>
<path d="M106.929 34H56V50.6458H106.929V34Z" fill="#EC9C00"/>
<path d="M29.8468 43.1056C29.5799 42.9248 29.362 42.685 29.2117 42.4064C29.0613 42.1278 28.9829 41.8185 28.9829 41.5046C28.9829 41.1908 29.0613 40.8815 29.2117 40.6029C29.362 40.3243 29.5799 40.0845 29.8468 39.9037L41.7845 31.7081L52.8156 24.1391C53.1203 23.9278 53.4801 23.8016 53.8548 23.7745C54.2295 23.7475 54.6048 23.8206 54.939 23.9858C55.2732 24.151 55.5533 24.4018 55.7485 24.7106C55.9436 25.0193 56.0461 25.3739 56.0446 25.7352V57.2741C56.0461 57.6353 55.9436 57.9899 55.7485 58.2987C55.5533 58.6074 55.2732 58.8583 54.939 59.0235C54.6048 59.1887 54.2295 59.2618 53.8548 59.2347C53.4801 59.2076 53.1203 59.0815 52.8156 58.8701L41.7845 51.2914L29.8468 43.1056Z" fill="#EC9C00"/>
</g>
<defs>
<clipPath id="clip0_2807_10617">
<rect width="125" height="47" fill="white" transform="translate(29 18)"/>
</clipPath>
</defs>
</svg>
