<svg width="15" height="20" viewBox="0 0 15 20" fill="none" xmlns="http://www.w3.org/2000/svg">
<g clip-path="url(#clip0_1110:4380)">
<path d="M12.7243 -0.000105472H10.3982C10.335 -0.000733677 10.2728 0.0164819 10.2188 0.0495934C10.1648 0.0827049 10.121 0.130391 10.0925 0.187256L7.42752 5.44607C7.39741 5.50483 7.38371 5.57073 7.38788 5.63673C7.39204 5.70272 7.41391 5.76634 7.45115 5.82079L8.75763 7.75315L8.78127 7.79443L9.85765 9.91574C9.89913 9.99673 9.90919 10.0904 9.88589 10.1784C9.86258 10.2665 9.80757 10.3427 9.73157 10.3921L7.9791 11.5448C7.92838 11.5783 7.88673 11.6241 7.85791 11.6778C7.82909 11.7316 7.81399 11.7918 7.81399 11.8529C7.81399 11.914 7.82909 11.9741 7.85791 12.0279C7.88673 12.0817 7.92838 12.1274 7.9791 12.1609L8.45189 12.4673C8.49483 12.4955 8.54316 12.5142 8.59374 12.5223C8.64432 12.5304 8.69602 12.5276 8.74549 12.5143C8.79497 12.501 8.84112 12.4774 8.88094 12.4449C8.92077 12.4125 8.95339 12.372 8.97669 12.326L14.9653 0.542924C14.994 0.486923 15.0079 0.424413 15.0057 0.361425C15.0034 0.298437 14.9851 0.237096 14.9525 0.183319C14.9199 0.129541 14.874 0.0851416 14.8194 0.0544039C14.7648 0.0236662 14.7032 0.00762752 14.6407 0.00783404L12.7243 -0.000105472Z" fill="#0E74FF"/>
<path d="M9.75498 10.37C9.82381 10.3243 9.87358 10.2548 9.8948 10.1745C9.91601 10.0943 9.9072 10.009 9.87002 9.9349L8.76685 7.76755L7.50608 5.28104L4.9215 0.185774C4.89286 0.129806 4.84947 0.0828638 4.79609 0.0500947C4.74272 0.0173256 4.68142 -5.92281e-06 4.61892 9.10387e-07H0.330728C0.273384 -0.000133444 0.216971 0.0146053 0.166918 0.0427978C0.116865 0.0709904 0.074857 0.111688 0.0449357 0.160975C0.0150145 0.210261 -0.00181074 0.266477 -0.00392351 0.324213C-0.00603628 0.381948 0.00663587 0.43926 0.0328736 0.490633L6.06723 12.3579C6.08873 12.3998 6.11871 12.4367 6.15523 12.4663C6.19175 12.4959 6.23401 12.5174 6.27928 12.5295C6.32455 12.5416 6.37184 12.544 6.41811 12.5366C6.46437 12.5292 6.50858 12.5122 6.5479 12.4865L8.12386 11.4513L9.75498 10.37Z" fill="#0E74FF"/>
<path d="M13.7597 13.7868C13.7593 15.4349 13.1093 17.0154 11.9526 18.1808C10.7959 19.3462 9.22723 20.0011 7.59142 20.0015C5.95588 20.0006 4.38759 19.3456 3.23124 18.1802C2.07489 17.0149 1.4251 15.4346 1.42468 13.7868C1.42426 12.1384 2.07369 10.5574 3.23013 9.39135C4.38657 8.22533 5.95534 7.56981 7.59142 7.56897C8.40166 7.56918 9.20393 7.73017 9.95241 8.04276C10.7009 8.35535 11.3809 8.81341 11.9537 9.39079C12.5265 9.96817 12.9808 10.6536 13.2907 11.4078C13.6006 12.1621 13.7599 12.9705 13.7597 13.7868Z" fill="#FFDD7E"/>
<path d="M8.34476 11.1957V15.8511H7.38343V12.1166H7.35664L6.29443 12.7882V11.9277L7.44016 11.1957H8.34476Z" fill="#0E74FF"/>
</g>
<defs>
<clipPath id="clip0_1110:4380">
<rect width="15" height="20" fill="white"/>
</clipPath>
</defs>
</svg>
