<svg width="15" height="20" viewBox="0 0 15 20" fill="none" xmlns="http://www.w3.org/2000/svg">
<g clip-path="url(#clip0_1398_3728)">
<path d="M12.7242 -5.52685e-06H10.4028C10.338 -0.00244466 10.2738 0.0138581 10.218 0.0469657C10.1621 0.0800733 10.1169 0.128594 10.0876 0.186762L7.42583 5.42893C7.39655 5.48773 7.38331 5.55328 7.38746 5.6189C7.39162 5.68452 7.41302 5.74786 7.44948 5.80246L8.75752 7.72871L8.78116 7.76986L9.85597 9.88445C9.89759 9.965 9.9079 10.0582 9.88489 10.146C9.86188 10.2337 9.80719 10.3098 9.73147 10.3593L7.979 11.5084C7.92828 11.5418 7.88663 11.5874 7.85781 11.641C7.82898 11.6946 7.81389 11.7545 7.81389 11.8154C7.81389 11.8764 7.82898 11.9363 7.85781 11.9899C7.88663 12.0435 7.92828 12.0891 7.979 12.1225L8.44391 12.428C8.48685 12.456 8.53518 12.4746 8.58575 12.4827C8.63633 12.4908 8.68804 12.4881 8.73751 12.4748C8.78699 12.4615 8.83313 12.438 8.87296 12.4056C8.91279 12.3733 8.9454 12.3329 8.9687 12.2871L14.9574 0.541305C14.9861 0.485481 15 0.42317 14.9977 0.360381C14.9955 0.297592 14.9771 0.236445 14.9445 0.182838C14.9119 0.129231 14.8661 0.0849717 14.8114 0.0543313C14.7568 0.0236909 14.6953 0.00770299 14.6327 0.00790885L12.7242 -5.52685e-06Z" fill="#0E74FF"/>
<path d="M9.7534 10.3371C9.82279 10.2921 9.87301 10.2228 9.89427 10.1426C9.91554 10.0624 9.90633 9.97718 9.86845 9.90345L8.76527 7.74296L7.5045 5.26432L4.9215 0.185186C4.89286 0.129395 4.84947 0.0826015 4.79609 0.0499361C4.74272 0.0172708 4.68142 -5.90406e-06 4.61892 9.07505e-07H0.330728C0.273384 -0.000133021 0.216971 0.014559 0.166918 0.0426624C0.116865 0.0707657 0.074857 0.111335 0.0449357 0.160465C0.0150145 0.209596 -0.00181074 0.265633 -0.00392351 0.323186C-0.00603628 0.380739 0.00663587 0.43787 0.0328736 0.48908L6.06723 12.3188C6.08873 12.3606 6.11871 12.3974 6.15523 12.4268C6.19175 12.4563 6.23401 12.4778 6.27928 12.4898C6.32455 12.5019 6.37184 12.5043 6.41811 12.497C6.46437 12.4896 6.50858 12.4725 6.5479 12.447L8.12386 11.415L9.7534 10.3371Z" fill="#0E74FF"/>
<path d="M13.7802 13.8035C13.7802 15.4465 13.1304 17.0223 11.9736 18.184C10.8168 19.3458 9.24786 19.9985 7.61192 19.9985C5.97598 19.9985 4.40704 19.3458 3.25026 18.184C2.09348 17.0223 1.4436 15.4465 1.4436 13.8035C1.4436 12.1605 2.09348 10.5848 3.25026 9.42299C4.40704 8.26121 5.97598 7.60852 7.61192 7.60852C9.24786 7.60852 10.8168 8.26121 11.9736 9.42299C13.1304 10.5848 13.7802 12.1605 13.7802 13.8035Z" fill="#F1F1F1"/>
<path d="M5.9775 15.7423V15.0459L7.63856 13.5106C8.0688 13.0959 8.30046 12.8395 8.30362 12.4676C8.30362 12.0576 7.98842 11.8028 7.56922 11.8028C7.47279 11.7949 7.37581 11.8082 7.28498 11.8417C7.19416 11.8751 7.11164 11.928 7.04316 11.9966C6.97467 12.0653 6.92185 12.148 6.88832 12.2392C6.8548 12.3303 6.84139 12.4277 6.84901 12.5245H5.93652C5.93652 11.6144 6.60473 11.0336 7.57552 11.0336C8.54631 11.0336 9.22713 11.6018 9.2287 12.4058C9.2287 12.9345 8.97182 13.3698 8.01837 14.2371L7.31391 14.9193V14.951H9.29175V15.7423H5.9775Z" fill="#0E74FF"/>
</g>
<defs>
<clipPath id="clip0_1398_3728">
<rect width="15" height="20" fill="white"/>
</clipPath>
</defs>
</svg>
