<svg width="20" height="25" viewBox="0 0 20 25" fill="none" xmlns="http://www.w3.org/2000/svg">
<g clip-path="url(#clip0_1110:4381)">
<path d="M13.5726 -5.46313e-05H11.0965C11.0273 -0.00261572 10.9589 0.0145022 10.8993 0.0492652C10.8397 0.0840281 10.7914 0.134975 10.7603 0.196052L7.921 5.70033C7.88976 5.76207 7.87564 5.8309 7.88007 5.8998C7.8845 5.96869 7.90732 6.0352 7.94622 6.09254L9.34146 8.11509L9.36668 8.1583L10.5131 10.3786C10.5575 10.4632 10.5685 10.5611 10.544 10.6532C10.5194 10.7454 10.4611 10.8252 10.3803 10.8772L8.51104 12.0838C8.45693 12.1188 8.41251 12.1667 8.38176 12.223C8.35102 12.2792 8.33492 12.3422 8.33492 12.4062C8.33492 12.4701 8.35102 12.5331 8.38176 12.5894C8.41251 12.6457 8.45693 12.6935 8.51104 12.7286L9.00694 13.0493C9.05275 13.0788 9.10429 13.0983 9.15824 13.1068C9.21219 13.1153 9.26734 13.1124 9.32012 13.0985C9.37289 13.0846 9.42212 13.0598 9.4646 13.0259C9.50708 12.9919 9.54187 12.9495 9.56672 12.9014L15.9546 0.568322C15.9852 0.509707 16.0001 0.444279 15.9977 0.378351C15.9953 0.312423 15.9757 0.248219 15.9409 0.191931C15.9061 0.135643 15.8572 0.0891714 15.799 0.056999C15.7407 0.0248266 15.6751 0.00803931 15.6083 0.00825547L13.5726 -5.46313e-05Z" fill="#4694FF"/>
<path d="M10.4037 10.854C10.4777 10.8067 10.5313 10.7339 10.554 10.6497C10.5767 10.5655 10.5668 10.476 10.5264 10.3986L9.34972 8.13011L8.0049 5.52754L5.2497 0.194446C5.21914 0.135864 5.17286 0.0867316 5.11593 0.0524329C5.05899 0.0181343 4.99361 -6.19926e-06 4.92694 9.5288e-07H0.35287C0.291703 -0.000139673 0.23153 0.015287 0.178139 0.0447955C0.124749 0.074304 0.079941 0.116901 0.048025 0.168488C0.016109 0.220075 -0.00183786 0.278915 -0.00409149 0.339346C-0.00634511 0.399776 0.00717184 0.459763 0.0351588 0.513534L6.4718 12.9347C6.49474 12.9786 6.52672 13.0172 6.56567 13.0482C6.60463 13.0791 6.6497 13.1016 6.69799 13.1143C6.74628 13.127 6.79673 13.1295 6.84607 13.1218C6.89542 13.1141 6.94258 13.0962 6.98452 13.0693L8.66554 11.9858L10.4037 10.854Z" fill="#4694FF"/>
<path d="M14.6989 14.4936C14.6989 16.2188 14.0057 17.8733 12.7718 19.0932C11.5379 20.3131 9.86433 20.9984 8.11933 20.9984C6.37433 20.9984 4.7008 20.3131 3.46689 19.0932C2.23299 17.8733 1.53979 16.2188 1.53979 14.4936C1.53979 12.7685 2.23299 11.114 3.46689 9.89409C4.7008 8.67421 6.37433 7.98889 8.11933 7.98889C9.86433 7.98889 11.5379 8.67421 12.7718 9.89409C14.0057 11.114 14.6989 12.7685 14.6989 14.4936Z" fill="#F1F1F1"/>
<path d="M6.37611 16.5295V15.7982L8.1479 14.1862C8.60682 13.7507 8.85393 13.4815 8.8573 13.091C8.8573 12.6605 8.52109 12.393 8.07394 12.393C7.97108 12.3847 7.86764 12.3986 7.77075 12.4338C7.67387 12.4689 7.58586 12.5244 7.51281 12.5965C7.43976 12.6686 7.38341 12.7554 7.34765 12.8511C7.31189 12.9468 7.29759 13.0491 7.30571 13.1508H6.3324C6.3324 12.1952 7.04515 11.5853 8.08066 11.5853C9.11617 11.5853 9.84238 12.1819 9.84406 13.0261C9.84406 13.5812 9.57005 14.0383 8.55303 14.949L7.80161 15.6653V15.6985H9.9113V16.5295H6.37611Z" fill="#4694FF"/>
</g>
<defs>
<clipPath id="clip0_1110:4381">
<rect width="20" height="25" fill="white"/>
</clipPath>
</defs>
</svg>
