<svg width="15" height="20" viewBox="0 0 15 20" fill="none" xmlns="http://www.w3.org/2000/svg">
<g clip-path="url(#clip0_1398_3828)">
<path d="M12.7242 5.75529e-08H10.3918C10.3291 -3.65626e-05 10.2676 0.0174032 10.2142 0.0503772C10.1608 0.0833513 10.1175 0.130566 10.0892 0.186768L7.42583 5.42893C7.39655 5.48774 7.38331 5.55329 7.38746 5.61891C7.39162 5.68452 7.41301 5.74786 7.44948 5.80247L8.75752 7.72871L8.78116 7.76987L9.85597 9.88446C9.89759 9.96501 9.9079 10.0582 9.88489 10.146C9.86188 10.2337 9.8072 10.3098 9.73147 10.3593L7.979 11.5084C7.92828 11.5418 7.88663 11.5874 7.8578 11.641C7.82898 11.6946 7.81389 11.7545 7.81389 11.8154C7.81389 11.8764 7.82898 11.9363 7.8578 11.9899C7.88663 12.0435 7.92828 12.0891 7.979 12.1225L8.44391 12.428C8.48685 12.456 8.53518 12.4747 8.58576 12.4827C8.63634 12.4908 8.68804 12.4881 8.73751 12.4748C8.78699 12.4615 8.83313 12.438 8.87296 12.4056C8.91278 12.3733 8.9454 12.3329 8.9687 12.2871L14.9574 0.541311C14.9861 0.485487 15 0.423175 14.9977 0.360386C14.9955 0.297597 14.9771 0.236451 14.9445 0.182843C14.9119 0.129236 14.8661 0.0849772 14.8114 0.0543369C14.7568 0.0236965 14.6953 0.00770857 14.6327 0.00791444L12.7242 5.75529e-08Z" fill="#0E74FF"/>
<path d="M9.76122 10.3371C9.8306 10.2921 9.88082 10.2228 9.90209 10.1426C9.92335 10.0624 9.91415 9.97718 9.87626 9.90345L8.77309 7.74296L7.51232 5.26432L4.92932 0.185186C4.90067 0.129395 4.85728 0.0826015 4.80391 0.0499361C4.75054 0.0172708 4.68924 -5.90406e-06 4.62673 9.07505e-07H0.338545C0.281201 -0.000133021 0.224786 0.014559 0.174733 0.0426624C0.124679 0.0707657 0.0826718 0.111335 0.0527506 0.160465C0.0228293 0.209596 0.00600173 0.265633 0.00388896 0.323186C0.00177619 0.380739 0.0144507 0.43787 0.0406885 0.48908L6.06716 12.3188C6.08867 12.3606 6.11865 12.3974 6.15517 12.4268C6.19169 12.4563 6.23394 12.4778 6.27921 12.4898C6.32449 12.5019 6.37178 12.5043 6.41804 12.497C6.4643 12.4896 6.50851 12.4725 6.54783 12.447L8.12379 11.415L9.76122 10.3371Z" fill="#0E74FF"/>
<path d="M13.8164 13.8034C13.8164 14.6169 13.6568 15.4225 13.3468 16.1741C13.0368 16.9257 12.5825 17.6087 12.0097 18.1839C11.4369 18.7592 10.7569 19.2155 10.0086 19.5268C9.26018 19.8382 8.45808 19.9984 7.64805 19.9984C6.01211 19.9984 4.44318 19.3457 3.28639 18.1839C2.12961 17.0221 1.47974 15.4464 1.47974 13.8034C1.47974 12.1604 2.12961 10.5847 3.28639 9.42287C4.44318 8.26108 6.01211 7.6084 7.64805 7.6084C9.28399 7.6084 10.8529 8.26108 12.0097 9.42287C13.1665 10.5847 13.8164 12.1604 13.8164 13.8034Z" fill="#F0E2DA"/>
<path d="M5.87524 14.4365H6.84446C6.86022 14.7784 7.19433 15.0079 7.63244 15.0079C8.07056 15.0079 8.42042 14.7515 8.42042 14.3748C8.42042 13.9981 8.08789 13.729 7.54419 13.729H7.11553V13.0168H7.55522C8.01382 13.0168 8.33217 12.7667 8.33059 12.3995C8.32902 12.0323 8.05953 11.8028 7.64978 11.8028C7.24003 11.8028 6.9075 12.0323 6.89332 12.3884H5.97296C5.98871 11.597 6.70578 11.0336 7.65451 11.0336C8.60323 11.0336 9.26041 11.6081 9.25568 12.3409C9.25568 12.8617 8.89951 13.232 8.37787 13.3254V13.3618C9.05869 13.4441 9.43376 13.8604 9.42904 14.4397C9.42904 15.2311 8.68203 15.8056 7.6419 15.8056C6.60176 15.8056 5.891 15.2453 5.87524 14.4365Z" fill="#0E74FF"/>
</g>
<defs>
<clipPath id="clip0_1398_3828">
<rect width="15" height="20" fill="white"/>
</clipPath>
</defs>
</svg>
