<svg width="122" height="43" viewBox="0 0 122 43" fill="none" xmlns="http://www.w3.org/2000/svg">
<rect width="38" height="37" rx="3" fill="#83B8FF"/>
<rect x="42" width="38" height="37" rx="3" fill="#4192FF"/>
<rect x="84" width="38" height="37" rx="3" fill="#006CFF"/>
<rect width="38" height="34" rx="3" fill="#E3EFFF"/>
<rect x="42" width="38" height="34" rx="3" fill="#82B6FF"/>
<rect x="84" width="38" height="34" rx="3" fill="#4694FF"/>
<path d="M30.34 9L25.7 23H22.94L19.48 12.64L15.96 23H13.18L8.54 9H11.24L14.72 19.64L18.34 9H20.74L24.28 19.7L27.86 9H30.34Z" fill="#82B6FF"/>
<path d="M61.42 23.2C59.9933 23.2 58.7067 22.8933 57.56 22.28C56.4133 21.6533 55.5133 20.7933 54.86 19.7C54.2067 18.5933 53.88 17.36 53.88 16C53.88 14.64 54.2067 13.4133 54.86 12.32C55.5133 11.2133 56.4133 10.3533 57.56 9.74C58.7067 9.11333 59.9933 8.8 61.42 8.8C62.8467 8.8 64.1333 9.11333 65.28 9.74C66.4267 10.3533 67.3267 11.2067 67.98 12.3C68.6333 13.3933 68.96 14.6267 68.96 16C68.96 17.3733 68.6333 18.6067 67.98 19.7C67.3267 20.7933 66.4267 21.6533 65.28 22.28C64.1333 22.8933 62.8467 23.2 61.42 23.2ZM61.42 20.92C62.3533 20.92 63.1933 20.7133 63.94 20.3C64.6867 19.8733 65.2733 19.2867 65.7 18.54C66.1267 17.78 66.34 16.9333 66.34 16C66.34 15.0667 66.1267 14.2267 65.7 13.48C65.2733 12.72 64.6867 12.1333 63.94 11.72C63.1933 11.2933 62.3533 11.08 61.42 11.08C60.4867 11.08 59.6467 11.2933 58.9 11.72C58.1533 12.1333 57.5667 12.72 57.14 13.48C56.7133 14.2267 56.5 15.0667 56.5 16C56.5 16.9333 56.7133 17.78 57.14 18.54C57.5667 19.2867 58.1533 19.8733 58.9 20.3C59.6467 20.7133 60.4867 20.92 61.42 20.92Z" fill="white"/>
<path d="M114.34 10L109.7 24H106.94L103.48 13.64L99.96 24H97.18L92.54 10H95.24L98.72 20.64L102.34 10H104.74L108.28 20.7L111.86 10H114.34Z" fill="white"/>
</svg>
