<svg width="224" height="121" viewBox="0 0 224 121" fill="none" xmlns="http://www.w3.org/2000/svg">
<rect width="224" height="121" rx="10" fill="#E3EFFF"/>
<path d="M67.2956 101.989C69.1775 101.989 70.4758 101.229 70.4758 100.038C70.4758 98.8257 69.1775 98.0557 67.2956 98.0557C65.4171 98.0557 64.1257 98.8257 64.1291 100.038C64.1257 101.229 65.4171 101.989 67.2956 101.989ZM67.2956 98.9293C68.549 98.9293 69.3536 99.3402 69.357 100.038C69.3536 100.721 68.549 101.125 67.2956 101.125C66.049 101.125 65.241 100.721 65.2479 100.038C65.241 99.3402 66.049 98.9293 67.2956 98.9293ZM63.2831 102.714V103.608H66.7569V106.567H67.8308V103.608H71.3529V102.714H63.2831ZM78.2103 106.581H79.2911V97.7415H78.2103V106.581ZM73.5417 101.82H76.5735V98.508H72.4161V99.3886H75.4685V100.956H72.423V104.489H73.1964C74.7814 104.489 76.1005 104.433 77.6025 104.174L77.5058 103.287C76.1281 103.518 74.9299 103.587 73.5417 103.594V101.82ZM87.5132 101.122H90.0788V100.266H85.0201V98.9915H90.0304V98.1386H83.9427V101.122H86.4496V101.968H82.9517V102.831H91.0077V101.968H87.5132V101.122ZM86.9607 103.339C85.0443 103.339 83.8875 103.922 83.8875 104.955C83.8875 105.98 85.0443 106.564 86.9607 106.567C88.8702 106.564 90.0166 105.98 90.0201 104.955C90.0166 103.922 88.8702 103.339 86.9607 103.339ZM86.9607 105.725C85.6796 105.732 84.9856 105.466 84.9925 104.955C84.9856 104.447 85.6796 104.174 86.9607 104.174C88.228 104.174 88.9289 104.447 88.9358 104.955C88.9289 105.466 88.228 105.732 86.9607 105.725ZM98.1792 106.561H99.2048V97.7415H98.1792V106.561ZM94.443 100.594V101.471H96.287V106.15H97.316V97.9245H96.287V100.594H94.443ZM93.0549 98.6185H91.9638V104.409H92.5646C93.6799 104.409 94.6433 104.368 95.7587 104.126L95.6102 103.208C94.7089 103.401 93.9147 103.46 93.0549 103.47V98.6185ZM103.325 101.706C104.896 101.578 106.07 101.087 106.622 100.321C107.171 101.087 108.345 101.578 109.927 101.706L110.255 100.877C108.421 100.749 107.379 100.141 107.24 99.4162H109.861V98.5564H107.161V97.7518H106.084V98.5564H103.401V99.4162H106.001C105.859 100.141 104.82 100.749 102.99 100.877L103.325 101.706ZM107.161 101.277H106.084V102.21H102.61V103.087H110.652V102.21H107.161V101.277ZM106.619 103.581C104.689 103.581 103.546 104.109 103.546 105.069C103.546 106.032 104.689 106.557 106.619 106.554C108.549 106.557 109.675 106.032 109.678 105.069C109.675 104.109 108.549 103.581 106.619 103.581ZM106.619 105.742C105.324 105.746 104.644 105.521 104.651 105.069C104.644 104.616 105.324 104.389 106.619 104.389C107.897 104.389 108.587 104.616 108.594 105.069C108.587 105.521 107.897 105.746 106.619 105.742ZM117.561 99.834H116.035V100.725H117.561V102.866H118.645V97.7415H117.561V99.834ZM113.956 100.825C114.343 101.661 115.04 102.334 116.028 102.669L116.57 101.813C115.206 101.346 114.495 100.252 114.495 99.1917V99.1123H116.322V98.2318H111.549V99.1123H113.39V99.1848C113.39 100.352 112.637 101.519 111.232 101.985L111.791 102.842C112.834 102.489 113.569 101.75 113.956 100.825ZM118.645 106.457V103.249H112.772V106.457H118.645ZM117.582 104.109V105.58H113.856V104.109H117.582ZM156.243 99.834H154.717V100.725H156.243V102.866H157.327V97.7415H156.243V99.834ZM152.638 100.825C153.025 101.661 153.722 102.334 154.71 102.669L155.252 101.813C153.888 101.346 153.177 100.252 153.177 99.1917V99.1123H155.003V98.2318H150.231V99.1123H152.072V99.1848C152.072 100.352 151.319 101.519 149.913 101.985L150.473 102.842C151.516 102.489 152.251 101.75 152.638 100.825ZM157.327 106.457V103.249H151.453V106.457H157.327ZM156.264 104.109V105.58H152.538V104.109H156.264ZM159.067 98.6254L159.181 103.622H160.286L160.396 98.6254H159.067ZM159.733 105.773C160.141 105.773 160.49 105.435 160.49 105.017C160.49 104.603 160.141 104.268 159.733 104.268C159.319 104.268 158.97 104.603 158.977 105.017C158.97 105.435 159.319 105.773 159.733 105.773Z" fill="#0E74FF"/>
<path d="M125.21 105.794C126.771 105.801 127.817 104.761 127.814 103.356C127.817 102.016 126.836 101.053 125.569 101.053C124.792 101.053 124.112 101.415 123.756 102.03H123.684C123.687 100.538 124.257 99.6303 125.286 99.6303C125.928 99.6303 126.357 99.9894 126.488 100.528H127.745C127.586 99.3851 126.647 98.5288 125.286 98.5288C123.553 98.5288 122.451 99.9376 122.451 102.362C122.448 104.965 123.825 105.787 125.21 105.794ZM125.207 104.765C124.406 104.765 123.829 104.133 123.825 103.394C123.832 102.655 124.43 102.027 125.224 102.027C126.011 102.027 126.581 102.631 126.581 103.387C126.581 104.157 125.994 104.765 125.207 104.765ZM128.773 104.993L128.269 107.731H129.202L130.013 104.993H128.773ZM133.789 105.794C135.319 105.794 136.382 104.786 136.382 103.373C136.382 102.013 135.409 101.032 134.097 101.032C133.513 101.032 132.998 101.257 132.722 101.567H132.66L132.874 99.689H136.003V98.6254H131.824L131.403 102.628H132.577C132.802 102.213 133.202 102.02 133.751 102.023C134.566 102.03 135.15 102.603 135.15 103.408C135.15 104.195 134.583 104.765 133.789 104.765C133.123 104.765 132.581 104.354 132.536 103.777H131.3C131.338 104.951 132.38 105.794 133.789 105.794ZM140.061 105.832C141.764 105.832 142.775 104.492 142.779 102.168C142.779 99.8616 141.753 98.5288 140.061 98.5288C138.366 98.5288 137.344 99.8582 137.344 102.168C137.34 104.485 138.355 105.828 140.061 105.832ZM140.061 104.755C139.174 104.755 138.625 103.867 138.625 102.168C138.628 100.48 139.177 99.5888 140.061 99.5888C140.942 99.5888 141.491 100.48 141.494 102.168C141.494 103.867 140.945 104.755 140.061 104.755ZM146.448 105.832C148.15 105.832 149.162 104.492 149.166 102.168C149.166 99.8616 148.14 98.5288 146.448 98.5288C144.753 98.5288 143.73 99.8582 143.73 102.168C143.727 104.485 144.742 105.828 146.448 105.832ZM146.448 104.755C145.561 104.755 145.012 103.867 145.012 102.168C145.015 100.48 145.564 99.5888 146.448 99.5888C147.328 99.5888 147.878 100.48 147.881 102.168C147.881 103.867 147.332 104.755 146.448 104.755Z" fill="#EC9C00"/>
<path d="M20.1423 21.4434V20.7459H18.8715V13.3011H20.1423V12.6036H18.0704V21.4434H20.1423ZM27.4593 20.7942H28.1983V12.1133H27.4593V20.7942ZM24.355 14.2196C24.0477 13.3494 23.4745 12.8453 22.7286 12.8453C21.603 12.8453 20.8709 14.0124 20.8709 15.8564C20.8709 17.7072 21.603 18.8812 22.7286 18.8743C23.4745 18.8778 24.0477 18.3736 24.355 17.5H25.7397V20.3522H26.4717V12.2997H25.7397V14.2196H24.355ZM22.7286 18.1492C22.0173 18.1561 21.5753 17.2652 21.5822 15.8564C21.5753 14.4475 22.0173 13.5635 22.7286 13.5635C23.44 13.5635 23.8958 14.4475 23.8958 15.8564C23.8958 17.2652 23.44 18.1561 22.7286 18.1492ZM24.5208 16.8577C24.576 16.5539 24.6071 16.2155 24.6071 15.8564C24.6071 15.4938 24.576 15.1588 24.5208 14.855H25.7397V16.8577H24.5208ZM35.7911 20.808H36.5577V12.1133H35.7911V20.808ZM32.49 12.866H31.7234V14.4475C31.7165 16.0912 30.6461 17.7486 29.3546 18.3425L29.8381 18.9848C30.8567 18.4738 31.7131 17.3722 32.1136 16.0635C32.528 17.2997 33.3809 18.3287 34.3685 18.8122L34.8381 18.2044C33.5604 17.6243 32.4831 16.029 32.49 14.4475V12.866ZM37.942 12.6036V13.3011H39.2127V20.7459H37.942V21.4434H40.0138V12.6036H37.942Z" fill="#4694FF"/>
<g filter="url(#filter0_d_2832_9390)">
<circle cx="44.2576" cy="49.2576" r="16.2576" fill="white"/>
</g>
<path d="M33.5386 49.2173V48.1213H32.8051V49.2173H31.7092V49.9486H32.8051V51.0467H33.5386V49.9486H34.6366V49.2173H33.5386ZM39.6455 51.6973V50.9742H37.8306V50.9452L38.477 50.3216C39.3513 49.5301 39.5854 49.1323 39.5875 48.6496C39.5854 47.9141 38.9825 47.3962 38.0709 47.3962C37.18 47.3962 36.5647 47.9265 36.5668 48.7573H37.4038C37.4017 48.3492 37.6648 48.0985 38.0647 48.0985C38.4501 48.0985 38.736 48.3306 38.738 48.7056C38.736 49.0453 38.5226 49.2794 38.1289 49.6586L36.6041 51.0612L36.6061 51.6973H39.6455ZM40.2622 51.2622L39.9721 52.93H40.5916L41.0971 51.2622H40.2622ZM43.2302 51.7884C44.2909 51.7884 44.9332 50.9783 44.9332 49.5799C44.9353 48.1938 44.2889 47.3962 43.2302 47.3962C42.1715 47.3962 41.5292 48.1897 41.5271 49.5799C41.523 50.9742 42.1673 51.7864 43.2302 51.7884ZM43.2302 51.055C42.7391 51.055 42.4221 50.5619 42.4242 49.5799C42.4263 48.6102 42.7412 48.1213 43.2302 48.1213C43.7191 48.1213 44.034 48.6102 44.0361 49.5799C44.0361 50.5619 43.7212 51.055 43.2302 51.055ZM47.0711 51.7884C48.1319 51.7884 48.7741 50.9783 48.7741 49.5799C48.7762 48.1938 48.1298 47.3962 47.0711 47.3962C46.0124 47.3962 45.3701 48.1897 45.3681 49.5799C45.3639 50.9742 46.0082 51.7864 47.0711 51.7884ZM47.0711 51.055C46.5801 51.055 46.2631 50.5619 46.2652 49.5799C46.2672 48.6102 46.5821 48.1213 47.0711 48.1213C47.56 48.1213 47.875 48.6102 47.877 49.5799C47.877 50.5619 47.5621 51.055 47.0711 51.055ZM50.912 51.7884C51.9728 51.7884 52.6151 50.9783 52.6151 49.5799C52.6171 48.1938 51.9707 47.3962 50.912 47.3962C49.8533 47.3962 49.2111 48.1897 49.209 49.5799C49.2048 50.9742 49.8492 51.7864 50.912 51.7884ZM50.912 51.055C50.421 51.055 50.104 50.5619 50.1061 49.5799C50.1082 48.6102 50.4231 48.1213 50.912 48.1213C51.401 48.1213 51.7159 48.6102 51.718 49.5799C51.718 50.5619 51.4031 51.055 50.912 51.055ZM55.4132 49.352H54.8027V49.7083H55.4132V50.5647H55.8469V48.5149H55.4132V49.352ZM53.9712 49.7484C54.1259 50.0826 54.4049 50.352 54.7999 50.4859L55.0168 50.1434C54.4712 49.9569 54.1867 49.5191 54.1867 49.0951V49.0633H54.9173V48.7111H53.0085V49.0633H53.7447V49.0923C53.7447 49.5591 53.4436 50.026 52.8814 50.2125L53.1052 50.555C53.5223 50.4141 53.8165 50.1185 53.9712 49.7484ZM55.8469 52.0011V50.718H53.4974V52.0011H55.8469ZM55.4215 51.0619V51.6503H53.9311V51.0619H55.4215Z" fill="#0E74FF"/>
<g clip-path="url(#clip0_2832_9390)">
<path d="M63.2933 70.2011C64.5511 68.6942 65.1604 66.7482 64.9871 64.7911C64.7751 63.1208 64.0255 61.5654 62.8521 60.3606C61.6787 59.1558 60.1454 58.3674 58.4847 58.1149C56.9806 57.9414 55.4597 58.236 54.1284 58.9587C52.797 59.6814 51.7196 60.7972 51.0426 62.1546C50.3655 63.512 50.1214 65.0454 50.3434 66.5467C50.5655 68.0479 51.2429 69.4443 52.2837 70.5464C49.786 71.6521 47.6465 73.4359 46.1069 75.6962C44.5672 77.9566 43.6888 80.6034 43.5708 83.3378H72.8531C72.7232 80.449 71.7472 77.6624 70.0471 75.3262C68.3469 72.9899 65.9979 71.2074 63.2933 70.2011Z" fill="#E3EFFF" stroke="#4694FF" stroke-width="0.75" stroke-linecap="round" stroke-linejoin="round"/>
<path d="M54.7955 66.201C55.3187 66.201 55.7429 65.7759 55.7429 65.2514C55.7429 64.7269 55.3187 64.3018 54.7955 64.3018C54.2723 64.3018 53.8481 64.7269 53.8481 65.2514C53.8481 65.7759 54.2723 66.201 54.7955 66.201Z" fill="#4694FF"/>
<path d="M60.5514 66.201C61.0746 66.201 61.4987 65.7759 61.4987 65.2514C61.4987 64.7269 61.0746 64.3018 60.5514 64.3018C60.0282 64.3018 59.604 64.7269 59.604 65.2514C59.604 65.7759 60.0282 66.201 60.5514 66.201Z" fill="#4694FF"/>
<path d="M58.8148 67.4673C58.4583 67.6933 58.0452 67.813 57.6235 67.8126C57.1884 67.8143 56.763 67.6839 56.4033 67.4385" stroke="#4694FF" stroke-width="0.75" stroke-linecap="round" stroke-linejoin="round"/>
</g>
<g filter="url(#filter1_d_2832_9390)">
<circle cx="109.258" cy="49.2576" r="16.2576" fill="white"/>
</g>
<path d="M99.6299 49.2173V48.1213H98.8965V49.2173H97.8005V49.9486H98.8965V51.0467H99.6299V49.9486H100.728V49.2173H99.6299ZM103.696 47.4542L102.646 48.1213V48.9044L103.619 48.2933H103.644V51.6973H104.527V47.4542H103.696ZM105.275 51.2622L104.985 52.93H105.605L106.11 51.2622H105.275ZM108.291 51.7553C109.244 51.7553 109.895 51.142 109.893 50.2843C109.895 49.4701 109.317 48.8879 108.538 48.8879C108.165 48.8879 107.844 49.0391 107.686 49.2484H107.653L107.769 48.1772H109.654V47.4542H107.044L106.812 49.8969H107.614C107.736 49.6607 107.96 49.5426 108.277 49.5426C108.724 49.5446 109.043 49.8596 109.041 50.3071C109.043 50.7504 108.73 51.0612 108.291 51.0612C107.92 51.0612 107.618 50.8333 107.597 50.5039H106.741C106.758 51.2332 107.406 51.7553 108.291 51.7553ZM112.02 51.7884C113.081 51.7884 113.723 50.9783 113.723 49.5799C113.725 48.1938 113.079 47.3962 112.02 47.3962C110.961 47.3962 110.319 48.1897 110.317 49.5799C110.313 50.9742 110.957 51.7864 112.02 51.7884ZM112.02 51.055C111.529 51.055 111.212 50.5619 111.214 49.5799C111.216 48.6102 111.531 48.1213 112.02 48.1213C112.509 48.1213 112.824 48.6102 112.826 49.5799C112.826 50.5619 112.511 51.055 112.02 51.055ZM115.861 51.7884C116.922 51.7884 117.564 50.9783 117.564 49.5799C117.566 48.1938 116.919 47.3962 115.861 47.3962C114.802 47.3962 114.16 48.1897 114.158 49.5799C114.154 50.9742 114.798 51.7864 115.861 51.7884ZM115.861 51.055C115.37 51.055 115.053 50.5619 115.055 49.5799C115.057 48.6102 115.372 48.1213 115.861 48.1213C116.35 48.1213 116.665 48.6102 116.667 49.5799C116.667 50.5619 116.352 51.055 115.861 51.055ZM120.362 49.352H119.751V49.7083H120.362V50.5647H120.796V48.5149H120.362V49.352ZM118.92 49.7484C119.075 50.0826 119.354 50.352 119.749 50.4859L119.966 50.1434C119.42 49.9569 119.135 49.5191 119.135 49.0951V49.0633H119.866V48.7111H117.957V49.0633H118.693V49.0923C118.693 49.5591 118.392 50.026 117.83 50.2125L118.054 50.555C118.471 50.4141 118.765 50.1185 118.92 49.7484ZM120.796 52.0011V50.718H118.446V52.0011H120.796ZM120.37 51.0619V51.6503H118.88V51.0619H120.37Z" fill="#0E74FF"/>
<g clip-path="url(#clip1_2832_9390)">
<path d="M125.385 70.2011C126.642 68.6942 127.252 66.7482 127.078 64.7911C126.866 63.1208 126.117 61.5654 124.943 60.3606C123.77 59.1558 122.237 58.3674 120.576 58.1149C119.072 57.9414 117.551 58.236 116.22 58.9587C114.888 59.6814 113.811 60.7972 113.134 62.1546C112.457 63.512 112.213 65.0454 112.435 66.5467C112.657 68.0479 113.334 69.4443 114.375 70.5464C111.877 71.6521 109.738 73.4359 108.198 75.6962C106.659 77.9566 105.78 80.6034 105.662 83.3378H134.944C134.815 80.449 133.839 77.6624 132.138 75.3262C130.438 72.9899 128.089 71.2074 125.385 70.2011Z" fill="#E3EFFF" stroke="#4694FF" stroke-width="0.75" stroke-linecap="round" stroke-linejoin="round"/>
<path d="M116.887 66.201C117.41 66.201 117.834 65.7759 117.834 65.2514C117.834 64.7269 117.41 64.3018 116.887 64.3018C116.364 64.3018 115.939 64.7269 115.939 65.2514C115.939 65.7759 116.364 66.201 116.887 66.201Z" fill="#4694FF"/>
<path d="M122.643 66.201C123.166 66.201 123.59 65.7759 123.59 65.2514C123.59 64.7269 123.166 64.3018 122.643 64.3018C122.119 64.3018 121.695 64.7269 121.695 65.2514C121.695 65.7759 122.119 66.201 122.643 66.201Z" fill="#4694FF"/>
<path d="M120.906 67.4673C120.55 67.6933 120.137 67.813 119.715 67.8126C119.28 67.8143 118.854 67.6839 118.495 67.4385" stroke="#4694FF" stroke-width="0.75" stroke-linecap="round" stroke-linejoin="round"/>
</g>
<g filter="url(#filter2_d_2832_9390)">
<circle cx="172.258" cy="49.2576" r="16.2576" fill="white"/>
</g>
<path d="M161.357 49.2173V48.1213H160.624V49.2173H159.528V49.9486H160.624V51.0467H161.357V49.9486H162.455V49.2173H161.357ZM165.999 51.7553C166.954 51.7553 167.644 51.2332 167.64 50.508C167.644 49.9777 167.3 49.5985 166.674 49.5219V49.4887C167.153 49.4038 167.485 49.0661 167.48 48.5895C167.485 47.9203 166.894 47.3962 166.012 47.3962C165.141 47.3962 164.483 47.9038 164.468 48.633H165.313C165.326 48.3078 165.632 48.0985 166.007 48.0985C166.382 48.0985 166.633 48.3202 166.631 48.6434C166.633 48.979 166.341 49.2069 165.92 49.2069H165.527V49.8596H165.92C166.42 49.8596 166.726 50.104 166.724 50.45C166.726 50.7919 166.424 51.026 166.001 51.026C165.593 51.026 165.286 50.8167 165.272 50.5039H164.383C164.398 51.2435 165.065 51.7553 165.999 51.7553ZM168.127 51.2622L167.837 52.93H168.457L168.962 51.2622H168.127ZM171.095 51.7884C172.156 51.7884 172.798 50.9783 172.798 49.5799C172.801 48.1938 172.154 47.3962 171.095 47.3962C170.037 47.3962 169.394 48.1897 169.392 49.5799C169.388 50.9742 170.033 51.7864 171.095 51.7884ZM171.095 51.055C170.604 51.055 170.287 50.5619 170.289 49.5799C170.292 48.6102 170.606 48.1213 171.095 48.1213C171.584 48.1213 171.899 48.6102 171.901 49.5799C171.901 50.5619 171.586 51.055 171.095 51.055ZM174.936 51.7884C175.997 51.7884 176.639 50.9783 176.639 49.5799C176.641 48.1938 175.995 47.3962 174.936 47.3962C173.878 47.3962 173.235 48.1897 173.233 49.5799C173.229 50.9742 173.873 51.7864 174.936 51.7884ZM174.936 51.055C174.445 51.055 174.128 50.5619 174.13 49.5799C174.132 48.6102 174.447 48.1213 174.936 48.1213C175.425 48.1213 175.74 48.6102 175.742 49.5799C175.742 50.5619 175.427 51.055 174.936 51.055ZM178.777 51.7884C179.838 51.7884 180.48 50.9783 180.48 49.5799C180.482 48.1938 179.836 47.3962 178.777 47.3962C177.719 47.3962 177.076 48.1897 177.074 49.5799C177.07 50.9742 177.714 51.7864 178.777 51.7884ZM178.777 51.055C178.286 51.055 177.969 50.5619 177.971 49.5799C177.973 48.6102 178.288 48.1213 178.777 48.1213C179.266 48.1213 179.581 48.6102 179.583 49.5799C179.583 50.5619 179.268 51.055 178.777 51.055ZM183.278 49.352H182.668V49.7083H183.278V50.5647H183.712V48.5149H183.278V49.352ZM181.836 49.7484C181.991 50.0826 182.27 50.352 182.665 50.4859L182.882 50.1434C182.336 49.9569 182.052 49.5191 182.052 49.0951V49.0633H182.783V48.7111H180.874V49.0633H181.61V49.0923C181.61 49.5591 181.309 50.026 180.747 50.2125L180.97 50.555C181.388 50.4141 181.682 50.1185 181.836 49.7484ZM183.712 52.0011V50.718H181.363V52.0011H183.712ZM183.287 51.0619V51.6503H181.796V51.0619H183.287Z" fill="#0E74FF"/>
<g clip-path="url(#clip2_2832_9390)">
<path d="M186.112 70.2011C187.369 68.6942 187.979 66.7482 187.805 64.7911C187.593 63.1208 186.844 61.5654 185.67 60.3606C184.497 59.1558 182.964 58.3674 181.303 58.1149C179.799 57.9414 178.278 58.236 176.947 58.9587C175.615 59.6814 174.538 60.7972 173.861 62.1546C173.184 63.512 172.94 65.0454 173.162 66.5467C173.384 68.0479 174.061 69.4443 175.102 70.5464C172.604 71.6521 170.465 73.4359 168.925 75.6962C167.386 77.9566 166.507 80.6034 166.389 83.3378H195.671C195.542 80.449 194.566 77.6624 192.865 75.3262C191.165 72.9899 188.816 71.2074 186.112 70.2011Z" fill="#E3EFFF" stroke="#4694FF" stroke-width="0.75" stroke-linecap="round" stroke-linejoin="round"/>
<path d="M177.614 66.201C178.137 66.201 178.561 65.7759 178.561 65.2514C178.561 64.7269 178.137 64.3018 177.614 64.3018C177.091 64.3018 176.667 64.7269 176.667 65.2514C176.667 65.7759 177.091 66.201 177.614 66.201Z" fill="#4694FF"/>
<path d="M183.37 66.201C183.893 66.201 184.317 65.7759 184.317 65.2514C184.317 64.7269 183.893 64.3018 183.37 64.3018C182.847 64.3018 182.422 64.7269 182.422 65.2514C182.422 65.7759 182.847 66.201 183.37 66.201Z" fill="#4694FF"/>
<path d="M181.633 67.4673C181.277 67.6933 180.864 67.813 180.442 67.8126C180.007 67.8143 179.581 67.6839 179.222 67.4385" stroke="#4694FF" stroke-width="0.75" stroke-linecap="round" stroke-linejoin="round"/>
</g>
<defs>
<filter id="filter0_d_2832_9390" x="23" y="30" width="42.5151" height="42.5156" filterUnits="userSpaceOnUse" color-interpolation-filters="sRGB">
<feFlood flood-opacity="0" result="BackgroundImageFix"/>
<feColorMatrix in="SourceAlpha" type="matrix" values="0 0 0 0 0 0 0 0 0 0 0 0 0 0 0 0 0 0 127 0" result="hardAlpha"/>
<feOffset dy="2"/>
<feGaussianBlur stdDeviation="2.5"/>
<feComposite in2="hardAlpha" operator="out"/>
<feColorMatrix type="matrix" values="0 0 0 0 0 0 0 0 0 0.252179 0 0 0 0 0.595833 0 0 0 0.2 0"/>
<feBlend mode="normal" in2="BackgroundImageFix" result="effect1_dropShadow_2832_9390"/>
<feBlend mode="normal" in="SourceGraphic" in2="effect1_dropShadow_2832_9390" result="shape"/>
</filter>
<filter id="filter1_d_2832_9390" x="88" y="30" width="42.5151" height="42.5156" filterUnits="userSpaceOnUse" color-interpolation-filters="sRGB">
<feFlood flood-opacity="0" result="BackgroundImageFix"/>
<feColorMatrix in="SourceAlpha" type="matrix" values="0 0 0 0 0 0 0 0 0 0 0 0 0 0 0 0 0 0 127 0" result="hardAlpha"/>
<feOffset dy="2"/>
<feGaussianBlur stdDeviation="2.5"/>
<feComposite in2="hardAlpha" operator="out"/>
<feColorMatrix type="matrix" values="0 0 0 0 0 0 0 0 0 0.252179 0 0 0 0 0.595833 0 0 0 0.2 0"/>
<feBlend mode="normal" in2="BackgroundImageFix" result="effect1_dropShadow_2832_9390"/>
<feBlend mode="normal" in="SourceGraphic" in2="effect1_dropShadow_2832_9390" result="shape"/>
</filter>
<filter id="filter2_d_2832_9390" x="151" y="30" width="42.5151" height="42.5156" filterUnits="userSpaceOnUse" color-interpolation-filters="sRGB">
<feFlood flood-opacity="0" result="BackgroundImageFix"/>
<feColorMatrix in="SourceAlpha" type="matrix" values="0 0 0 0 0 0 0 0 0 0 0 0 0 0 0 0 0 0 127 0" result="hardAlpha"/>
<feOffset dy="2"/>
<feGaussianBlur stdDeviation="2.5"/>
<feComposite in2="hardAlpha" operator="out"/>
<feColorMatrix type="matrix" values="0 0 0 0 0 0 0 0 0 0.252179 0 0 0 0 0.595833 0 0 0 0.2 0"/>
<feBlend mode="normal" in2="BackgroundImageFix" result="effect1_dropShadow_2832_9390"/>
<feBlend mode="normal" in="SourceGraphic" in2="effect1_dropShadow_2832_9390" result="shape"/>
</filter>
<clipPath id="clip0_2832_9390">
<rect width="30" height="26" fill="white" transform="translate(43.2119 57.6973)"/>
</clipPath>
<clipPath id="clip1_2832_9390">
<rect width="30" height="26" fill="white" transform="translate(105.303 57.6973)"/>
</clipPath>
<clipPath id="clip2_2832_9390">
<rect width="30" height="26" fill="white" transform="translate(166.03 57.6973)"/>
</clipPath>
</defs>
</svg>
