<svg width="24" height="24" viewBox="0 0 24 24" fill="none" xmlns="http://www.w3.org/2000/svg">
<path d="M23.4495 11.9749C23.4495 18.3123 18.3121 23.4498 11.9747 23.4498C5.63742 23.4498 0.5 18.3123 0.5 11.9749C0.5 5.63748 5.63742 0.5 11.9747 0.5C18.3121 0.5 23.4495 5.63748 23.4495 11.9749Z" fill="white" stroke="white"/>
<g clip-path="url(#clip0_1262_3497)">
<path d="M15.29 11.29L10.7 6.69997C10.31 6.30997 9.68002 6.30997 9.29002 6.69997C8.90002 7.08997 8.90002 7.71997 9.29002 8.10997L13.17 12L9.29002 15.88C8.90002 16.27 8.90002 16.9 9.29002 17.29C9.68002 17.68 10.31 17.68 10.7 17.29L15.29 12.7C15.68 12.32 15.68 11.68 15.29 11.29Z" fill="#0E74FF"/>
</g>
<defs>
<clipPath id="clip0_1262_3497">
<rect width="24" height="23.9997" fill="white" transform="translate(24) rotate(90)"/>
</clipPath>
</defs>
</svg>
