<svg width="26" height="26" viewBox="0 0 26 26" fill="none" xmlns="http://www.w3.org/2000/svg">
<path d="M25.4453 12.9728C25.4453 19.8613 19.8611 25.4456 12.9726 25.4456C6.0842 25.4456 0.5 19.8613 0.5 12.9728C0.5 6.08425 6.0842 0.5 12.9726 0.5C19.8611 0.5 25.4453 6.08425 25.4453 12.9728Z" fill="#ECECEC" stroke="#ECECEC"/>
<path d="M13.8628 19.5C13.7257 19.731 13.5028 19.9004 13.2412 19.97H13.2132L13.1628 19.9805C13.108 19.9919 13.0522 19.9984 12.9963 20C12.6284 19.996 12.3074 19.7963 12.1326 19.5H13.8628ZM8.72361 16.4472L9 16.309V16V11.875V11.8657L8.99965 11.8563C8.9635 10.8882 9.18148 9.92745 9.63185 9.06974C10.0532 8.32868 10.771 7.80259 11.6048 7.6239L12 7.5392V7.135V6H14V7.135V7.52994L14.3842 7.62141C15.2275 7.82219 15.8661 8.2814 16.3029 8.97143C16.7462 9.67174 17 10.6406 17 11.875V16V16.309L17.2764 16.4472L18.5 17.059V17.75H7.5V17.059L8.72361 16.4472Z" stroke="white"/>
</svg>
