<svg width="22" height="22" viewBox="0 0 22 22" fill="none" xmlns="http://www.w3.org/2000/svg">
<path fill-rule="evenodd" clip-rule="evenodd" d="M6.41658 1.88818H15.5832C17.134 1.92325 18.364 3.20652 18.3332 4.75735V18.214C18.3371 18.9619 17.9034 19.6429 17.2241 19.9557C16.9926 20.0564 16.7432 20.1094 16.4907 20.1115C16.0449 20.1088 15.6163 19.9387 15.2899 19.6348L10.9999 15.7298L6.70991 19.6348C6.18133 20.1065 5.4283 20.2314 4.77575 19.9557C4.09645 19.6429 3.66274 18.9619 3.66658 18.214V4.75735C3.63587 3.20652 4.86584 1.92325 6.41658 1.88818ZM12.219 14.3732L16.4999 18.2782V4.7574C16.5262 4.22053 16.1193 3.76074 15.5832 3.72157H6.41652C5.88043 3.76074 5.47354 4.22053 5.49986 4.7574V18.2141L9.74402 14.3732C10.4446 13.7323 11.5185 13.7323 12.219 14.3732Z" fill="#5B5B5B"/>
</svg>
