<svg width="20" height="20" viewBox="0 0 20 20" fill="none" xmlns="http://www.w3.org/2000/svg">
<path fill-rule="evenodd" clip-rule="evenodd" d="M5.83328 1.7168H14.1666C15.5764 1.74867 16.6945 2.91528 16.6666 4.32513V16.5585C16.6701 17.2383 16.2758 17.8574 15.6583 18.1418C15.4478 18.2333 15.2211 18.2815 14.9916 18.2835C14.5863 18.281 14.1966 18.1263 13.8999 17.8501L9.99994 14.3001L6.09994 17.8501C5.61941 18.2789 4.93484 18.3925 4.34161 18.1418C3.72407 17.8574 3.32979 17.2383 3.33328 16.5585V4.32513C3.30536 2.91528 4.42351 1.74867 5.83328 1.7168ZM11.1082 13.0669L14.9999 16.6169V4.32519C15.0238 3.83712 14.6539 3.41913 14.1665 3.38352H5.83322C5.34586 3.41913 4.97596 3.83712 4.99988 4.32519V16.5585L8.85822 13.0669C9.49507 12.4842 10.4714 12.4842 11.1082 13.0669Z" fill="#5B5B5B"/>
</svg>
