<svg width="54" height="54" viewBox="0 0 54 54" fill="none" xmlns="http://www.w3.org/2000/svg">
<circle cx="27" cy="27" r="27" fill="#FF8845"/>
<mask id="mask0_2078_7489" style="mask-type:alpha" maskUnits="userSpaceOnUse" x="0" y="0" width="54" height="54">
<path d="M27 54C41.9117 54 54 41.9117 54 27C54 12.0883 41.9117 0 27 0C12.0883 0 0 12.0883 0 27C0 41.9117 12.0883 54 27 54Z" fill="#FF8845"/>
</mask>
<g mask="url(#mask0_2078_7489)">
<path d="M20.882 53.7709H18.122C17.9112 53.7709 17.7402 53.9418 17.7402 54.1525V54.1545C17.7402 54.3653 17.9112 54.5361 18.122 54.5361H20.882C21.0929 54.5361 21.2638 54.3653 21.2638 54.1545V54.1525C21.2638 53.9418 21.0929 53.7709 20.882 53.7709Z" fill="#E0630E"/>
<path d="M28.5467 36.2769C36.2238 37.2797 41.7146 42.7149 41.4288 48.8506C40.3857 71.294 33.9645 93.6581 26.1997 93.6581C18.435 93.6581 12.0262 71.294 10.9706 48.8506C10.6848 42.7149 16.1756 37.2797 23.8528 36.2769C25.4064 36.0712 26.9805 36.0712 28.5341 36.2769H28.5467Z" fill="#FF8D40"/>
<path d="M26.2059 93.8749C21.1761 93.8749 17.5733 85.0185 15.871 79.7376C13.1485 71.2856 11.2814 60.0317 10.7662 48.8611C10.472 42.5753 16.0922 37.0734 23.836 36.0622C25.4092 35.8558 27.0026 35.8558 28.5758 36.0622C36.3197 37.0734 41.9378 42.5753 41.6458 48.8611C41.1242 60.0317 39.2633 71.2856 36.5408 79.7376C34.8385 85.0185 31.2357 93.8749 26.2059 93.8749ZM26.2059 36.3332C25.4323 36.3348 24.6595 36.3856 23.8924 36.4854C16.3821 37.4674 10.9163 42.7754 11.2 48.834C12.2055 70.3746 18.4766 93.4351 26.2059 93.4351C33.9352 93.4351 40.2063 70.3746 41.2118 48.834C41.4935 42.7754 36.038 37.4674 28.5195 36.4854C27.7521 36.3877 26.9794 36.339 26.2059 36.3395V36.3332Z" fill="#63280A"/>
<path d="M16.3738 19.3877C16.3738 19.3877 6.52908 25.6714 27.1718 43.1382C27.1718 43.1382 26.2206 13.104 16.3738 19.3877Z" fill="#99B599"/>
<path d="M27.1718 43.3551C27.1207 43.3561 27.071 43.3382 27.0321 43.305C20.7735 38.0053 13.3968 30.3414 13.8287 23.9159C14.0477 20.6552 16.1673 19.2668 16.257 19.2105C17.8362 18.2035 19.2986 18.0409 20.6087 18.731C23.1601 20.0757 25.0752 24.6019 26.3019 32.1845C26.8705 35.8116 27.2334 39.468 27.3888 43.1361C27.3911 43.1791 27.3806 43.2219 27.3588 43.259C27.3369 43.2961 27.3045 43.3258 27.2658 43.3446C27.2357 43.3552 27.2035 43.3588 27.1718 43.3551ZM16.4927 19.5712C16.4718 19.5837 14.4587 20.9138 14.2606 23.9493C13.8621 30.0704 20.8404 37.4341 26.9341 42.6483C26.7839 39.4606 25.7178 21.9083 20.4064 19.1062C19.2465 18.4996 17.9217 18.6538 16.4927 19.5712Z" fill="#63280A"/>
<path d="M37.3796 16.2917C37.3796 16.2917 27.537 14.4987 27.1719 43.1424C27.1719 43.1382 47.2243 18.0805 37.3796 16.2917Z" fill="#99B599"/>
<path d="M27.2172 43.3097C27.1923 43.3109 27.1674 43.3066 27.1443 43.2972C27.1007 43.2831 27.0629 43.255 27.0369 43.2173C27.0109 43.1796 26.998 43.1345 27.0002 43.0887C27.2089 26.2015 30.7283 19.7989 33.6385 17.4034C35.6788 15.7251 37.3936 16.0129 37.4646 16.0275C38.806 16.2714 39.6947 16.949 40.1035 18.0394C41.0924 20.685 39.2461 25.7366 34.6148 33.0502C31.1872 38.4708 27.4238 43.1784 27.3862 43.2242C27.3668 43.2508 27.3414 43.2724 27.3121 43.2872C27.2827 43.3021 27.2501 43.3098 27.2172 43.3097ZM37.0995 16.4382C36.555 16.4382 35.3053 16.5883 33.893 17.7579C31.1017 20.0741 27.7347 26.2411 27.4447 42.4529C29.8 39.4236 41.7433 23.6642 39.6968 18.1936C39.3401 17.2429 38.5848 16.6738 37.3873 16.4548C37.2919 16.4428 37.1957 16.4372 37.0995 16.4382Z" fill="#63280A"/>
<path d="M22.969 11.2406C22.969 11.2406 11.7537 14.7181 27.0287 43.1387C27.0287 43.1325 34.1864 7.76308 22.969 11.2406Z" fill="#B8D8BB"/>
<path d="M27.1738 43.3551C27.1348 43.3559 27.0963 43.3459 27.0627 43.326C27.0292 43.3061 27.0018 43.2771 26.9839 43.2425C18.0968 26.7097 18.151 18.5517 19.7637 14.6176C20.9507 11.7197 22.9659 11.0733 23.0514 11.0379C24.6182 10.5542 25.9324 10.7773 26.9588 11.703C29.3579 13.8692 30.1549 19.8339 29.3309 29.4346C28.9126 34.0466 28.2637 38.6348 27.3866 43.182C27.3789 43.2259 27.3573 43.2663 27.325 43.2971C27.2928 43.3278 27.2514 43.3474 27.2071 43.3529L27.1738 43.3551ZM23.1788 11.457C23.1454 11.4695 21.2532 12.1033 20.1558 14.8094C18.6079 18.6163 18.5725 26.5054 27.0778 42.5003C27.8184 38.5703 31.6966 16.571 26.6606 12.0282C25.751 11.1963 24.6099 11.0087 23.1788 11.4528V11.457Z" fill="#63280A"/>
</g>
</svg>
