<svg width="54" height="54" viewBox="0 0 54 54" fill="none" xmlns="http://www.w3.org/2000/svg">
<circle cx="27" cy="27" r="27" fill="#FF8845"/>
<g clip-path="url(#clip0_2050_6726)">
<path d="M27.4991 22.7801C32.3929 23.4387 35.8923 27.0173 35.7072 31.0573C35.0299 45.8302 30.9301 60.5531 25.9846 60.5531C21.0391 60.5531 16.9551 45.8302 16.2964 31.0573C16.116 27.0173 19.6236 23.4387 24.5141 22.7801C25.5047 22.643 26.5086 22.643 27.4991 22.7801V22.7801Z" fill="#FF8D40"/>
<path d="M22.7305 35.5402H16.7328C16.6876 35.5402 16.6443 35.5217 16.6124 35.4888C16.5805 35.4558 16.5626 35.4111 16.5626 35.3645L16.563 34.6959H22.731C22.8412 34.6959 22.9468 34.7411 23.0246 34.8214C23.1025 34.9018 23.1462 35.0108 23.1461 35.1245C23.1428 35.2359 23.0975 35.3417 23.0199 35.4193C22.9423 35.4969 22.8386 35.5403 22.7305 35.5402Z" fill="#E0630E"/>
<path d="M28.1321 43.6273H33.7518C33.797 43.6273 33.8404 43.6458 33.8723 43.6788C33.9042 43.7117 33.9221 43.7564 33.922 43.803L33.9216 44.4716H28.1317C28.0215 44.4716 27.9158 44.4264 27.838 44.3461C27.7601 44.2657 27.7165 44.1567 27.7166 44.043C27.7199 43.9316 27.7651 43.8259 27.8427 43.7483C27.9203 43.6707 28.0241 43.6273 28.1321 43.6273Z" fill="#E0630E"/>
<path d="M21.129 37.053H16.8217C16.7924 37.053 16.7642 37.041 16.7435 37.0195C16.7227 36.9981 16.7111 36.969 16.7111 36.9387L16.7114 36.4458C16.7114 36.4155 16.7231 36.3864 16.7439 36.365C16.7646 36.3436 16.7928 36.3315 16.8222 36.3315H21.1294C21.1753 36.3314 21.2208 36.3405 21.2633 36.3585C21.3058 36.3765 21.3444 36.403 21.3769 36.4365C21.4094 36.4699 21.4352 36.5097 21.4528 36.5534C21.4704 36.5972 21.4795 36.6441 21.4795 36.6915C21.4794 36.7874 21.4425 36.8793 21.3768 36.9471C21.311 37.0149 21.2219 37.053 21.129 37.053V37.053Z" fill="#E0630E"/>
<path d="M29.3704 45.1544H33.6845C33.7293 45.1544 33.7723 45.1728 33.8039 45.2055C33.8356 45.2382 33.8534 45.2825 33.8533 45.3287L33.853 45.9987H29.3699C29.2598 45.9987 29.1541 45.9536 29.0763 45.8732C28.9984 45.7928 28.9548 45.6838 28.9548 45.5701V45.5701C28.9581 45.4587 29.0034 45.353 29.081 45.2754C29.1585 45.1978 29.2624 45.1544 29.3704 45.1544V45.1544Z" fill="#E0630E"/>
<path d="M27.9393 46.6232H32.2534C32.2985 46.6232 32.3419 46.6417 32.3738 46.6746C32.4057 46.7076 32.4236 46.7523 32.4235 46.7989L32.4232 47.4674H27.9388C27.8286 47.4674 27.723 47.4223 27.6451 47.3419C27.5673 47.2616 27.5236 47.1525 27.5237 47.0389C27.527 46.9275 27.5722 46.8217 27.6498 46.7441C27.7274 46.6665 27.8312 46.6231 27.9393 46.6232Z" fill="#E0630E"/>
<path d="M35.707 31.0573C35.8809 27.2501 32.7829 23.8544 28.3295 22.923C28.3475 22.9573 41.8649 29.3516 25.9844 60.5531C30.9299 60.5531 35.0297 45.8302 35.707 31.0573Z" fill="#E0630E"/>
<path d="M25.9845 60.696C22.778 60.696 20.4831 54.8645 19.4011 51.3888C17.6681 45.8245 16.4859 38.4159 16.1579 31.063C15.972 26.9201 19.5572 23.3029 24.4961 22.6344C25.4988 22.4972 26.5146 22.4972 27.5172 22.6344C32.4539 23.2987 36.0349 26.9201 35.8456 31.063C35.5077 38.4159 34.314 45.8245 32.5788 51.3888C31.4913 54.8645 29.191 60.696 25.9845 60.696ZM26.0066 22.8201C25.5134 22.8209 25.0209 22.8547 24.532 22.9215C19.7371 23.5672 16.2557 27.0644 16.4348 31.0501C17.0676 45.2288 21.0558 60.4103 25.9846 60.4103C30.9135 60.4103 34.9194 45.2288 35.5687 31.0501C35.751 27.0615 32.2738 23.5672 27.481 22.9215C26.9922 22.8548 26.4997 22.8209 26.0066 22.8201V22.8201Z" fill="#63280A"/>
<path d="M19.7442 11.6629C19.7442 11.6629 13.4645 15.8057 26.6203 27.2972C26.6203 27.2958 26.024 7.51999 19.7442 11.6629Z" fill="#99B599"/>
<path d="M26.6196 27.4387C26.5868 27.4391 26.5549 27.4275 26.5296 27.4059C22.5387 23.9173 17.8413 18.8715 18.1193 14.6387C18.259 12.4958 19.6121 11.5786 19.6689 11.5415C20.6758 10.8786 21.6077 10.7715 22.4381 11.2258C24.0644 12.1115 25.2838 15.0915 26.0632 20.083C26.4239 22.4709 26.6536 24.8781 26.7512 27.293C26.7519 27.3207 26.7448 27.3479 26.7308 27.3715C26.7168 27.3951 26.6965 27.414 26.6723 27.4259C26.6557 27.4337 26.6378 27.4381 26.6196 27.4387ZM19.8183 11.7815C19.8059 11.7901 18.5219 12.6644 18.3947 14.6672C18.1376 18.6958 22.5847 23.5444 26.4676 26.9759C26.3733 24.8773 25.7002 13.3229 22.3148 11.4786C21.5716 11.0758 20.7408 11.1786 19.8183 11.7815V11.7815Z" fill="#63280A"/>
<path d="M33.139 9.61983C33.139 9.61983 26.8623 8.43983 26.6215 27.2956C26.6201 27.2956 39.4143 10.8055 33.139 9.61983Z" fill="#99B599"/>
<path d="M26.6202 27.4387C26.5834 27.4387 26.5483 27.4236 26.5223 27.3968C26.4964 27.37 26.4818 27.3337 26.4818 27.2958C26.6267 16.1772 28.868 11.9643 30.7241 10.3872C32.0248 9.28287 33.1171 9.47288 33.1642 9.48145C34.0197 9.64145 34.5843 10.0872 34.8442 10.8057C35.4759 12.5486 34.2957 15.8729 31.3397 20.6887C29.1515 24.253 26.7518 27.3558 26.7282 27.3872C26.715 27.4036 26.6985 27.4166 26.6798 27.4255C26.6611 27.4344 26.6407 27.4389 26.6202 27.4387ZM32.93 9.75002C32.5839 9.75002 31.7864 9.84716 30.886 10.6186C29.1046 12.1429 26.9562 16.2029 26.7645 26.8744C28.2678 24.8744 35.8887 14.5058 34.5852 10.9043C34.3585 10.2786 33.8769 9.9043 33.1141 9.76144C33.0518 9.75204 32.9888 9.74822 32.9259 9.75002H32.93Z" fill="#63280A"/>
<path d="M29.7563 47.5089H27.9869C27.9502 47.5089 27.9149 47.4938 27.889 47.467C27.863 47.4402 27.8485 47.4039 27.8485 47.366C27.8486 47.3281 27.8631 47.2918 27.8891 47.265C27.9151 47.2382 27.9504 47.2231 27.9871 47.2231H29.7565C29.7932 47.2231 29.8284 47.2382 29.8543 47.265C29.8803 47.2918 29.8948 47.3281 29.8948 47.366C29.8948 47.4039 29.8802 47.4402 29.8542 47.467C29.8282 47.4938 29.793 47.5089 29.7563 47.5089Z" fill="#63280A"/>
<path d="M34.0903 44.5202H28.2047C28.168 44.5202 28.1328 44.5052 28.1068 44.4784C28.0809 44.4516 28.0663 44.4152 28.0663 44.3774C28.0663 44.3395 28.081 44.3031 28.1069 44.2763C28.1329 44.2495 28.1681 44.2345 28.2049 44.2345H34.0904C34.1272 44.2345 34.1624 44.2495 34.1883 44.2763C34.2143 44.3031 34.2288 44.3395 34.2288 44.3774C34.2288 44.4152 34.2142 44.4516 34.1882 44.4784C34.1622 44.5052 34.127 44.5202 34.0903 44.5202Z" fill="#63280A"/>
<path d="M32.8326 46.0302H29.5431C29.5064 46.0302 29.4711 46.0152 29.4451 45.9884C29.4192 45.9616 29.4047 45.9253 29.4047 45.8874C29.4047 45.8495 29.4193 45.8132 29.4453 45.7864C29.4712 45.7596 29.5065 45.7445 29.5432 45.7445H32.8328C32.8695 45.7445 32.9047 45.7596 32.9307 45.7864C32.9566 45.8132 32.9712 45.8495 32.9712 45.8874C32.9711 45.9253 32.9565 45.9616 32.9305 45.9884C32.9046 46.0152 32.8694 46.0302 32.8326 46.0302Z" fill="#63280A"/>
<path d="M22.5863 35.5744H16.5899C16.5532 35.5744 16.518 35.5594 16.4921 35.5326C16.4661 35.5058 16.4516 35.4694 16.4516 35.4316C16.4516 35.3937 16.4662 35.3573 16.4922 35.3305C16.5182 35.3037 16.5534 35.2887 16.5901 35.2887H22.5864C22.6231 35.2887 22.6583 35.3037 22.6843 35.3305C22.7102 35.3573 22.7248 35.3937 22.7248 35.4316C22.7248 35.4694 22.7101 35.5058 22.6842 35.5326C22.6582 35.5594 22.623 35.5744 22.5863 35.5744Z" fill="#63280A"/>
<path d="M21.0484 37.0916H16.7564C16.7197 37.0916 16.6845 37.0766 16.6586 37.0498C16.6326 37.023 16.6181 36.9866 16.6181 36.9488C16.6181 36.9109 16.6327 36.8745 16.6587 36.8477C16.6847 36.821 16.7199 36.8059 16.7566 36.8059H21.0486C21.0853 36.8059 21.1205 36.821 21.1465 36.8477C21.1724 36.8745 21.187 36.9109 21.187 36.9488C21.1869 36.9866 21.1723 37.023 21.1463 37.0498C21.1204 37.0766 21.0851 37.0916 21.0484 37.0916Z" fill="#63280A"/>
<path d="M22.4321 38.4559H20.6627C20.626 38.4559 20.5908 38.4408 20.5648 38.414C20.5389 38.3872 20.5243 38.3509 20.5243 38.313C20.5244 38.2751 20.539 38.2388 20.565 38.212C20.5909 38.1852 20.6261 38.1702 20.6629 38.1702H22.4323C22.469 38.1702 22.5042 38.1852 22.5302 38.212C22.5561 38.2388 22.5707 38.2751 22.5707 38.313C22.5706 38.3509 22.556 38.3872 22.5301 38.414C22.5041 38.4408 22.4689 38.4559 22.4321 38.4559Z" fill="#63280A"/>
<path d="M24.0445 6.30161C24.0445 6.30161 16.8936 8.58734 26.6213 27.3017C26.6213 27.296 31.1968 4.01303 24.0445 6.30161Z" fill="#B8D8BB"/>
<path d="M26.6215 27.4388C26.5966 27.4388 26.5721 27.4319 26.5506 27.4189C26.5292 27.4058 26.5116 27.387 26.4997 27.3645C20.8392 16.4815 20.8784 11.1101 21.9072 8.52007C22.6642 6.61292 23.9506 6.18292 24.0046 6.16434C25.0044 5.84577 25.842 5.99291 26.4965 6.60149C28.0255 8.03007 28.5328 11.9558 28.003 18.2758C27.6112 22.9559 26.7669 27.2759 26.7586 27.3245C26.7528 27.3534 26.7386 27.3797 26.7177 27.3999C26.6969 27.4201 26.6705 27.4332 26.6422 27.4373L26.6215 27.4388ZM24.0862 6.43863C24.0641 6.4472 22.8593 6.8672 22.1563 8.64579C21.1691 11.1515 21.1439 16.3444 26.5595 26.8745C27.0331 24.2873 29.5143 9.80579 26.3095 6.81578C25.7283 6.26863 24.9988 6.14577 24.0862 6.4372L24.0862 6.43863Z" fill="#63280A"/>
<path d="M22.8344 30.1388C23.1219 30.1388 23.3551 29.8983 23.3553 29.6016C23.3555 29.3049 23.1225 29.0645 22.835 29.0645C22.5475 29.0645 22.3143 29.3049 22.3141 29.6016C22.314 29.8983 22.5469 30.1388 22.8344 30.1388Z" fill="#63280A"/>
<path d="M29.1616 30.1387C29.4491 30.1387 29.6823 29.8983 29.6824 29.6016C29.6826 29.3049 29.4497 29.0645 29.1622 29.0645C28.8747 29.0645 28.6415 29.3049 28.6413 29.6016C28.6411 29.8983 28.874 30.1387 29.1616 30.1387Z" fill="#63280A"/>
<path d="M26.0782 35.0459C25.3859 35.0459 25.0281 33.7802 25.0288 32.5302C25.0295 31.2802 25.3916 30.0159 26.0811 30.0159C26.7706 30.0159 27.1298 31.2816 27.1291 32.5302C27.1284 33.7787 26.7676 35.0459 26.0782 35.0459ZM26.0808 30.4444C25.8219 30.4444 25.4449 31.2573 25.4442 32.5302C25.4434 33.803 25.8195 34.6173 26.0784 34.6173C26.3373 34.6173 26.713 33.8044 26.7137 32.5302C26.7145 31.2559 26.3397 30.4444 26.0808 30.4444Z" fill="#63280A"/>
</g>
<defs>
<clipPath id="clip0_2050_6726">
<rect width="19.7015" height="44" fill="white" transform="matrix(1 0 -0.000582607 1 16.1655 6)"/>
</clipPath>
</defs>
</svg>
