<svg width="71" height="87" viewBox="0 0 71 87" fill="none" xmlns="http://www.w3.org/2000/svg">
<g clip-path="url(#clip0_1608_4954)">
<path d="M66.6504 41.6323C65.3146 41.4018 63.9256 41.6729 62.7135 42.3663C64.5916 33.6212 60.1068 24.3371 58.4935 21.3828C58.3912 21.1989 58.341 20.9875 58.349 20.7741C58.357 20.5606 58.4227 20.3542 58.5384 20.1793C62.2437 14.7013 61.6888 10.1679 60.5706 7.32881C59.1609 3.74866 56.0917 1.11783 52.361 0.291023C45.0012 -1.33965 40.8041 4.28634 39.3425 6.78019C39.2344 6.96195 39.0793 7.10686 38.8957 7.19763C38.7121 7.2884 38.5078 7.32119 38.3071 7.29209C34.3862 6.75159 30.4832 7.11805 30.2117 7.14523C29.9456 7.16535 26.0356 7.48344 22.248 8.70106C22.0546 8.76431 21.848 8.76736 21.653 8.70986C21.4579 8.65236 21.2825 8.53671 21.1474 8.37662C19.3176 6.17155 14.3073 1.35472 7.29986 4.24609C3.74788 5.71155 1.12748 8.84122 0.29105 12.6187C-0.372367 15.6135 -0.217991 20.1822 4.28353 24.9397C4.42473 25.092 4.52158 25.2842 4.56253 25.4934C4.60348 25.7026 4.58678 25.9198 4.51443 26.1192C3.1999 29.8225 -0.604596 42.5876 5.63233 51.356C6.63311 52.7627 7.83817 53.9984 9.24752 55.0629C8.70698 55.5571 8.19905 56.0646 7.72372 56.5852C7.80246 56.648 7.88198 56.7106 7.96227 56.773C2.45564 63.7741 2.16253 72.2551 2.2457 75.1574C2.27062 76.0435 2.4581 76.9161 2.79766 77.7261C2.84058 77.8288 2.88383 77.9291 2.92742 78.0279C2.81031 78.1743 2.70007 78.3254 2.59671 78.4812C2.27217 78.998 2.00564 79.5532 1.80254 80.1356C1.39863 81.2766 1.25291 82.4631 1.16008 83.5773C1.06667 84.7706 1.15588 85.9721 1.42425 87.1352C1.56175 87.722 1.75193 88.2935 1.99218 88.8418C2.23351 89.399 2.53496 89.9247 2.89049 90.4082C3.24394 90.8968 3.6518 91.3383 4.1052 91.7229C4.32346 91.9263 4.57099 92.0866 4.80389 92.2631C4.92499 92.3453 5.05109 92.4173 5.17486 92.4943C5.29704 92.5732 5.42297 92.6455 5.55214 92.7107C6.57489 93.2505 7.66783 93.5693 8.75578 93.7402L9.16467 93.8048L9.57324 93.8429C9.84539 93.8676 10.1182 93.898 10.3894 93.8994C10.6605 93.9008 10.9377 93.9185 11.1978 93.9192H56.288C56.5485 93.9192 56.8276 93.9057 57.0968 93.8994C57.3659 93.893 57.6404 93.8676 57.9129 93.8429L58.3215 93.8048L58.73 93.7402C59.818 93.5693 60.9109 93.2505 61.9337 92.7107C62.0628 92.6455 62.1888 92.5732 62.3109 92.4943C62.4347 92.4173 62.5611 92.3453 62.6819 92.2631C62.9175 92.0866 63.1633 91.9263 63.3806 91.7229C63.8339 91.3383 64.2416 90.8968 64.595 90.4082C64.95 89.9247 65.2509 89.399 65.4916 88.8418C65.7319 88.2935 65.9221 87.722 66.0596 87.1352C66.3284 85.9722 66.4176 84.7706 66.3237 83.5773C66.2309 82.4631 66.0855 81.2766 65.6816 80.1356C65.4784 79.5532 65.2117 78.998 64.8871 78.4812C64.5399 77.9532 64.1155 77.4874 63.6298 77.1016C63.1398 76.7187 62.5923 76.4265 62.0105 76.2373C61.4461 76.0558 60.8613 75.9551 60.2718 75.938C59.7007 75.9204 59.1295 75.9619 58.566 76.0619C58.2879 76.1134 58.0117 76.1717 57.7382 76.2472C57.6051 76.2825 57.472 76.3228 57.339 76.3658C57.2314 76.2873 57.1197 76.2153 57.0043 76.1505C56.7596 76.0105 56.5034 75.8942 56.239 75.8031C56.0597 75.7406 55.8794 75.6891 55.6984 75.6463L55.8145 75.2697L55.9253 74.8075L56.1366 73.8797L56.287 72.9414C56.3102 72.7846 56.3382 72.6286 56.3575 72.4715L56.4037 71.9995C56.4304 71.6842 56.4703 71.37 56.4852 71.0547C56.5002 70.7395 56.5115 70.4242 56.5222 70.1093C56.5328 69.7944 56.5222 69.4795 56.5222 69.1649L56.5162 68.6936L56.4899 68.223C56.4683 67.9099 56.4613 67.596 56.4274 67.2847C56.3934 66.9733 56.3648 66.6616 56.3275 66.3512L56.2277 65.6385C64.5787 62.524 68.9102 55.065 70.2097 52.4458C70.5997 51.6619 70.8416 50.8047 70.9221 49.9223C71.5199 43.4522 68.5023 41.9511 66.6504 41.6323Z" fill="#CFCFCF"/>
</g>
<path d="M31.51 47.71C31.51 46.67 31.74 45.81 32.2 45.13C32.68 44.45 33.37 43.7 34.27 42.88C34.93 42.28 35.41 41.78 35.71 41.38C36.03 40.96 36.19 40.49 36.19 39.97C36.19 39.23 35.89 38.65 35.29 38.23C34.71 37.79 33.93 37.57 32.95 37.57C32.01 37.57 31.17 37.77 30.43 38.17C29.71 38.55 29.1 39.09 28.6 39.79L24.97 37.66C25.81 36.38 26.94 35.39 28.36 34.69C29.8 33.99 31.5 33.64 33.46 33.64C35.76 33.64 37.6 34.13 38.98 35.11C40.38 36.09 41.08 37.45 41.08 39.19C41.08 40.01 40.94 40.73 40.66 41.35C40.4 41.97 40.07 42.5 39.67 42.94C39.29 43.36 38.79 43.85 38.17 44.41C37.43 45.07 36.89 45.63 36.55 46.09C36.21 46.53 36.04 47.07 36.04 47.71H31.51ZM33.79 55.24C32.97 55.24 32.28 54.98 31.72 54.46C31.18 53.92 30.91 53.27 30.91 52.51C30.91 51.75 31.18 51.12 31.72 50.62C32.26 50.1 32.95 49.84 33.79 49.84C34.63 49.84 35.32 50.1 35.86 50.62C36.4 51.12 36.67 51.75 36.67 52.51C36.67 53.27 36.39 53.92 35.83 54.46C35.29 54.98 34.61 55.24 33.79 55.24Z" fill="white"/>
<defs>
<clipPath id="clip0_1608_4954">
<rect width="71" height="87" fill="white"/>
</clipPath>
</defs>
</svg>
