<svg width="25" height="32" viewBox="0 0 25 32" fill="none" xmlns="http://www.w3.org/2000/svg">
<g clip-path="url(#clip0_970:2185)">
<path d="M20.3588 1.55711e-05H16.6446C16.5409 -0.00388704 16.4382 0.0221975 16.3488 0.0751696C16.2594 0.128142 16.1871 0.205775 16.1403 0.298844L11.8814 8.68631C11.8346 8.7804 11.8134 8.88528 11.82 8.99026C11.8267 9.09525 11.8609 9.19659 11.9193 9.28397L14.0121 12.366L14.05 12.4318L15.7696 15.8151C15.8362 15.944 15.8527 16.0932 15.8159 16.2336C15.7791 16.374 15.6916 16.4957 15.5704 16.5749L12.7665 18.4134C12.6853 18.4669 12.6187 18.5398 12.5726 18.6256C12.5265 18.7113 12.5023 18.8073 12.5023 18.9047C12.5023 19.0022 12.5265 19.0981 12.5726 19.1839C12.6187 19.2697 12.6853 19.3426 12.7665 19.396L13.5104 19.8848C13.5791 19.9296 13.6564 19.9595 13.7373 19.9724C13.8182 19.9853 13.901 19.981 13.9801 19.9597C14.0593 19.9385 14.1331 19.9008 14.1968 19.849C14.2606 19.7973 14.3127 19.7327 14.35 19.6594L23.9319 0.866113C23.9778 0.776795 24 0.677096 23.9964 0.576634C23.9928 0.476171 23.9635 0.378337 23.9113 0.292565C23.8591 0.206793 23.7858 0.135979 23.6984 0.0869544C23.611 0.0379298 23.5125 0.0123492 23.4124 0.0126786L20.3588 1.55711e-05Z" fill="#FF8845"/>
<path d="M15.6055 16.5394C15.7165 16.4674 15.7969 16.3564 15.8309 16.2282C15.8649 16.0999 15.8502 15.9635 15.7896 15.8455L14.0245 12.3887L12.0073 8.42292L7.87446 0.296298C7.82862 0.207032 7.7592 0.132162 7.6738 0.0798978C7.5884 0.0276332 7.49032 -9.4465e-06 7.39032 1.45201e-06H0.529213C0.437463 -0.000212834 0.347203 0.0232945 0.267117 0.0682598C0.187032 0.113225 0.11982 0.178135 0.071946 0.256744C0.024072 0.335353 -0.00284835 0.425013 -0.00622878 0.517098C-0.00960922 0.609183 0.0106662 0.700592 0.0526466 0.782528L9.70761 19.71C9.74202 19.7769 9.78998 19.8358 9.84842 19.8829C9.90685 19.9301 9.97446 19.9644 10.0469 19.9837C10.1193 20.0031 10.195 20.0069 10.269 19.9951C10.343 19.9833 10.4138 19.9561 10.4767 19.9152L12.9982 18.264L15.6055 16.5394Z" fill="#FF8845"/>
<path d="M22.0483 22.0855C22.0483 24.7143 21.0085 27.2354 19.1576 29.0943C17.3068 30.9532 14.7965 31.9975 12.179 31.9975C9.5615 31.9975 7.0512 30.9532 5.20034 29.0943C3.34949 27.2354 2.30969 24.7143 2.30969 22.0855C2.30969 19.4566 3.34949 16.9355 5.20034 15.0766C7.0512 13.2178 9.5615 12.1735 12.179 12.1735C14.7965 12.1735 17.3068 13.2178 19.1576 15.0766C21.0085 16.9355 22.0483 19.4566 22.0483 22.0855V22.0855Z" fill="#F1F1F1"/>
<path d="M9.56422 25.1877V24.0734L12.2219 21.617C12.9103 20.9535 13.281 20.5432 13.286 19.9481C13.286 19.2922 12.7817 18.8845 12.111 18.8845C11.9567 18.8719 11.8015 18.8931 11.6562 18.9466C11.5109 19.0002 11.3789 19.0848 11.2693 19.1946C11.1597 19.3044 11.0752 19.4368 11.0215 19.5826C10.9679 19.7285 10.9464 19.8843 10.9586 20.0393H9.49866C9.49866 18.5831 10.5678 17.6537 12.1211 17.6537C13.6743 17.6537 14.7636 18.5628 14.7661 19.8493C14.7661 20.6952 14.3551 21.3916 12.8296 22.7794L11.7025 23.8708V23.9215H14.867V25.1877H9.56422Z" fill="#FF8845"/>
</g>
<defs>
<clipPath id="clip0_970:2185">
<rect width="25" height="32" fill="white"/>
</clipPath>
</defs>
</svg>
