<svg width="102" height="102" viewBox="0 0 102 102" fill="none" xmlns="http://www.w3.org/2000/svg">
<g filter="url(#filter0_d_2317_7332)">
<circle cx="51" cy="51" r="36" fill="#0E74FF"/>
</g>
<g opacity="0.5" filter="url(#filter1_d_2317_7332)">
<circle cx="51" cy="51" r="34.5" stroke="#E3EFFF" stroke-width="3" shape-rendering="crispEdges"/>
</g>
<g filter="url(#filter2_d_2317_7332)">
<circle cx="28.167" cy="24.9529" r="7.5" fill="#EB5D0E"/>
</g>
<path d="M29.1732 20.9667H27.5157L25.4149 22.3009V23.8672L27.3624 22.6449H27.4121V29.4529H29.1732V20.9667Z" fill="white"/>
<path d="M30.5 36.5H71.5V62C71.5 63.933 69.933 65.5 68 65.5H34C32.067 65.5 30.5 63.933 30.5 62V36.5Z" fill="white" stroke="#0E74FF"/>
<path d="M50.9974 54.5336L40.8594 45.5542L30.7264 36.5683L50.9974 36.5683L71.2734 36.5683L61.1354 45.5542L50.9974 54.5336Z" fill="#E3EFFF" stroke="#0E74FF" stroke-linecap="round" stroke-linejoin="round"/>
<g clip-path="url(#clip0_2317_7332)">
<path d="M48.141 61.0265L50.5901 59.2715C50.6795 59.2084 50.7869 59.1745 50.897 59.1745C51.0072 59.1745 51.1146 59.2084 51.204 59.2715L53.8556 61.0713C53.935 61.1259 54.0281 61.158 54.1248 61.1642C54.2215 61.1704 54.3181 61.1505 54.404 61.1065C54.4899 61.0626 54.5618 60.9964 54.612 60.915C54.6621 60.8337 54.6886 60.7404 54.6884 60.6454V54.8969C54.6884 54.7584 54.6323 54.6256 54.5325 54.5277C54.4326 54.4298 54.2972 54.3749 54.1561 54.3749H47.8275C47.6869 54.3757 47.5523 54.431 47.4532 54.5288C47.3541 54.6266 47.2985 54.759 47.2985 54.8969V60.5974C47.2963 60.6943 47.3219 60.7898 47.3723 60.8732C47.4226 60.9566 47.4958 61.0244 47.5835 61.0691C47.6712 61.1137 47.7699 61.1334 47.8685 61.1259C47.967 61.1184 48.0614 61.0839 48.141 61.0265V61.0265Z" fill="#0E74FF"/>
<path d="M57.7348 48.9017C57.7348 52.5359 54.728 55.4985 50.9984 55.4985C47.2687 55.4985 44.262 52.5359 44.262 48.9017C44.262 45.2676 47.2687 42.3049 50.9984 42.3049C54.728 42.3049 57.7348 45.2676 57.7348 48.9017Z" fill="#FFDD7E" stroke="#0E74FF"/>
</g>
<defs>
<filter id="filter0_d_2317_7332" x="0" y="0" width="102" height="102" filterUnits="userSpaceOnUse" color-interpolation-filters="sRGB">
<feFlood flood-opacity="0" result="BackgroundImageFix"/>
<feColorMatrix in="SourceAlpha" type="matrix" values="0 0 0 0 0 0 0 0 0 0 0 0 0 0 0 0 0 0 127 0" result="hardAlpha"/>
<feOffset/>
<feGaussianBlur stdDeviation="7.5"/>
<feComposite in2="hardAlpha" operator="out"/>
<feColorMatrix type="matrix" values="0 0 0 0 0 0 0 0 0 0 0 0 0 0 0 0 0 0 0.08 0"/>
<feBlend mode="normal" in2="BackgroundImageFix" result="effect1_dropShadow_2317_7332"/>
<feBlend mode="normal" in="SourceGraphic" in2="effect1_dropShadow_2317_7332" result="shape"/>
</filter>
<filter id="filter1_d_2317_7332" x="0" y="0" width="102" height="102" filterUnits="userSpaceOnUse" color-interpolation-filters="sRGB">
<feFlood flood-opacity="0" result="BackgroundImageFix"/>
<feColorMatrix in="SourceAlpha" type="matrix" values="0 0 0 0 0 0 0 0 0 0 0 0 0 0 0 0 0 0 127 0" result="hardAlpha"/>
<feOffset/>
<feGaussianBlur stdDeviation="7.5"/>
<feComposite in2="hardAlpha" operator="out"/>
<feColorMatrix type="matrix" values="0 0 0 0 0 0 0 0 0 0 0 0 0 0 0 0 0 0 0.08 0"/>
<feBlend mode="normal" in2="BackgroundImageFix" result="effect1_dropShadow_2317_7332"/>
<feBlend mode="normal" in="SourceGraphic" in2="effect1_dropShadow_2317_7332" result="shape"/>
</filter>
<filter id="filter2_d_2317_7332" x="5.66699" y="2.45288" width="45" height="45" filterUnits="userSpaceOnUse" color-interpolation-filters="sRGB">
<feFlood flood-opacity="0" result="BackgroundImageFix"/>
<feColorMatrix in="SourceAlpha" type="matrix" values="0 0 0 0 0 0 0 0 0 0 0 0 0 0 0 0 0 0 127 0" result="hardAlpha"/>
<feOffset/>
<feGaussianBlur stdDeviation="7.5"/>
<feComposite in2="hardAlpha" operator="out"/>
<feColorMatrix type="matrix" values="0 0 0 0 0 0 0 0 0 0 0 0 0 0 0 0 0 0 0.08 0"/>
<feBlend mode="normal" in2="BackgroundImageFix" result="effect1_dropShadow_2317_7332"/>
<feBlend mode="normal" in="SourceGraphic" in2="effect1_dropShadow_2317_7332" result="shape"/>
</filter>
<clipPath id="clip0_2317_7332">
<rect width="14.4761" height="19.3561" fill="white" transform="translate(43.762 41.8049)"/>
</clipPath>
</defs>
</svg>
