<svg width="14" height="13" viewBox="0 0 14 13" fill="none" xmlns="http://www.w3.org/2000/svg">
<rect x="0.5" width="13" height="13" rx="3" fill="#FFA800"/>
<path d="M9.124 8.984C9.124 9.112 9.10533 9.21867 9.068 9.304C9.03067 9.38933 8.98 9.456 8.916 9.504C8.852 9.55733 8.78 9.59467 8.7 9.616C8.62 9.64267 8.53733 9.656 8.452 9.656C8.276 9.656 8.11867 9.62667 7.98 9.568C7.84133 9.51467 7.732 9.42667 7.652 9.304L5.492 6.032V9.04C5.492 9.25867 5.42267 9.416 5.284 9.512C5.14533 9.608 4.99067 9.656 4.82 9.656C4.72933 9.656 4.64133 9.64267 4.556 9.616C4.47067 9.59467 4.39333 9.55733 4.324 9.504C4.26 9.456 4.20667 9.392 4.164 9.312C4.12667 9.23733 4.108 9.14667 4.108 9.04V4.152C4.108 4.088 4.12133 4.024 4.148 3.96C4.18 3.896 4.22533 3.83733 4.284 3.784C4.34267 3.72533 4.41467 3.68 4.5 3.648C4.59067 3.61067 4.69733 3.592 4.82 3.592C4.932 3.592 5.03067 3.6 5.116 3.616C5.20133 3.632 5.27867 3.66133 5.348 3.704C5.41733 3.74133 5.484 3.79467 5.548 3.864C5.612 3.93333 5.67867 4.02133 5.748 4.128L7.74 7.192V4.184C7.74 3.98133 7.812 3.832 7.956 3.736C8.10533 3.64 8.27067 3.592 8.452 3.592C8.53733 3.592 8.62 3.60533 8.7 3.632C8.78 3.65333 8.852 3.688 8.916 3.736C8.98 3.784 9.03067 3.84533 9.068 3.92C9.10533 3.99467 9.124 4.08267 9.124 4.184V8.984Z" fill="white"/>
</svg>
