<svg width="21" height="21" viewBox="0 0 21 21" fill="none" xmlns="http://www.w3.org/2000/svg">
<rect x="0.5" y="0.5" width="20" height="20" rx="4.5" fill="white" stroke="#F0F0F0"/>
<g clip-path="url(#clip0_889:6695)">
<path d="M10.7647 5.58823V4.42999C10.7647 4.13881 10.4153 3.99646 10.2147 4.20352L8.40296 6.00881C8.27355 6.13823 8.27355 6.33881 8.40296 6.46823L10.2083 8.27352C10.4153 8.47411 10.7647 8.33176 10.7647 8.04058V6.88234C12.9065 6.88234 14.6471 8.62293 14.6471 10.7647C14.6471 11.2759 14.55 11.7741 14.3624 12.2206C14.2653 12.4535 14.3365 12.7188 14.5112 12.8935C14.8412 13.2235 15.3977 13.107 15.5724 12.6735C15.8118 12.0847 15.9412 11.4376 15.9412 10.7647C15.9412 7.9047 13.6247 5.58823 10.7647 5.58823ZM10.7647 14.647C8.62296 14.647 6.88237 12.9065 6.88237 10.7647C6.88237 10.2535 6.97943 9.75529 7.16708 9.30881C7.26414 9.07587 7.19296 8.81058 7.01826 8.63587C6.68826 8.30587 6.13179 8.42234 5.95708 8.85587C5.71767 9.4447 5.58826 10.0918 5.58826 10.7647C5.58826 13.6247 7.90473 15.9412 10.7647 15.9412V17.0994C10.7647 17.3906 11.1141 17.5329 11.3147 17.3259L13.12 15.5206C13.2494 15.3912 13.2494 15.1906 13.12 15.0612L11.3147 13.2559C11.1141 13.0553 10.7647 13.1976 10.7647 13.4888V14.647Z" fill="#CACACA"/>
</g>
<defs>
<clipPath id="clip0_889:6695">
<rect width="15.5294" height="15.5294" fill="white" transform="translate(3 3)"/>
</clipPath>
</defs>
</svg>
