<svg width="20" height="19" viewBox="0 0 20 19" fill="none" xmlns="http://www.w3.org/2000/svg">
<path fill-rule="evenodd" clip-rule="evenodd" d="M3.35255 7.06337C3.33535 7.27272 3.40641 7.47997 3.55008 7.63954C3.69373 7.79912 3.89824 7.89795 4.11859 7.91428C4.33895 7.93061 4.55711 7.86311 4.72508 7.72662L9.16675 4.10079V13.4583C9.16675 13.8955 9.53984 14.25 10.0001 14.25C10.4603 14.25 10.8334 13.8955 10.8334 13.4583V4.10079L15.3084 7.72662C15.6582 8.01082 16.1843 7.97183 16.4834 7.63954C16.7826 7.30724 16.7415 6.80748 16.3917 6.52329L10.5584 1.77329C10.5169 1.74493 10.4722 1.72103 10.4251 1.70204L10.3251 1.6387C10.1271 1.56379 9.90641 1.56379 9.70841 1.6387L9.60841 1.70204C9.56133 1.72103 9.51661 1.74493 9.47508 1.77329L3.64175 6.52329C3.47377 6.65976 3.36974 6.85403 3.35255 7.06337ZM16.6667 14.2499C16.6667 13.8127 17.0398 13.4582 17.5001 13.4582C17.9603 13.4582 18.3334 13.8127 18.3334 14.2499V15.8332C18.2579 16.7669 17.4091 17.4711 16.4251 17.4165H3.57508C2.59104 17.4711 1.7423 16.7669 1.66675 15.8332V14.2499C1.66675 13.8127 2.03984 13.4582 2.50008 13.4582C2.96032 13.4582 3.33341 13.8127 3.33341 14.2499V15.7778C3.40751 15.816 3.49082 15.8351 3.57508 15.8332H16.4251C16.5093 15.8351 16.5927 15.816 16.6667 15.7778V14.2499Z" fill="#5B5B5B"/>
</svg>
