<svg width="22" height="22" viewBox="0 0 22 22" fill="none" xmlns="http://www.w3.org/2000/svg">
<path fill-rule="evenodd" clip-rule="evenodd" d="M3.68739 8.17877C3.66848 8.42117 3.74664 8.66114 3.90467 8.84591C4.06269 9.03069 4.28764 9.14512 4.53004 9.16403C4.77243 9.18294 5.01241 9.10478 5.19717 8.94674L10.083 4.74841V15.5834C10.083 16.0897 10.4934 16.5001 10.9997 16.5001C11.5059 16.5001 11.9163 16.0897 11.9163 15.5834V4.74841L16.8388 8.94674C17.2236 9.27581 17.8023 9.23067 18.1313 8.84591C18.4604 8.46115 18.4153 7.88248 18.0305 7.55341L11.6138 2.05341C11.5682 2.02057 11.519 1.9929 11.4672 1.97091L11.3572 1.89757C11.1394 1.81083 10.8966 1.81083 10.6788 1.89757L10.5688 1.97091C10.5171 1.9929 10.4679 2.02057 10.4222 2.05341L4.00551 7.55341C3.82073 7.71143 3.7063 7.93638 3.68739 8.17877ZM18.333 16.5C18.333 15.9937 18.7434 15.5833 19.2497 15.5833C19.7559 15.5833 20.1663 15.9937 20.1663 16.5V18.3333C20.0832 19.4144 19.1496 20.2298 18.0672 20.1667H3.93217C2.84973 20.2298 1.91611 19.4144 1.83301 18.3333V16.5C1.83301 15.9937 2.24341 15.5833 2.74967 15.5833C3.25594 15.5833 3.66634 15.9937 3.66634 16.5V18.2692C3.74784 18.3134 3.83948 18.3355 3.93217 18.3333H18.0672C18.1599 18.3355 18.2515 18.3134 18.333 18.2692V16.5Z" fill="#5B5B5B"/>
</svg>
