<svg width="24" height="24" viewBox="0 0 24 24" fill="none" xmlns="http://www.w3.org/2000/svg">
<path fill-rule="evenodd" clip-rule="evenodd" d="M18.7074 5.29289C19.0979 5.68342 19.0979 6.31658 18.7074 6.70711L13.4145 12L18.7074 17.2929C19.0979 17.6834 19.0979 18.3166 18.7074 18.7071C18.3169 19.0976 17.6837 19.0976 17.2932 18.7071L10.5861 12L17.2932 5.29289C17.6837 4.90237 18.3169 4.90237 18.7074 5.29289Z" fill="#5B5B5B"/>
<path fill-rule="evenodd" clip-rule="evenodd" d="M5.29289 5.29289C4.90237 5.68342 4.90237 6.31658 5.29289 6.70711L10.5861 12L5.29289 17.2929C4.90237 17.6834 4.90237 18.3166 5.29289 18.7071C5.68342 19.0976 6.31658 19.0976 6.70711 18.7071L13.4145 12L6.70711 5.29289C6.31658 4.90237 5.68342 4.90237 5.29289 5.29289Z" fill="#5B5B5B"/>
</svg>
