<svg width="19" height="25" viewBox="0 0 19 25" fill="none" xmlns="http://www.w3.org/2000/svg">
<g clip-path="url(#clip0_2555_8749)">
<path d="M6.03009 24.3386L9.03009 22.072C9.13795 21.9924 9.26966 21.9492 9.40509 21.9492C9.54053 21.9492 9.67224 21.9924 9.78009 22.072L13.0101 24.397C13.1084 24.4623 13.2236 24.4996 13.3426 24.5047C13.4616 24.5098 13.5797 24.4825 13.6836 24.4259C13.7875 24.3693 13.8731 24.2856 13.9308 24.1843C13.9885 24.0829 14.0159 23.9679 14.0101 23.8522V16.4398C14.0141 16.3546 14.0007 16.2696 13.9706 16.1896C13.9405 16.1095 13.8942 16.0362 13.8347 15.9737C13.7751 15.9112 13.7034 15.8609 13.6236 15.8257C13.5438 15.7905 13.4577 15.771 13.3701 15.7686H5.6601C5.5721 15.7711 5.48545 15.7904 5.40515 15.8255C5.32485 15.8606 5.25245 15.9108 5.19208 15.9731C5.13171 16.0355 5.08458 16.1088 5.05335 16.1888C5.02212 16.2689 5.00741 16.3542 5.01007 16.4398V23.8036C5.00717 23.9202 5.03754 24.0354 5.09778 24.1363C5.15802 24.2373 5.24578 24.32 5.35138 24.3754C5.45698 24.4308 5.57632 24.4567 5.69611 24.4502C5.8159 24.4437 5.93148 24.4051 6.03009 24.3386Z" fill="#0E74FF" stroke="#0E74FF" stroke-miterlimit="10"/>
<path d="M9.5 17.9961C14.4706 17.9961 18.5 14.0764 18.5 9.24119C18.5 4.40601 14.4706 0.486328 9.5 0.486328C4.52944 0.486328 0.5 4.40601 0.5 9.24119C0.5 14.0764 4.52944 17.9961 9.5 17.9961Z" fill="#FFDD7E"/>
<path d="M9.5 17.9961C14.4706 17.9961 18.5 14.0764 18.5 9.24119C18.5 4.40601 14.4706 0.486328 9.5 0.486328C4.52944 0.486328 0.5 4.40601 0.5 9.24119C0.5 14.0764 4.52944 17.9961 9.5 17.9961Z" stroke="#0E74FF" stroke-miterlimit="10"/>
<path d="M10.5098 5.77832V12.9379H9.13983V6.89702H7.58984V5.77832H10.5098Z" fill="#0E74FF"/>
</g>
<defs>
<clipPath id="clip0_2555_8749">
<rect width="19" height="25" fill="white"/>
</clipPath>
</defs>
</svg>
