<svg width="19" height="25" viewBox="0 0 19 25" fill="none" xmlns="http://www.w3.org/2000/svg">
<g clip-path="url(#clip0_2555_8772)">
<path d="M6.02981 24.3386L9.02981 22.072C9.13766 21.9924 9.26937 21.9492 9.40481 21.9492C9.54024 21.9492 9.67195 21.9924 9.77981 22.072L13.0098 24.397C13.1082 24.4623 13.2233 24.4996 13.3423 24.5047C13.4613 24.5098 13.5794 24.4825 13.6833 24.4259C13.7872 24.3693 13.8728 24.2856 13.9305 24.1843C13.9882 24.0829 14.0156 23.9679 14.0098 23.8522V16.4398C14.0152 16.2685 13.9512 16.1021 13.8314 15.9764C13.7116 15.8508 13.5458 15.7761 13.3698 15.7686H5.65981C5.57182 15.7711 5.48517 15.7904 5.40487 15.8255C5.32457 15.8606 5.25216 15.9108 5.1918 15.9731C5.13143 16.0355 5.08429 16.1088 5.05306 16.1888C5.02183 16.2689 5.00712 16.3542 5.00979 16.4398V23.8036C5.003 23.9216 5.03092 24.0392 5.09029 24.1424C5.14967 24.2456 5.23804 24.3302 5.34506 24.3863C5.45207 24.4425 5.57334 24.4678 5.6946 24.4593C5.81587 24.4509 5.93212 24.409 6.02981 24.3386Z" fill="#0E74FF" stroke="#0E74FF" stroke-miterlimit="10"/>
<path d="M9.5 17.9961C14.4706 17.9961 18.5 14.0764 18.5 9.24119C18.5 4.40601 14.4706 0.486328 9.5 0.486328C4.52944 0.486328 0.5 4.40601 0.5 9.24119C0.5 14.0764 4.52944 17.9961 9.5 17.9961Z" fill="#F1F1F1"/>
<path d="M9.5 17.9961C14.4706 17.9961 18.5 14.0764 18.5 9.24119C18.5 4.40601 14.4706 0.486328 9.5 0.486328C4.52944 0.486328 0.5 4.40601 0.5 9.24119C0.5 14.0764 4.52944 17.9961 9.5 17.9961Z" stroke="#0E74FF" stroke-miterlimit="10"/>
<path d="M12.23 11.673V12.8014H6.81V11.9162L9.72998 9.21191C9.996 8.98284 10.2222 8.71351 10.4 8.41427C10.5115 8.20369 10.5698 7.97023 10.5699 7.73332C10.5802 7.58815 10.5547 7.44271 10.4956 7.30905C10.4365 7.17539 10.3454 7.05737 10.23 6.96483C9.93609 6.77042 9.58493 6.67477 9.22998 6.69246C8.90126 6.67523 8.57303 6.73416 8.27228 6.86437C7.97152 6.99459 7.70685 7.19239 7.5 7.44151L6.5 6.73138C6.79611 6.34092 7.1976 6.0379 7.65997 5.8559C8.17421 5.64006 8.73002 5.53391 9.28998 5.54461C9.97464 5.51187 10.6508 5.7037 11.21 6.08935C11.4409 6.26951 11.6253 6.49964 11.7486 6.76142C11.8719 7.0232 11.9306 7.3094 11.92 7.59715C11.9239 7.97419 11.8383 8.34701 11.67 8.68664C11.4133 9.13225 11.0743 9.52796 10.67 9.85394L8.66998 11.673H12.23Z" fill="#0E74FF"/>
</g>
<defs>
<clipPath id="clip0_2555_8772">
<rect width="19" height="25" fill="white"/>
</clipPath>
</defs>
</svg>
