<svg width="34" height="34" viewBox="0 0 34 34" fill="none" xmlns="http://www.w3.org/2000/svg">
<circle cx="17" cy="17" r="17" fill="#ECECEC"/>
<path fill-rule="evenodd" clip-rule="evenodd" d="M23.7074 10.2929C24.0979 10.6834 24.0979 11.3166 23.7074 11.7071L18.4145 17L23.7074 22.2929C24.0979 22.6834 24.0979 23.3166 23.7074 23.7071C23.3169 24.0976 22.6837 24.0976 22.2932 23.7071L15.5861 17L22.2932 10.2929C22.6837 9.90237 23.3169 9.90237 23.7074 10.2929Z" fill="#7C7C7C"/>
<path fill-rule="evenodd" clip-rule="evenodd" d="M10.2929 10.2929C9.90237 10.6834 9.90237 11.3166 10.2929 11.7071L15.5861 17L10.2929 22.2929C9.90237 22.6834 9.90237 23.3166 10.2929 23.7071C10.6834 24.0976 11.3166 24.0976 11.7071 23.7071L18.4145 17L11.7071 10.2929C11.3166 9.90237 10.6834 9.90237 10.2929 10.2929Z" fill="#7C7C7C"/>
</svg>
