<svg width="21" height="21" viewBox="0 0 21 21" fill="none" xmlns="http://www.w3.org/2000/svg">
<path fill-rule="evenodd" clip-rule="evenodd" d="M15.75 16.625V14C15.75 13.5168 15.3582 13.125 14.875 13.125C14.3918 13.125 14 13.5168 14 14V16.625C14 17.1082 13.6082 17.5 13.125 17.5H4.375C3.89175 17.5 3.5 17.1082 3.5 16.625V4.375C3.5 3.89175 3.89175 3.5 4.375 3.5H13.125C13.6082 3.5 14 3.89175 14 4.375V7C14 7.48325 14.3918 7.875 14.875 7.875C15.3582 7.875 15.75 7.48325 15.75 7V4.375C15.75 2.92525 14.5747 1.75 13.125 1.75H4.375C2.92525 1.75 1.75 2.92525 1.75 4.375V16.625C1.75 18.0747 2.92525 19.25 4.375 19.25H13.125C14.5747 19.25 15.75 18.0747 15.75 16.625ZM17.2463 8.12875L18.9963 9.87875C19.1619 10.043 19.2551 10.2667 19.2551 10.5C19.2551 10.7333 19.1619 10.9569 18.9963 11.1212L17.2463 12.8712C17.082 13.0369 16.8583 13.1301 16.625 13.1301C16.3917 13.1301 16.168 13.0369 16.0038 12.8712C15.8381 12.7069 15.7449 12.4833 15.7449 12.25C15.7449 12.0167 15.8381 11.793 16.0038 11.6287L16.2663 11.375H10.5C10.0168 11.375 9.625 10.9832 9.625 10.5C9.625 10.0167 10.0168 9.625 10.5 9.625H16.2663L16.0038 9.37125C15.6606 9.02814 15.6606 8.47185 16.0038 8.12875C16.3469 7.78564 16.9031 7.78564 17.2463 8.12875Z" fill="white"/>
</svg>
