<svg width="12" height="12" viewBox="0 0 12 12" fill="none" xmlns="http://www.w3.org/2000/svg">
<circle cx="6" cy="6" r="6" fill="#D1D1D1"/>
<path fill-rule="evenodd" clip-rule="evenodd" d="M5.33501 7.72488L8.26751 4.79238C8.46817 4.60541 8.55076 4.32383 8.4829 4.05809C8.41503 3.79236 8.20754 3.58486 7.9418 3.517C7.67607 3.44913 7.39448 3.53173 7.20751 3.73238L4.26751 6.67238C4.24871 6.69171 4.23272 6.71359 4.22001 6.73738L3.52501 8.13988C3.48701 8.21745 3.49173 8.30913 3.53751 8.38238C3.58329 8.45563 3.66364 8.50005 3.75001 8.49988C3.79126 8.49891 3.83163 8.48774 3.86751 8.46738L5.27001 7.77238C5.2938 7.75967 5.31568 7.74368 5.33501 7.72488ZM8.24999 8.49991C8.38806 8.49991 8.49999 8.38798 8.49999 8.24991C8.49999 8.11184 8.38806 7.99991 8.24999 7.99991H5.99999C5.86192 7.99991 5.74999 8.11184 5.74999 8.24991C5.74999 8.38798 5.86192 8.49991 5.99999 8.49991H8.24999ZM7.08009 5.27235L6.72759 4.91985L4.65759 6.99985L4.31009 7.69985L5.00009 7.34235L7.08009 5.27235ZM7.74137 3.99952C7.8099 3.99952 7.87542 4.02765 7.92262 4.07734C7.97134 4.12555 7.99812 4.19166 7.99671 4.2602C7.99529 4.32873 7.96579 4.39367 7.91512 4.43983L7.43262 4.91983L7.08012 4.56734L7.56012 4.07734C7.60732 4.02765 7.67284 3.99952 7.74137 3.99952Z" fill="white"/>
</svg>
