<svg width="21" height="21" viewBox="0 0 21 21" fill="none" xmlns="http://www.w3.org/2000/svg">
<path d="M18.3749 10.5002C18.3805 14.1294 15.9052 17.2924 12.3811 18.1594C8.85698 19.0263 5.19675 17.3726 3.51802 14.1551C1.83929 10.9375 2.57682 6.98934 5.30391 4.59479C8.03101 2.20025 12.0414 1.97947 15.0149 4.06019L14.9186 3.78019C14.764 3.30902 15.0206 2.80171 15.4917 2.64707C15.9629 2.49243 16.4702 2.74902 16.6249 3.22019L17.4999 5.84519C17.5879 6.11213 17.5423 6.4051 17.3774 6.63269C17.2052 6.87507 16.9218 7.01347 16.6249 7.00019H13.9999C13.5166 7.00019 13.1249 6.60844 13.1249 6.12519C13.1314 5.7452 13.3824 5.41285 13.7461 5.30269C11.3787 3.82303 8.31018 4.13153 6.28465 6.05286C4.25912 7.97418 3.78914 11.0221 5.14183 13.4643C6.49451 15.9066 9.32754 17.1251 12.0307 16.4273C14.734 15.7295 16.6233 13.292 16.6249 10.5002C16.6249 10.0169 17.0166 9.62519 17.4999 9.62519C17.9831 9.62519 18.3749 10.0169 18.3749 10.5002Z" fill="white"/>
</svg>
