<svg width="19" height="25" viewBox="0 0 19 25" fill="none" xmlns="http://www.w3.org/2000/svg">
<g clip-path="url(#clip0_2555_8773)">
<path d="M6.02991 24.3386L9.02991 22.072C9.13776 21.9924 9.26947 21.9492 9.40491 21.9492C9.54034 21.9492 9.67206 21.9924 9.77991 22.072L13.0099 24.397C13.1083 24.4623 13.2234 24.4996 13.3424 24.5047C13.4614 24.5098 13.5794 24.4825 13.6834 24.4259C13.7873 24.3693 13.8729 24.2856 13.9305 24.1843C13.9882 24.0829 14.0157 23.9679 14.0099 23.8522V16.4398C14.0126 16.3542 13.9978 16.2689 13.9666 16.1888C13.9354 16.1088 13.8882 16.0355 13.8279 15.9731C13.7675 15.9108 13.6951 15.8606 13.6148 15.8255C13.5345 15.7904 13.4479 15.7711 13.3599 15.7686H5.68988C5.60188 15.7711 5.51524 15.7904 5.43494 15.8255C5.35464 15.8606 5.28223 15.9108 5.22186 15.9731C5.1615 16.0355 5.11436 16.1088 5.08313 16.1888C5.0519 16.2689 5.03719 16.3542 5.03986 16.4398V23.8036C5.03726 23.9169 5.06653 24.0288 5.12451 24.1272C5.1825 24.2255 5.26701 24.3066 5.3689 24.3617C5.47079 24.4168 5.58622 24.4437 5.7027 24.4396C5.81918 24.4356 5.93234 24.4006 6.02991 24.3386Z" fill="#0E74FF" stroke="#0E74FF" stroke-miterlimit="10"/>
<path d="M9.5 17.9961C14.4706 17.9961 18.5 14.0764 18.5 9.24119C18.5 4.40601 14.4706 0.486328 9.5 0.486328C4.52944 0.486328 0.5 4.40601 0.5 9.24119C0.5 14.0764 4.52944 17.9961 9.5 17.9961Z" fill="#F0E2DA"/>
<path d="M9.5 17.9961C14.4706 17.9961 18.5 14.0764 18.5 9.24119C18.5 4.40601 14.4706 0.486328 9.5 0.486328C4.52944 0.486328 0.5 4.40601 0.5 9.24119C0.5 14.0764 4.52944 17.9961 9.5 17.9961Z" stroke="#0E74FF" stroke-miterlimit="10"/>
<path d="M11.5902 9.27042C11.95 9.64385 12.144 10.1401 12.1302 10.6518C12.135 11.0541 12.0204 11.4493 11.8002 11.7899C11.5585 12.1513 11.2098 12.4328 10.8002 12.5973C10.2967 12.8129 9.74999 12.9159 9.2002 12.8988C8.68531 12.9028 8.17277 12.8307 7.68018 12.6848C7.22783 12.5582 6.80386 12.3504 6.43018 12.072L7.0202 11.0409C7.31578 11.2745 7.65549 11.4496 8.0202 11.5564C8.3999 11.6838 8.79855 11.7496 9.2002 11.751C9.60547 11.7731 10.0077 11.671 10.3502 11.4591C10.4789 11.3676 10.5833 11.2475 10.6547 11.1087C10.726 10.97 10.7622 10.8166 10.7602 10.6615C10.7663 10.5105 10.734 10.3604 10.6659 10.2246C10.5978 10.0888 10.4962 9.97154 10.3702 9.88326C10.0054 9.67249 9.58352 9.57416 9.16016 9.60118H8.49017V8.68678L10.1602 6.74126H6.82019V5.62256H11.8202V6.51751L10.0402 8.57977C10.6238 8.62702 11.1722 8.87133 11.5902 9.27042Z" fill="#0E74FF"/>
</g>
<defs>
<clipPath id="clip0_2555_8773">
<rect width="19" height="25" fill="white"/>
</clipPath>
</defs>
</svg>
