<svg width="40" height="23" viewBox="0 0 40 23" fill="none" xmlns="http://www.w3.org/2000/svg">
<path d="M4.58012 13.711C4.39704 13.5606 4.24908 13.3718 4.14669 13.1578C4.0443 12.9438 3.99 12.7098 3.98755 12.4724C4.06157 11.922 4.34696 11.4224 4.78281 11.08C5.21867 10.7375 5.77054 10.5795 6.3209 10.6394C6.98071 10.6256 7.62086 10.8649 8.11096 11.3082" fill="#E3EFFF"/>
<path d="M4.58012 13.711C4.39704 13.5606 4.24908 13.3718 4.14669 13.1578C4.0443 12.9438 3.99 12.7098 3.98755 12.4724C4.06157 11.922 4.34696 11.4224 4.78281 11.08C5.21867 10.7375 5.77054 10.5795 6.3209 10.6394C6.98071 10.6256 7.62086 10.8649 8.11096 11.3082" stroke="#0054C7" stroke-linecap="round" stroke-linejoin="round"/>
<path d="M35.4074 13.711C35.5921 13.5612 35.7419 13.3728 35.8464 13.1588C35.9509 12.9449 36.0076 12.7106 36.0123 12.4724C35.9383 11.922 35.6529 11.4224 35.2171 11.08C34.7812 10.7375 34.2293 10.5795 33.679 10.6394C33.3828 10.6593 33.0946 10.7438 32.8344 10.8872C32.5743 11.0305 32.3485 11.2292 32.1729 11.4693" fill="#E3EFFF"/>
<path d="M35.4074 13.711C35.5921 13.5612 35.7419 13.3728 35.8464 13.1588C35.9509 12.9449 36.0076 12.7106 36.0123 12.4724C35.9383 11.922 35.6529 11.4224 35.2171 11.08C34.7812 10.7375 34.2293 10.5795 33.679 10.6394C33.3828 10.6593 33.0946 10.7438 32.8344 10.8872C32.5743 11.0305 32.3485 11.2292 32.1729 11.4693" stroke="#0054C7" stroke-linecap="round" stroke-linejoin="round"/>
<path d="M25.7777 22.3806H39.3579C39.2612 20.0785 38.5382 17.847 37.2672 15.9279C35.9963 14.0088 34.2259 12.4752 32.1481 11.4936C32.7518 10.8858 33.2278 10.1628 33.548 9.36711C33.8682 8.57145 34.0261 7.71936 34.0123 6.86142C33.9684 5.26244 33.3271 3.7385 32.2158 2.59148C31.1044 1.44446 29.6043 0.758099 28.0123 0.668633C27.1514 0.621514 26.2899 0.750893 25.4805 1.04888C24.6711 1.34686 23.9307 1.80729 23.3045 2.40189C22.6783 2.99648 22.1795 3.71279 21.8384 4.50722C21.4974 5.30165 21.3213 6.15746 21.3209 7.02244C21.3223 8.46443 21.8145 9.86279 22.716 10.9859C21.0319 10.4366 19.2114 10.4803 17.5554 11.1097" fill="#E3EFFF"/>
<path d="M25.7777 22.3806H39.3579C39.2612 20.0785 38.5382 17.847 37.2672 15.9279C35.9963 14.0088 34.2259 12.4752 32.1481 11.4936C32.7518 10.8858 33.2278 10.1628 33.548 9.36711C33.8682 8.57145 34.0261 7.71936 34.0123 6.86142C33.9684 5.26244 33.3271 3.7385 32.2158 2.59148C31.1044 1.44446 29.6043 0.758099 28.0123 0.668633C27.1514 0.621514 26.2899 0.750893 25.4805 1.04888C24.6711 1.34686 23.9307 1.80729 23.3045 2.40189C22.6783 2.99648 22.1795 3.71279 21.8384 4.50722C21.4974 5.30165 21.3213 6.15746 21.3209 7.02244C21.3223 8.46443 21.8145 9.86279 22.716 10.9859C21.0319 10.4366 19.2114 10.4803 17.5554 11.1097" stroke="#0054C7" stroke-linecap="round" stroke-linejoin="round"/>
<path d="M14.21 22.3804H25.8026" stroke="#0054C7" stroke-linecap="round" stroke-linejoin="round"/>
<path d="M17.5801 11.0727C18.1185 10.4296 18.5244 9.68582 18.7745 8.88435C19.0245 8.08287 19.1138 7.23957 19.037 6.4033C18.8508 4.96705 18.2048 3.63025 17.1963 2.59389C16.1878 1.55754 14.8711 0.877624 13.4444 0.65638C12.556 0.55517 11.6564 0.643441 10.8045 0.91537C9.95252 1.1873 9.1674 1.6368 8.50067 2.23436C7.83393 2.83192 7.30062 3.56401 6.93561 4.38278C6.5706 5.20156 6.38218 6.08846 6.38267 6.98539C6.37708 8.61384 7.00095 10.1811 8.12331 11.3575C5.97264 12.3108 4.13034 13.848 2.80405 15.7957C1.47777 17.7435 0.720317 20.0242 0.617188 22.3807H25.8024C25.6938 19.8931 24.8556 17.4931 23.3929 15.4814C21.9303 13.4698 19.9081 11.9361 17.5801 11.0727V11.0727Z" fill="#E3EFFF" stroke="#0054C7" stroke-linecap="round" stroke-linejoin="round"/>
<path d="M10.2716 7.62952C10.7216 7.62952 11.0864 7.26354 11.0864 6.81208C11.0864 6.36061 10.7216 5.99463 10.2716 5.99463C9.82159 5.99463 9.45679 6.36061 9.45679 6.81208C9.45679 7.26354 9.82159 7.62952 10.2716 7.62952Z" fill="#0054C7"/>
<path d="M15.2223 7.62952C15.6723 7.62952 16.0371 7.26354 16.0371 6.81208C16.0371 6.36061 15.6723 5.99463 15.2223 5.99463C14.7723 5.99463 14.4075 6.36061 14.4075 6.81208C14.4075 7.26354 14.7723 7.62952 15.2223 7.62952Z" fill="#0054C7"/>
<path d="M13.7283 8.70722C13.43 8.91115 13.077 9.01915 12.716 9.01686C12.3422 9.01607 11.9768 8.90398 11.6665 8.69482" stroke="#0054C7" stroke-linecap="round" stroke-linejoin="round"/>
<path d="M25.3087 7.62952C25.7587 7.62952 26.1235 7.26354 26.1235 6.81208C26.1235 6.36061 25.7587 5.99463 25.3087 5.99463C24.8587 5.99463 24.4939 6.36061 24.4939 6.81208C24.4939 7.26354 24.8587 7.62952 25.3087 7.62952Z" fill="#0054C7"/>
<path d="M30.2594 7.62952C30.7094 7.62952 31.0742 7.26354 31.0742 6.81208C31.0742 6.36061 30.7094 5.99463 30.2594 5.99463C29.8094 5.99463 29.4446 6.36061 29.4446 6.81208C29.4446 7.26354 29.8094 7.62952 30.2594 7.62952Z" fill="#0054C7"/>
<path d="M28.7778 8.70722C28.474 8.90935 28.1175 9.01707 27.753 9.01686C27.3793 9.0146 27.0146 8.90264 26.7036 8.69482" stroke="#0054C7" stroke-linecap="round" stroke-linejoin="round"/>
</svg>
