<svg width="24" height="32" viewBox="0 0 24 32" fill="none" xmlns="http://www.w3.org/2000/svg">
<g clip-path="url(#clip0_970:2191)">
<path d="M20.3588 9.20846e-08H16.627C16.5266 -5.85002e-05 16.4283 0.0278451 16.3428 0.0806036C16.2573 0.133362 16.1881 0.208906 16.1428 0.298829L11.8814 8.68629C11.8346 8.78038 11.8134 8.88526 11.82 8.99025C11.8267 9.09524 11.8609 9.19658 11.9193 9.28395L14.0121 12.3659L14.05 12.4318L15.7696 15.8151C15.8362 15.944 15.8527 16.0932 15.8159 16.2336C15.7791 16.374 15.6916 16.4956 15.5704 16.5749L12.7665 18.4134C12.6853 18.4669 12.6187 18.5398 12.5726 18.6255C12.5265 18.7113 12.5023 18.8072 12.5023 18.9047C12.5023 19.0022 12.5265 19.0981 12.5726 19.1839C12.6187 19.2697 12.6853 19.3426 12.7665 19.396L13.5103 19.8848C13.5791 19.9296 13.6564 19.9594 13.7373 19.9724C13.8182 19.9853 13.901 19.981 13.9801 19.9597C14.0593 19.9385 14.1331 19.9007 14.1968 19.849C14.2606 19.7973 14.3127 19.7327 14.35 19.6594L23.9319 0.866097C23.9778 0.776779 24 0.67708 23.9964 0.576618C23.9928 0.476156 23.9635 0.378321 23.9113 0.29255C23.8591 0.206778 23.7858 0.135964 23.6984 0.086939C23.611 0.0379143 23.5125 0.0123337 23.4124 0.0126631L20.3588 9.20846e-08Z" fill="#F39E6E"/>
<path d="M15.6179 16.5394C15.729 16.4674 15.8093 16.3564 15.8433 16.2282C15.8774 16.0999 15.8626 15.9635 15.802 15.8455L14.0369 12.3887L12.0197 8.42292L7.88691 0.296298C7.84107 0.207032 7.77165 0.132162 7.68626 0.0798978C7.60086 0.0276332 7.50278 -9.4465e-06 7.40278 1.45201e-06H0.541672C0.449922 -0.000212834 0.359658 0.0232945 0.279572 0.0682598C0.199487 0.113225 0.132275 0.178135 0.0844009 0.256744C0.0365269 0.335353 0.00960277 0.425013 0.00622233 0.517098C0.0028419 0.609183 0.0231212 0.700592 0.0651016 0.782528L9.70746 19.71C9.74187 19.7769 9.78983 19.8358 9.84827 19.8829C9.9067 19.9301 9.97431 19.9644 10.0467 19.9837C10.1192 20.0031 10.1948 20.0069 10.2689 19.9951C10.3429 19.9833 10.4136 19.9561 10.4765 19.9152L12.9981 18.264L15.6179 16.5394Z" fill="#F39E6E"/>
<path d="M22.1063 22.0855C22.1063 23.3871 21.851 24.676 21.355 25.8786C20.859 27.0812 20.1321 28.1739 19.2156 29.0943C18.2992 30.0147 17.2112 30.7448 16.0138 31.243C14.8164 31.7411 13.533 31.9975 12.237 31.9975C9.61947 31.9975 7.10918 30.9532 5.25833 29.0943C3.40747 27.2354 2.36768 24.7143 2.36768 22.0855C2.36768 19.4566 3.40747 16.9355 5.25833 15.0766C7.10918 13.2178 9.61947 12.1735 12.237 12.1735C14.8545 12.1735 17.3648 13.2178 19.2156 15.0766C21.0665 16.9355 22.1063 19.4566 22.1063 22.0855V22.0855Z" fill="#F0DED3"/>
<path d="M9.40027 23.0984H10.951C10.9762 23.6455 11.5108 24.0127 12.2118 24.0127C12.9128 24.0127 13.4726 23.6024 13.4726 22.9997C13.4726 22.397 12.9405 21.9664 12.0706 21.9664H11.3847V20.8268H12.0882C12.822 20.8268 13.3313 20.4267 13.3288 19.8392C13.3263 19.2517 12.8951 18.8845 12.2395 18.8845C11.5839 18.8845 11.0519 19.2517 11.0292 19.8215H9.55661C9.58182 18.5552 10.7291 17.6537 12.2471 17.6537C13.7651 17.6537 14.8165 18.573 14.809 19.7455C14.809 20.5787 14.2391 21.1713 13.4045 21.3207V21.3789C14.4938 21.5106 15.0939 22.1766 15.0863 23.1035C15.0863 24.3697 13.8911 25.289 12.2269 25.289C10.5627 25.289 9.42548 24.3925 9.40027 23.0984Z" fill="#F39E6E"/>
</g>
<defs>
<clipPath id="clip0_970:2191">
<rect width="24" height="32" fill="white"/>
</clipPath>
</defs>
</svg>
