<svg width="25" height="32" viewBox="0 0 25 32" fill="none" xmlns="http://www.w3.org/2000/svg">
<g clip-path="url(#clip0_970:2179)">
<path d="M21.2072 -9.55136e-05H17.3303C17.2249 -0.00110064 17.1213 0.0264443 17.0313 0.0794227C16.9412 0.132401 16.8683 0.208698 16.8208 0.299682L12.3792 8.71378C12.329 8.8078 12.3062 8.91324 12.3131 9.01883C12.32 9.12443 12.3565 9.22622 12.4186 9.31334L14.596 12.4051L14.6354 12.4712L16.4294 15.8653C16.4985 15.9948 16.5153 16.1447 16.4765 16.2856C16.4376 16.4265 16.3459 16.5483 16.2193 16.6274L13.2985 18.4718C13.2139 18.5254 13.1445 18.5986 13.0965 18.6846C13.0485 18.7706 13.0233 18.8669 13.0233 18.9647C13.0233 19.0624 13.0485 19.1587 13.0965 19.2447C13.1445 19.3308 13.2139 19.4039 13.2985 19.4575L14.0865 19.9478C14.158 19.9928 14.2386 20.0227 14.3229 20.0357C14.4072 20.0486 14.4933 20.0443 14.5758 20.023C14.6583 20.0017 14.7352 19.9638 14.8015 19.9119C14.8679 19.86 14.9223 19.7952 14.9611 19.7217L24.9422 0.868752C24.9901 0.77915 25.0132 0.679135 25.0095 0.578354C25.0057 0.477572 24.9752 0.379427 24.9208 0.293383C24.8664 0.207339 24.79 0.1363 24.699 0.0871194C24.608 0.0379391 24.5054 0.0122773 24.4011 0.0126077L21.2072 -9.55136e-05Z" fill="#EB5D0E"/>
<path d="M16.2583 16.5919C16.373 16.5189 16.4559 16.4076 16.4913 16.2792C16.5266 16.1509 16.512 16.0144 16.45 15.8958L14.6114 12.4281L12.5101 8.44967L8.20247 0.297239C8.15472 0.207689 8.08241 0.132582 7.99345 0.0801515C7.90449 0.027721 7.80233 -9.47649e-06 7.69816 1.45662e-06H0.551172C0.455599 -0.00021351 0.361578 0.0233684 0.278156 0.0684765C0.194734 0.113585 0.124721 0.178701 0.0748522 0.25756C0.0249834 0.336418 -0.00305858 0.426363 -0.00657987 0.51874C-0.0101012 0.611117 0.0110191 0.702816 0.0547487 0.785013L10.112 19.7726C10.1478 19.8397 10.1978 19.8988 10.2587 19.9461C10.3195 19.9934 10.39 20.0278 10.4654 20.0472C10.5409 20.0666 10.6197 20.0705 10.6968 20.0586C10.7739 20.0468 10.8476 20.0195 10.9131 19.9784L13.5397 18.322L16.2583 16.5919Z" fill="#EB5D0E"/>
<path d="M22.5584 21.9486C22.5577 24.5855 21.4744 27.1143 19.5465 28.9789C17.6187 30.8435 15.0042 31.8914 12.2779 31.892C9.552 31.8907 6.93819 30.8426 5.01093 28.978C3.08368 27.1135 2.0007 24.5851 2 21.9486C1.9993 19.3111 3.08168 16.7815 5.00908 14.9158C6.93649 13.0502 9.55109 12.0013 12.2779 12C13.6283 12.0003 14.9654 12.2579 16.2129 12.7581C17.4604 13.2582 18.5938 13.9911 19.5484 14.9149C20.503 15.8387 21.2602 16.9354 21.7767 18.1422C22.2931 19.349 22.5588 20.6424 22.5584 21.9486V21.9486Z" fill="#FFDD7E"/>
<path d="M13.9079 17.913V25.3617H12.3057V19.3864H12.2611L10.4907 20.4611V19.0841L12.4003 17.913H13.9079Z" fill="#EB5D0E"/>
</g>
<defs>
<clipPath id="clip0_970:2179">
<rect width="25" height="32" fill="white"/>
</clipPath>
</defs>
</svg>
