<svg width="21" height="21" viewBox="0 0 21 21" fill="none" xmlns="http://www.w3.org/2000/svg">
<rect width="21" height="21" fill="white"/>
<rect x="0.5" y="0.5" width="20" height="20" rx="4.5" fill="white" stroke="#F0F0F0"/>
<g clip-path="url(#clip0)">
<path d="M10.7646 5.58823V4.42999C10.7646 4.13881 10.4152 3.99646 10.2146 4.20352L8.40284 6.00881C8.27343 6.13823 8.27343 6.33881 8.40284 6.46823L10.2081 8.27352C10.4152 8.47411 10.7646 8.33176 10.7646 8.04058V6.88234C12.9064 6.88234 14.647 8.62293 14.647 10.7647C14.647 11.2759 14.5499 11.7741 14.3623 12.2206C14.2652 12.4535 14.3364 12.7188 14.5111 12.8935C14.8411 13.2235 15.3975 13.1071 15.5723 12.6735C15.8117 12.0847 15.9411 11.4376 15.9411 10.7647C15.9411 7.9047 13.6246 5.58823 10.7646 5.58823ZM10.7646 14.6471C8.62284 14.6471 6.88225 12.9065 6.88225 10.7647C6.88225 10.2535 6.97931 9.75529 7.16696 9.30881C7.26402 9.07587 7.19284 8.81058 7.01813 8.63587C6.68813 8.30587 6.13166 8.42234 5.95696 8.85587C5.71755 9.4447 5.58813 10.0918 5.58813 10.7647C5.58813 13.6247 7.9046 15.9412 10.7646 15.9412V17.0994C10.7646 17.3906 11.114 17.5329 11.3146 17.3259L13.1199 15.5206C13.2493 15.3912 13.2493 15.1906 13.1199 15.0612L11.3146 13.2559C11.114 13.0553 10.7646 13.1976 10.7646 13.4888V14.6471V14.6471Z" fill="#CACACA"/>
</g>
<defs>
<clipPath id="clip0">
<rect width="15.5294" height="15.5294" fill="white" transform="translate(3 3)"/>
</clipPath>
</defs>
</svg>
