<svg id="레이어_1" data-name="레이어 1" xmlns="http://www.w3.org/2000/svg" viewBox="0 0 160.19 492.02"><defs><style>.cls-1{fill:#fcb381;}.cls-1,.cls-2,.cls-3,.cls-4{stroke:#c65517;stroke-linecap:round;stroke-linejoin:round;stroke-width:2px;}.cls-2{fill:#99b599;}.cls-3{fill:#b8d8bb;}.cls-4{fill:none;}</style></defs><path class="cls-1" d="M92,135c39.17,6.17,67.19,39.69,65.73,77.53C152.36,350.94,119.62,488.86,80,488.86S7.71,350.94,2.37,212.55C.9,174.71,28.92,141.19,68.09,135A75.57,75.57,0,0,1,92,135Z"/><path class="cls-2" d="M30.05,45.77s-50,31.93,54.83,120.69C84.88,166.46,80.05,13.84,30.05,45.77Z"/><path class="cls-2" d="M136.41,30s-50-9.12-51.84,136.44C84.57,166.39,186.4,39.06,136.41,30Z"/><path class="cls-3" d="M64,4.43S7,22.1,84.58,166.5C84.58,166.5,120.93-13.24,64,4.43Z"/><line class="cls-4" x1="4.74" y1="253.54" x2="52.73" y2="253.54"/><line class="cls-4" x1="6.03" y1="267.73" x2="40.43" y2="267.73"/><line class="cls-4" x1="37.35" y1="280.52" x2="51.51" y2="280.52"/><line class="cls-4" x1="96.01" y1="365.33" x2="110.16" y2="365.33"/><line class="cls-4" x1="97.73" y1="337.29" x2="144.84" y2="337.29"/><line class="cls-4" x1="108.45" y1="351.48" x2="134.78" y2="351.48"/></svg>